<svg width="36" height="36" viewBox="0 0 36 36" fill="none" xmlns="http://www.w3.org/2000/svg">
<path d="M18 0C8.06039 0 0 8.06039 0 18C0 27.9396 8.06039 36 18 36C27.9396 36 36 27.9396 36 18C36 8.06039 27.9396 0 18 0Z" fill="#ACACAC"/>
<path d="M21.2527 17.9999C21.2527 19.7964 19.7964 21.2526 18 21.2526C16.2035 21.2526 14.7472 19.7964 14.7472 17.9999C14.7472 16.2034 16.2035 14.7471 18 14.7471C19.7964 14.7471 21.2527 16.2034 21.2527 17.9999Z" fill="white"/>
<path d="M25.6072 12.2448C25.4508 11.8211 25.2013 11.4376 24.8772 11.1228C24.5624 10.7987 24.1791 10.5492 23.7552 10.3928C23.4113 10.2593 22.8948 10.1004 21.9434 10.057C20.9142 10.0101 20.6056 10 18.0001 10C15.3944 10 15.0858 10.0099 14.0569 10.0568C13.1055 10.1004 12.5887 10.2593 12.2451 10.3928C11.8211 10.5492 11.4376 10.7987 11.1231 11.1228C10.7989 11.4376 10.5495 11.8209 10.3928 12.2448C10.2593 12.5887 10.1004 13.1055 10.057 14.0569C10.0101 15.0858 10 15.3944 10 18.0001C10 20.6056 10.0101 20.9142 10.057 21.9434C10.1004 22.8948 10.2593 23.4113 10.3928 23.7552C10.5495 24.1791 10.7987 24.5624 11.1228 24.8772C11.4376 25.2013 11.8209 25.4508 12.2448 25.6072C12.5887 25.741 13.1055 25.8999 14.0569 25.9432C15.0858 25.9901 15.3941 26 17.9999 26C20.6059 26 20.9145 25.9901 21.9431 25.9432C22.8945 25.8999 23.4113 25.741 23.7552 25.6072C24.6062 25.2789 25.2789 24.6062 25.6072 23.7552C25.7407 23.4113 25.8996 22.8948 25.9432 21.9434C25.9901 20.9142 26 20.6056 26 18.0001C26 15.3944 25.9901 15.0858 25.9432 14.0569C25.8999 13.1055 25.741 12.5887 25.6072 12.2448ZM18.0001 23.0107C15.2325 23.0107 12.989 20.7675 12.989 17.9999C12.989 15.2323 15.2325 12.989 18.0001 12.989C20.7675 12.989 23.011 15.2323 23.011 17.9999C23.011 20.7675 20.7675 23.0107 18.0001 23.0107ZM23.2091 13.9619C22.5624 13.9619 22.0381 13.4376 22.0381 12.7909C22.0381 12.1442 22.5624 11.6199 23.2091 11.6199C23.8558 11.6199 24.3801 12.1442 24.3801 12.7909C24.3799 13.4376 23.8558 13.9619 23.2091 13.9619Z" fill="white"/>
</svg>
