<svg width="36" height="36" viewBox="0 0 36 36" fill="none" xmlns="http://www.w3.org/2000/svg">
<path d="M18 36C27.9435 36 36 27.9435 36 18C36 8.0565 27.9435 0 18 0C8.0565 0 0 8.0565 0 18C0 27.9435 8.0565 36 18 36Z" fill="#ACACAC"/>
<path d="M25.668 9.08486L7.93125 16.0182C6.71559 16.5 6.73705 17.1823 7.72277 17.4994L12.2635 18.9355L22.7967 12.2119C23.2857 11.8825 23.7395 12.069 23.3685 12.4L14.8451 20.2069L14.5185 24.9519C14.9938 24.9519 15.2007 24.7421 15.446 24.4934L17.6642 22.3268L22.2632 25.7632C23.1018 26.245 23.7012 25.9963 23.925 24.9737L26.945 10.5489L26.9435 10.5505C27.2102 9.28846 26.4912 8.78334 25.668 9.08486Z" fill="white"/>
</svg>
