<svg width="36" height="36" viewBox="0 0 36 36" fill="none" xmlns="http://www.w3.org/2000/svg">
<path d="M18 36C27.9411 36 36 27.9411 36 18C36 8.05887 27.9411 0 18 0C8.05887 0 0 8.05887 0 18C0 27.9411 8.05887 36 18 36Z" fill="#ACACAC"/>
<path d="M17.9679 24.9943C18.0675 25.0023 18.1675 24.9853 18.2605 24.9445C18.3535 24.9037 18.4371 24.8403 18.5051 24.7587C18.5732 24.6772 18.6239 24.5797 18.6537 24.4734C18.6834 24.3672 18.6914 24.2548 18.677 24.1446C18.6512 22.3646 19.272 21.4063 20.3928 22.6552C21.6327 24.0369 21.8894 24.9943 23.3951 24.9943H26.0617C26.735 24.9943 27 24.7529 27 24.374C27 23.5727 25.8159 22.1585 24.8126 21.1204C23.4077 19.6672 23.3419 19.6328 24.5518 17.8834C26.0526 15.7114 28.0158 12.9286 26.2792 12.9286H22.9619C22.3186 12.9286 22.2719 13.3325 22.0427 13.9342C21.2136 16.1135 19.6378 18.9363 19.0395 18.5046C18.4137 18.0542 18.7003 16.2704 18.7478 13.6194C18.7883 13.4542 18.7946 13.2808 18.7663 13.1124C18.7379 12.9441 18.6756 12.7851 18.584 12.6475C18.4924 12.5099 18.374 12.3972 18.2377 12.318C18.1014 12.2388 17.9507 12.1952 17.797 12.1904C17.3026 12.0637 16.7969 11.9999 16.2896 12C14.3955 12 13.0889 12.8849 13.8313 13.0391C15.1404 13.3111 15.0146 16.4673 14.7096 17.8304C14.178 20.2038 12.1797 15.951 11.3473 13.833C11.3206 13.5705 11.2037 13.3297 11.0212 13.1611C10.8386 12.9925 10.6046 12.9091 10.3682 12.9286H7.65581C7.24583 12.9286 7 13.0771 7 13.4077C8.14716 16.7073 9.77632 19.7727 11.8215 22.4797C14.118 25.2421 16.388 24.9943 17.9679 24.9943Z" fill="white"/>
</svg>
