<svg id="Слой_1" data-name="Слой 1" xmlns="http://www.w3.org/2000/svg" width="31" height="26" viewBox="0 0 31 26"><defs><style>.cls-1{fill:#fff;}</style></defs><title>cart_white</title><path class="cls-1" d="M5.88742,6.5l6.07213-6.1126a1.31633,1.31633,0,0,1,2.24879.9503,1.29551,1.29551,0,0,1-.38621.9243L9.61129,6.5H5.88742Zm15.50129,0h3.72387L19.04046,0.3874a1.31633,1.31633,0,0,0-2.24879.9503,1.29551,1.29551,0,0,0,.38621.9243ZM0,9.1v2.6H0.83054a1.805,1.805,0,0,1,1.62233,1.0192L7.75,26h15.5l5.29842-13.2782A1.80224,1.80224,0,0,1,30.17075,11.7H31V9.1H0Z" transform="translate(0 0)"/></svg>