<svg id="Слой_1" data-name="Слой 1" xmlns="http://www.w3.org/2000/svg" width="29" height="28" viewBox="0 0 29 28"><defs><style>.cls-1{fill:#57854c;}</style></defs><title>cart_contacts</title><path class="cls-1" d="M28.69286,8.06544a1.45118,1.45118,0,0,1,.28791,1.15744L27.765,16.23216a1.32242,1.32242,0,0,1-.49571.90015,1.4979,1.4979,0,0,1-.9758.35377H8.56942l-0.352,1.99343h16.8922a1.46775,1.46775,0,0,1,1.056.43408,1.51964,1.51964,0,0,1,0,2.15426,1.46776,1.46776,0,0,1-1.056.43408H6.42578a1.482,1.482,0,0,1-1.15171-.54664,1.56709,1.56709,0,0,1-.352-1.25392l0.8-4.37274L4.50628,4.04646,1.05116,2.95311A1.4168,1.4168,0,0,1,.17129,2.2138,1.60508,1.60508,0,0,1,.05922,1.05635,1.41129,1.41129,0,0,1,.81121.1721,1.55615,1.55615,0,0,1,1.94684.05954l4.4151,1.41474a1.35418,1.35418,0,0,1,.68769.48222,1.68331,1.68331,0,0,1,.33587.80374l0.256,2.44367L27.669,7.45463a1.423,1.423,0,0,1,1.02382.6108h0ZM8.6973,23.33791a2.215,2.215,0,0,1,1.63153.67516A2.23752,2.23752,0,0,1,11.001,25.6528a2.29158,2.29158,0,0,1-.67214,1.65588,2.271,2.271,0,0,1-3.26313,0,2.29128,2.29128,0,0,1-.67181-1.65588A2.29951,2.29951,0,0,1,8.6973,23.33791h0Zm13.66089,0a2.21622,2.21622,0,0,1,1.63186.67516,2.2385,2.2385,0,0,1,.67181,1.63973,2.2926,2.2926,0,0,1-.67181,1.65588,2.27128,2.27128,0,0,1-3.26339,0,2.29133,2.29133,0,0,1-.67188-1.65588,2.29962,2.29962,0,0,1,2.30341-2.31489h0Zm0,0" transform="translate(0)"/></svg>