<svg id="Слой_1" data-name="Слой 1" xmlns="http://www.w3.org/2000/svg" width="42" height="42" viewBox="0 0 42 42"><defs><style>.cls-1{fill:#e3e3e1;}.cls-2{fill:#518145;}</style></defs><title>eye_cycle</title><circle class="cls-1" cx="21" cy="21" r="21"/><path class="cls-2" d="M24.61458,21.0756a3.61458,3.61458,0,1,1-7.16049-.6968,2.24711,2.24711,0,0,0,2.89769-2.84356A3.83173,3.83173,0,0,1,21,17.47768,3.60683,3.60683,0,0,1,24.61458,21.0756Zm-3.59651-8.39516c-9.1196,0-14.47641,7.85668-14.47641,7.85668s5.82551,8.93365,14.47641,8.93365c9.31718,0,14.44026-8.93365,14.44026-8.93365S30.28828,12.68044,21.01808,12.68044ZM21,27.07215a5.99147,5.99147,0,1,1,.00016,0H21Z" transform="translate(0 -0.0756)"/></svg>