<svg id="Слой_1" data-name="Слой 1" xmlns="http://www.w3.org/2000/svg" width="4.58646mm" height="3.52846mm" viewBox="0 0 13.00099 10.00194"><defs><style>.cls-1{fill:#fff;}</style></defs><title>mail_white</title><path class="cls-1" d="M11.839,10a1.12391,1.12391,0,0,0,.76032-0.28107L8.9171,6.11312c-0.08883.062-.17424,0.12215-0.25531,0.17942Q8.248,6.59085,7.991,6.758a4.21909,4.21909,0,0,1-.68557.34046,2.13167,2.13167,0,0,1-.79842.174H6.493a2.13165,2.13165,0,0,1-.79842-0.174A4.15953,4.15953,0,0,1,5.009,6.758Q4.752,6.5912,4.33824,6.29254c-0.07677-.05515-0.16217-0.116-0.25461-0.18012L0.39992,9.71892A1.12477,1.12477,0,0,0,1.161,10H11.839Z" transform="translate(0.00092 0.00183)"/><path class="cls-1" d="M0.73287,3.84266A3.839,3.839,0,0,1,0,3.22467V8.71079L3.24639,5.53243Q2.2722,4.86635.73287,3.84266h0Z" transform="translate(0.00092 0.00183)"/><path class="cls-1" d="M12.27417,3.84266q-1.482.98187-2.51929,1.691L13,8.71079V3.22467a3.99623,3.99623,0,0,1-.72583.618h0Z" transform="translate(0.00092 0.00183)"/><path class="cls-1" d="M11.839,0H1.161A1.04414,1.04414,0,0,0,.30116.36944,1.41051,1.41051,0,0,0,0,1.29254a1.64,1.64,0,0,0,.39921.9696,3.56983,3.56983,0,0,0,.84843.82021q0.24647,0.17,1.48742,1.01238c0.44651,0.30246.83452,0.56691,1.16873,0.79477,0.2842,0.19409.52975,0.36185,0.73215,0.50133,0.0233,0.01591.05923,0.04137,0.10779,0.0753,0.05219,0.03659.11863,0.08343,0.20042,0.14142Q5.18,5.77434,5.3356,5.877C5.44,5.94607,5.56545,6.02262,5.713,6.10817a2.20435,2.20435,0,0,0,.41744.19145,1.16892,1.16892,0,0,0,.36256.06417H6.507a1.17315,1.17315,0,0,0,.36328-0.06417A2.20427,2.20427,0,0,0,7.287,6.10817c0.14752-.08555.273-0.1621,0.37737-0.23121q0.15653-.10262.39216-0.2694c0.08107-.058.14752-0.10483,0.1997-0.14142,0.04857-.03394.08523-0.0594,0.10852-0.0753C8.522,5.28318,8.76814,5.116,9.09909,4.89092q0.90134-.61331,2.66031-1.80856a3.416,3.416,0,0,0,.88508-0.87343A1.85139,1.85139,0,0,0,13,1.13646a1.07821,1.07821,0,0,0-.34486-0.8029A1.13286,1.13286,0,0,0,11.839,0h0Z" transform="translate(0.00092 0.00183)"/></svg>