<svg id="Слой_1" data-name="Слой 1" xmlns="http://www.w3.org/2000/svg" width="26" height="20.00237" viewBox="0 0 26 20.00237"><defs><style>.cls-1{fill:#57854c;}</style></defs><title>mail_conacts</title><path class="cls-1" d="M23.678,20.0021a2.24765,2.24765,0,0,0,1.52052-.5621L17.83468,12.229c-0.17765.124-.34845,0.24428-0.51058,0.35881q-0.82752.59657-1.34148,0.93083a8.43753,8.43753,0,0,1-1.371.68087,4.263,4.263,0,0,1-1.59672.348h-0.028a4.263,4.263,0,0,1-1.59672-.348,8.31843,8.31843,0,0,1-1.37106-.68087q-0.514-.33354-1.34142-0.93083c-0.15353-.11029-0.32431-0.23188-0.50918-0.36021L0.80161,19.44a2.24937,2.24937,0,0,0,1.522.5621H23.678Z" transform="translate(0 0)"/><path class="cls-1" d="M1.46746,7.68838A7.67742,7.67742,0,0,1,.00183,6.45249V17.4239l6.49229-6.35624Q4.54589,9.73561,1.46746,7.68838h0Z" transform="translate(0 0)"/><path class="cls-1" d="M24.54831,7.68838q-2.96377,1.96359-5.0382,3.38174l6.48975,6.35378V6.45249A7.99184,7.99184,0,0,1,24.54831,7.6884h0v0Z" transform="translate(0 0)"/><path class="cls-1" d="M23.678,0.00362H2.32365A2.08812,2.08812,0,0,0,.60411.74247,2.82081,2.82081,0,0,0,.00183,2.58853,3.27975,3.27975,0,0,0,.80019,4.52758a7.13911,7.13911,0,0,0,1.69673,1.6403q0.4929,0.34,2.97461,2.02461c0.893,0.60487,1.66891,1.13373,2.33728,1.58942,0.56836,0.38815,1.05942.72364,1.46419,1.00258,0.0466,0.03182.11845,0.08273,0.21556,0.15059,0.10437,0.07317.23724,0.16685,0.40081,0.28282q0.47166,0.33356.78284,0.53884c0.20878,0.13815.45967,0.29124,0.75474,0.46233a4.40836,4.40836,0,0,0,.83482.38287,2.33767,2.33767,0,0,0,.72507.12833h0.028a2.34612,2.34612,0,0,0,.7265-0.12833,4.4082,4.4082,0,0,0,.83338-0.38287c0.295-.17109.546-0.32418,0.75468-0.46238q0.313-.20522.78426-0.53876c0.16213-.116.295-0.20964,0.39937-0.28282,0.09713-.06787.17045-0.11879,0.217-0.15059,0.31448-.2153.80672-0.54966,1.46857-0.99976q1.80254-1.22653,5.32022-3.61685a6.83148,6.83148,0,0,0,1.77-1.74673,3.7025,3.7025,0,0,0,.711-2.14478A2.15626,2.15626,0,0,0,25.31019.67071,2.26555,2.26555,0,0,0,23.678.00362h0Z" transform="translate(0 0)"/></svg>