<svg id="Слой_1" data-name="Слой 1" xmlns="http://www.w3.org/2000/svg" xmlns:xlink="http://www.w3.org/1999/xlink" width="3.75617mm" height="4.93889mm" viewBox="0 0 10.64741 14"><defs><style>.cls-1{fill:none;}.cls-2{clip-path:url(#clip-path);}.cls-3{fill:#fff;}</style><clipPath id="clip-path" transform="translate(0 0.00001)"><rect class="cls-1" x="0.00001" y="-0.00001" width="10.65" height="14"/></clipPath></defs><title>user</title><g class="cls-2"><path class="cls-3" d="M5.32421,6.84689c1.55645,0,2.81855-1.53265,2.81855-3.42345S7.72831,0,5.32421,0c-2.4043,0-2.81855,1.5328-2.81855,3.42345s1.262,3.42345,2.81855,3.42345h0Z" transform="translate(0 0.00001)"/><path d="M0.00061,12.074c-0.0006-.1152-0.001-0.0324,0,0h0Z" transform="translate(0 0.00001)"/></g><path class="cls-3" d="M10.64161,11.93594c-0.05215-3.29375-.4824-4.23225-3.774-4.8264A1.97359,1.97359,0,0,1,5.32421,7.7a1.97375,1.97375,0,0,1-1.54355-.59045c-3.25565.5877-3.7121,1.51235-3.772,4.71935a0.75407,0.75407,0,0,1-.008.2451c0.0002,0.057.0004,0.1625,0.0004,0.3461,0,0,.78355,1.5799,5.3232,1.5799,4.53945,0,5.323-1.5799,5.323-1.5799,0-.118.0002-0.2,0.0002-0.25585a2.26608,2.26608,0,0,1-.00585-0.2283h0Z" transform="translate(0 0.00001)"/></svg>