<svg id="Слой_1" data-name="Слой 1" xmlns="http://www.w3.org/2000/svg" xmlns:xlink="http://www.w3.org/1999/xlink" width="23.57641" height="31" viewBox="0 0 23.57641 31"><defs><style>.cls-1{fill:none;}.cls-2{clip-path:url(#clip-path);}.cls-3{fill:#a5a5a5;}</style><clipPath id="clip-path" transform="translate(-0.20891 0)"><rect class="cls-1" x="0.20893" width="23.58214" height="31"/></clipPath></defs><title>user</title><g class="cls-2"><path class="cls-3" d="M11.99823,15.161c3.44642,0,6.24108-3.39372,6.24108-7.5805C18.2393,3.39406,17.32159,0,11.99823,0,6.67442,0,5.75715,3.39406,5.75715,7.5805c0,4.18677,2.79432,7.5805,6.24107,7.5805h0Z" transform="translate(-0.20891 0)"/><path d="M0.21026,26.73529c-0.00133-.25509-0.00221-0.07174,0,0h0Z" transform="translate(-0.20891 0)"/></g><path class="cls-3" d="M23.77247,26.4296c-0.11547-7.2933-1.06817-9.37141-8.35671-10.687A4.37009,4.37009,0,0,1,11.99823,17.05a4.37045,4.37045,0,0,1-3.41786-1.30742c-7.20894,1.30134-8.21965,3.34877-8.3524,10.45a1.66972,1.66972,0,0,1-.01771.54272c0.00044,0.12621.00089,0.35982,0.00089,0.76636,0,0,1.735,3.49835,11.78709,3.49835,10.05164,0,11.78664-3.49835,11.78664-3.49835,0-.26129.00044-0.44286,0.00044-0.56652a5.01775,5.01775,0,0,1-.013-0.50552h0.00011Z" transform="translate(-0.20891 0)"/></svg>