<svg id="Слой_1" data-name="Слой 1" xmlns="http://www.w3.org/2000/svg" width="10.93611mm" height="6.35mm" viewBox="0 0 31 18"><defs><style>.cls-1{fill:#fff;}</style></defs><title>eye_white</title><path class="cls-1" d="M19.375,9a3.875,3.875,0,1,1-7.67637-.747,2.409,2.409,0,0,0,3.10646-3.04843A4.10779,4.10779,0,0,1,15.5,5.14285,3.86669,3.86669,0,0,1,19.375,9ZM15.51938,0C5.74275,0,0,8.42271,0,8.42271S6.24521,18,15.51938,18C25.50783,18,31,8.42271,31,8.42271S25.45746,0,15.51938,0ZM15.5,15.42856a6.42328,6.42328,0,1,1,.00017,0H15.5Z" transform="translate(0 0.00001)"/></svg>