<svg id="Слой_1" data-name="Слой 1" xmlns="http://www.w3.org/2000/svg" width="31" height="18" viewBox="0 0 31 18"><defs><style>.cls-1{fill:#518145;}</style></defs><title>Безымянный-1</title><path class="cls-1" d="M19.375,9a3.875,3.875,0,1,1-7.67637-.747,2.409,2.409,0,0,0,3.10646-3.04843A4.10783,4.10783,0,0,1,15.5,5.14286,3.86669,3.86669,0,0,1,19.375,9ZM15.51938,0C5.74275,0,0,8.42272,0,8.42272S6.24521,18,15.51938,18C25.50783,18,31,8.42272,31,8.42272S25.45746,0,15.51938,0ZM15.5,15.42857A6.42864,6.42864,0,1,1,21.95833,9,6.44338,6.44338,0,0,1,15.5,15.42857Z" transform="translate(0 0)"/></svg>