<svg id="Слой_1" data-name="Слой 1" xmlns="http://www.w3.org/2000/svg" xmlns:xlink="http://www.w3.org/1999/xlink" width="4.09881mm" height="5.28787mm" viewBox="0 0 11.61866 14.98922"><defs><style>.cls-1{fill:none;}.cls-2{clip-path:url(#clip-path);}.cls-3{fill:#fff;}</style><clipPath id="clip-path" transform="translate(0.0018 0.00025)"><rect class="cls-1" x="-1.96809" y="0.5902" width="13.86402" height="13.83168" transform="translate(-3.85367 5.70849) rotate(-45)"/></clipPath></defs><title>phone_white</title><g class="cls-2"><path class="cls-3" d="M5.928,11.61257a0.967,0.967,0,0,0-1.034-1.03394c-0.48013-.00254-0.96281-0.00254-1.44548.00254a0.19987,0.19987,0,0,1-.23321-0.15972l-0.00051-.00286C3.14373,10.17472,3.0472,9.941,2.99131,9.69712A10.66815,10.66815,0,0,1,2.82873,6.2422a5.96954,5.96954,0,0,1,.39121-1.68682,0.212,0.212,0,0,1,.2261-0.155C3.92109,4.408,4.39614,4.4055,4.87627,4.403A0.97368,0.97368,0,0,0,5.933,3.34108c0.00254-.37852,0-0.757.00254-1.13555,0-.39122.00254-0.7799,0-1.16858A0.97472,0.97472,0,0,0,4.89914.00555c-0.48267-.00508-0.96281.00762-1.448-0.00508A1.68006,1.68006,0,0,0,2.285.42472a4.80776,4.80776,0,0,0-1.1889,1.70714A12.48733,12.48733,0,0,0,.05463,6.29808a13.6099,13.6099,0,0,0,.69861,5.70824,6.53619,6.53619,0,0,0,1.25749,2.28889,1.83892,1.83892,0,0,0,1.53947.691c0.43949-.02286.884,0,1.32608-0.00508A0.97673,0.97673,0,0,0,5.933,13.93448c-0.0025-.77482-0.0025-1.5471-0.005-2.32191h0Z" transform="translate(0.0018 0.00025)"/></g><path class="cls-3" d="M7.1813,9.6895l0.87643,0.62239a4.76057,4.76057,0,0,0-.08637-5.60917l-0.86119.6478a3.688,3.688,0,0,1,.07113,4.339h0v0Z" transform="translate(0.0018 0.00025)"/><path class="cls-3" d="M11.61681,7.60131a7.80728,7.80728,0,0,0-1.59028-4.75052l-0.86119.6478a6.82966,6.82966,0,0,1,.12448,8.04031l0.87643,0.62239a7.86033,7.86033,0,0,0,1.45056-4.56h0v0Z" transform="translate(0.0018 0.00025)"/></svg>