<svg id="Слой_1" data-name="Слой 1" xmlns="http://www.w3.org/2000/svg" width="24" height="32" viewBox="0 0 24 32"><defs><style>.cls-1{fill:#57854c;}</style></defs><title>phone_conacts</title><path class="cls-1" d="M14.53067,20.6587l1.87106,1.32872a10.16318,10.16318,0,0,0-.18439-11.97483l-1.83853,1.383a7.87339,7.87339,0,0,1,.15185,9.26319h0v0Z" transform="translate(0 0)"/><path class="cls-1" d="M23.99989,16.20339a16.6675,16.6675,0,0,0-3.395-10.14173l-1.83853,1.383a14.58041,14.58041,0,0,1,.26575,17.165l1.87106,1.32872a16.78076,16.78076,0,0,0,3.09675-9.735h0v0Z" transform="translate(0 0)"/><path class="cls-1" d="M12.65943,24.79183A2.06442,2.06442,0,0,0,10.452,22.58451c-1.025-.00542-2.05547-0.00542-3.08591.00542a0.4267,0.4267,0,0,1-.49787-0.341l-0.0011-.0061C6.7153,21.72219,6.50922,21.22325,6.3899,20.7026a22.77509,22.77509,0,0,1-.34709-7.37579A12.74418,12.74418,0,0,1,6.878,9.72567a0.45259,0.45259,0,0,1,.48269-0.33082C8.37486,9.411,9.389,9.4057,10.414,9.40036A2.07868,2.07868,0,0,0,12.6701,7.1333c0.00542-.80809,0-1.61609.00542-2.42425,0-.8352.00542-1.665,0-2.49476A2.0809,2.0809,0,0,0,10.46287.01239C9.43243,0.00154,8.40739.02866,7.37158,0.00154A3.5867,3.5867,0,0,0,4.88211.90726,10.26393,10.26393,0,0,0,2.344,4.55178,26.65879,26.65879,0,0,0,.12048,13.4461,29.05532,29.05532,0,0,0,1.61192,25.63244a13.9539,13.9539,0,0,0,2.68457,4.88648A3.92585,3.92585,0,0,0,7.58306,31.9941c0.93825-.0488,1.88733,0,2.831-0.01085a2.08519,2.08519,0,0,0,2.256-2.23446c-0.00534-1.65414-.00534-3.30285-0.01067-4.957h0Z" transform="translate(0 0)"/></svg>