<svg id="Слой_1" data-name="Слой 1" xmlns="http://www.w3.org/2000/svg" width="80" height="80" viewBox="0 0 80 80"><defs><style>.cls-1{fill:#fff;}</style></defs><title>lines</title><polygon class="cls-1" points="40.394 0 39.606 0 39.606 5.78 40.394 5.78 40.394 0 40.394 0"/><polygon class="cls-1" points="33.442 0.54 32.667 0.676 33.67 6.369 34.445 6.232 33.442 0.54 33.442 0.54"/><polygon class="cls-1" points="26.689 2.278 25.949 2.547 27.926 7.979 28.666 7.709 26.689 2.278 26.689 2.278"/><polygon class="cls-1" points="20.341 5.163 19.659 5.556 22.549 10.562 23.23 10.168 20.341 5.163 20.341 5.163"/><polygon class="cls-1" points="14.59 9.106 13.988 9.612 17.703 14.039 18.306 13.532 14.59 9.106 14.59 9.106"/><polygon class="cls-1" points="9.612 13.988 9.106 14.59 13.532 18.306 14.039 17.703 9.612 13.988 9.612 13.988"/><polygon class="cls-1" points="5.556 19.659 5.163 20.341 10.168 23.23 10.562 22.549 5.556 19.659 5.556 19.659"/><polygon class="cls-1" points="2.547 25.949 2.278 26.689 7.709 28.666 7.979 27.926 2.547 25.949 2.547 25.949"/><polygon class="cls-1" points="0.676 32.667 0.54 33.442 6.232 34.445 6.369 33.67 0.676 32.667 0.676 32.667"/><polygon class="cls-1" points="0 39.606 0 40.394 5.78 40.394 5.78 39.606 0 39.606 0 39.606"/><polygon class="cls-1" points="0.54 46.558 0.676 47.333 6.369 46.33 6.232 45.555 0.54 46.558 0.54 46.558"/><polygon class="cls-1" points="2.278 53.311 2.547 54.051 7.979 52.074 7.709 51.334 2.278 53.311 2.278 53.311"/><polygon class="cls-1" points="5.163 59.659 5.556 60.341 10.562 57.451 10.168 56.77 5.163 59.659 5.163 59.659"/><polygon class="cls-1" points="9.106 65.41 9.612 66.012 14.039 62.297 13.532 61.694 9.106 65.41 9.106 65.41"/><polygon class="cls-1" points="13.988 70.388 14.59 70.894 18.306 66.468 17.703 65.961 13.988 70.388 13.988 70.388"/><polygon class="cls-1" points="19.659 74.444 20.341 74.838 23.23 69.832 22.549 69.438 19.659 74.444 19.659 74.444"/><polygon class="cls-1" points="25.949 77.453 26.689 77.722 28.666 72.291 27.926 72.021 25.949 77.453 25.949 77.453"/><polygon class="cls-1" points="32.667 79.324 33.442 79.46 34.445 73.768 33.67 73.631 32.667 79.324 32.667 79.324"/><polygon class="cls-1" points="39.606 80 40.394 80 40.394 74.22 39.606 74.22 39.606 80 39.606 80"/><polygon class="cls-1" points="46.558 79.46 47.333 79.324 46.33 73.631 45.555 73.768 46.558 79.46 46.558 79.46"/><polygon class="cls-1" points="53.311 77.722 54.051 77.453 52.074 72.021 51.334 72.291 53.311 77.722 53.311 77.722"/><polygon class="cls-1" points="59.659 74.838 60.341 74.444 57.451 69.438 56.77 69.832 59.659 74.838 59.659 74.838"/><polygon class="cls-1" points="65.41 70.894 66.012 70.388 62.297 65.961 61.694 66.468 65.41 70.894 65.41 70.894"/><polygon class="cls-1" points="70.388 66.012 70.894 65.41 66.468 61.694 65.961 62.297 70.388 66.012 70.388 66.012"/><polygon class="cls-1" points="74.444 60.341 74.837 59.659 69.832 56.77 69.438 57.451 74.444 60.341 74.444 60.341"/><polygon class="cls-1" points="77.453 54.051 77.722 53.311 72.291 51.334 72.021 52.074 77.453 54.051 77.453 54.051"/><polygon class="cls-1" points="79.324 47.333 79.46 46.558 73.768 45.555 73.631 46.33 79.324 47.333 79.324 47.333"/><polygon class="cls-1" points="80 40.394 80 39.606 74.22 39.606 74.22 40.394 80 40.394 80 40.394"/><polygon class="cls-1" points="79.46 33.442 79.324 32.667 73.631 33.67 73.768 34.445 79.46 33.442 79.46 33.442"/><polygon class="cls-1" points="77.722 26.689 77.453 25.949 72.021 27.926 72.291 28.666 77.722 26.689 77.722 26.689"/><polygon class="cls-1" points="74.837 20.341 74.444 19.659 69.438 22.549 69.832 23.23 74.837 20.341 74.837 20.341"/><polygon class="cls-1" points="70.894 14.59 70.388 13.988 65.961 17.703 66.468 18.306 70.894 14.59 70.894 14.59"/><polygon class="cls-1" points="66.012 9.612 65.41 9.106 61.694 13.532 62.297 14.039 66.012 9.612 66.012 9.612"/><polygon class="cls-1" points="60.341 5.556 59.659 5.163 56.77 10.168 57.451 10.562 60.341 5.556 60.341 5.556"/><polygon class="cls-1" points="54.051 2.547 53.311 2.278 51.334 7.709 52.074 7.979 54.051 2.547 54.051 2.547"/><polygon class="cls-1" points="47.333 0.676 46.558 0.54 45.555 6.232 46.33 6.369 47.333 0.676 47.333 0.676"/><polygon class="cls-1" points="40.394 2.016 39.606 2.016 39.606 5.78 40.394 5.78 40.394 2.016 40.394 2.016"/><polygon class="cls-1" points="37.158 2.997 36.373 3.066 36.626 5.944 37.41 5.876 37.158 2.997 37.158 2.997"/><polygon class="cls-1" points="30.776 4.053 30.016 4.257 30.764 7.048 31.524 6.844 30.776 4.053 30.776 4.053"/><polygon class="cls-1" points="24.673 6.202 23.96 6.533 25.181 9.153 25.895 8.82 24.673 6.202 24.673 6.202"/><polygon class="cls-1" points="19.037 9.376 18.393 9.828 20.051 12.194 20.695 11.743 19.037 9.376 19.037 9.376"/><polygon class="cls-1" points="14.037 13.481 13.481 14.037 15.524 16.081 16.081 15.524 14.037 13.481 14.037 13.481"/><polygon class="cls-1" points="9.828 18.393 9.376 19.037 11.743 20.695 12.194 20.051 9.828 18.393 9.828 18.393"/><polygon class="cls-1" points="6.533 23.96 6.202 24.673 8.82 25.895 9.153 25.181 6.533 23.96 6.533 23.96"/><polygon class="cls-1" points="4.257 30.016 4.053 30.776 6.844 31.524 7.048 30.764 4.257 30.016 4.257 30.016"/><polygon class="cls-1" points="3.066 36.373 2.997 37.158 5.876 37.41 5.944 36.626 3.066 36.373 3.066 36.373"/><polygon class="cls-1" points="2.997 42.842 3.066 43.627 5.944 43.374 5.876 42.59 2.997 42.842 2.997 42.842"/><polygon class="cls-1" points="4.053 49.224 4.257 49.984 7.048 49.236 6.844 48.476 4.053 49.224 4.053 49.224"/><polygon class="cls-1" points="6.202 55.327 6.533 56.04 9.153 54.819 8.82 54.105 6.202 55.327 6.202 55.327"/><polygon class="cls-1" points="9.376 60.963 9.828 61.607 12.194 59.949 11.743 59.305 9.376 60.963 9.376 60.963"/><polygon class="cls-1" points="13.481 65.963 14.037 66.519 16.081 64.476 15.524 63.919 13.481 65.963 13.481 65.963"/><polygon class="cls-1" points="18.393 70.172 19.037 70.624 20.695 68.257 20.051 67.806 18.393 70.172 18.393 70.172"/><polygon class="cls-1" points="23.96 73.467 24.673 73.798 25.895 71.18 25.181 70.847 23.96 73.467 23.96 73.467"/><polygon class="cls-1" points="30.016 75.743 30.776 75.947 31.524 73.156 30.764 72.952 30.016 75.743 30.016 75.743"/><polygon class="cls-1" points="36.373 76.934 37.158 77.003 37.41 74.124 36.626 74.056 36.373 76.934 36.373 76.934"/><polygon class="cls-1" points="42.842 77.003 43.627 76.934 43.374 74.056 42.59 74.124 42.842 77.003 42.842 77.003"/><polygon class="cls-1" points="49.224 75.947 49.984 75.743 49.236 72.952 48.476 73.156 49.224 75.947 49.224 75.947"/><polygon class="cls-1" points="55.327 73.798 56.04 73.467 54.819 70.847 54.105 71.18 55.327 73.798 55.327 73.798"/><polygon class="cls-1" points="60.963 70.624 61.607 70.172 59.949 67.806 59.305 68.257 60.963 70.624 60.963 70.624"/><polygon class="cls-1" points="65.963 66.519 66.519 65.963 64.476 63.919 63.919 64.476 65.963 66.519 65.963 66.519"/><polygon class="cls-1" points="70.172 61.607 70.624 60.963 68.257 59.305 67.806 59.949 70.172 61.607 70.172 61.607"/><polygon class="cls-1" points="73.467 56.04 73.798 55.327 71.18 54.105 70.847 54.819 73.467 56.04 73.467 56.04"/><polygon class="cls-1" points="75.743 49.984 75.947 49.224 73.156 48.476 72.952 49.236 75.743 49.984 75.743 49.984"/><polygon class="cls-1" points="76.934 43.627 77.003 42.842 74.124 42.59 74.056 43.374 76.934 43.627 76.934 43.627"/><polygon class="cls-1" points="77.003 37.158 76.934 36.373 74.056 36.626 74.124 37.41 77.003 37.158 77.003 37.158"/><polygon class="cls-1" points="75.947 30.776 75.743 30.016 72.952 30.764 73.156 31.524 75.947 30.776 75.947 30.776"/><polygon class="cls-1" points="73.798 24.673 73.467 23.96 70.847 25.181 71.18 25.895 73.798 24.673 73.798 24.673"/><polygon class="cls-1" points="70.624 19.037 70.172 18.393 67.806 20.051 68.257 20.695 70.624 19.037 70.624 19.037"/><polygon class="cls-1" points="66.519 14.037 65.963 13.481 63.919 15.524 64.476 16.081 66.519 14.037 66.519 14.037"/><polygon class="cls-1" points="61.607 9.828 60.963 9.376 59.305 11.743 59.949 12.194 61.607 9.828 61.607 9.828"/><polygon class="cls-1" points="56.04 6.533 55.327 6.202 54.105 8.82 54.819 9.153 56.04 6.533 56.04 6.533"/><polygon class="cls-1" points="49.984 4.257 49.224 4.053 48.476 6.844 49.236 7.048 49.984 4.257 49.984 4.257"/><polygon class="cls-1" points="43.627 3.066 42.842 2.997 42.59 5.876 43.374 5.944 43.627 3.066 43.627 3.066"/></svg>