<svg id="Слой_1" data-name="Слой 1" xmlns="http://www.w3.org/2000/svg" width="30" height="26" viewBox="0 0 30 26"><defs><style>.cls-1{fill:none;}.cls-2{fill:#57854c;}</style></defs><title>setting</title><rect class="cls-1" width="30" height="26"/><path class="cls-2" d="M23.27273,20.09091a2.36364,2.36364,0,1,1-2.36364-2.36364A2.3645,2.3645,0,0,1,23.27273,20.09091ZM6.72727,16.54545a3.54545,3.54545,0,0,0,0,7.09091H23.27273a3.54545,3.54545,0,1,0,0-7.09091H6.72727Zm22.45455,3.54545A5.90973,5.90973,0,0,1,23.27273,26H6.72727a5.90909,5.90909,0,0,1,0-11.81818H23.27273A5.90973,5.90973,0,0,1,29.18182,20.09091Zm0-14.18182a5.90973,5.90973,0,0,1-5.90909,5.90909H6.72727A5.90909,5.90909,0,0,1,6.72727,0H23.27273A5.90973,5.90973,0,0,1,29.18182,5.90909Zm-17.72727,0A2.36364,2.36364,0,1,0,9.09091,8.27273,2.3645,2.3645,0,0,0,11.45455,5.90909Z"/></svg>