<svg id="Слой_1" data-name="Слой 1" xmlns="http://www.w3.org/2000/svg" width="16.66667" height="20" viewBox="0 0 16.66667 20"><defs><style>.cls-1{fill:#c30001;}</style></defs><title>time</title><path class="cls-1" d="M3.5,11.66667h5v-5A5,5,0,1,1,3.5,11.66667Zm13.33333,0A8.33333,8.33333,0,1,1,8.5,3.33333,8.33371,8.33371,0,0,1,16.83333,11.66667Zm-1.66667,0A6.66667,6.66667,0,1,0,8.5,18.33333,6.67445,6.67445,0,0,0,15.16667,11.66667Zm-5-9.84917V0H6.83333V1.8175A9.31488,9.31488,0,0,1,10.16667,1.8175ZM15.7325,4.77917l1.10083-1.10083L15.655,2.5,14.4825,3.6725A10.11142,10.11142,0,0,1,15.7325,4.77917Z" transform="translate(-0.16667)"/></svg>