<svg id="Слой_1" data-name="Слой 1" xmlns="http://www.w3.org/2000/svg" width="230" height="43.23152" viewBox="0 0 230 43.23152"><defs><style>.cls-1{fill:#293f1b;}.cls-1,.cls-2{fill-rule:evenodd;}.cls-2{fill:#62804a;}</style></defs><title>logo</title><path class="cls-1" d="M85.08328,7.24991l5.05982,15.202H85.08328l-5.06-15.202h5.06Zm15.18061,7.6111,2.52991-7.6111h5.05982l-5.05982,15.202L100.26389,14.861h0Zm-6.32478-.76663-2.77927,8.35751L88.62994,14.861l2.52991-7.6111h5.5584l5.05982,15.202H96.71825l-2.77914-8.35751h0Z" transform="translate(0 -0.76848)"/><path class="cls-1" d="M116.85366,7.24991q2.51942,0,3.54691,3.04846l4.04409,12.15352h-5.06109l-0.8503-2.53106h-3.37919l0.8503-2.52877H117.684l-1.34875-4.06533L113.308,22.45188H108.2482l5.05982-15.202h3.54564Z" transform="translate(0 -0.76848)"/><path class="cls-1" d="M132.41473,14.861v2.53106h1.34761l2.69534,5.05982h5.08106l-2.71658-5.05982h0.16658a2.26461,2.26461,0,0,0,2.55-2.53106v-5.06a2.2545,2.2545,0,0,0-2.55-2.55115H126.3379v15.202h5.05982V9.80105h4.06546a0.87921,0.87921,0,0,1,.99449.99576V14.861h-4.043Z" transform="translate(0 -0.76848)"/><path class="cls-1" d="M153.05558,15.85664a0.8857,0.8857,0,0,1,.99475,1.01573v3.04846H143.93055v2.53106h12.6507a2.25464,2.25464,0,0,0,2.55013-2.55115V15.85664a2.26442,2.26442,0,0,0-2.55013-2.52991h-6.574a0.893,0.893,0,0,1-1.01687-1.01586V9.80105h10.141V7.24991H146.979q-3.04909,0-3.04846,2.55115v3.52568a2.23336,2.23336,0,0,0,2.52991,2.52991h6.59511Z" transform="translate(0 -0.76848)"/><polygon class="cls-1" points="161.523 6.481 161.523 9.033 166.583 9.033 166.583 21.683 171.643 21.683 171.643 9.033 176.724 9.033 176.724 6.481 161.523 6.481 161.523 6.481"/><path class="cls-1" d="M181.64551,22.45188a2.24214,2.24214,0,0,1-2.52991-2.53106V9.80105a2.24834,2.24834,0,0,1,2.52991-2.55115h10.11965a2.25494,2.25494,0,0,1,2.55127,2.55115V19.92083a2.24883,2.24883,0,0,1-2.55127,2.53106H181.64551Zm2.52991-12.65083v9.104a0.89208,0.89208,0,0,0,1.01573,1.01573h4.06546l-0.02136-9.124a0.88636,0.88636,0,0,0-1.01573-.99576h-4.04409Z" transform="translate(0 -0.76848)"/><path class="cls-1" d="M202.78381,14.861v2.53106h1.34888l2.69509,5.05982H211.909l-2.71658-5.05982h0.16543A2.26554,2.26554,0,0,0,211.909,14.861v-5.06a2.25492,2.25492,0,0,0-2.55115-2.55115H196.70813v15.202h5.05982V9.80105h4.06546a0.87967,0.87967,0,0,1,.99437.99576V14.861h-4.044Z" transform="translate(0 -0.76848)"/><path class="cls-1" d="M224.939,14.15592L230,7.24991h-5.061l-2.52991,3.46426,2.52991,3.44175h0Zm-5.57843,8.296h5.05982V14.861l-5.55821-7.6111h-5.05982l5.55821,7.6111v7.59088h0Z" transform="translate(0 -0.76848)"/><path class="cls-2" d="M88.12576,27.68184q2.51923,0,3.54564,3.04846L95.7155,42.88382H90.65567l-0.85042-2.53106H86.42491l0.8503-2.52991h1.67961l-1.34875-4.06431-3.02722,9.12528H79.519l5.05982-15.202h3.54691Z" transform="translate(0 -0.76848)"/><path class="cls-2" d="M107.72965,27.68184h5.07991v15.202H100.13865a2.2422,2.2422,0,0,1-2.52991-2.53106V27.68184h5.05982V39.337a0.89248,0.89248,0,0,0,1.017,1.01573h4.06419l-0.02009-12.67092h0Z" transform="translate(0 -0.76848)"/><path class="cls-2" d="M130.40222,40.35276v2.53106H117.7313a2.2422,2.2422,0,0,1-2.52991-2.53106V27.68184h15.20083v2.55127h-10.141V39.337a0.89244,0.89244,0,0,0,1.01687,1.01573h9.12414Z" transform="translate(0 -0.76848)"/><polygon class="cls-2" points="132.794 26.913 132.794 29.465 137.854 29.465 137.854 42.115 142.914 42.115 142.914 29.465 147.995 29.465 147.995 26.913 132.794 26.913 132.794 26.913"/><polygon class="cls-2" points="150.386 42.115 150.386 26.913 155.446 26.913 155.446 42.115 150.386 42.115 150.386 42.115"/><path class="cls-2" d="M160.381,42.88382a2.24214,2.24214,0,0,1-2.52991-2.53106V30.23312a2.24843,2.24843,0,0,1,2.52991-2.55127h10.12092a2.255,2.255,0,0,1,2.55115,2.55127V40.35276a2.24879,2.24879,0,0,1-2.55115,2.53106H160.381Zm2.53106-12.6507V39.337a0.89159,0.89159,0,0,0,1.01573,1.01573h4.06419l-0.02-9.12414a0.88633,0.88633,0,0,0-1.01573-.99551H162.912Z" transform="translate(0 -0.76848)"/><path class="cls-2" d="M175.44357,29.21612v13.6677h5.05982v-6.0767l-5.05982-7.591h0Zm10.12092,13.6677h5.07979v-15.202h-5.07979v7.6111l-5.06109-7.6111h-5.05982l5.05982,7.6111,5.06109,7.59088h0Z" transform="translate(0 -0.76848)"/><polygon class="cls-1" points="0 4.985 14.74 4.985 28.981 37.22 24.985 43.232 16.896 43.232 0 4.985 0 4.985"/><polygon class="cls-1" points="21.912 4.985 36.653 4.985 50.894 37.22 46.898 43.232 38.809 43.232 21.912 4.985 21.912 4.985"/><path class="cls-2" d="M58.0027,2.2763l2.71785,6.35555a0.99924,0.99924,0,0,0,1.26966.4406l0.48065-.20561a0.99864,0.99864,0,0,0,.52567-1.311L60.35446,1.37514A0.99908,0.99908,0,0,0,59.04221.84947l-0.48078.20561A0.99918,0.99918,0,0,0,58.0027,2.2763h0Z" transform="translate(0 -0.76848)"/><path class="cls-2" d="M63.00365,22.86756l0.04616-.07553,0.0412-.072c0.0295-.04959.052-0.09575,0.07553-0.14305a2.525,2.525,0,0,0,.19608-0.52541,1.78382,1.78382,0,0,0,.01424-0.88717c-0.01653-.06612-0.04018-0.1311-0.06142-0.1948l-0.06625-.19252c-0.04247-.12881-0.0885-0.25508-0.13453-0.38389-0.04489-.12639-0.09219-0.25393-0.13936-0.3802-0.0473-.12767-0.09448-0.25406-0.1442-0.38045-0.09677-.25279-0.19709-0.50316-0.29882-0.75353l-0.15348-.37562-0.15831-.37435q-0.15755-.37212-0.3212-0.74412c-0.10872-.248-0.21973-0.49362-0.33188-0.74056l-0.33913-.737-0.34587-.73344-0.35439-.731-0.35909-.72874L59.804,12.98773l-0.37079-.724c-0.12411-.23982-0.24935-0.48078-0.37689-0.72047s-0.25266-.47951-0.38376-0.71818l-0.37562.16073L57.68036,9.93228l2.1178-.90485-2.71772-6.3567L51.87412,4.89712l2.71772,6.35555,2.1164-.90472L57.045,11.522l-0.37677.1606c0.0838,0.25876.17014,0.515,0.25508,0.77248,0.08507,0.25864.17357,0.51486,0.26093,0.77121l0.267,0.76777,0.27288,0.76536,0.2786,0.76294L58.2874,16.283l0.29068,0.75824,0.29882,0.75353q0.15049,0.37746.307,0.75112c0.10287,0.2505.20917,0.49858,0.31548,0.74768l0.16174,0.37206,0.16416,0.37092c0.111,0.24681.22329,0.49261,0.34027,0.737,0.05658,0.12283.11444,0.24452,0.17471,0.36608,0.05786,0.12182.11813,0.24338,0.1784,0.3638,0.06142,0.12169.12156,0.24338,0.18425,0.36265l0.09448,0.18069c0.03077,0.06015.06129,0.12054,0.09791,0.1784a1.77761,1.77761,0,0,0,.65092.60349,2.55775,2.55775,0,0,0,.51613.221c0.05074,0.01526.09918,0.03064,0.15462,0.04349l0.08163,0.02136,0.08609,0.0178a3.082,3.082,0,0,0,.38859.0543,3.15707,3.15707,0,0,0,.23041-0.319h0Z" transform="translate(0 -0.76848)"/><path class="cls-2" d="M48.67562,6.36884l2.64219,6.17957a1.00053,1.00053,0,0,0,1.31213.52668l0.47964-.20549a0.99993,0.99993,0,0,0,.55974-1.22249L50.9516,5.29284a0.99961,0.99961,0,0,0-1.26966-.4406l-0.48078.20549a0.99742,0.99742,0,0,0-.52554,1.31111h0Z" transform="translate(0 -0.76848)"/></svg>