<svg id="Слой_1" data-name="Слой 1" xmlns="http://www.w3.org/2000/svg" width="81.13889mm" height="15.2513mm" viewBox="0 0 230 43.23205"><defs><style>.cls-1{fill:#fff;}</style></defs><title>logo_white</title><path class="cls-1" d="M85.08328,6.48142l5.05982,15.202H85.08328l-5.06-15.202h5.06Zm15.18061,7.6111,2.52991-7.6111h5.05982l-5.05982,15.202-2.52991-7.59091h0Zm-6.32478-.76663-2.77927,8.35751-2.52991-7.59089,2.52991-7.6111h5.5584l5.05982,15.202H96.71825L93.93911,13.3259h0Z" transform="translate(0 0.00006)"/><path class="cls-1" d="M116.85366,6.48142q2.51942,0,3.54691,3.04846l4.04409,12.15352h-5.06109l-0.8503-2.53106h-3.37919l0.8503-2.52877H117.684l-1.34875-4.06533L113.308,21.68338h-5.0598l5.05982-15.202h3.54564v0Z" transform="translate(0 0.00006)"/><path class="cls-1" d="M132.41473,14.09251v2.53106h1.34761l2.69534,5.05982h5.08105l-2.71658-5.05982h0.16658a2.2646,2.2646,0,0,0,2.55-2.53106v-5.06a2.2545,2.2545,0,0,0-2.55-2.55115H126.3379v15.202h5.05982V9.03256h4.06546a0.87923,0.87923,0,0,1,.99449.99576v4.06419h-4.04294Z" transform="translate(0 0.00006)"/><path class="cls-1" d="M153.05557,15.08815a0.88572,0.88572,0,0,1,.99475,1.01573v3.04846H143.93056v2.53106h12.6507a2.25466,2.25466,0,0,0,2.55013-2.55115v-4.0441a2.26442,2.26442,0,0,0-2.55013-2.52991h-6.574a0.893,0.893,0,0,1-1.01688-1.01586V9.03256h10.141V6.48142H146.979q-3.0491,0-3.04846,2.55115v3.52568a2.23336,2.23336,0,0,0,2.52991,2.52991h6.59512Z" transform="translate(0 0.00006)"/><polygon class="cls-1" points="161.523 6.481 161.523 9.033 166.583 9.033 166.583 21.683 171.643 21.683 171.643 9.033 176.724 9.033 176.724 6.481 161.523 6.481 161.523 6.481"/><path class="cls-1" d="M181.64551,21.68338a2.24215,2.24215,0,0,1-2.52991-2.53106V9.03256a2.24834,2.24834,0,0,1,2.52991-2.55115h10.11964a2.25494,2.25494,0,0,1,2.55127,2.55115V19.15234a2.24883,2.24883,0,0,1-2.55127,2.53106H181.64551Zm2.52991-12.65083v9.104a0.89208,0.89208,0,0,0,1.01573,1.01573h4.06546l-0.02136-9.124a0.88636,0.88636,0,0,0-1.01573-.99576h-4.04408Z" transform="translate(0 0.00006)"/><path class="cls-1" d="M202.78381,14.09251v2.53106h1.34888l2.69508,5.05982H211.909l-2.71658-5.05982h0.16544a2.26555,2.26555,0,0,0,2.55115-2.53106v-5.06a2.25492,2.25492,0,0,0-2.55115-2.55115H196.70813v15.202h5.05981V9.03256h4.06546a0.87969,0.87969,0,0,1,.99437.99576v4.06419h-4.044Z" transform="translate(0 0.00006)"/><path class="cls-1" d="M224.939,13.38743L230,6.48142h-5.061l-2.52991,3.46426,2.52991,3.44175h0Zm-5.57843,8.296h5.05981V14.09251l-5.55821-7.6111h-5.05981l5.55821,7.6111v7.59088h0v0Z" transform="translate(0 0.00006)"/><path class="cls-1" d="M88.12576,26.91335q2.51922,0,3.54564,3.04846l4.0441,12.15352H90.65567l-0.85042-2.53106H86.42491l0.8503-2.52991h1.67961L87.60608,32.99l-3.02722,9.12528H79.519l5.05982-15.202h3.54691Z" transform="translate(0 0.00006)"/><path class="cls-1" d="M107.72965,26.91335h5.07991v15.202H100.13865a2.24221,2.24221,0,0,1-2.52991-2.53106V26.91335h5.05982V38.56851a0.89248,0.89248,0,0,0,1.017,1.01573h4.06419l-0.02009-12.67092h0Z" transform="translate(0 0.00006)"/><path class="cls-1" d="M130.40222,39.58427v2.53106H117.7313a2.24221,2.24221,0,0,1-2.52991-2.53106V26.91335h15.20083v2.55127h-10.141v9.10389a0.89244,0.89244,0,0,0,1.01687,1.01573h9.12415Z" transform="translate(0 0.00006)"/><polygon class="cls-1" points="132.794 26.913 132.794 29.465 137.854 29.465 137.854 42.115 142.914 42.115 142.914 29.465 147.995 29.465 147.995 26.913 132.794 26.913 132.794 26.913"/><polygon class="cls-1" points="150.386 42.115 150.386 26.913 155.446 26.913 155.446 42.115 150.386 42.115 150.386 42.115"/><path class="cls-1" d="M160.381,42.11532a2.24215,2.24215,0,0,1-2.52991-2.53106V29.46463a2.24843,2.24843,0,0,1,2.52991-2.55127h10.12093a2.255,2.255,0,0,1,2.55115,2.55127V39.58427a2.24878,2.24878,0,0,1-2.55115,2.53106H160.381Zm2.53107-12.6507v9.10388a0.89159,0.89159,0,0,0,1.01573,1.01573H167.992l-0.02-9.12414a0.88633,0.88633,0,0,0-1.01573-.99551H162.912Z" transform="translate(0 0.00006)"/><path class="cls-1" d="M175.44357,28.44763v13.6677h5.05981v-6.0767l-5.05981-7.591h0Zm10.12093,13.6677h5.07979v-15.202H185.5645v7.6111l-5.0611-7.6111h-5.05981l5.05981,7.6111,5.0611,7.59088h0v0Z" transform="translate(0 0.00006)"/><polygon class="cls-1" points="0 4.985 14.74 4.985 28.981 37.22 24.985 43.232 16.896 43.232 0 4.985 0 4.985"/><polygon class="cls-1" points="21.912 4.985 36.653 4.985 50.894 37.22 46.898 43.232 38.809 43.232 21.912 4.985 21.912 4.985"/><path class="cls-1" d="M58.0027,1.50781l2.71785,6.35555a0.99924,0.99924,0,0,0,1.26966.4406l0.48065-.20561a0.99864,0.99864,0,0,0,.52576-1.31078l-0.0001-.00022-2.64207-6.1807A0.99908,0.99908,0,0,0,59.04314.08058l-0.00093.0004-0.48078.20561a0.99918,0.99918,0,0,0-.55873,1.22122h0Z" transform="translate(0 0.00006)"/><path class="cls-1" d="M63.00365,22.09906l0.04616-.07553,0.0412-.072c0.0295-.04959.052-0.09575,0.07553-0.143a2.52491,2.52491,0,0,0,.19608-0.52541,1.78384,1.78384,0,0,0,.01424-0.88717c-0.01653-.06612-0.04018-0.1311-0.06142-0.1948l-0.06625-.19252c-0.04247-.12881-0.0885-0.25508-0.13453-0.38389-0.04489-.12639-0.09219-0.25393-0.13936-0.3802-0.0473-.12767-0.09448-0.25406-0.1442-0.38045-0.09677-.25279-0.19709-0.50316-0.29882-0.75353L62.3788,17.7349l-0.15831-.37435q-0.15755-.37212-0.3212-0.74412c-0.10872-.248-0.21973-0.49362-0.33188-0.74056l-0.33913-.737-0.34587-.73344-0.35439-.731-0.35909-.72874L59.804,12.21924l-0.37079-.724c-0.12411-.23982-0.24935-0.48078-0.37689-0.72047s-0.25266-.47951-0.38376-0.71818l-0.37562.16073L57.68036,9.16378l2.1178-.90485-2.71772-6.3567L51.87412,4.12863l2.71772,6.35555,2.1164-.90472L57.045,10.75351l-0.37677.1606c0.0838,0.25876.17014,0.515,0.25508,0.77248,0.08507,0.25864.17357,0.51486,0.26093,0.77121l0.267,0.76777,0.27288,0.76536,0.2786,0.76294,0.28468,0.76064,0.29068,0.75824,0.29882,0.75353q0.15048,0.37746.307,0.75112c0.10287,0.2505.20917,0.49858,0.31548,0.74768l0.16174,0.37206,0.16416,0.37092c0.111,0.24681.22329,0.49261,0.34027,0.737,0.05658,0.12283.11444,0.24452,0.17471,0.36608,0.05786,0.12182.11813,0.24338,0.1784,0.3638,0.06142,0.12169.12156,0.24338,0.18425,0.36265l0.09448,0.18069c0.03077,0.06015.06129,0.12054,0.09791,0.1784a1.7776,1.7776,0,0,0,.65092.60349,2.55772,2.55772,0,0,0,.51613.221c0.05074,0.01526.09918,0.03064,0.15462,0.04349L62.2986,22.346l0.08609,0.0178a3.08215,3.08215,0,0,0,.38859.0543,3.15694,3.15694,0,0,0,.23041-0.319h0Z" transform="translate(0 0.00006)"/><path class="cls-1" d="M48.67562,5.60035l2.64219,6.17957a1.00053,1.00053,0,0,0,1.31213.52668l0.47964-.20549a0.99993,0.99993,0,0,0,.55974-1.22249L50.9516,4.52435a0.99961,0.99961,0,0,0-1.26966-.4406l-0.48078.20549a0.99742,0.99742,0,0,0-.52663,1.30857l0.00109,0.00254h0Z" transform="translate(0 0.00006)"/></svg>