<svg id="Слой_1" data-name="Слой 1" xmlns="http://www.w3.org/2000/svg" width="36" height="36" viewBox="0 0 36 36"><defs><style>.cls-1{fill:#72c2fd;}.cls-2{fill:#fff;}</style></defs><title>tw</title><circle class="cls-1" cx="18" cy="18" r="18"/><path class="cls-2" d="M27.05072,12.73153a6.95854,6.95854,0,0,1-2.00178.54858,3.491,3.491,0,0,0,1.53248-1.92816,6.98188,6.98188,0,0,1-2.21342.84587A3.48761,3.48761,0,0,0,18.42849,15.376a9.89434,9.89434,0,0,1-7.18318-3.64114,3.48993,3.48993,0,0,0,1.078,4.65336,3.47054,3.47054,0,0,1-1.57778-.436,3.48787,3.48787,0,0,0,2.79527,3.46135,3.4934,3.4934,0,0,1-1.57424.05946,3.4879,3.4879,0,0,0,3.25607,2.42011,7.0078,7.0078,0,0,1-5.16017,1.444,9.91255,9.91255,0,0,0,15.249-8.80131A7.09586,7.09586,0,0,0,27.05072,12.73153Z"/></svg>