<svg id="Слой_1" data-name="Слой 1" xmlns="http://www.w3.org/2000/svg" width="36" height="36" viewBox="0 0 36 36"><defs><style>.cls-1{fill:#7795c4;}.cls-2{fill:#fff;}</style></defs><title>vk</title><circle class="cls-1" cx="18" cy="18" r="18"/><path class="cls-2" d="M19.0748,24.464a0.74186,0.74186,0,0,0,.78747-0.8467c-0.02869-1.7739.6607-2.72886,1.9053-1.48426,1.37692,1.37692,1.66193,2.331,3.334,2.331h2.96112c0.74768,0,1.04194-.24059,1.04194-0.61813,0-.79858-1.31492-2.20789-2.429-3.24243-1.56014-1.44817-1.63324-1.48241-.28963-3.22577C28.05254,15.21325,30.23267,12.44,28.30424,12.44H24.62042c-0.71437,0-.76619.40253-1.02066,1.00215-0.92072,2.1718-2.67056,4.98486-3.335,4.55457-0.69494-.44879-0.37662-2.22639-0.32387-4.86827a1.12747,1.12747,0,0,0-1.05582-1.42411,7.46747,7.46747,0,0,0-1.674-.1897c-2.10332,0-3.55427.88186-2.72978,1.03547,1.45373,0.27113,1.314,3.41639.97532,4.77481-0.59037,2.3652-2.80936-1.87291-3.73379-3.98363A1.01875,1.01875,0,0,0,10.6356,12.44h-3.012c-0.45527,0-.72825.14806-0.72825,0.47748a31.97022,31.97022,0,0,0,5.35408,9.04067C14.79968,24.711,17.32033,24.464,19.0748,24.464Z"/></svg>