<svg width="30" height="30" viewBox="0 0 30 30" fill="none" xmlns="http://www.w3.org/2000/svg">
<path d="M28.6995 8.77713C28.8224 8.93288 28.9107 9.11293 28.9586 9.30535C29.0065 9.49777 29.0129 9.69816 28.9774 9.89325L27.8038 16.6523C27.786 16.8216 27.7346 16.9856 27.6524 17.1346C27.5702 17.2837 27.459 17.4148 27.3253 17.5203C27.062 17.7425 26.7279 17.8635 26.3833 17.8614H9.27323L8.93343 19.7837H25.2404C25.4297 19.7819 25.6174 19.818 25.7925 19.8899C25.9676 19.9618 26.1265 20.068 26.2598 20.2023C26.3968 20.3385 26.5055 20.5003 26.5797 20.6786C26.6538 20.8568 26.692 21.0479 26.692 21.241C26.692 21.434 26.6538 21.6251 26.5797 21.8034C26.5055 21.9816 26.3968 22.1435 26.2598 22.2796C26.1265 22.4139 25.9676 22.5201 25.7925 22.592C25.6174 22.6639 25.4297 22.7 25.2404 22.6982H7.20386C6.99095 22.6985 6.78066 22.6514 6.58831 22.5602C6.39597 22.469 6.22643 22.3361 6.09205 22.1711C5.95193 22.0057 5.84907 21.8121 5.79044 21.6035C5.73181 21.3948 5.71878 21.176 5.75225 20.9619L6.52453 16.7453L5.35086 4.90164L2.01544 3.84732C1.83186 3.79435 1.66143 3.70354 1.51513 3.58075C1.36884 3.45796 1.24992 3.30591 1.16605 3.1344C0.991598 2.78895 0.953 2.39075 1.05787 2.01828C1.11143 1.83286 1.20385 1.66094 1.32901 1.51393C1.45417 1.36692 1.6092 1.24819 1.7838 1.1656C2.12229 0.992046 2.51409 0.953255 2.88009 1.05705L7.14223 2.42129C7.40726 2.50209 7.63974 2.66492 7.8061 2.88629C7.98038 3.11175 8.0922 3.37905 8.13033 3.66134L8.37746 6.01776L27.7111 8.18813C27.9087 8.20907 28.0994 8.27257 28.27 8.37425C28.4407 8.47594 28.5872 8.61339 28.6995 8.77712V8.77712L28.6995 8.77713ZM9.39668 23.5044C9.68987 23.4992 9.98099 23.5543 10.2519 23.6663C10.5229 23.7783 10.7679 23.9448 10.9717 24.1554C11.1819 24.3609 11.3479 24.6072 11.4595 24.8791C11.5711 25.151 11.6259 25.4428 11.6206 25.7366C11.625 26.0326 11.5699 26.3265 11.4584 26.6008C11.3469 26.8751 11.1814 27.1242 10.9717 27.3334C10.7673 27.5443 10.5225 27.7119 10.252 27.8265C9.9814 27.941 9.69054 28 9.39668 28C9.10282 28 8.81196 27.941 8.54139 27.8265C8.27081 27.7119 8.02605 27.5443 7.82164 27.3334C7.61197 27.1242 7.44652 26.875 7.33511 26.6007C7.22371 26.3264 7.16861 26.0326 7.1731 25.7366C7.17114 25.4438 7.22724 25.1536 7.33815 24.8826C7.44906 24.6116 7.6126 24.3653 7.81932 24.1577C8.02605 23.9502 8.27187 23.7856 8.54259 23.6735C8.81332 23.5613 9.1036 23.5039 9.39668 23.5044ZM22.5843 23.5044C22.8775 23.4992 23.1687 23.5544 23.4397 23.6664C23.7107 23.7784 23.9557 23.9448 24.1596 24.1554C24.3698 24.361 24.5357 24.6073 24.6472 24.8792C24.7587 25.1511 24.8135 25.4428 24.8082 25.7366C24.8126 26.0326 24.7575 26.3264 24.646 26.6007C24.5346 26.875 24.3692 27.1241 24.1596 27.3334C23.9552 27.5443 23.7104 27.7119 23.4398 27.8265C23.1692 27.941 22.8783 28 22.5845 28C22.2906 28 21.9997 27.941 21.7291 27.8265C21.4585 27.7119 21.2137 27.5443 21.0093 27.3334C20.7996 27.1242 20.6342 26.875 20.5227 26.6007C20.4113 26.3265 20.3562 26.0326 20.3607 25.7366C20.3587 25.4438 20.4149 25.1536 20.5258 24.8826C20.6367 24.6116 20.8002 24.3653 21.007 24.1578C21.2137 23.9502 21.4595 23.7856 21.7302 23.6735C22.0009 23.5614 22.2912 23.5039 22.5843 23.5044V23.5044V23.5044Z" fill="#57854C"/>
</svg>
