<svg width="30" height="30" viewBox="0 0 30 30" fill="none" xmlns="http://www.w3.org/2000/svg">
<path d="M17 15C17 16.1045 16.1045 17 15 17C13.8955 17 13 16.1045 13 15C13 13.8955 13.8955 13 15 13C16.1045 13 17 13.8955 17 15Z" fill="#57854C"/>
<path d="M18.9118 8H11.0882C9.38528 8 8 9.38528 8 11.0882V18.9118C8 20.6147 9.38528 22 11.0882 22H18.9118C20.6147 22 22 20.6147 22 18.9118V11.0882C22 9.38528 20.6147 8 18.9118 8ZM15 18.8603C12.8714 18.8603 11.1397 17.1286 11.1397 15C11.1397 12.8714 12.8714 11.1397 15 11.1397C17.1286 11.1397 18.8603 12.8714 18.8603 15C18.8603 17.1286 17.1286 18.8603 15 18.8603ZM19.4265 11.3456C19 11.3456 18.6544 11 18.6544 10.5735C18.6544 10.1471 19 9.80147 19.4265 9.80147C19.8529 9.80147 20.1985 10.1471 20.1985 10.5735C20.1985 11 19.8529 11.3456 19.4265 11.3456Z" fill="#57854C"/>
<path d="M21.1445 2H8.85547C5.07544 2 2 5.07544 2 8.85547V21.1445C2 24.9246 5.07544 28 8.85547 28H21.1445C24.9246 28 28 24.9246 28 21.1445V8.85547C28 5.07544 24.9246 2 21.1445 2ZM23.4297 18.8594C23.4297 21.3794 21.3794 23.4297 18.8594 23.4297H11.1406C8.62061 23.4297 6.57031 21.3794 6.57031 18.8594V11.1406C6.57031 8.62061 8.62061 6.57031 11.1406 6.57031H18.8594C21.3794 6.57031 23.4297 8.62061 23.4297 11.1406V18.8594Z" fill="#57854C"/>
</svg>
