<svg width="30" height="30" viewBox="0 0 30 30" fill="none" xmlns="http://www.w3.org/2000/svg">
<path d="M25.6772 26.002C26.2363 26.0103 26.7784 25.8099 27.1977 25.4399L19.8339 17.2289C19.6562 17.3529 19.4854 17.4732 19.3233 17.5877C18.7716 17.9855 18.3244 18.2957 17.9818 18.5186C17.5464 18.7866 17.0875 19.0145 16.6108 19.1994C16.106 19.4173 15.5638 19.5355 15.0141 19.5474H14.9861C14.4364 19.5355 13.8942 19.4173 13.3894 19.1994C12.9124 19.0151 12.4534 18.7872 12.0183 18.5186C11.6756 18.2962 11.2285 17.9859 10.6769 17.5877C10.5233 17.4775 10.3526 17.3559 10.1677 17.2275L2.80078 25.4399C3.22052 25.8101 3.76319 26.0105 4.32278 26.002H25.6772Z" fill="#57854C"/>
<path d="M3.46758 12.6884C2.92932 12.3393 2.43694 11.9241 2.00195 11.4525V23.4239L8.49424 16.0677C7.19542 15.1797 5.51987 14.0532 3.46758 12.6884Z" fill="#57854C"/>
<path d="M26.548 12.6884C24.5721 13.9975 22.8927 15.1247 21.5098 16.0701L27.9995 23.4239V11.4525C27.5667 11.9209 27.0794 12.3358 26.548 12.6884Z" fill="#57854C"/>
<path d="M25.678 4.00362H4.32365C3.99931 3.9845 3.67498 4.04134 3.37647 4.16961C3.07795 4.29787 2.81349 4.49403 2.60411 4.74247C2.1912 5.26715 1.97779 5.92129 2.00183 6.58853C2.04858 7.30483 2.32905 8.98601 2.80019 9.52758C3.27085 10.1647 3.84426 10.719 4.49692 11.1679C4.82552 11.3945 5.81706 12.0694 7.47153 13.1925C8.36453 13.7974 9.14044 14.3262 9.80881 14.7819C10.3772 15.1701 10.8682 15.5055 11.273 15.7845C11.3196 15.8163 11.3915 15.8672 11.4886 15.9351C11.5929 16.0082 11.7258 16.1019 11.8894 16.2179C12.2038 16.4403 12.4648 16.6199 12.6722 16.7567C12.881 16.8949 13.1319 17.048 13.427 17.2191C13.6911 17.3754 13.9709 17.5037 14.2618 17.6019C14.4952 17.6827 14.7399 17.7261 14.9868 17.7303H15.0148C15.2623 17.7261 15.5075 17.6828 15.7413 17.6019C16.0317 17.5036 16.311 17.3753 16.5747 17.2191C16.8697 17.048 17.1207 16.8949 17.3294 16.7567C17.5381 16.6199 17.7995 16.4403 18.1137 16.2179C18.2758 16.1019 18.4087 16.0083 18.513 15.9351C18.6102 15.8672 18.6835 15.8163 18.73 15.7845C19.0445 15.5692 19.5368 15.2349 20.1986 14.7848C21.4003 13.9671 23.1737 12.7615 25.5188 11.1679C26.2107 10.6989 26.8107 10.1068 27.2888 9.42118C27.7435 8.7978 27.9921 7.04794 27.9998 6.2764C28.0033 5.97545 27.9437 5.6771 27.825 5.40056C27.7062 5.12401 27.5308 4.8754 27.3102 4.67071C27.0965 4.45606 26.842 4.28644 26.5617 4.17186C26.2813 4.05728 25.9808 4.00007 25.678 4.00362Z" fill="#57854C"/>
</svg>
