<svg width="30" height="30" viewBox="0 0 30 30" fill="none" xmlns="http://www.w3.org/2000/svg">
<path d="M19.0533 19L20.0002 20C20.89 18.3457 22.1451 16.4656 22 14C21.8765 11.9006 21.0662 10.5357 20 9.00003L19.0532 10.2693C19.8777 11.457 20.3622 12.4435 20.5 14C20.6793 16.0248 19.7393 17.7189 19.0533 19Z" fill="#57854C"/>
<path d="M26 14C25.9927 10.844 24.7844 9.12692 23 6.99996L22.0437 8.04274C23.5384 9.8415 24.4626 11.3363 24.5 14C24.5388 16.7617 23.3211 19.0416 22.0445 21L23 22C24.4509 19.7903 26.0072 17.1137 26 14Z" fill="#57854C"/>
<path d="M16.9843 22.0626C17.0045 21.8194 16.9642 21.5752 16.8663 21.3466C16.7684 21.1181 16.6152 20.9106 16.417 20.7381C16.2187 20.5656 15.9802 20.4323 15.7175 20.3471C15.4549 20.262 15.1742 20.227 14.8946 20.2445C13.9243 20.24 12.9488 20.24 11.9733 20.2489C11.9211 20.2574 11.8676 20.2569 11.8157 20.2474C11.7638 20.2378 11.7145 20.2195 11.6708 20.1934C11.627 20.1674 11.5896 20.134 11.5606 20.0954C11.5316 20.0567 11.5117 20.0134 11.502 19.9681L11.5009 19.963C11.3572 19.5342 11.1621 19.1232 11.0492 18.6943C10.5605 16.6982 10.4496 14.6461 10.7206 12.6189C10.817 11.602 10.8472 10.9611 11.275 10.011C11.3018 9.9259 11.3624 9.85179 11.4461 9.80189C11.5298 9.75199 11.6311 9.72954 11.732 9.73854C12.6921 9.75184 13.8887 9.74294 14.8591 9.73854C15.147 9.76113 15.437 9.72827 15.7087 9.64228C15.9803 9.5563 16.2268 9.4193 16.4307 9.24103C16.6346 9.06276 16.7909 8.8476 16.8884 8.61084C16.9859 8.37408 17.0222 8.12153 16.9949 7.87116C17 7.20554 16.9949 6.53999 17 5.87431C17 5.18635 17.0051 4.50285 17 3.81937C17.0168 3.57661 16.9741 3.33351 16.8747 3.10622C16.7752 2.87893 16.6213 2.67266 16.4232 2.50111C16.2251 2.32956 15.9873 2.19666 15.7256 2.11124C15.4639 2.02581 15.1843 1.98983 14.9053 2.00567C13.9299 1.99673 12.7229 2.02361 11.7423 2.00127C10.8761 1.97917 10.0329 2.24607 9.38557 2.74731C8.34245 3.58341 7.52233 4.60805 6.9828 5.7493C5.80019 8.0673 5.32421 10.1876 5.11406 12.7172C4.75759 16.1124 5.23897 19.5348 6.52596 22.7551C7.05329 24.2318 7.91768 25.6008 9.06738 26.78C9.43685 27.184 9.9121 27.505 10.4534 27.7164C10.9947 27.9278 11.5863 28.0234 12.1787 27.9952C13.0669 27.955 13.9654 27.9952 14.8587 27.9862C15.1435 28.0073 15.4302 27.9743 15.6989 27.8895C15.9677 27.8047 16.212 27.6702 16.4151 27.4951C16.6182 27.3201 16.7752 27.1088 16.8752 26.8758C16.9752 26.6428 17.0159 26.3937 16.9944 26.1457C16.9894 24.7832 16.9894 23.4252 16.9843 22.0626Z" fill="#57854C"/>
</svg>
