<?xml version="1.0" standalone="no"?>
<!DOCTYPE svg PUBLIC "-//W3C//DTD SVG 1.1//EN" "http://www.w3.org/Graphics/SVG/1.1/DTD/svg11.dtd" >
<svg>
<metadata>
Created by FontForge 20120731 at Thu Jun  9 10:26:07 2016
 By www
(c) 2009 Microsoft Corporation. All Rights Reserved.
</metadata>
<defs>
<font id="Constantia-Italic" horiz-adv-x="0" >
  <font-face 
    font-family="Constantia"
    font-weight="400"
    font-style="italic"
    font-stretch="normal"
    units-per-em="2048"
    panose-1="2 3 6 2 5 3 6 10 3 3"
    ascent="1538"
    descent="-510"
    x-height="917"
    cap-height="1400"
    bbox="-696 -508 2409 2091"
    underline-thickness="102"
    underline-position="-103"
    slope="-11"
    unicode-range="U+000D-FB04"
  />
<missing-glyph horiz-adv-x="995" 
d="M995 1396v-1396h-995v1396h995zM898 98v1201h-800v-1201h800zM437 455l-2 33q0 133 41 187t73 84q61 62 78.5 94t17.5 73q0 75 -44.5 118.5t-102.5 43.5q-62 0 -105.5 -42.5t-55.5 -141.5l-96 15q15 136 87 201.5t175 65.5q104 0 173 -66t69 -185q0 -66 -24 -115
t-97 -120q-73 -65 -85.5 -106t-12.5 -134zM416 291q0 29 20 49.5t49 20.5t49.5 -20.5t20.5 -49.5q0 -30 -20.5 -49.5t-49.5 -19.5t-49 19.5t-20 49.5z" />
    <glyph glyph-name="f_b.liga" unicode="fb" horiz-adv-x="1652" 
d="M685 34q13 51 23.5 99.5t60.5 295.5l192 942q-71 43 -171 43q-119 0 -199 -101.5t-135 -374.5l-7 -35h262l-18 -90h-261l-154 -745q-59 -297 -163 -429.5t-285 -132.5q-67 0 -152 20q17 94 41 178l7 3q132 -100 187 -100q118 0 171 293l168 917l-132 29l3 43l144 13l2 10
q55 277 203 431.5t352 154.5q100 0 189 -24q70 15 142 32l9 -12q-18 -75 -42.5 -192.5t-54.5 -255.5l-46 -225q210 116 275 116q116 0 195 -94t79 -249q0 -260 -160.5 -438.5t-400.5 -178.5q-179 0 -324 57zM869 78q80 -21 152 -21q152 0 256.5 152.5t104.5 338.5
q0 108 -40.5 183t-113.5 75q-93 0 -224 -64z" />
    <glyph glyph-name="f_f_b.liga" unicode="ffb" horiz-adv-x="2235" 
d="M850 901l2 11q55 277 203 431.5t352 154.5q100 0 189 -24q70 15 142 32l9 -12q-18 -75 -42.5 -192.5t-54.5 -255.5l-46 -225q210 116 275 116q116 0 195 -94t79 -249q0 -260 -160.5 -438.5t-400.5 -178.5q-179 0 -324 57q13 51 23.5 99.5t60.5 295.5l192 942
q-71 43 -171 43q-119 0 -199 -101.5t-135 -374.5l-7 -37h252l-18 -88h-251l-150 -725q-59 -297 -163 -429.5t-285 -132.5q-67 0 -152 20q17 94 41 178l7 3q132 -100 187 -100q118 0 171 293l163 893h-402l-154 -745q-59 -297 -163 -429.5t-285 -132.5q-67 0 -152 20
q17 94 41 178l7 3q132 -100 187 -100q118 0 171 293l168 917l-132 29l3 43l144 13q55 270 202 423t351 153q94 0 178 -27q-34 -115 -57 -249l-42 -7l-63 194q-18 5 -50 5q-119 0 -199 -101.5t-135 -374.5l-3 -17h401zM1452 78q80 -21 152 -21q152 0 256.5 152.5t104.5 338.5
q0 108 -40.5 183t-113.5 75q-93 0 -224 -64z" />
    <glyph glyph-name="uniFB00" unicode="ff" horiz-adv-x="1199" 
d="M252 817l-132 29l3 43l144 13q55 270 202 423t351 153q94 0 178 -27q-34 -115 -57 -249l-42 -7l-63 194q-18 5 -50 5q-119 0 -199 -101.5t-135 -374.5l-3 -17h401l2 11q55 277 203 431.5t352 154.5q94 0 178 -27q-34 -115 -57 -249l-42 -7l-63 194q-18 5 -50 5
q-119 0 -199 -101.5t-135 -374.5l-7 -37h252l-18 -88h-251l-150 -725q-59 -297 -163 -429.5t-285 -132.5q-67 0 -152 20q17 94 41 178l7 3q132 -100 187 -100q118 0 171 293l163 893h-402l-154 -745q-59 -297 -163 -429.5t-285 -132.5q-67 0 -152 20q17 94 41 178l7 3
q132 -100 187 -100q118 0 171 293z" />
    <glyph glyph-name="f_h.liga" unicode="fh" horiz-adv-x="1726" 
d="M679 -5l283 1376q-71 43 -172 43q-119 0 -199 -101.5t-135 -374.5l-7 -35h262l-18 -90h-261l-154 -745q-59 -297 -163 -429.5t-285 -132.5q-67 0 -152 20q17 94 41 178l7 3q132 -100 187 -100q118 0 171 293l168 917l-132 29l3 43l144 13l2 10q55 277 203 431.5
t352 154.5q101 0 191 -25q71 16 143 33l8 -12q-18 -75 -42.5 -192.5t-52.5 -256.5l-49 -229q196 123 349 123q106 0 162.5 -56t56.5 -152q0 -45 -10 -92l-103 -475q-2 -11 -3 -20t-1 -16q0 -40 33 -52.5t112 -12.5l-3 -39q-128 -42 -202 -42q-58 0 -89 28.5t-31 88.5
q0 28 9 70l94 433q10 42 10 79q0 63 -32 98t-107 35q-121 0 -261 -82l-150 -727z" />
    <glyph glyph-name="f_f_h.liga" unicode="ffh" horiz-adv-x="2308" 
d="M1261 -5l283 1376q-71 43 -171 43q-119 0 -199 -101.5t-135 -374.5l-7 -37h252l-18 -88h-251l-150 -725q-59 -297 -163 -429.5t-285 -132.5q-67 0 -152 20q17 94 41 178l7 3q132 -100 187 -100q118 0 171 293l163 893h-402l-154 -745q-59 -297 -163 -429.5t-285 -132.5
q-67 0 -152 20q17 94 41 178l7 3q132 -100 187 -100q118 0 171 293l168 917l-132 29l3 43l144 13q55 270 202 423t351 153q94 0 178 -27q-34 -115 -57 -249l-42 -7l-63 194q-18 5 -50 5q-119 0 -199 -101.5t-135 -374.5l-3 -17h401l2 11q55 277 203 431.5t352 154.5
q100 0 190 -24q71 15 143 32l8 -12q-18 -75 -42.5 -192.5t-52.5 -256.5l-49 -229q196 123 349 123q106 0 162.5 -56t56.5 -152q0 -45 -10 -92l-103 -475q-2 -11 -3 -20t-1 -16q0 -40 33 -52.5t112 -12.5l-3 -39q-128 -42 -202 -42q-58 0 -89 28.5t-31 88.5q0 28 9 70l94 433
q10 42 10 79q0 63 -32 98t-107 35q-121 0 -261 -82l-150 -727z" />
    <glyph glyph-name="uniFB01" unicode="fi" horiz-adv-x="1136" 
d="M881 164q-5 -22 -5 -36q0 -40 33 -52.5t112 -12.5l-3 -39q-131 -42 -202 -42q-57 0 -88 28.5t-31 88.5q0 14 2 31.5t6 38.5l132 644h-405l-154 -745q-58 -295 -162 -428.5t-286 -133.5q-34 0 -71.5 5t-80.5 15q8 48 18.5 92t22.5 86l7 3q131 -100 187 -100q118 0 171 293
l168 917l-132 29l3 43l144 13q54 280 218 438t396 158q103 0 196 -27q-32 -123 -57 -249l-42 -7l-68 195q-26 4 -55 4q-151 0 -245 -93t-148 -357l-13 -63h335q73 0 124 20q108 0 108 -84q0 -18 -4 -38z" />
    <glyph glyph-name="uniFB03" unicode="ffi" horiz-adv-x="1719" 
d="M850 901q54 281 218 439t396 158q103 0 196 -27q-32 -123 -57 -249l-42 -7l-68 195q-26 4 -55 4q-151 0 -245 -93t-148 -357l-13 -63h335q73 0 124 20q108 0 108 -84q0 -18 -4 -38l-131 -635q-5 -22 -5 -36q0 -40 33 -52.5t112 -12.5l-3 -39q-131 -42 -202 -42
q-57 0 -88 28.5t-31 88.5q0 14 2 31.5t6 38.5l132 644h-405l-150 -725q-59 -297 -163 -429.5t-285 -132.5q-67 0 -152 20q17 94 41 178l7 3q132 -100 187 -100q118 0 171 293l163 893h-402l-154 -745q-59 -297 -163 -429.5t-285 -132.5q-67 0 -152 20q17 94 41 178l7 3
q132 -100 187 -100q118 0 171 293l168 917l-132 29l3 43l144 13q55 270 202 423t351 153q94 0 178 -27q-34 -115 -57 -249l-42 -7l-63 194q-18 5 -50 5q-119 0 -199 -101.5t-135 -374.5l-3 -17h401z" />
    <glyph glyph-name="f_j.liga" unicode="fj" horiz-adv-x="1111" 
d="M837 813h-405l-154 -745q-58 -295 -162 -428.5t-286 -133.5q-34 0 -71.5 5t-80.5 15q8 48 18.5 92t22.5 86l7 3q131 -100 187 -100q118 0 171 293l168 917l-132 29l3 43l144 13q54 280 218 438t396 158q103 0 196 -27q-32 -123 -57 -249l-42 -7l-68 195q-26 4 -55 4
q-151 0 -245 -93t-148 -357l-13 -63h335q73 0 124 20q108 0 108 -84q0 -18 -4 -38l-142 -685q-39 -198 -130.5 -326.5t-332.5 -290.5l-38 41q203 197 246.5 302t73.5 251z" />
    <glyph glyph-name="f_f_j.liga" unicode="ffj" horiz-adv-x="1694" 
d="M850 901q54 281 218 439t396 158q103 0 196 -27q-32 -123 -57 -249l-42 -7l-68 195q-26 4 -55 4q-151 0 -245 -93t-148 -357l-13 -63h335q73 0 124 20q108 0 108 -84q0 -18 -4 -38l-142 -685q-39 -198 -130.5 -326.5t-332.5 -290.5l-38 41q203 197 246.5 302t73.5 251
l148 722h-405l-150 -725q-59 -297 -163 -429.5t-285 -132.5q-67 0 -152 20q17 94 41 178l7 3q132 -100 187 -100q118 0 171 293l163 893h-402l-154 -745q-59 -297 -163 -429.5t-285 -132.5q-67 0 -152 20q17 94 41 178l7 3q132 -100 187 -100q118 0 171 293l168 917l-132 29
l3 43l144 13q55 270 202 423t351 153q94 0 178 -27q-34 -115 -57 -249l-42 -7l-63 194q-18 5 -50 5q-119 0 -199 -101.5t-135 -374.5l-3 -17h401z" />
    <glyph glyph-name="f_k.liga" unicode="fk" horiz-adv-x="1642" 
d="M679 -5l283 1376q-71 43 -172 43q-119 0 -199 -101.5t-135 -374.5l-7 -35h262l-18 -90h-261l-154 -745q-59 -297 -163 -429.5t-285 -132.5q-67 0 -152 20q17 94 41 178l7 3q132 -100 187 -100q118 0 171 293l168 917l-132 29l3 43l144 13l2 10q55 277 203 431.5
t352 154.5q100 0 190 -25q71 15 144 33l8 -12q-18 -75 -42.5 -192.5t-52.5 -256.5l-215 -1040zM1560 -3q-138 3 -195 3q-18 0 -41.5 -0.5t-54.5 -1.5q-44 105 -114 231t-168 277q320 279 391 408q37 -1 61 -1q65 0 232 3l-4 -41q-53 -13 -89 -23.5t-62 -21.5
q-28 -12 -55 -28t-62 -47l-230 -203l232 -386q38 -66 65 -89q27 -22 100 -39z" />
    <glyph glyph-name="f_f_k.liga" unicode="ffk" horiz-adv-x="2224" 
d="M1261 -5l283 1376q-71 43 -171 43q-119 0 -199 -101.5t-135 -374.5l-7 -37h252l-18 -88h-251l-150 -725q-59 -297 -163 -429.5t-285 -132.5q-67 0 -152 20q17 94 41 178l7 3q132 -100 187 -100q118 0 171 293l163 893h-402l-154 -745q-59 -297 -163 -429.5t-285 -132.5
q-67 0 -152 20q17 94 41 178l7 3q132 -100 187 -100q118 0 171 293l168 917l-132 29l3 43l144 13q55 270 202 423t351 153q94 0 178 -27q-34 -115 -57 -249l-42 -7l-63 194q-18 5 -50 5q-119 0 -199 -101.5t-135 -374.5l-3 -17h401l2 11q55 277 203 431.5t352 154.5
q100 0 190 -24q71 15 143 32l8 -12q-18 -75 -42.5 -192.5t-52.5 -256.5l-215 -1040zM2142 -3q-138 3 -195 3q-18 0 -41.5 -0.5t-54.5 -1.5q-44 105 -114 231t-168 277q320 279 391 408q37 -1 61 -1q65 0 232 3l-4 -41q-53 -13 -89 -23.5t-62 -21.5q-28 -12 -55 -28t-62 -47
l-230 -203l232 -386q38 -66 65 -89q27 -22 100 -39z" />
    <glyph glyph-name="uniFB02" unicode="fl" horiz-adv-x="1155" 
d="M252 817l-132 29l3 43l144 13l2 10q55 277 203 431.5t352 154.5q101 0 191 -25q64 14 145 33l8 -12q-18 -75 -43.5 -192.5t-54.5 -256.5l-180 -881q-4 -18 -4 -36q0 -40 34 -52.5t113 -12.5l-4 -39q-128 -42 -203 -42q-58 0 -89 28.5t-31 88.5q0 14 1.5 31.5t6.5 38.5
l247 1202q-71 43 -171 43q-119 0 -199 -101.5t-135 -374.5l-7 -35h262l-18 -90h-261l-154 -745q-59 -297 -163 -429.5t-285 -132.5q-67 0 -152 20q17 94 41 178l7 3q132 -100 187 -100q118 0 171 293z" />
    <glyph glyph-name="uniFB04" unicode="ffl" horiz-adv-x="1738" 
d="M850 901l2 11q55 277 203 431.5t352 154.5q101 0 191 -25q64 14 145 33l8 -12q-18 -75 -43.5 -192.5t-54.5 -256.5l-180 -881q-4 -18 -4 -36q0 -40 34 -52.5t113 -12.5l-4 -39q-128 -42 -203 -42q-58 0 -89 28.5t-31 88.5q0 14 1.5 31.5t6.5 38.5l247 1202
q-71 43 -171 43q-119 0 -199 -101.5t-135 -374.5l-7 -37h262l-18 -88h-261l-150 -725q-59 -297 -163 -429.5t-285 -132.5q-67 0 -152 20q17 94 41 178l7 3q132 -100 187 -100q118 0 171 293l163 893h-402l-154 -745q-59 -297 -163 -429.5t-285 -132.5q-67 0 -152 20
q17 94 41 178l7 3q132 -100 187 -100q118 0 171 293l168 917l-132 29l3 43l144 13q55 270 202 423t351 153q94 0 178 -27q-34 -115 -57 -249l-42 -7l-63 194q-18 5 -50 5q-119 0 -199 -101.5t-135 -374.5l-3 -17h401z" />
    <glyph glyph-name=".notdef" horiz-adv-x="995" 
d="M995 1396v-1396h-995v1396h995zM898 98v1201h-800v-1201h800zM437 455l-2 33q0 133 41 187t73 84q61 62 78.5 94t17.5 73q0 75 -44.5 118.5t-102.5 43.5q-62 0 -105.5 -42.5t-55.5 -141.5l-96 15q15 136 87 201.5t175 65.5q104 0 173 -66t69 -185q0 -66 -24 -115
t-97 -120q-73 -65 -85.5 -106t-12.5 -134zM416 291q0 29 20 49.5t49 20.5t49.5 -20.5t20.5 -49.5q0 -30 -20.5 -49.5t-49.5 -19.5t-49 19.5t-20 49.5z" />
    <glyph glyph-name="glyph1" 
 />
    <glyph glyph-name="glyph1" 
 />
    <glyph glyph-name="uni000D" unicode="&#xd;" 
 />
    <glyph glyph-name="space" unicode=" " horiz-adv-x="483" 
 />
    <glyph glyph-name="space" unicode="&#xa0;" horiz-adv-x="483" 
 />
    <glyph glyph-name="A" unicode="A" horiz-adv-x="1353" 
d="M299 42l-7 -45q-126 3 -234 3t-196 -3l4 43l101 31q23 8 41.5 20.5t33 27.5t25.5 31.5t21 32.5l720 1223l98 15l211 -1223q10 -68 27 -94q17 -25 51 -36l93 -28l-6 -43q-126 3 -246 3q-117 0 -257 -3l4 43l95 28q21 7 34.5 18t13.5 43t-15 120l-44 271h-467l-152 -268
q-32 -57 -52 -96t-20 -56q0 -10 8 -17.5t26 -13.5zM852 608l-90 551l-312 -551h402z" />
    <glyph glyph-name="B" unicode="B" horiz-adv-x="1203" 
d="M269 1400q132 -4 254 -4q30 0 111.5 5t113.5 5q211 0 318.5 -77t107.5 -209q0 -293 -328 -366q271 -74 271 -308q0 -217 -167.5 -334.5t-443.5 -117.5q-50 0 -112.5 3t-134.5 3q-121 0 -245 -3l4 43l125 37q27 8 34 31q8 40 18 89.5t22 109.5l155 811q10 51 17 92t12 74
q5 25 -17 34l-121 39zM481 702l-115 -615q53 -16 144 -16q192 0 292.5 90.5t100.5 264.5q0 135 -78.5 207.5t-228.5 72.5q-57 0 -115 -4zM497 779q45 -2 97 -2q191 0 285.5 79.5t94.5 240.5q0 110 -71.5 168.5t-211.5 58.5q-44 0 -92 -7z" />
    <glyph glyph-name="C" unicode="C" horiz-adv-x="1320" 
d="M1255 1051l-41 -6l-23 265q-100 29 -219 29q-280 0 -462 -222.5t-182 -534.5q0 -233 134 -365.5t366 -132.5q151 0 314 57l12 -41q-202 -130 -443 -130q-270 0 -432 161.5t-162 430.5q0 378 255 619.5t640 241.5q166 0 354 -41l5 -8z" />
    <glyph glyph-name="D" unicode="D" horiz-adv-x="1537" 
d="M259 0q-121 0 -245 -3l4 43l125 37q30 8 34 31q8 40 18 89.5t22 109.5l155 811q10 51 17 92t12 74q5 25 -17 34l-121 39l6 43q132 -4 254 -4q59 0 156.5 5t164.5 5q298 0 464 -136t166 -393q0 -394 -247 -638.5t-662 -244.5q-53 0 -151 3t-155 3zM368 86q93 -14 222 -14
q307 0 490.5 231t183.5 579q0 222 -111.5 332t-341.5 110q-90 0 -210 -8z" />
    <glyph glyph-name="E" unicode="E" horiz-adv-x="1166" 
d="M520 1396h220q224 0 474 4l5 -8l-113 -309l-42 -7l-19 233h-445l-105 -553h101q72 0 200 1q28 2 39 27l62 136l54 2q-31 -144 -44 -211q-12 -65 -35 -200l-54 -4l-11 138q-2 26 -25 27q-88 2 -203 2h-100l-69 -365q-21 -111 -40 -221h467l160 256l49 8l-83 -348l-7 -7
q-258 3 -478 3h-219q-121 0 -245 -3l4 43l125 37q27 7 34 31q8 40 18 89.5t22 109.5l155 811q10 51 17 92t12 74q5 26 -17 34l-121 39l6 43q132 -4 251 -4z" />
    <glyph glyph-name="F" unicode="F" horiz-adv-x="1082" 
d="M409 307q-22 -118 -35 -194q-3 -24 20 -31l138 -42l-7 -43q-148 3 -266 3q-120 0 -245 -3l4 43l125 37q29 8 34 31q18 81 40 199l155 811q10 51 17 92t12 74q5 26 -17 34l-121 39l6 43q132 -4 251 -4h220q224 0 474 4l5 -8l-113 -309l-42 -7l-19 233h-445l-109 -574h74
q104 0 233 1q27 2 38 27l67 136l49 2q-30 -140 -42 -207q-13 -65 -36 -204l-49 -4l-16 138q-4 26 -25 27q-131 2 -236 2h-73z" />
    <glyph glyph-name="G" unicode="G" horiz-adv-x="1387" 
d="M1253 1051l-41 -6l-24 265q-94 29 -210 29q-288 0 -470 -221t-182 -532q0 -232 125 -383.5t329 -151.5q71 0 148 17l51 272q11 51 17.5 91.5t13.5 74.5q0 25 -18 34l-121 39l6 43q133 -4 248 -4q120 0 229 4l-4 -43l-110 -33q-27 -7 -33 -30q-8 -40 -16.5 -81.5
t-18.5 -90.5l-61 -317l-7 -7q-187 -50 -363 -50q-293 0 -460 154t-167 431q0 386 252 627t652 241q168 0 346 -41l5 -8z" />
    <glyph glyph-name="H" unicode="H" horiz-adv-x="1597" 
d="M483 694l-74 -387q-22 -118 -36 -198q-4 -27 20 -34l107 -35l-6 -43q-120 3 -237 3q-118 0 -243 -3l4 43l125 37q29 8 34 31q18 81 40 199l155 811q19 100 29 166q5 26 -17 34l-121 39l6 43q132 -4 247 -4q121 0 239 4l-4 -43l-120 -35q-26 -6 -32 -31q-16 -72 -35 -169
l-64 -338h713l64 338q19 97 31 169q4 25 -20 31l-107 35l6 43q123 -4 241 -4q117 0 239 4l-4 -43l-130 -39q-24 -8 -30 -34q-15 -66 -34 -166l-155 -811q-21 -118 -35 -199q-3 -23 20 -31l119 -37l-6 -43q-135 3 -251 3q-120 0 -233 -3l4 43l117 35q27 7 33 34q18 80 40 198
l74 387h-713z" />
    <glyph glyph-name="I" unicode="I" horiz-adv-x="692" 
d="M409 307q-12 -60 -20.5 -109t-15.5 -89q-3 -25 28 -34l112 -35l-7 -43q-132 3 -246 3q-122 0 -246 -3l4 43l125 37q27 7 34 31q8 40 18 89.5t22 109.5l155 811q10 51 17 92t12 74q5 26 -17 34l-121 39l6 43q132 -4 250 -4t243 4l-5 -43l-127 -37q-25 -6 -31 -31
q-9 -35 -17 -76.5t-18 -90.5z" />
    <glyph glyph-name="J" unicode="J" horiz-adv-x="638" 
d="M255 1400q132 -4 251 -4q116 0 241 4l-4 -43l-127 -37q-25 -6 -32 -31q-8 -35 -16.5 -76.5t-17.5 -90.5l-172 -906q-19 -98 -42.5 -178.5t-53.5 -143.5t-74 -112.5t-103.5 -88t-140 -67.5t-180.5 -52l-12 49q112 44 181.5 97t113 121t68 153t44.5 192l179 932
q9 51 16.5 92t12.5 74q4 26 -18 34l-121 39z" />
    <glyph glyph-name="K" unicode="K" horiz-adv-x="1344" 
d="M564 1122l-155 -815q-12 -60 -20.5 -109t-15.5 -89q-3 -26 20 -34l109 -35l-6 -43q-122 3 -237 3q-121 0 -245 -3l4 43l125 37q29 8 34 31q8 40 18 89.5t22 109.5l155 811q10 51 17 92t12 74q5 26 -17 34l-121 39l6 43q132 -4 251 -4q116 0 231 4l-4 -43l-116 -35
q-25 -6 -32 -31q-7 -36 -16 -78t-19 -91zM513 713l473 444q55 53 90.5 89.5t40.5 58.5q3 20 -21 27l-79 22l6 46q101 -4 228 -4q115 0 214 4l-4 -43l-103 -32q-48 -15 -90 -46t-90 -73l-475 -446l331 -589q25 -42 48 -64.5t67 -36.5l101 -30l-6 -43q-88 3 -217 3
q-34 0 -64.5 -0.5t-66.5 -1.5q-21 72 -133 271z" />
    <glyph glyph-name="L" unicode="L" horiz-adv-x="1117" 
d="M564 1122l-154 -813q-21 -111 -40 -221h475l170 266l49 8l-85 -358l-7 -7q-227 3 -447 3h-266q-121 0 -245 -3l4 43l125 37q27 7 34 31q8 40 18 89.5t22 109.5l155 811q10 51 17 92t12 74q5 26 -17 34l-121 39l6 43q132 -4 251 -4q117 0 242 4l-5 -43l-127 -37
q-25 -6 -31 -31q-9 -35 -22 -102t-13 -65z" />
    <glyph glyph-name="M" unicode="M" horiz-adv-x="1827" 
d="M1538 1400q89 -4 163 -4t200 4l-4 -43l-133 -39q-25 -8 -31 -34q-15 -66 -34 -166l-155 -811q-22 -118 -36 -199q-3 -23 21 -31l115 -37l-6 -43q-132 3 -249 3q-119 0 -234 -3l4 43l120 35q26 7 33 35q17 79 39 197l166 866l-719 -1173l-59 -5l-272 1178l-166 -866
q-22 -118 -35 -197q-5 -28 19 -35l105 -35l-6 -43q-118 3 -198 3q-72 0 -201 -3l4 43l129 37q29 8 34 31q18 81 40 199l155 811q19 100 29 166q5 26 -17 34l-117 39l6 43q128 -4 203 -4q80 0 156 4l257 -1104z" />
    <glyph glyph-name="N" unicode="N" horiz-adv-x="1487" 
d="M457 1143l-154 -836q-11 -60 -19.5 -108.5t-15.5 -87.5q-4 -28 18 -34l117 -35l-7 -45q-128 3 -202 3q-80 0 -204 -3l4 43l125 37q29 8 34 31q9 41 19 90t21 109l150 811q9 51 16 92t12 74q5 27 -17 34l-121 39l6 43q66 -2 117 -3t86 -1q23 0 46 1t46 3l603 -1078
l152 800q10 49 17.5 90.5t13.5 76.5q3 23 -21 31l-115 34l6 46q66 -2 117 -3t88 -1q40 0 90.5 1t111.5 3l-4 -43l-130 -39q-24 -7 -30 -34q-8 -33 -16 -74t-18 -92l-213 -1118l-81 -8z" />
    <glyph glyph-name="O" unicode="O" horiz-adv-x="1595" 
d="M713 -35q-274 0 -435 151t-161 427q0 368 238.5 626.5t584.5 258.5q274 0 435.5 -150t161.5 -428q0 -371 -238.5 -628t-585.5 -257zM1322 877q0 221 -109 346t-293 125q-275 0 -432 -237t-157 -594q0 -219 107.5 -345.5t294.5 -126.5q275 0 432 235.5t157 596.5z" />
    <glyph glyph-name="P" unicode="P" horiz-adv-x="1176" 
d="M478 675q48 -12 123 -12q196 0 298 97.5t102 282.5q0 134 -75 206.5t-224 72.5q-55 0 -102 -11zM18 40l125 37q30 8 34 31q8 40 18 89.5t22 109.5l155 811q10 51 17 92t12 74q5 25 -17 34l-121 39l6 43q127 -4 219 -4q38 0 137 4t141 4q207 0 325.5 -86.5t118.5 -248.5
q0 -237 -168.5 -363t-431.5 -126q-76 0 -148 12l-55 -285q-22 -119 -35 -196q-3 -24 20 -31l133 -40l-6 -43q-147 3 -263 3q-118 0 -242 -3z" />
    <glyph glyph-name="Q" unicode="Q" horiz-adv-x="1596" 
d="M940 1428q273 0 435 -149.5t162 -428.5q0 -358 -217 -603.5t-504 -274.5q79 -232 402 -232q132 0 236 42l11 -45q-199 -165 -317 -165q-366 0 -469 394q-251 10 -406.5 155.5t-155.5 421.5q0 367 238 626t585 259zM1322 877q0 221 -109 346t-293 125q-275 0 -432 -237.5
t-157 -593.5q0 -219 107.5 -345.5t294.5 -126.5q275 0 432 234.5t157 597.5z" />
    <glyph glyph-name="R" unicode="R" horiz-adv-x="1277" 
d="M409 307q-12 -60 -20.5 -108t-14.5 -87q-4 -31 19 -39l109 -33l-6 -43q-122 3 -237 3q-121 0 -245 -3l4 43l125 37q27 8 34 31q8 40 18 89.5t22 109.5l155 811q10 51 17 92t12 74q6 25 -17 34l-121 39l6 43q132 -4 254 -4q14 0 40.5 1.5t72.5 3.5t75.5 3t42.5 1
q214 0 326.5 -80t112.5 -228q0 -318 -384 -415q27 -55 50 -109.5t45 -110.5q21 -53 42 -104t45 -105q19 -46 38 -83t44.5 -63.5t60.5 -44t88 -25.5l-7 -44q-64 -9 -116 -9q-61 0 -104 8t-75 29t-57 57.5t-50 93.5q-19 44 -37 91t-35 97q-20 55 -40.5 111.5t-45.5 116.5
q-9 20 -17.5 32.5t-18 20t-21.5 10t-27 2.5l-96 3zM490 729q57 -3 108 -3q188 0 287 87t99 256q0 129 -71.5 191.5t-204.5 62.5q-39 0 -107 -8z" />
    <glyph glyph-name="S" unicode="S" horiz-adv-x="1043" 
d="M905 1316q-74 24 -159 24q-156 0 -257.5 -75t-101.5 -199q0 -62 23.5 -106.5t63 -79t88.5 -60.5t102 -51q58 -29 110.5 -61.5t92.5 -74t64.5 -95.5t24.5 -126q0 -102 -41.5 -183.5t-124.5 -140.5q-166 -115 -420 -115q-195 0 -353 52l-4 8l110 340l46 7l18 -293
q97 -31 199 -31q168 0 270.5 76.5t102.5 205.5q0 64 -22.5 109t-60.5 79.5t-88.5 61.5t-105.5 55q-58 28 -109.5 62t-91.5 77t-64 98.5t-24 125.5q0 187 162.5 302t411.5 115q150 0 307 -38l6 -7l-112 -312l-41 -7z" />
    <glyph glyph-name="T" unicode="T" horiz-adv-x="1232" 
d="M529 0q-123 0 -275 -3l10 43l152 44q27 7 32 31q17 76 40 194l190 1000h-337l-139 -268l-43 -7l39 358l8 8q244 -4 469 -4h242q225 0 475 4l5 -8l-126 -351l-41 -7l-19 275h-341l-190 -1000q-23 -118 -36 -194q-3 -24 21 -31l144 -44l-6 -43q-159 3 -274 3z" />
    <glyph glyph-name="U" unicode="U" horiz-adv-x="1496" 
d="M234 1400q132 -4 248 -4q120 0 245 4l-4 -43l-127 -37q-26 -6 -32 -31q-8 -35 -16.5 -76.5t-18.5 -90.5l-99 -525q-23 -121 -23 -202q0 -156 79.5 -240.5t231.5 -84.5q115 0 193.5 35t132.5 103t87.5 170.5t59.5 238.5l96 505q9 49 16 90.5t13 76.5q3 23 -20 31l-114 34
l6 46q128 -4 212 -4q88 0 210 4l-4 -43l-129 -39q-25 -9 -31 -34q-7 -33 -15.5 -74t-17.5 -92l-99 -513q-31 -155 -77.5 -274t-119.5 -200.5t-176.5 -122.5t-246.5 -41q-233 0 -357 108.5t-124 314.5q0 80 18 176l106 552q10 51 17 92t13 74q5 25 -18 34l-121 39z" />
    <glyph glyph-name="V" unicode="V" horiz-adv-x="1365" 
d="M1147 1400q126 -4 234 -4t197 4l-5 -43l-100 -32q-23 -7 -41.5 -19.5t-33.5 -28t-26 -31.5t-20 -32l-717 -1214l-103 -8l-209 1206q-13 71 -27 95q-17 25 -52 35l-92 29l6 43q126 -4 246 -4q116 0 255 4l-4 -43l-96 -29q-24 -7 -36 -19.5t-12 -43.5q0 -28 16 -117
l151 -900l513 896q33 57 53 96.5t20 55.5q0 10 -8 18t-26 13l-89 27z" />
    <glyph glyph-name="W" unicode="W" horiz-adv-x="2055" 
d="M1286 -8l-144 1065l-560 -1057l-95 -8l-163 1228q-6 47 -22 73t-50 36l-91 28l7 43q110 -4 229 -4q121 0 271 4l-4 -43l-109 -31q-36 -9 -36 -60q0 -27 12 -118l107 -859l568 1109l79 6l151 -1123l455 902q23 47 34.5 74.5t11.5 43.5q0 13 -7.5 18.5t-23.5 9.5l-92 25
l6 46q119 -4 217 -4q107 0 206 4l-4 -43l-103 -32q-31 -9 -52.5 -28t-46.5 -66l-656 -1231z" />
    <glyph glyph-name="X" unicode="X" horiz-adv-x="1318" 
d="M194 1400q113 -4 256 -4q120 0 260 4l-4 -43l-90 -25q-49 -14 -49 -52q0 -33 36 -109l150 -323l292 343q64 75 64 107q1 23 -32 32l-88 24l6 46q111 -4 232 -4q117 0 216 4l-4 -43l-103 -32q-39 -10 -68.5 -35.5t-80.5 -83.5l-390 -449l268 -576q32 -69 49 -86.5
t49 -27.5l90 -27l-6 -43q-112 3 -233 3q-131 0 -284 -3l5 43l95 25q43 12 43 55q0 30 -36 106l-183 392l-353 -414q-63 -76 -63 -104q0 -25 37 -35l83 -23l-7 -45q-112 3 -232 3q-106 0 -213 -3l4 43l101 31q37 11 67 36q29 24 72 71l462 530l-243 520q-22 49 -38.5 70
t-52.5 31l-90 28z" />
    <glyph glyph-name="Y" unicode="Y" horiz-adv-x="1212" 
d="M707 712l314 437q35 48 60.5 86.5t25.5 59.5q0 25 -37 35l-88 24l6 46q112 -4 226 -4q109 0 209 4l-4 -43l-103 -32q-39 -11 -62.5 -35t-50.5 -59l-463 -617l-59 -307q-12 -60 -20.5 -109t-15.5 -89q-3 -25 28 -34l112 -35l-7 -43q-132 3 -250 3t-242 -3l4 43l125 37
q27 7 34 31q8 40 18 89.5t22 109.5l57 303l-227 593q-26 61 -44 88t-55 38l-90 28l6 43q94 -4 246 -4q122 0 263 4l-4 -43l-96 -26q-23 -5 -35 -17t-12 -33q0 -27 33 -110z" />
    <glyph glyph-name="Z" unicode="Z" horiz-adv-x="1162" 
d="M-20 -3l4 43l966 1269h-563l-103 -242l-42 -7l2 332l7 8q252 -4 472 -4h200q143 0 296 4l-4 -43l-964 -1269h593l173 272l49 7l-87 -363l-8 -7q-279 3 -498 3h-221q-141 0 -272 -3z" />
    <glyph glyph-name="Agrave" unicode="&#xc0;" horiz-adv-x="1353" 
d="M299 42l-7 -45q-126 3 -234 3t-196 -3l4 43l101 31q23 8 41.5 20.5t33 27.5t25.5 31.5t21 32.5l720 1223l98 15l211 -1223q10 -68 27 -94q17 -25 51 -36l93 -28l-6 -43q-126 3 -246 3q-117 0 -257 -3l4 43l95 28q21 7 34.5 18t13.5 43t-15 120l-44 271h-467l-152 -268
q-32 -57 -52 -96t-20 -56q0 -10 8 -17.5t26 -13.5zM852 608l-90 551l-312 -551h402zM633 1651l107 119l301 -245l-23 -39l-385 150v15zM250 1400z" />
    <glyph glyph-name="Aacute" unicode="&#xc1;" horiz-adv-x="1353" 
d="M299 42l-7 -45q-126 3 -234 3t-196 -3l4 43l101 31q23 8 41.5 20.5t33 27.5t25.5 31.5t21 32.5l720 1223l98 15l211 -1223q10 -68 27 -94q17 -25 51 -36l93 -28l-6 -43q-126 3 -246 3q-117 0 -257 -3l4 43l95 28q21 7 34.5 18t13.5 43t-15 120l-44 271h-467l-152 -268
q-32 -57 -52 -96t-20 -56q0 -10 8 -17.5t26 -13.5zM852 608l-90 551l-312 -551h402zM1111 1636l-416 -150l-23 41l323 243l116 -119v-15zM250 1400z" />
    <glyph glyph-name="Acircumflex" unicode="&#xc2;" horiz-adv-x="1353" 
d="M299 42l-7 -45q-126 3 -234 3t-196 -3l4 43l101 31q23 8 41.5 20.5t33 27.5t25.5 31.5t21 32.5l720 1223l98 15l211 -1223q10 -68 27 -94q17 -25 51 -36l93 -28l-6 -43q-126 3 -246 3q-117 0 -257 -3l4 43l95 28q21 7 34.5 18t13.5 43t-15 120l-44 271h-467l-152 -268
q-32 -57 -52 -96t-20 -56q0 -10 8 -17.5t26 -13.5zM852 608l-90 551l-312 -551h402zM932 1770l263 -239l-27 -46l-292 135l-317 -135l-26 46l309 239h90zM250 1400z" />
    <glyph glyph-name="Atilde" unicode="&#xc3;" horiz-adv-x="1353" 
d="M299 42l-7 -45q-126 3 -234 3t-196 -3l4 43l101 31q23 8 41.5 20.5t33 27.5t25.5 31.5t21 32.5l720 1223l98 15l211 -1223q10 -68 27 -94q17 -25 51 -36l93 -28l-6 -43q-126 3 -246 3q-117 0 -257 -3l4 43l95 28q21 7 34.5 18t13.5 43t-15 120l-44 271h-467l-152 -268
q-32 -57 -52 -96t-20 -56q0 -10 8 -17.5t26 -13.5zM852 608l-90 551l-312 -551h402zM757 1622q-38 0 -69.5 -24.5t-70.5 -69.5l-47 37q60 96 116 145.5t111 49.5q30 0 63.5 -16t67.5 -36q31 -17 58 -31t48 -14q39 0 70 24.5t70 69.5l48 -32q-61 -101 -117 -150.5t-111 -49.5
q-30 0 -64 16t-66 35q-30 17 -57.5 31.5t-49.5 14.5zM250 1400z" />
    <glyph glyph-name="Adieresis" unicode="&#xc4;" horiz-adv-x="1353" 
d="M299 42l-7 -45q-126 3 -234 3t-196 -3l4 43l101 31q23 8 41.5 20.5t33 27.5t25.5 31.5t21 32.5l720 1223l98 15l211 -1223q10 -68 27 -94q17 -25 51 -36l93 -28l-6 -43q-126 3 -246 3q-117 0 -257 -3l4 43l95 28q21 7 34.5 18t13.5 43t-15 120l-44 271h-467l-152 -268
q-32 -57 -52 -96t-20 -56q0 -10 8 -17.5t26 -13.5zM852 608l-90 551l-312 -551h402zM783 1630q0 -51 -30.5 -83t-75.5 -32t-74 30t-29 77q0 52 30.5 82.5t77.5 30.5q45 0 73 -28t28 -77zM1192 1630q0 -51 -30.5 -83t-75.5 -32t-74 30t-29 77q0 52 30.5 82.5t76.5 30.5
q45 0 73.5 -28t28.5 -77zM250 1400z" />
    <glyph glyph-name="Amacron" unicode="&#x100;" horiz-adv-x="1353" 
d="M299 42l-7 -45q-126 3 -234 3t-196 -3l4 43l101 31q23 8 41.5 20.5t33 27.5t25.5 31.5t21 32.5l720 1223l98 15l211 -1223q10 -68 27 -94q17 -25 51 -36l93 -28l-6 -43q-126 3 -246 3q-117 0 -257 -3l4 43l95 28q21 7 34.5 18t13.5 43t-15 120l-44 271h-467l-152 -268
q-32 -57 -52 -96t-20 -56q0 -10 8 -17.5t26 -13.5zM852 608l-90 551l-312 -551h402zM620 1557l21 106h500l-21 -106h-500zM250 1400z" />
    <glyph glyph-name="Abreve" unicode="&#x102;" horiz-adv-x="1353" 
d="M299 42l-7 -45q-126 3 -234 3t-196 -3l4 43l101 31q23 8 41.5 20.5t33 27.5t25.5 31.5t21 32.5l720 1223l98 15l211 -1223q10 -68 27 -94q17 -25 51 -36l93 -28l-6 -43q-126 3 -246 3q-117 0 -257 -3l4 43l95 28q21 7 34.5 18t13.5 43t-15 120l-44 271h-467l-152 -268
q-32 -57 -52 -96t-20 -56q0 -10 8 -17.5t26 -13.5zM852 608l-90 551l-312 -551h402zM710 1816q0 -86 42.5 -131.5t128.5 -45.5q83 0 140 44.5t89 124.5l68 7q-20 -134 -101 -220.5t-211 -86.5q-113 0 -171 58.5t-58 171.5q0 32 6 70zM250 1400z" />
    <glyph glyph-name="Aring" unicode="&#xc5;" horiz-adv-x="1353" 
d="M299 42l-7 -45q-126 3 -234 3t-196 -3l4 43l101 31q23 8 41.5 20.5t33 27.5t25.5 31.5t21 32.5l720 1223l98 15l211 -1223q10 -68 27 -94q17 -25 51 -36l93 -28l-6 -43q-126 3 -246 3q-117 0 -257 -3l4 43l95 28q21 7 34.5 18t13.5 43t-15 120l-44 271h-467l-152 -268
q-32 -57 -52 -96t-20 -56q0 -10 8 -17.5t26 -13.5zM852 608l-90 551l-312 -551h402zM861 1473q-87 0 -138 39.5t-51 110.5q0 92 73.5 152.5t171.5 60.5q79 0 133 -41.5t54 -111.5q0 -92 -70 -151t-173 -59zM872 1531q56 0 89.5 40.5t33.5 103.5q0 46 -22 74.5t-67 28.5
q-58 0 -91.5 -41t-33.5 -104q0 -44 23 -73t68 -29zM250 1400z" />
    <glyph glyph-name="Aringacute" unicode="&#x1fa;" horiz-adv-x="1353" 
d="M299 42l-7 -45q-126 3 -234 3t-196 -3l4 43l101 31q23 8 41.5 20.5t33 27.5t25.5 31.5t21 32.5l720 1223l98 15l211 -1223q10 -68 27 -94q17 -25 51 -36l93 -28l-6 -43q-126 3 -246 3q-117 0 -257 -3l4 43l95 28q21 7 34.5 18t13.5 43t-15 120l-44 271h-467l-152 -268
q-32 -57 -52 -96t-20 -56q0 -10 8 -17.5t26 -13.5zM852 608l-90 551l-312 -551h402zM862 1459q-84 0 -133.5 38.5t-49.5 106.5q0 90 71.5 148.5t166.5 58.5q76 0 128.5 -40t52.5 -108q0 -90 -68 -147t-168 -57zM873 1515q54 0 86.5 39.5t32.5 100.5q0 44 -21 72t-65 28
q-56 0 -88.5 -40t-32.5 -101q0 -43 22 -71t66 -28zM1166 1965l-393 -142l-22 39l305 229l110 -112v-14z" />
    <glyph glyph-name="Aogonek" unicode="&#x104;" horiz-adv-x="1353" 
d="M996 0q-97 0 -169 -74.5t-72 -177.5q0 -76 47.5 -112.5t133.5 -37.5q24 0 45 2l5 -39q-147 -51 -221 -51q-82 0 -130 48.5t-48 127.5q0 95 62.5 178.5t178.5 156.5q56 34 77 51.5t21 49.5q0 39 -15 127l-44 271h-467l-152 -268q-32 -57 -52 -96t-20 -56q0 -10 8 -17.5
t26 -13.5l89 -27l-7 -45q-126 3 -234 3t-196 -3l4 43l101 31q23 8 41.5 20.5t33 27.5t25.5 31.5t21 32.5l720 1223l98 15l211 -1223q10 -68 27 -94q17 -25 51 -36l93 -28l-6 -43q-126 3 -286 3zM852 608l-90 551l-312 -551h402z" />
    <glyph glyph-name="AE" unicode="&#xc6;" horiz-adv-x="1840" 
d="M969 1396h445q224 0 474 4l5 -8l-113 -309l-42 -7l-19 233h-445l-109 -574h101q72 0 200 1q28 2 39 27l62 136l54 2q-31 -144 -44 -211q-12 -65 -35 -200l-54 -4l-11 138q-2 26 -25 27q-88 2 -203 2h-100l-65 -344q-21 -111 -40 -221h467l160 256l49 8l-83 -348l-7 -7
q-258 3 -478 3h-219q-121 0 -245 -3l4 43l125 37q27 7 34 31q8 40 18 89.5t22 109.5l66 346h-411l-278 -403q-40 -57 -64.5 -96t-25.5 -56q-2 -10 5 -17.5t24 -13.5l86 -27l-4 -43q-133 3 -240 3t-198 -3l4 43l106 31q24 8 43.5 20.5t35.5 27.5t29.5 31.5t24.5 32.5
l773 1093q7 10 7 17q0 10 -15 15l-150 49l6 43q132 -4 254 -4zM1082 1309h-84l-395 -574h369z" />
    <glyph glyph-name="AEacute" unicode="&#x1fc;" horiz-adv-x="1840" 
d="M969 1396h445q224 0 474 4l5 -8l-113 -309l-42 -7l-19 233h-445l-109 -574h101q72 0 200 1q28 2 39 27l62 136l54 2q-31 -144 -44 -211q-12 -65 -35 -200l-54 -4l-11 138q-2 26 -25 27q-88 2 -203 2h-100l-65 -344q-21 -111 -40 -221h467l160 256l49 8l-83 -348l-7 -7
q-258 3 -478 3h-219q-121 0 -245 -3l4 43l125 37q27 7 34 31q8 40 18 89.5t22 109.5l66 346h-411l-278 -403q-40 -57 -64.5 -96t-25.5 -56q-2 -10 5 -17.5t24 -13.5l86 -27l-4 -43q-133 3 -240 3t-198 -3l4 43l106 31q24 8 43.5 20.5t35.5 27.5t29.5 31.5t24.5 32.5
l773 1093q7 10 7 17q0 10 -15 15l-150 49l6 43q132 -4 254 -4zM1082 1309h-84l-395 -574h369zM1591 1636l-416 -150l-23 41l323 243l116 -119v-15zM730 1400z" />
    <glyph glyph-name="Cacute" unicode="&#x106;" horiz-adv-x="1320" 
d="M1255 1051l-41 -6l-23 265q-100 29 -219 29q-280 0 -462 -222.5t-182 -534.5q0 -233 134 -365.5t366 -132.5q151 0 314 57l12 -41q-202 -130 -443 -130q-270 0 -432 161.5t-162 430.5q0 378 255 619.5t640 241.5q166 0 354 -41l5 -8zM1231 1636l-416 -150l-23 41l323 243
l116 -119v-15zM370 1400z" />
    <glyph glyph-name="Ccircumflex" unicode="&#x108;" horiz-adv-x="1320" 
d="M1255 1051l-41 -6l-23 265q-100 29 -219 29q-280 0 -462 -222.5t-182 -534.5q0 -233 134 -365.5t366 -132.5q151 0 314 57l12 -41q-202 -130 -443 -130q-270 0 -432 161.5t-162 430.5q0 378 255 619.5t640 241.5q166 0 354 -41l5 -8zM1052 1770l263 -239l-27 -46
l-292 135l-317 -135l-26 46l309 239h90zM370 1400z" />
    <glyph glyph-name="Ccaron" unicode="&#x10c;" horiz-adv-x="1320" 
d="M1255 1051l-41 -6l-23 265q-100 29 -219 29q-280 0 -462 -222.5t-182 -534.5q0 -233 134 -365.5t366 -132.5q151 0 314 57l12 -41q-202 -130 -443 -130q-270 0 -432 161.5t-162 430.5q0 378 255 619.5t640 241.5q166 0 354 -41l5 -8zM936 1498l-263 239l27 46l292 -135
l317 135l26 -46l-309 -239h-90zM370 1400z" />
    <glyph glyph-name="Cdotaccent" unicode="&#x10a;" horiz-adv-x="1320" 
d="M1255 1051l-41 -6l-23 265q-100 29 -219 29q-280 0 -462 -222.5t-182 -534.5q0 -233 134 -365.5t366 -132.5q151 0 314 57l12 -41q-202 -130 -443 -130q-270 0 -432 161.5t-162 430.5q0 378 255 619.5t640 241.5q166 0 354 -41l5 -8zM1103 1632q0 -52 -32 -84.5
t-80 -32.5q-47 0 -77.5 30.5t-30.5 78.5q0 53 32 84t81 31q48 0 77.5 -28.5t29.5 -78.5zM370 1400z" />
    <glyph glyph-name="Ccedilla" unicode="&#xc7;" horiz-adv-x="1320" 
d="M502 -183l122 158q-236 27 -371.5 184.5t-135.5 402.5q0 378 255 619.5t640 241.5q166 0 354 -41l5 -8l-116 -323l-41 -6l-23 265q-100 29 -219 29q-280 0 -462 -222.5t-182 -534.5q0 -233 134 -365.5t366 -132.5q151 0 314 57l12 -41q-202 -130 -448 -130l-60 -79
q103 -49 103 -131q0 -110 -202 -246l-34 38q97 76 97 147q0 73 -105 110z" />
    <glyph glyph-name="Dcaron" unicode="&#x10e;" horiz-adv-x="1537" 
d="M259 0q-121 0 -245 -3l4 43l125 37q30 8 34 31q8 40 18 89.5t22 109.5l155 811q10 51 17 92t12 74q5 25 -17 34l-121 39l6 43q132 -4 254 -4q59 0 156.5 5t164.5 5q298 0 464 -136t166 -393q0 -394 -247 -638.5t-662 -244.5q-53 0 -151 3t-155 3zM368 86q93 -14 222 -14
q307 0 490.5 231t183.5 579q0 222 -111.5 332t-341.5 110q-90 0 -210 -8zM816 1498l-263 239l27 46l292 -135l317 135l26 -46l-309 -239h-90zM250 1400z" />
    <glyph glyph-name="Dcroat" unicode="&#x110;" horiz-adv-x="1537" 
d="M259 0q-121 0 -245 -3l4 43l125 37q30 8 34 31q8 40 18 89.5t22 109.5l73 385h-151l17 89h151l65 337q10 51 17 92t12 74q5 25 -17 34l-121 39l6 43q132 -4 254 -4q59 0 156.5 5t164.5 5q298 0 464 -136t166 -393q0 -394 -247 -638.5t-662 -244.5q-53 0 -151 3t-155 3z
M368 86q93 -14 222 -14q307 0 490.5 231t183.5 579q0 222 -111.5 332t-341.5 110q-90 0 -210 -8l-101 -535h326l-17 -89h-326z" />
    <glyph glyph-name="Egrave" unicode="&#xc8;" horiz-adv-x="1166" 
d="M520 1396h220q224 0 474 4l5 -8l-113 -309l-42 -7l-19 233h-445l-105 -553h101q72 0 200 1q28 2 39 27l62 136l54 2q-31 -144 -44 -211q-12 -65 -35 -200l-54 -4l-11 138q-2 26 -25 27q-88 2 -203 2h-100l-69 -365q-21 -111 -40 -221h467l160 256l49 8l-83 -348l-7 -7
q-258 3 -478 3h-219q-121 0 -245 -3l4 43l125 37q27 7 34 31q8 40 18 89.5t22 109.5l155 811q10 51 17 92t12 74q5 26 -17 34l-121 39l6 43q132 -4 251 -4zM553 1651l107 119l301 -245l-23 -39l-385 150v15zM170 1400z" />
    <glyph glyph-name="Eacute" unicode="&#xc9;" horiz-adv-x="1166" 
d="M520 1396h220q224 0 474 4l5 -8l-113 -309l-42 -7l-19 233h-445l-105 -553h101q72 0 200 1q28 2 39 27l62 136l54 2q-31 -144 -44 -211q-12 -65 -35 -200l-54 -4l-11 138q-2 26 -25 27q-88 2 -203 2h-100l-69 -365q-21 -111 -40 -221h467l160 256l49 8l-83 -348l-7 -7
q-258 3 -478 3h-219q-121 0 -245 -3l4 43l125 37q27 7 34 31q8 40 18 89.5t22 109.5l155 811q10 51 17 92t12 74q5 26 -17 34l-121 39l6 43q132 -4 251 -4zM1031 1636l-416 -150l-23 41l323 243l116 -119v-15zM170 1400z" />
    <glyph glyph-name="Ecircumflex" unicode="&#xca;" horiz-adv-x="1166" 
d="M520 1396h220q224 0 474 4l5 -8l-113 -309l-42 -7l-19 233h-445l-105 -553h101q72 0 200 1q28 2 39 27l62 136l54 2q-31 -144 -44 -211q-12 -65 -35 -200l-54 -4l-11 138q-2 26 -25 27q-88 2 -203 2h-100l-69 -365q-21 -111 -40 -221h467l160 256l49 8l-83 -348l-7 -7
q-258 3 -478 3h-219q-121 0 -245 -3l4 43l125 37q27 7 34 31q8 40 18 89.5t22 109.5l155 811q10 51 17 92t12 74q5 26 -17 34l-121 39l6 43q132 -4 251 -4zM852 1770l263 -239l-27 -46l-292 135l-317 -135l-26 46l309 239h90zM170 1400z" />
    <glyph glyph-name="Ecaron" unicode="&#x11a;" horiz-adv-x="1166" 
d="M520 1396h220q224 0 474 4l5 -8l-113 -309l-42 -7l-19 233h-445l-105 -553h101q72 0 200 1q28 2 39 27l62 136l54 2q-31 -144 -44 -211q-12 -65 -35 -200l-54 -4l-11 138q-2 26 -25 27q-88 2 -203 2h-100l-69 -365q-21 -111 -40 -221h467l160 256l49 8l-83 -348l-7 -7
q-258 3 -478 3h-219q-121 0 -245 -3l4 43l125 37q27 7 34 31q8 40 18 89.5t22 109.5l155 811q10 51 17 92t12 74q5 26 -17 34l-121 39l6 43q132 -4 251 -4zM736 1498l-263 239l27 46l292 -135l317 135l26 -46l-309 -239h-90zM170 1400z" />
    <glyph glyph-name="Edieresis" unicode="&#xcb;" horiz-adv-x="1166" 
d="M520 1396h220q224 0 474 4l5 -8l-113 -309l-42 -7l-19 233h-445l-105 -553h101q72 0 200 1q28 2 39 27l62 136l54 2q-31 -144 -44 -211q-12 -65 -35 -200l-54 -4l-11 138q-2 26 -25 27q-88 2 -203 2h-100l-69 -365q-21 -111 -40 -221h467l160 256l49 8l-83 -348l-7 -7
q-258 3 -478 3h-219q-121 0 -245 -3l4 43l125 37q27 7 34 31q8 40 18 89.5t22 109.5l155 811q10 51 17 92t12 74q5 26 -17 34l-121 39l6 43q132 -4 251 -4zM703 1630q0 -51 -30.5 -83t-75.5 -32t-74 30t-29 77q0 52 30.5 82.5t77.5 30.5q45 0 73 -28t28 -77zM1112 1630
q0 -51 -30.5 -83t-75.5 -32t-74 30t-29 77q0 52 30.5 82.5t76.5 30.5q45 0 73.5 -28t28.5 -77zM170 1400z" />
    <glyph glyph-name="Emacron" unicode="&#x112;" horiz-adv-x="1166" 
d="M520 1396h220q224 0 474 4l5 -8l-113 -309l-42 -7l-19 233h-445l-105 -553h101q72 0 200 1q28 2 39 27l62 136l54 2q-31 -144 -44 -211q-12 -65 -35 -200l-54 -4l-11 138q-2 26 -25 27q-88 2 -203 2h-100l-69 -365q-21 -111 -40 -221h467l160 256l49 8l-83 -348l-7 -7
q-258 3 -478 3h-219q-121 0 -245 -3l4 43l125 37q27 7 34 31q8 40 18 89.5t22 109.5l155 811q10 51 17 92t12 74q5 26 -17 34l-121 39l6 43q132 -4 251 -4zM540 1557l21 106h500l-21 -106h-500zM170 1400z" />
    <glyph glyph-name="Ebreve" unicode="&#x114;" horiz-adv-x="1166" 
d="M520 1396h220q224 0 474 4l5 -8l-113 -309l-42 -7l-19 233h-445l-105 -553h101q72 0 200 1q28 2 39 27l62 136l54 2q-31 -144 -44 -211q-12 -65 -35 -200l-54 -4l-11 138q-2 26 -25 27q-88 2 -203 2h-100l-69 -365q-21 -111 -40 -221h467l160 256l49 8l-83 -348l-7 -7
q-258 3 -478 3h-219q-121 0 -245 -3l4 43l125 37q27 7 34 31q8 40 18 89.5t22 109.5l155 811q10 51 17 92t12 74q5 26 -17 34l-121 39l6 43q132 -4 251 -4zM630 1816q0 -86 42.5 -131.5t128.5 -45.5q83 0 140 44.5t89 124.5l68 7q-20 -134 -101 -220.5t-211 -86.5
q-113 0 -171 58.5t-58 171.5q0 32 6 70zM170 1400z" />
    <glyph glyph-name="Edotaccent" unicode="&#x116;" horiz-adv-x="1166" 
d="M520 1396h220q224 0 474 4l5 -8l-113 -309l-42 -7l-19 233h-445l-105 -553h101q72 0 200 1q28 2 39 27l62 136l54 2q-31 -144 -44 -211q-12 -65 -35 -200l-54 -4l-11 138q-2 26 -25 27q-88 2 -203 2h-100l-69 -365q-21 -111 -40 -221h467l160 256l49 8l-83 -348l-7 -7
q-258 3 -478 3h-219q-121 0 -245 -3l4 43l125 37q27 7 34 31q8 40 18 89.5t22 109.5l155 811q10 51 17 92t12 74q5 26 -17 34l-121 39l6 43q132 -4 251 -4zM903 1632q0 -52 -32 -84.5t-80 -32.5q-47 0 -77.5 30.5t-30.5 78.5q0 53 32 84t81 31q48 0 77.5 -28.5t29.5 -78.5z
M170 1400z" />
    <glyph glyph-name="Eogonek" unicode="&#x118;" horiz-adv-x="1166" 
d="M520 1396h220q224 0 474 4l5 -8l-113 -309l-42 -7l-19 233h-445l-105 -553h101q72 0 200 1q28 2 39 27l62 136l54 2q-31 -144 -44 -211q-12 -65 -35 -200l-54 -4l-11 138q-2 26 -25 27q-88 2 -203 2h-100l-69 -365q-21 -111 -40 -221h467l160 256l49 8l-83 -348l-7 -7
l-107 3q-79 -11 -145 -80t-66 -172q0 -76 47.5 -112.5t133.5 -37.5q24 0 45 2l5 -39q-147 -51 -221 -51q-82 0 -130 48.5t-48 127.5q0 181 232 314h-443q-121 0 -245 -3l4 43l125 37q27 7 34 31q8 40 18 89.5t22 109.5l155 811q10 51 17 92t12 74q5 26 -17 34l-121 39l6 43
q132 -4 251 -4z" />
    <glyph glyph-name="Gcircumflex" unicode="&#x11c;" horiz-adv-x="1387" 
d="M1253 1051l-41 -6l-24 265q-94 29 -210 29q-288 0 -470 -221t-182 -532q0 -232 125 -383.5t329 -151.5q71 0 148 17l51 272q11 51 17.5 91.5t13.5 74.5q0 25 -18 34l-121 39l6 43q133 -4 248 -4q120 0 229 4l-4 -43l-110 -33q-27 -7 -33 -30q-8 -40 -16.5 -81.5
t-18.5 -90.5l-61 -317l-7 -7q-187 -50 -363 -50q-293 0 -460 154t-167 431q0 386 252 627t652 241q168 0 346 -41l5 -8zM1053 1770l263 -239l-27 -46l-292 135l-317 -135l-26 46l309 239h90zM371 1400z" />
    <glyph glyph-name="Gbreve" unicode="&#x11e;" horiz-adv-x="1387" 
d="M1253 1051l-41 -6l-24 265q-94 29 -210 29q-288 0 -470 -221t-182 -532q0 -232 125 -383.5t329 -151.5q71 0 148 17l51 272q11 51 17.5 91.5t13.5 74.5q0 25 -18 34l-121 39l6 43q133 -4 248 -4q120 0 229 4l-4 -43l-110 -33q-27 -7 -33 -30q-8 -40 -16.5 -81.5
t-18.5 -90.5l-61 -317l-7 -7q-187 -50 -363 -50q-293 0 -460 154t-167 431q0 386 252 627t652 241q168 0 346 -41l5 -8zM831 1816q0 -86 42.5 -131.5t128.5 -45.5q83 0 140 44.5t89 124.5l68 7q-20 -134 -101 -220.5t-211 -86.5q-113 0 -171 58.5t-58 171.5q0 32 6 70z
M371 1400z" />
    <glyph glyph-name="Gdotaccent" unicode="&#x120;" horiz-adv-x="1387" 
d="M1253 1051l-41 -6l-24 265q-94 29 -210 29q-288 0 -470 -221t-182 -532q0 -232 125 -383.5t329 -151.5q71 0 148 17l51 272q11 51 17.5 91.5t13.5 74.5q0 25 -18 34l-121 39l6 43q133 -4 248 -4q120 0 229 4l-4 -43l-110 -33q-27 -7 -33 -30q-8 -40 -16.5 -81.5
t-18.5 -90.5l-61 -317l-7 -7q-187 -50 -363 -50q-293 0 -460 154t-167 431q0 386 252 627t652 241q168 0 346 -41l5 -8zM1104 1632q0 -52 -32 -84.5t-80 -32.5q-47 0 -77.5 30.5t-30.5 78.5q0 53 32 84t81 31q48 0 77.5 -28.5t29.5 -78.5zM371 1400z" />
    <glyph glyph-name="Gcommaaccent" unicode="&#x122;" horiz-adv-x="1387" 
d="M1253 1051l-41 -6l-24 265q-94 29 -210 29q-288 0 -470 -221t-182 -532q0 -232 125 -383.5t329 -151.5q71 0 148 17l51 272q11 51 17.5 91.5t13.5 74.5q0 25 -18 34l-121 39l6 43q133 -4 248 -4q120 0 229 4l-4 -43l-110 -33q-27 -7 -33 -30q-8 -40 -16.5 -81.5
t-18.5 -90.5l-61 -317l-7 -7q-187 -50 -363 -50q-293 0 -460 154t-167 431q0 386 252 627t652 241q168 0 346 -41l5 -8zM546 -448q101 78 101 156q0 65 -70 107q2 45 30.5 71.5t70.5 26.5q47 0 76.5 -34.5t29.5 -88.5q0 -146 -204 -276z" />
    <glyph glyph-name="Hcircumflex" unicode="&#x124;" horiz-adv-x="1597" 
d="M483 694l-74 -387q-22 -118 -36 -198q-4 -27 20 -34l107 -35l-6 -43q-120 3 -237 3q-118 0 -243 -3l4 43l125 37q29 8 34 31q18 81 40 199l155 811q19 100 29 166q5 26 -17 34l-121 39l6 43q132 -4 247 -4q121 0 239 4l-4 -43l-120 -35q-26 -6 -32 -31q-16 -72 -35 -169
l-64 -338h713l64 338q19 97 31 169q4 25 -20 31l-107 35l6 43q123 -4 241 -4q117 0 239 4l-4 -43l-130 -39q-24 -8 -30 -34q-15 -66 -34 -166l-155 -811q-21 -118 -35 -199q-3 -23 20 -31l119 -37l-6 -43q-135 3 -251 3q-120 0 -233 -3l4 43l117 35q27 7 33 34q18 80 40 198
l74 387h-713zM1057 1770l263 -239l-27 -46l-292 135l-317 -135l-26 46l309 239h90zM375 1400z" />
    <glyph glyph-name="Hbar" unicode="&#x126;" horiz-adv-x="1597" 
d="M480 681l-71 -374q-22 -118 -36 -198q-4 -27 20 -34l107 -35l-6 -43q-120 3 -237 3q-118 0 -243 -3l4 43l125 37q29 8 34 31q18 81 40 199l133 697h-151l17 89h151l5 25q19 100 29 166q5 26 -17 34l-121 39l6 43q132 -4 247 -4q121 0 239 4l-4 -43l-120 -35
q-26 -6 -32 -31q-16 -72 -35 -169l-6 -29h713l6 29q19 97 31 169q4 25 -20 31l-107 35l6 43q123 -4 241 -4q117 0 239 4l-4 -43l-130 -39q-24 -8 -30 -34q-15 -66 -34 -166l-5 -25h151l-17 -89h-151l-133 -697q-21 -118 -35 -199q-3 -23 20 -31l119 -37l-6 -43
q-135 3 -251 3q-120 0 -233 -3l4 43l117 35q27 7 33 34q18 80 40 198l71 374h-713zM1210 771l44 233h-713l-44 -233h713z" />
    <glyph glyph-name="Igrave" unicode="&#xcc;" horiz-adv-x="692" 
d="M409 307q-12 -60 -20.5 -109t-15.5 -89q-3 -25 28 -34l112 -35l-7 -43q-132 3 -246 3q-122 0 -246 -3l4 43l125 37q27 7 34 31q8 40 18 89.5t22 109.5l155 811q10 51 17 92t12 74q5 26 -17 34l-121 39l6 43q132 -4 250 -4t243 4l-5 -43l-127 -37q-25 -6 -31 -31
q-9 -35 -17 -76.5t-18 -90.5zM295 1651l107 119l301 -245l-23 -39l-385 150v15zM-88 1400z" />
    <glyph glyph-name="Iacute" unicode="&#xcd;" horiz-adv-x="692" 
d="M409 307q-12 -60 -20.5 -109t-15.5 -89q-3 -25 28 -34l112 -35l-7 -43q-132 3 -246 3q-122 0 -246 -3l4 43l125 37q27 7 34 31q8 40 18 89.5t22 109.5l155 811q10 51 17 92t12 74q5 26 -17 34l-121 39l6 43q132 -4 250 -4t243 4l-5 -43l-127 -37q-25 -6 -31 -31
q-9 -35 -17 -76.5t-18 -90.5zM773 1636l-416 -150l-23 41l323 243l116 -119v-15zM-88 1400z" />
    <glyph glyph-name="Icircumflex" unicode="&#xce;" horiz-adv-x="692" 
d="M409 307q-12 -60 -20.5 -109t-15.5 -89q-3 -25 28 -34l112 -35l-7 -43q-132 3 -246 3q-122 0 -246 -3l4 43l125 37q27 7 34 31q8 40 18 89.5t22 109.5l155 811q10 51 17 92t12 74q5 26 -17 34l-121 39l6 43q132 -4 250 -4t243 4l-5 -43l-127 -37q-25 -6 -31 -31
q-9 -35 -17 -76.5t-18 -90.5zM605 1770l263 -239l-27 -46l-292 135l-317 -135l-26 46l309 239h90zM-77 1400z" />
    <glyph glyph-name="Itilde" unicode="&#x128;" horiz-adv-x="692" 
d="M409 307q-12 -60 -20.5 -109t-15.5 -89q-3 -25 28 -34l112 -35l-7 -43q-132 3 -246 3q-122 0 -246 -3l4 43l125 37q27 7 34 31q8 40 18 89.5t22 109.5l155 811q10 51 17 92t12 74q5 26 -17 34l-121 39l6 43q132 -4 250 -4t243 4l-5 -43l-127 -37q-25 -6 -31 -31
q-9 -35 -17 -76.5t-18 -90.5zM430 1622q-38 0 -69.5 -24.5t-70.5 -69.5l-47 37q60 96 116 145.5t111 49.5q30 0 63.5 -16t67.5 -36q31 -17 58 -31t48 -14q39 0 70 24.5t70 69.5l48 -32q-61 -101 -117 -150.5t-111 -49.5q-30 0 -64 16t-66 35q-30 17 -57.5 31.5t-49.5 14.5z
M-77 1400z" />
    <glyph glyph-name="Idieresis" unicode="&#xcf;" horiz-adv-x="692" 
d="M409 307q-12 -60 -20.5 -109t-15.5 -89q-3 -25 28 -34l112 -35l-7 -43q-132 3 -246 3q-122 0 -246 -3l4 43l125 37q27 7 34 31q8 40 18 89.5t22 109.5l155 811q10 51 17 92t12 74q5 26 -17 34l-121 39l6 43q132 -4 250 -4t243 4l-5 -43l-127 -37q-25 -6 -31 -31
q-9 -35 -17 -76.5t-18 -90.5zM456 1630q0 -51 -30.5 -83t-75.5 -32t-74 30t-29 77q0 52 30.5 82.5t77.5 30.5q45 0 73 -28t28 -77zM865 1630q0 -51 -30.5 -83t-75.5 -32t-74 30t-29 77q0 52 30.5 82.5t76.5 30.5q45 0 73.5 -28t28.5 -77zM-77 1400z" />
    <glyph glyph-name="Imacron" unicode="&#x12a;" horiz-adv-x="692" 
d="M409 307q-12 -60 -20.5 -109t-15.5 -89q-3 -25 28 -34l112 -35l-7 -43q-132 3 -246 3q-122 0 -246 -3l4 43l125 37q27 7 34 31q8 40 18 89.5t22 109.5l155 811q10 51 17 92t12 74q5 26 -17 34l-121 39l6 43q132 -4 250 -4t243 4l-5 -43l-127 -37q-25 -6 -31 -31
q-9 -35 -17 -76.5t-18 -90.5zM293 1557l21 106h500l-21 -106h-500zM-77 1400z" />
    <glyph glyph-name="Ibreve" unicode="&#x12c;" horiz-adv-x="692" 
d="M409 307q-12 -60 -20.5 -109t-15.5 -89q-3 -25 28 -34l112 -35l-7 -43q-132 3 -246 3q-122 0 -246 -3l4 43l125 37q27 7 34 31q8 40 18 89.5t22 109.5l155 811q10 51 17 92t12 74q5 26 -17 34l-121 39l6 43q132 -4 250 -4t243 4l-5 -43l-127 -37q-25 -6 -31 -31
q-9 -35 -17 -76.5t-18 -90.5zM383 1816q0 -86 42.5 -131.5t128.5 -45.5q83 0 140 44.5t89 124.5l68 7q-20 -134 -101 -220.5t-211 -86.5q-113 0 -171 58.5t-58 171.5q0 32 6 70zM-77 1400z" />
    <glyph glyph-name="Idotaccent" unicode="&#x130;" horiz-adv-x="692" 
d="M409 307q-12 -60 -20.5 -109t-15.5 -89q-3 -25 28 -34l112 -35l-7 -43q-132 3 -246 3q-122 0 -246 -3l4 43l125 37q27 7 34 31q8 40 18 89.5t22 109.5l155 811q10 51 17 92t12 74q5 26 -17 34l-121 39l6 43q132 -4 250 -4t243 4l-5 -43l-127 -37q-25 -6 -31 -31
q-9 -35 -17 -76.5t-18 -90.5zM656 1632q0 -52 -32 -84.5t-80 -32.5q-47 0 -77.5 30.5t-30.5 78.5q0 53 32 84t81 31q48 0 77.5 -28.5t29.5 -78.5zM-77 1400z" />
    <glyph glyph-name="Iogonek" unicode="&#x12e;" horiz-adv-x="678" 
d="M375 307q-12 -60 -20.5 -109t-15.5 -89q-3 -25 28 -34l112 -35l-7 -43q-48 1 -93 2q-82 -8 -149 -78t-67 -173q0 -76 47.5 -112.5t133.5 -37.5q23 0 44 2l6 -39q-147 -51 -221 -51q-82 0 -130 48.5t-48 127.5q0 181 232 312v2q-123 0 -247 -3l4 43l125 37q27 7 34 31
q8 40 18 89.5t22 109.5l155 811q10 51 17 92t12 74q5 26 -17 34l-121 39l6 43q132 -4 250 -4t243 4l-5 -43l-127 -37q-25 -6 -31 -31q-9 -35 -17 -76.5t-18 -90.5z" />
    <glyph glyph-name="IJ" unicode="&#x132;" horiz-adv-x="1330" 
d="M409 307q-12 -60 -20.5 -109t-15.5 -89q-3 -25 28 -34l112 -35l-7 -43q-132 3 -246 3q-122 0 -246 -3l4 43l125 37q27 7 34 31q8 40 18 89.5t22 109.5l155 811q10 51 17 92t12 74q5 26 -17 34l-121 39l6 43q132 -4 250 -4t243 4l-5 -43l-127 -37q-25 -6 -31 -31
q-9 -35 -17 -76.5t-18 -90.5zM947 1400q132 -4 251 -4q116 0 241 4l-4 -43l-127 -37q-25 -6 -32 -31q-8 -35 -16.5 -76.5t-17.5 -90.5l-172 -906q-19 -98 -42.5 -178.5t-53.5 -143.5t-74 -112.5t-103.5 -88t-140 -67.5t-180.5 -52l-12 49q112 44 181.5 97t113 121t68 153
t44.5 192l179 932q9 51 16.5 92t12.5 74q4 26 -18 34l-121 39z" />
    <glyph glyph-name="Jcircumflex" unicode="&#x134;" horiz-adv-x="638" 
d="M255 1400q132 -4 251 -4q116 0 241 4l-4 -43l-127 -37q-25 -6 -32 -31q-8 -35 -16.5 -76.5t-17.5 -90.5l-172 -906q-19 -98 -42.5 -178.5t-53.5 -143.5t-74 -112.5t-103.5 -88t-140 -67.5t-180.5 -52l-12 49q112 44 181.5 97t113 121t68 153t44.5 192l179 932
q9 51 16.5 92t12.5 74q4 26 -18 34l-121 39zM591 1770l263 -239l-27 -46l-292 135l-317 -135l-26 46l309 239h90zM-91 1400z" />
    <glyph glyph-name="Kcommaaccent" unicode="&#x136;" horiz-adv-x="1344" 
d="M564 1122l-155 -815q-12 -60 -20.5 -109t-15.5 -89q-3 -26 20 -34l109 -35l-6 -43q-122 3 -237 3q-121 0 -245 -3l4 43l125 37q29 8 34 31q8 40 18 89.5t22 109.5l155 811q10 51 17 92t12 74q5 26 -17 34l-121 39l6 43q132 -4 251 -4q116 0 231 4l-4 -43l-116 -35
q-25 -6 -32 -31q-7 -36 -16 -78t-19 -91zM513 713l473 444q55 53 90.5 89.5t40.5 58.5q3 20 -21 27l-79 22l6 46q101 -4 228 -4q115 0 214 4l-4 -43l-103 -32q-48 -15 -90 -46t-90 -73l-475 -446l331 -589q25 -42 48 -64.5t67 -36.5l101 -30l-6 -43q-88 3 -217 3
q-34 0 -64.5 -0.5t-66.5 -1.5q-21 72 -133 271zM466 -448q101 78 101 156q0 65 -70 107q2 45 30.5 71.5t70.5 26.5q47 0 76.5 -34.5t29.5 -88.5q0 -146 -204 -276z" />
    <glyph glyph-name="Lacute" unicode="&#x139;" horiz-adv-x="1117" 
d="M564 1122l-154 -813q-21 -111 -40 -221h475l170 266l49 8l-85 -358l-7 -7q-227 3 -447 3h-266q-121 0 -245 -3l4 43l125 37q27 7 34 31q8 40 18 89.5t22 109.5l155 811q10 51 17 92t12 74q5 26 -17 34l-121 39l6 43q132 -4 251 -4q117 0 242 4l-5 -43l-127 -37
q-25 -6 -31 -31q-9 -35 -22 -102t-13 -65zM773 1636l-416 -150l-23 41l323 243l116 -119v-15zM-88 1400z" />
    <glyph glyph-name="Lcaron" unicode="&#x13d;" horiz-adv-x="1117" 
d="M564 1122l-154 -813q-21 -111 -40 -221h475l170 266l49 8l-85 -358l-7 -7q-227 3 -447 3h-266q-121 0 -245 -3l4 43l125 37q27 7 34 31q8 40 18 89.5t22 109.5l155 811q10 51 17 92t12 74q5 26 -17 34l-121 39l6 43q132 -4 251 -4q117 0 242 4l-5 -43l-127 -37
q-25 -6 -31 -31q-9 -35 -22 -102t-13 -65zM865 967q104 104 104 204q0 84 -87 130q3 51 35.5 79.5t81.5 28.5q52 0 84.5 -36.5t32.5 -97.5q0 -178 -217 -346zM805 871z" />
    <glyph glyph-name="Lcommaaccent" unicode="&#x13b;" horiz-adv-x="1117" 
d="M564 1122l-154 -813q-21 -111 -40 -221h475l170 266l49 8l-85 -358l-7 -7q-227 3 -447 3h-266q-121 0 -245 -3l4 43l125 37q27 7 34 31q8 40 18 89.5t22 109.5l155 811q10 51 17 92t12 74q5 26 -17 34l-121 39l6 43q132 -4 251 -4q117 0 242 4l-5 -43l-127 -37
q-25 -6 -31 -31q-9 -35 -22 -102t-13 -65zM356 -448q101 78 101 156q0 65 -70 107q2 45 30.5 71.5t70.5 26.5q47 0 76.5 -34.5t29.5 -88.5q0 -146 -204 -276z" />
    <glyph glyph-name="Lslash" unicode="&#x141;" horiz-adv-x="1117" 
d="M564 1122l-63 -333l442 134l-13 -91l-447 -136l-73 -387q-21 -111 -40 -221h475l170 266l49 8l-85 -358l-7 -7q-227 3 -447 3h-266q-121 0 -245 -3l4 43l125 37q27 7 34 31q8 40 18 89.5t22 109.5l62 327l-161 -49l12 91l167 51l75 391q10 51 17 92t12 74q5 26 -17 34
l-121 39l6 43q132 -4 251 -4q117 0 242 4l-5 -43l-127 -37q-25 -6 -31 -31q-9 -35 -22 -102t-13 -65z" />
    <glyph glyph-name="Ldot" unicode="&#x13f;" horiz-adv-x="1117" 
d="M564 1122l-154 -813q-21 -111 -40 -221h475l170 266l49 8l-85 -358l-7 -7q-227 3 -447 3h-266q-121 0 -245 -3l4 43l125 37q27 7 34 31q8 40 18 89.5t22 109.5l155 811q10 51 17 92t12 74q5 26 -17 34l-121 39l6 43q132 -4 251 -4q117 0 242 4l-5 -43l-127 -37
q-25 -6 -31 -31q-9 -35 -22 -102t-13 -65zM1062 732q0 -52 -32 -84.5t-80 -32.5q-47 0 -77.5 30.5t-30.5 78.5q0 53 32 84t81 31q47 0 77 -28.5t30 -78.5zM377 372z" />
    <glyph glyph-name="Nacute" unicode="&#x143;" horiz-adv-x="1487" 
d="M457 1143l-154 -836q-11 -60 -19.5 -108.5t-15.5 -87.5q-4 -28 18 -34l117 -35l-7 -45q-128 3 -202 3q-80 0 -204 -3l4 43l125 37q29 8 34 31q9 41 19 90t21 109l150 811q9 51 16 92t12 74q5 27 -17 34l-121 39l6 43q66 -2 117 -3t86 -1q23 0 46 1t46 3l603 -1078
l152 800q10 49 17.5 90.5t13.5 76.5q3 23 -21 31l-115 34l6 46q66 -2 117 -3t88 -1q40 0 90.5 1t111.5 3l-4 -43l-130 -39q-24 -7 -30 -34q-8 -33 -16 -74t-18 -92l-213 -1118l-81 -8zM1181 1636l-416 -150l-23 41l323 243l116 -119v-15zM320 1400z" />
    <glyph glyph-name="Ncaron" unicode="&#x147;" horiz-adv-x="1487" 
d="M457 1143l-154 -836q-11 -60 -19.5 -108.5t-15.5 -87.5q-4 -28 18 -34l117 -35l-7 -45q-128 3 -202 3q-80 0 -204 -3l4 43l125 37q29 8 34 31q9 41 19 90t21 109l150 811q9 51 16 92t12 74q5 27 -17 34l-121 39l6 43q66 -2 117 -3t86 -1q23 0 46 1t46 3l603 -1078
l152 800q10 49 17.5 90.5t13.5 76.5q3 23 -21 31l-115 34l6 46q66 -2 117 -3t88 -1q40 0 90.5 1t111.5 3l-4 -43l-130 -39q-24 -7 -30 -34q-8 -33 -16 -74t-18 -92l-213 -1118l-81 -8zM886 1498l-263 239l27 46l292 -135l317 135l26 -46l-309 -239h-90zM320 1400z" />
    <glyph glyph-name="Ntilde" unicode="&#xd1;" horiz-adv-x="1487" 
d="M457 1143l-154 -836q-11 -60 -19.5 -108.5t-15.5 -87.5q-4 -28 18 -34l117 -35l-7 -45q-128 3 -202 3q-80 0 -204 -3l4 43l125 37q29 8 34 31q9 41 19 90t21 109l150 811q9 51 16 92t12 74q5 27 -17 34l-121 39l6 43q66 -2 117 -3t86 -1q23 0 46 1t46 3l603 -1078
l152 800q10 49 17.5 90.5t13.5 76.5q3 23 -21 31l-115 34l6 46q66 -2 117 -3t88 -1q40 0 90.5 1t111.5 3l-4 -43l-130 -39q-24 -7 -30 -34q-8 -33 -16 -74t-18 -92l-213 -1118l-81 -8zM827 1622q-38 0 -69.5 -24.5t-70.5 -69.5l-47 37q60 96 116 145.5t111 49.5
q30 0 63.5 -16t67.5 -36q31 -17 58 -31t48 -14q39 0 70 24.5t70 69.5l48 -32q-61 -101 -117 -150.5t-111 -49.5q-30 0 -64 16t-66 35q-30 17 -57.5 31.5t-49.5 14.5zM320 1400z" />
    <glyph glyph-name="Ncommaaccent" unicode="&#x145;" horiz-adv-x="1487" 
d="M457 1143l-154 -836q-11 -60 -19.5 -108.5t-15.5 -87.5q-4 -28 18 -34l117 -35l-7 -45q-128 3 -202 3q-80 0 -204 -3l4 43l125 37q29 8 34 31q9 41 19 90t21 109l150 811q9 51 16 92t12 74q5 27 -17 34l-121 39l6 43q66 -2 117 -3t86 -1q23 0 46 1t46 3l603 -1078
l152 800q10 49 17.5 90.5t13.5 76.5q3 23 -21 31l-115 34l6 46q66 -2 117 -3t88 -1q40 0 90.5 1t111.5 3l-4 -43l-130 -39q-24 -7 -30 -34q-8 -33 -16 -74t-18 -92l-213 -1118l-81 -8zM496 -448q101 78 101 156q0 65 -70 107q2 45 30.5 71.5t70.5 26.5q47 0 76.5 -34.5
t29.5 -88.5q0 -146 -204 -276z" />
    <glyph glyph-name="Ograve" unicode="&#xd2;" horiz-adv-x="1595" 
d="M713 -35q-274 0 -435 151t-161 427q0 368 238.5 626.5t584.5 258.5q274 0 435.5 -150t161.5 -428q0 -371 -238.5 -628t-585.5 -257zM1322 877q0 221 -109 346t-293 125q-275 0 -432 -237t-157 -594q0 -219 107.5 -345.5t294.5 -126.5q275 0 432 235.5t157 596.5z
M723 1651l107 119l301 -245l-23 -39l-385 150v15zM340 1400z" />
    <glyph glyph-name="Oacute" unicode="&#xd3;" horiz-adv-x="1595" 
d="M713 -35q-274 0 -435 151t-161 427q0 368 238.5 626.5t584.5 258.5q274 0 435.5 -150t161.5 -428q0 -371 -238.5 -628t-585.5 -257zM1322 877q0 221 -109 346t-293 125q-275 0 -432 -237t-157 -594q0 -219 107.5 -345.5t294.5 -126.5q275 0 432 235.5t157 596.5z
M1201 1636l-416 -150l-23 41l323 243l116 -119v-15zM340 1400z" />
    <glyph glyph-name="Ocircumflex" unicode="&#xd4;" horiz-adv-x="1595" 
d="M713 -35q-274 0 -435 151t-161 427q0 368 238.5 626.5t584.5 258.5q274 0 435.5 -150t161.5 -428q0 -371 -238.5 -628t-585.5 -257zM1322 877q0 221 -109 346t-293 125q-275 0 -432 -237t-157 -594q0 -219 107.5 -345.5t294.5 -126.5q275 0 432 235.5t157 596.5z
M1022 1770l263 -239l-27 -46l-292 135l-317 -135l-26 46l309 239h90zM340 1400z" />
    <glyph glyph-name="Otilde" unicode="&#xd5;" horiz-adv-x="1595" 
d="M713 -35q-274 0 -435 151t-161 427q0 368 238.5 626.5t584.5 258.5q274 0 435.5 -150t161.5 -428q0 -371 -238.5 -628t-585.5 -257zM1322 877q0 221 -109 346t-293 125q-275 0 -432 -237t-157 -594q0 -219 107.5 -345.5t294.5 -126.5q275 0 432 235.5t157 596.5z
M847 1622q-38 0 -69.5 -24.5t-70.5 -69.5l-47 37q60 96 116 145.5t111 49.5q30 0 63.5 -16t67.5 -36q31 -17 58 -31t48 -14q39 0 70 24.5t70 69.5l48 -32q-61 -101 -117 -150.5t-111 -49.5q-30 0 -64 16t-66 35q-30 17 -57.5 31.5t-49.5 14.5zM340 1400z" />
    <glyph glyph-name="Odieresis" unicode="&#xd6;" horiz-adv-x="1595" 
d="M713 -35q-274 0 -435 151t-161 427q0 368 238.5 626.5t584.5 258.5q274 0 435.5 -150t161.5 -428q0 -371 -238.5 -628t-585.5 -257zM1322 877q0 221 -109 346t-293 125q-275 0 -432 -237t-157 -594q0 -219 107.5 -345.5t294.5 -126.5q275 0 432 235.5t157 596.5z
M873 1630q0 -51 -30.5 -83t-75.5 -32t-74 30t-29 77q0 52 30.5 82.5t77.5 30.5q45 0 73 -28t28 -77zM1282 1630q0 -51 -30.5 -83t-75.5 -32t-74 30t-29 77q0 52 30.5 82.5t76.5 30.5q45 0 73.5 -28t28.5 -77zM340 1400z" />
    <glyph glyph-name="Omacron" unicode="&#x14c;" horiz-adv-x="1595" 
d="M713 -35q-274 0 -435 151t-161 427q0 368 238.5 626.5t584.5 258.5q274 0 435.5 -150t161.5 -428q0 -371 -238.5 -628t-585.5 -257zM1322 877q0 221 -109 346t-293 125q-275 0 -432 -237t-157 -594q0 -219 107.5 -345.5t294.5 -126.5q275 0 432 235.5t157 596.5z
M710 1557l21 106h500l-21 -106h-500zM340 1400z" />
    <glyph glyph-name="Obreve" unicode="&#x14e;" horiz-adv-x="1595" 
d="M713 -35q-274 0 -435 151t-161 427q0 368 238.5 626.5t584.5 258.5q274 0 435.5 -150t161.5 -428q0 -371 -238.5 -628t-585.5 -257zM1322 877q0 221 -109 346t-293 125q-275 0 -432 -237t-157 -594q0 -219 107.5 -345.5t294.5 -126.5q275 0 432 235.5t157 596.5z
M800 1816q0 -86 42.5 -131.5t128.5 -45.5q83 0 140 44.5t89 124.5l68 7q-20 -134 -101 -220.5t-211 -86.5q-113 0 -171 58.5t-58 171.5q0 32 6 70zM340 1400z" />
    <glyph glyph-name="Ohungarumlaut" unicode="&#x150;" horiz-adv-x="1595" 
d="M713 -35q-274 0 -435 151t-161 427q0 368 238.5 626.5t584.5 258.5q274 0 435.5 -150t161.5 -428q0 -371 -238.5 -628t-585.5 -257zM1322 877q0 221 -109 346t-293 125q-275 0 -432 -237t-157 -594q0 -219 107.5 -345.5t294.5 -126.5q275 0 432 235.5t157 596.5z
M902 1780h197l-278 -282h-70zM1190 1780h197l-280 -282h-70zM340 1400z" />
    <glyph glyph-name="Oslash" unicode="&#xd8;" horiz-adv-x="1595" 
d="M159 -93l-61 54l161 174q-142 149 -142 408q0 368 238.5 626.5t584.5 258.5q247 0 402 -122l154 166l67 -49l-160 -173q134 -147 134 -400q0 -371 -238.5 -628t-585.5 -257q-240 0 -394 115zM1237 1192q-110 157 -317 157q-275 0 -433 -237.5t-158 -594.5q0 -147 50 -252
zM422 191q110 -147 311 -147q275 0 433 236t158 597q0 139 -45 239z" />
    <glyph glyph-name="Oslashacute" unicode="&#x1fe;" horiz-adv-x="1595" 
d="M159 -93l-61 54l161 174q-142 149 -142 408q0 368 238.5 626.5t584.5 258.5q247 0 402 -122l154 166l67 -49l-160 -173q134 -147 134 -400q0 -371 -238.5 -628t-585.5 -257q-240 0 -394 115zM1237 1192q-110 157 -317 157q-275 0 -433 -237.5t-158 -594.5q0 -147 50 -252
zM422 191q110 -147 311 -147q275 0 433 236t158 597q0 139 -45 239zM1201 1636l-416 -150l-23 41l323 243l116 -119v-15zM340 1400z" />
    <glyph glyph-name="OE" unicode="&#x152;" horiz-adv-x="1976" 
d="M1550 1396q112 0 230 1t244 3l5 -8l-113 -309l-42 -7l-19 233h-445l-105 -553h101h86t114 1q28 1 39 27l62 136l54 2q-16 -72 -26.5 -124.5t-17.5 -86.5q-6 -32 -15 -82t-20 -118l-54 -4l-11 138q-1 25 -25 27q-45 1 -95 1.5t-108 0.5h-100l-69 -365q-11 -56 -20.5 -111
t-19.5 -110h467l160 256l49 8l-83 -348l-7 -7q-258 3 -478 3h-316q-123 -35 -260 -35q-280 0 -438 159t-158 436q0 361 240 614t601 253q136 0 278 -31h315zM1211 1285q-128 63 -267 63q-286 0 -450 -227.5t-164 -570.5q0 -233 103 -369t299 -136q142 0 253 55
q10 48 20 97.5t22 109.5l155 811q10 51 17 92t12 75z" />
    <glyph glyph-name="Racute" unicode="&#x154;" horiz-adv-x="1277" 
d="M409 307q-12 -60 -20.5 -108t-14.5 -87q-4 -31 19 -39l109 -33l-6 -43q-122 3 -237 3q-121 0 -245 -3l4 43l125 37q27 8 34 31q8 40 18 89.5t22 109.5l155 811q10 51 17 92t12 74q6 25 -17 34l-121 39l6 43q132 -4 254 -4q14 0 40.5 1.5t72.5 3.5t75.5 3t42.5 1
q214 0 326.5 -80t112.5 -228q0 -318 -384 -415q27 -55 50 -109.5t45 -110.5q21 -53 42 -104t45 -105q19 -46 38 -83t44.5 -63.5t60.5 -44t88 -25.5l-7 -44q-64 -9 -116 -9q-61 0 -104 8t-75 29t-57 57.5t-50 93.5q-19 44 -37 91t-35 97q-20 55 -40.5 111.5t-45.5 116.5
q-9 20 -17.5 32.5t-18 20t-21.5 10t-27 2.5l-96 3zM490 729q57 -3 108 -3q188 0 287 87t99 256q0 129 -71.5 191.5t-204.5 62.5q-39 0 -107 -8zM1016 1636l-416 -150l-23 41l323 243l116 -119v-15zM155 1400z" />
    <glyph glyph-name="Rcaron" unicode="&#x158;" horiz-adv-x="1277" 
d="M409 307q-12 -60 -20.5 -108t-14.5 -87q-4 -31 19 -39l109 -33l-6 -43q-122 3 -237 3q-121 0 -245 -3l4 43l125 37q27 8 34 31q8 40 18 89.5t22 109.5l155 811q10 51 17 92t12 74q6 25 -17 34l-121 39l6 43q132 -4 254 -4q14 0 40.5 1.5t72.5 3.5t75.5 3t42.5 1
q214 0 326.5 -80t112.5 -228q0 -318 -384 -415q27 -55 50 -109.5t45 -110.5q21 -53 42 -104t45 -105q19 -46 38 -83t44.5 -63.5t60.5 -44t88 -25.5l-7 -44q-64 -9 -116 -9q-61 0 -104 8t-75 29t-57 57.5t-50 93.5q-19 44 -37 91t-35 97q-20 55 -40.5 111.5t-45.5 116.5
q-9 20 -17.5 32.5t-18 20t-21.5 10t-27 2.5l-96 3zM490 729q57 -3 108 -3q188 0 287 87t99 256q0 129 -71.5 191.5t-204.5 62.5q-39 0 -107 -8zM721 1498l-263 239l27 46l292 -135l317 135l26 -46l-309 -239h-90zM155 1400z" />
    <glyph glyph-name="Rcommaaccent" unicode="&#x156;" horiz-adv-x="1277" 
d="M409 307q-12 -60 -20.5 -108t-14.5 -87q-4 -31 19 -39l109 -33l-6 -43q-122 3 -237 3q-121 0 -245 -3l4 43l125 37q27 8 34 31q8 40 18 89.5t22 109.5l155 811q10 51 17 92t12 74q6 25 -17 34l-121 39l6 43q132 -4 254 -4q14 0 40.5 1.5t72.5 3.5t75.5 3t42.5 1
q214 0 326.5 -80t112.5 -228q0 -318 -384 -415q27 -55 50 -109.5t45 -110.5q21 -53 42 -104t45 -105q19 -46 38 -83t44.5 -63.5t60.5 -44t88 -25.5l-7 -44q-64 -9 -116 -9q-61 0 -104 8t-75 29t-57 57.5t-50 93.5q-19 44 -37 91t-35 97q-20 55 -40.5 111.5t-45.5 116.5
q-9 20 -17.5 32.5t-18 20t-21.5 10t-27 2.5l-96 3zM490 729q57 -3 108 -3q188 0 287 87t99 256q0 129 -71.5 191.5t-204.5 62.5q-39 0 -107 -8zM416 -448q101 78 101 156q0 65 -70 107q2 45 30.5 71.5t70.5 26.5q47 0 76.5 -34.5t29.5 -88.5q0 -146 -204 -276z" />
    <glyph glyph-name="Sacute" unicode="&#x15a;" horiz-adv-x="1043" 
d="M905 1316q-74 24 -159 24q-156 0 -257.5 -75t-101.5 -199q0 -62 23.5 -106.5t63 -79t88.5 -60.5t102 -51q58 -29 110.5 -61.5t92.5 -74t64.5 -95.5t24.5 -126q0 -102 -41.5 -183.5t-124.5 -140.5q-166 -115 -420 -115q-195 0 -353 52l-4 8l110 340l46 7l18 -293
q97 -31 199 -31q168 0 270.5 76.5t102.5 205.5q0 64 -22.5 109t-60.5 79.5t-88.5 61.5t-105.5 55q-58 28 -109.5 62t-91.5 77t-64 98.5t-24 125.5q0 187 162.5 302t411.5 115q150 0 307 -38l6 -7l-112 -312l-41 -7zM981 1636l-416 -150l-23 41l323 243l116 -119v-15z
M120 1400z" />
    <glyph glyph-name="Scircumflex" unicode="&#x15c;" horiz-adv-x="1043" 
d="M905 1316q-74 24 -159 24q-156 0 -257.5 -75t-101.5 -199q0 -62 23.5 -106.5t63 -79t88.5 -60.5t102 -51q58 -29 110.5 -61.5t92.5 -74t64.5 -95.5t24.5 -126q0 -102 -41.5 -183.5t-124.5 -140.5q-166 -115 -420 -115q-195 0 -353 52l-4 8l110 340l46 7l18 -293
q97 -31 199 -31q168 0 270.5 76.5t102.5 205.5q0 64 -22.5 109t-60.5 79.5t-88.5 61.5t-105.5 55q-58 28 -109.5 62t-91.5 77t-64 98.5t-24 125.5q0 187 162.5 302t411.5 115q150 0 307 -38l6 -7l-112 -312l-41 -7zM802 1770l263 -239l-27 -46l-292 135l-317 -135l-26 46
l309 239h90zM120 1400z" />
    <glyph glyph-name="Scaron" unicode="&#x160;" horiz-adv-x="1043" 
d="M905 1316q-74 24 -159 24q-156 0 -257.5 -75t-101.5 -199q0 -62 23.5 -106.5t63 -79t88.5 -60.5t102 -51q58 -29 110.5 -61.5t92.5 -74t64.5 -95.5t24.5 -126q0 -102 -41.5 -183.5t-124.5 -140.5q-166 -115 -420 -115q-195 0 -353 52l-4 8l110 340l46 7l18 -293
q97 -31 199 -31q168 0 270.5 76.5t102.5 205.5q0 64 -22.5 109t-60.5 79.5t-88.5 61.5t-105.5 55q-58 28 -109.5 62t-91.5 77t-64 98.5t-24 125.5q0 187 162.5 302t411.5 115q150 0 307 -38l6 -7l-112 -312l-41 -7zM686 1498l-263 239l27 46l292 -135l317 135l26 -46
l-309 -239h-90zM120 1400z" />
    <glyph glyph-name="Scedilla" unicode="&#x15e;" horiz-adv-x="1043" 
d="M247 -183l120 155q-193 4 -350 53l-4 8l110 340l46 7l18 -293q97 -31 199 -31q168 0 270.5 76.5t102.5 205.5q0 64 -22.5 109t-60.5 79.5t-88.5 61.5t-105.5 55q-58 28 -109.5 62t-91.5 77t-64 98.5t-24 125.5q0 187 162.5 302t411.5 115q150 0 307 -38l6 -7l-112 -312
l-41 -7l-22 257q-74 24 -159 24q-156 0 -257.5 -75t-101.5 -199q0 -62 23.5 -106.5t63 -79t88.5 -60.5t102 -51q58 -29 110.5 -61.5t92.5 -74t64.5 -95.5t24.5 -126q0 -185 -132 -298.5t-369 -137.5l-64 -85q103 -49 103 -131q0 -110 -202 -246l-34 38q97 76 97 147
q0 73 -105 110z" />
    <glyph glyph-name="Scommaaccent" unicode="&#x218;" horiz-adv-x="1043" 
d="M905 1316q-74 24 -159 24q-156 0 -257.5 -75t-101.5 -199q0 -62 23.5 -106.5t63 -79t88.5 -60.5t102 -51q58 -29 110.5 -61.5t92.5 -74t64.5 -95.5t24.5 -126q0 -102 -41.5 -183.5t-124.5 -140.5q-166 -115 -420 -115q-195 0 -353 52l-4 8l110 340l46 7l18 -293
q97 -31 199 -31q168 0 270.5 76.5t102.5 205.5q0 64 -22.5 109t-60.5 79.5t-88.5 61.5t-105.5 55q-58 28 -109.5 62t-91.5 77t-64 98.5t-24 125.5q0 187 162.5 302t411.5 115q150 0 307 -38l6 -7l-112 -312l-41 -7zM246 -448q101 78 101 156q0 65 -70 107q2 45 30.5 71.5
t70.5 26.5q47 0 76.5 -34.5t29.5 -88.5q0 -146 -204 -276z" />
    <glyph glyph-name="Tcaron" unicode="&#x164;" horiz-adv-x="1232" 
d="M529 0q-123 0 -275 -3l10 43l152 44q27 7 32 31q17 76 40 194l190 1000h-337l-139 -268l-43 -7l39 358l8 8q244 -4 469 -4h242q225 0 475 4l5 -8l-126 -351l-41 -7l-19 275h-341l-190 -1000q-23 -118 -36 -194q-3 -24 21 -31l144 -44l-6 -43q-159 3 -274 3zM756 1498
l-263 239l27 46l292 -135l317 135l26 -46l-309 -239h-90zM190 1400z" />
    <glyph glyph-name="uni021A" unicode="&#x21a;" horiz-adv-x="1232" 
d="M529 0q-123 0 -275 -3l10 43l152 44q27 7 32 31q17 76 40 194l190 1000h-337l-139 -268l-43 -7l39 358l8 8q244 -4 469 -4h242q225 0 475 4l5 -8l-126 -351l-41 -7l-19 275h-341l-190 -1000q-23 -118 -36 -194q-3 -24 21 -31l144 -44l-6 -43q-159 3 -274 3zM356 -448
q101 78 101 156q0 65 -70 107q2 45 30.5 71.5t70.5 26.5q47 0 76.5 -34.5t29.5 -88.5q0 -146 -204 -276z" />
    <glyph glyph-name="Tbar" unicode="&#x166;" horiz-adv-x="1232" 
d="M529 0q-123 0 -275 -3l10 43l152 44q27 7 32 31q17 76 40 194l65 341h-260l18 91h259l108 568h-337l-139 -268l-43 -7l39 358l8 8q244 -4 469 -4h242q225 0 475 4l5 -8l-126 -351l-41 -7l-19 275h-341l-108 -568h259l-18 -91h-258l-65 -341q-23 -118 -36 -194
q-3 -24 21 -31l144 -44l-6 -43q-159 3 -274 3z" />
    <glyph glyph-name="Ugrave" unicode="&#xd9;" horiz-adv-x="1496" 
d="M234 1400q132 -4 248 -4q120 0 245 4l-4 -43l-127 -37q-26 -6 -32 -31q-8 -35 -16.5 -76.5t-18.5 -90.5l-99 -525q-23 -121 -23 -202q0 -156 79.5 -240.5t231.5 -84.5q115 0 193.5 35t132.5 103t87.5 170.5t59.5 238.5l96 505q9 49 16 90.5t13 76.5q3 23 -20 31l-114 34
l6 46q128 -4 212 -4q88 0 210 4l-4 -43l-129 -39q-25 -9 -31 -34q-7 -33 -15.5 -74t-17.5 -92l-99 -513q-31 -155 -77.5 -274t-119.5 -200.5t-176.5 -122.5t-246.5 -41q-233 0 -357 108.5t-124 314.5q0 80 18 176l106 552q10 51 17 92t13 74q5 25 -18 34l-121 39zM718 1651
l107 119l301 -245l-23 -39l-385 150v15zM335 1400z" />
    <glyph glyph-name="Uacute" unicode="&#xda;" horiz-adv-x="1496" 
d="M234 1400q132 -4 248 -4q120 0 245 4l-4 -43l-127 -37q-26 -6 -32 -31q-8 -35 -16.5 -76.5t-18.5 -90.5l-99 -525q-23 -121 -23 -202q0 -156 79.5 -240.5t231.5 -84.5q115 0 193.5 35t132.5 103t87.5 170.5t59.5 238.5l96 505q9 49 16 90.5t13 76.5q3 23 -20 31l-114 34
l6 46q128 -4 212 -4q88 0 210 4l-4 -43l-129 -39q-25 -9 -31 -34q-7 -33 -15.5 -74t-17.5 -92l-99 -513q-31 -155 -77.5 -274t-119.5 -200.5t-176.5 -122.5t-246.5 -41q-233 0 -357 108.5t-124 314.5q0 80 18 176l106 552q10 51 17 92t13 74q5 25 -18 34l-121 39zM1196 1636
l-416 -150l-23 41l323 243l116 -119v-15zM335 1400z" />
    <glyph glyph-name="Ucircumflex" unicode="&#xdb;" horiz-adv-x="1496" 
d="M234 1400q132 -4 248 -4q120 0 245 4l-4 -43l-127 -37q-26 -6 -32 -31q-8 -35 -16.5 -76.5t-18.5 -90.5l-99 -525q-23 -121 -23 -202q0 -156 79.5 -240.5t231.5 -84.5q115 0 193.5 35t132.5 103t87.5 170.5t59.5 238.5l96 505q9 49 16 90.5t13 76.5q3 23 -20 31l-114 34
l6 46q128 -4 212 -4q88 0 210 4l-4 -43l-129 -39q-25 -9 -31 -34q-7 -33 -15.5 -74t-17.5 -92l-99 -513q-31 -155 -77.5 -274t-119.5 -200.5t-176.5 -122.5t-246.5 -41q-233 0 -357 108.5t-124 314.5q0 80 18 176l106 552q10 51 17 92t13 74q5 25 -18 34l-121 39zM1017 1770
l263 -239l-27 -46l-292 135l-317 -135l-26 46l309 239h90zM335 1400z" />
    <glyph glyph-name="Utilde" unicode="&#x168;" horiz-adv-x="1496" 
d="M234 1400q132 -4 248 -4q120 0 245 4l-4 -43l-127 -37q-26 -6 -32 -31q-8 -35 -16.5 -76.5t-18.5 -90.5l-99 -525q-23 -121 -23 -202q0 -156 79.5 -240.5t231.5 -84.5q115 0 193.5 35t132.5 103t87.5 170.5t59.5 238.5l96 505q9 49 16 90.5t13 76.5q3 23 -20 31l-114 34
l6 46q128 -4 212 -4q88 0 210 4l-4 -43l-129 -39q-25 -9 -31 -34q-7 -33 -15.5 -74t-17.5 -92l-99 -513q-31 -155 -77.5 -274t-119.5 -200.5t-176.5 -122.5t-246.5 -41q-233 0 -357 108.5t-124 314.5q0 80 18 176l106 552q10 51 17 92t13 74q5 25 -18 34l-121 39zM842 1622
q-38 0 -69.5 -24.5t-70.5 -69.5l-47 37q60 96 116 145.5t111 49.5q30 0 63.5 -16t67.5 -36q31 -17 58 -31t48 -14q39 0 70 24.5t70 69.5l48 -32q-61 -101 -117 -150.5t-111 -49.5q-30 0 -64 16t-66 35q-30 17 -57.5 31.5t-49.5 14.5zM335 1400z" />
    <glyph glyph-name="Udieresis" unicode="&#xdc;" horiz-adv-x="1496" 
d="M234 1400q132 -4 248 -4q120 0 245 4l-4 -43l-127 -37q-26 -6 -32 -31q-8 -35 -16.5 -76.5t-18.5 -90.5l-99 -525q-23 -121 -23 -202q0 -156 79.5 -240.5t231.5 -84.5q115 0 193.5 35t132.5 103t87.5 170.5t59.5 238.5l96 505q9 49 16 90.5t13 76.5q3 23 -20 31l-114 34
l6 46q128 -4 212 -4q88 0 210 4l-4 -43l-129 -39q-25 -9 -31 -34q-7 -33 -15.5 -74t-17.5 -92l-99 -513q-31 -155 -77.5 -274t-119.5 -200.5t-176.5 -122.5t-246.5 -41q-233 0 -357 108.5t-124 314.5q0 80 18 176l106 552q10 51 17 92t13 74q5 25 -18 34l-121 39zM868 1630
q0 -51 -30.5 -83t-75.5 -32t-74 30t-29 77q0 52 30.5 82.5t77.5 30.5q45 0 73 -28t28 -77zM1277 1630q0 -51 -30.5 -83t-75.5 -32t-74 30t-29 77q0 52 30.5 82.5t76.5 30.5q45 0 73.5 -28t28.5 -77zM335 1400z" />
    <glyph glyph-name="Umacron" unicode="&#x16a;" horiz-adv-x="1496" 
d="M234 1400q132 -4 248 -4q120 0 245 4l-4 -43l-127 -37q-26 -6 -32 -31q-8 -35 -16.5 -76.5t-18.5 -90.5l-99 -525q-23 -121 -23 -202q0 -156 79.5 -240.5t231.5 -84.5q115 0 193.5 35t132.5 103t87.5 170.5t59.5 238.5l96 505q9 49 16 90.5t13 76.5q3 23 -20 31l-114 34
l6 46q128 -4 212 -4q88 0 210 4l-4 -43l-129 -39q-25 -9 -31 -34q-7 -33 -15.5 -74t-17.5 -92l-99 -513q-31 -155 -77.5 -274t-119.5 -200.5t-176.5 -122.5t-246.5 -41q-233 0 -357 108.5t-124 314.5q0 80 18 176l106 552q10 51 17 92t13 74q5 25 -18 34l-121 39zM705 1557
l21 106h500l-21 -106h-500zM335 1400z" />
    <glyph glyph-name="Ubreve" unicode="&#x16c;" horiz-adv-x="1496" 
d="M234 1400q132 -4 248 -4q120 0 245 4l-4 -43l-127 -37q-26 -6 -32 -31q-8 -35 -16.5 -76.5t-18.5 -90.5l-99 -525q-23 -121 -23 -202q0 -156 79.5 -240.5t231.5 -84.5q115 0 193.5 35t132.5 103t87.5 170.5t59.5 238.5l96 505q9 49 16 90.5t13 76.5q3 23 -20 31l-114 34
l6 46q128 -4 212 -4q88 0 210 4l-4 -43l-129 -39q-25 -9 -31 -34q-7 -33 -15.5 -74t-17.5 -92l-99 -513q-31 -155 -77.5 -274t-119.5 -200.5t-176.5 -122.5t-246.5 -41q-233 0 -357 108.5t-124 314.5q0 80 18 176l106 552q10 51 17 92t13 74q5 25 -18 34l-121 39zM795 1816
q0 -86 42.5 -131.5t128.5 -45.5q83 0 140 44.5t89 124.5l68 7q-20 -134 -101 -220.5t-211 -86.5q-113 0 -171 58.5t-58 171.5q0 32 6 70zM335 1400z" />
    <glyph glyph-name="Uring" unicode="&#x16e;" horiz-adv-x="1496" 
d="M234 1400q132 -4 248 -4q120 0 245 4l-4 -43l-127 -37q-26 -6 -32 -31q-8 -35 -16.5 -76.5t-18.5 -90.5l-99 -525q-23 -121 -23 -202q0 -156 79.5 -240.5t231.5 -84.5q115 0 193.5 35t132.5 103t87.5 170.5t59.5 238.5l96 505q9 49 16 90.5t13 76.5q3 23 -20 31l-114 34
l6 46q128 -4 212 -4q88 0 210 4l-4 -43l-129 -39q-25 -9 -31 -34q-7 -33 -15.5 -74t-17.5 -92l-99 -513q-31 -155 -77.5 -274t-119.5 -200.5t-176.5 -122.5t-246.5 -41q-233 0 -357 108.5t-124 314.5q0 80 18 176l106 552q10 51 17 92t13 74q5 25 -18 34l-121 39zM946 1473
q-87 0 -138 39.5t-51 110.5q0 92 73.5 152.5t171.5 60.5q79 0 133 -41.5t54 -111.5q0 -92 -70 -151t-173 -59zM957 1531q56 0 89.5 40.5t33.5 103.5q0 46 -22 74.5t-67 28.5q-58 0 -91.5 -41t-33.5 -104q0 -44 23 -73t68 -29zM335 1400z" />
    <glyph glyph-name="Uhungarumlaut" unicode="&#x170;" horiz-adv-x="1496" 
d="M234 1400q132 -4 248 -4q120 0 245 4l-4 -43l-127 -37q-26 -6 -32 -31q-8 -35 -16.5 -76.5t-18.5 -90.5l-99 -525q-23 -121 -23 -202q0 -156 79.5 -240.5t231.5 -84.5q115 0 193.5 35t132.5 103t87.5 170.5t59.5 238.5l96 505q9 49 16 90.5t13 76.5q3 23 -20 31l-114 34
l6 46q128 -4 212 -4q88 0 210 4l-4 -43l-129 -39q-25 -9 -31 -34q-7 -33 -15.5 -74t-17.5 -92l-99 -513q-31 -155 -77.5 -274t-119.5 -200.5t-176.5 -122.5t-246.5 -41q-233 0 -357 108.5t-124 314.5q0 80 18 176l106 552q10 51 17 92t13 74q5 25 -18 34l-121 39zM897 1780
h197l-278 -282h-70zM1185 1780h197l-280 -282h-70zM335 1400z" />
    <glyph glyph-name="Uogonek" unicode="&#x172;" horiz-adv-x="1496" 
d="M234 1400q132 -4 248 -4q120 0 245 4l-4 -43l-127 -37q-26 -6 -32 -31q-8 -35 -16.5 -76.5t-18.5 -90.5l-99 -525q-23 -121 -23 -202q0 -156 79.5 -240.5t231.5 -84.5q115 0 193.5 35t132.5 103t87.5 170.5t59.5 238.5l96 505q9 49 16 90.5t13 76.5q3 23 -20 31l-114 34
l6 46q128 -4 212 -4q88 0 210 4l-4 -43l-129 -39q-25 -9 -31 -34q-7 -33 -15.5 -74t-17.5 -92l-99 -513q-61 -315 -182 -457.5t-304 -169.5q-143 -79 -143 -230q0 -76 47.5 -112.5t133.5 -37.5q24 0 45 2l5 -39q-147 -51 -221 -51q-82 0 -130 48.5t-48 127.5q0 159 180 281
q-236 0 -360 108.5t-124 314.5q0 80 18 176l106 552q10 51 17 92t13 74q5 25 -18 34l-121 39z" />
    <glyph glyph-name="Wgrave" unicode="&#x1e80;" horiz-adv-x="2055" 
d="M1286 -8l-144 1065l-560 -1057l-95 -8l-163 1228q-6 47 -22 73t-50 36l-91 28l7 43q110 -4 229 -4q121 0 271 4l-4 -43l-109 -31q-36 -9 -36 -60q0 -27 12 -118l107 -859l568 1109l79 6l151 -1123l455 902q23 47 34.5 74.5t11.5 43.5q0 13 -7.5 18.5t-23.5 9.5l-92 25
l6 46q119 -4 217 -4q107 0 206 4l-4 -43l-103 -32q-31 -9 -52.5 -28t-46.5 -66l-656 -1231zM1013 1651l107 119l301 -245l-23 -39l-385 150v15zM630 1400z" />
    <glyph glyph-name="Wacute" unicode="&#x1e82;" horiz-adv-x="2055" 
d="M1286 -8l-144 1065l-560 -1057l-95 -8l-163 1228q-6 47 -22 73t-50 36l-91 28l7 43q110 -4 229 -4q121 0 271 4l-4 -43l-109 -31q-36 -9 -36 -60q0 -27 12 -118l107 -859l568 1109l79 6l151 -1123l455 902q23 47 34.5 74.5t11.5 43.5q0 13 -7.5 18.5t-23.5 9.5l-92 25
l6 46q119 -4 217 -4q107 0 206 4l-4 -43l-103 -32q-31 -9 -52.5 -28t-46.5 -66l-656 -1231zM1491 1636l-416 -150l-23 41l323 243l116 -119v-15zM630 1400z" />
    <glyph glyph-name="Wcircumflex" unicode="&#x174;" horiz-adv-x="2055" 
d="M1286 -8l-144 1065l-560 -1057l-95 -8l-163 1228q-6 47 -22 73t-50 36l-91 28l7 43q110 -4 229 -4q121 0 271 4l-4 -43l-109 -31q-36 -9 -36 -60q0 -27 12 -118l107 -859l568 1109l79 6l151 -1123l455 902q23 47 34.5 74.5t11.5 43.5q0 13 -7.5 18.5t-23.5 9.5l-92 25
l6 46q119 -4 217 -4q107 0 206 4l-4 -43l-103 -32q-31 -9 -52.5 -28t-46.5 -66l-656 -1231zM1312 1770l263 -239l-27 -46l-292 135l-317 -135l-26 46l309 239h90zM630 1400z" />
    <glyph glyph-name="Wdieresis" unicode="&#x1e84;" horiz-adv-x="2055" 
d="M1286 -8l-144 1065l-560 -1057l-95 -8l-163 1228q-6 47 -22 73t-50 36l-91 28l7 43q110 -4 229 -4q121 0 271 4l-4 -43l-109 -31q-36 -9 -36 -60q0 -27 12 -118l107 -859l568 1109l79 6l151 -1123l455 902q23 47 34.5 74.5t11.5 43.5q0 13 -7.5 18.5t-23.5 9.5l-92 25
l6 46q119 -4 217 -4q107 0 206 4l-4 -43l-103 -32q-31 -9 -52.5 -28t-46.5 -66l-656 -1231zM1163 1630q0 -51 -30.5 -83t-75.5 -32t-74 30t-29 77q0 52 30.5 82.5t77.5 30.5q45 0 73 -28t28 -77zM1572 1630q0 -51 -30.5 -83t-75.5 -32t-74 30t-29 77q0 52 30.5 82.5
t76.5 30.5q45 0 73.5 -28t28.5 -77zM630 1400z" />
    <glyph glyph-name="Ygrave" unicode="&#x1ef2;" horiz-adv-x="1212" 
d="M707 712l314 437q35 48 60.5 86.5t25.5 59.5q0 25 -37 35l-88 24l6 46q112 -4 226 -4q109 0 209 4l-4 -43l-103 -32q-39 -11 -62.5 -35t-50.5 -59l-463 -617l-59 -307q-12 -60 -20.5 -109t-15.5 -89q-3 -25 28 -34l112 -35l-7 -43q-132 3 -250 3t-242 -3l4 43l125 37
q27 7 34 31q8 40 18 89.5t22 109.5l57 303l-227 593q-26 61 -44 88t-55 38l-90 28l6 43q94 -4 246 -4q122 0 263 4l-4 -43l-96 -26q-23 -5 -35 -17t-12 -33q0 -27 33 -110zM583 1651l107 119l301 -245l-23 -39l-385 150v15zM200 1400z" />
    <glyph glyph-name="Yacute" unicode="&#xdd;" horiz-adv-x="1212" 
d="M707 712l314 437q35 48 60.5 86.5t25.5 59.5q0 25 -37 35l-88 24l6 46q112 -4 226 -4q109 0 209 4l-4 -43l-103 -32q-39 -11 -62.5 -35t-50.5 -59l-463 -617l-59 -307q-12 -60 -20.5 -109t-15.5 -89q-3 -25 28 -34l112 -35l-7 -43q-132 3 -250 3t-242 -3l4 43l125 37
q27 7 34 31q8 40 18 89.5t22 109.5l57 303l-227 593q-26 61 -44 88t-55 38l-90 28l6 43q94 -4 246 -4q122 0 263 4l-4 -43l-96 -26q-23 -5 -35 -17t-12 -33q0 -27 33 -110zM1061 1636l-416 -150l-23 41l323 243l116 -119v-15zM200 1400z" />
    <glyph glyph-name="Ycircumflex" unicode="&#x176;" horiz-adv-x="1212" 
d="M707 712l314 437q35 48 60.5 86.5t25.5 59.5q0 25 -37 35l-88 24l6 46q112 -4 226 -4q109 0 209 4l-4 -43l-103 -32q-39 -11 -62.5 -35t-50.5 -59l-463 -617l-59 -307q-12 -60 -20.5 -109t-15.5 -89q-3 -25 28 -34l112 -35l-7 -43q-132 3 -250 3t-242 -3l4 43l125 37
q27 7 34 31q8 40 18 89.5t22 109.5l57 303l-227 593q-26 61 -44 88t-55 38l-90 28l6 43q94 -4 246 -4q122 0 263 4l-4 -43l-96 -26q-23 -5 -35 -17t-12 -33q0 -27 33 -110zM882 1770l263 -239l-27 -46l-292 135l-317 -135l-26 46l309 239h90zM200 1400z" />
    <glyph glyph-name="Ydieresis" unicode="&#x178;" horiz-adv-x="1212" 
d="M707 712l314 437q35 48 60.5 86.5t25.5 59.5q0 25 -37 35l-88 24l6 46q112 -4 226 -4q109 0 209 4l-4 -43l-103 -32q-39 -11 -62.5 -35t-50.5 -59l-463 -617l-59 -307q-12 -60 -20.5 -109t-15.5 -89q-3 -25 28 -34l112 -35l-7 -43q-132 3 -250 3t-242 -3l4 43l125 37
q27 7 34 31q8 40 18 89.5t22 109.5l57 303l-227 593q-26 61 -44 88t-55 38l-90 28l6 43q94 -4 246 -4q122 0 263 4l-4 -43l-96 -26q-23 -5 -35 -17t-12 -33q0 -27 33 -110zM733 1630q0 -51 -30.5 -83t-75.5 -32t-74 30t-29 77q0 52 30.5 82.5t77.5 30.5q45 0 73 -28t28 -77z
M1142 1630q0 -51 -30.5 -83t-75.5 -32t-74 30t-29 77q0 52 30.5 82.5t76.5 30.5q45 0 73.5 -28t28.5 -77zM200 1400z" />
    <glyph glyph-name="Zacute" unicode="&#x179;" horiz-adv-x="1162" 
d="M-20 -3l4 43l966 1269h-563l-103 -242l-42 -7l2 332l7 8q252 -4 472 -4h200q143 0 296 4l-4 -43l-964 -1269h593l173 272l49 7l-87 -363l-8 -7q-279 3 -498 3h-221q-141 0 -272 -3zM991 1636l-416 -150l-23 41l323 243l116 -119v-15zM130 1400z" />
    <glyph glyph-name="Zcaron" unicode="&#x17d;" horiz-adv-x="1162" 
d="M-20 -3l4 43l966 1269h-563l-103 -242l-42 -7l2 332l7 8q252 -4 472 -4h200q143 0 296 4l-4 -43l-964 -1269h593l173 272l49 7l-87 -363l-8 -7q-279 3 -498 3h-221q-141 0 -272 -3zM696 1498l-263 239l27 46l292 -135l317 135l26 -46l-309 -239h-90zM130 1400z" />
    <glyph glyph-name="Zdotaccent" unicode="&#x17b;" horiz-adv-x="1162" 
d="M-20 -3l4 43l966 1269h-563l-103 -242l-42 -7l2 332l7 8q252 -4 472 -4h200q143 0 296 4l-4 -43l-964 -1269h593l173 272l49 7l-87 -363l-8 -7q-279 3 -498 3h-221q-141 0 -272 -3zM863 1632q0 -52 -32 -84.5t-80 -32.5q-47 0 -77.5 30.5t-30.5 78.5q0 53 32 84t81 31
q48 0 77.5 -28.5t29.5 -78.5zM130 1400z" />
    <glyph glyph-name="Eng" unicode="&#x14a;" horiz-adv-x="1487" 
d="M457 1143l-154 -836q-11 -60 -19.5 -108.5t-15.5 -87.5q-4 -28 18 -34l117 -35l-7 -45q-128 3 -202 3q-80 0 -204 -3l4 43l125 37q29 8 34 31q9 42 19 90.5t21 108.5l150 811q9 51 16 92t12 74q4 27 -17 34l-121 39l6 43q66 -2 117 -3t86 -1q23 0 46 1t46 3l603 -1078
l152 800q10 49 17.5 90.5t13.5 76.5q3 23 -21 31l-115 34l6 46q66 -2 117 -3t88 -1q40 0 90.5 1t111.5 3l-4 -43l-130 -39q-24 -8 -30 -34q-8 -33 -16 -74t-18 -92l-174 -912q-15 -79 -31 -156t-39 -147t-55 -129.5t-78.5 -103t-111 -68.5t-151.5 -25q-41 0 -94 9
q17 105 44 200l10 5q93 -27 152 -27q80 0 125.5 51.5t84.5 218.5z" />
    <glyph glyph-name="Eth" unicode="&#xd0;" horiz-adv-x="1537" 
d="M259 0q-121 0 -245 -3l4 43l125 37q30 8 34 31q8 40 18 89.5t22 109.5l73 385h-151l17 89h151l65 337q10 51 17 92t12 74q5 25 -17 34l-121 39l6 43q132 -4 254 -4q59 0 156.5 5t164.5 5q298 0 464 -136t166 -393q0 -394 -247 -638.5t-662 -244.5q-53 0 -151 3t-155 3z
M368 86q93 -14 222 -14q307 0 490.5 231t183.5 579q0 222 -111.5 332t-341.5 110q-90 0 -210 -8l-101 -535h326l-17 -89h-326z" />
    <glyph glyph-name="Thorn" unicode="&#xde;" horiz-adv-x="1181" 
d="M269 1400q132 -4 250 -4t243 4l-5 -43l-127 -37q-25 -6 -31 -31q-9 -35 -16 -70t-15 -76q103 7 149 7q207 0 325.5 -86.5t118.5 -248.5q0 -237 -168.5 -363t-431.5 -126q-75 0 -146 11l-6 -30q-12 -60 -20.5 -109t-15.5 -89q-3 -25 28 -34l112 -35l-7 -43q-132 3 -246 3
q-122 0 -246 -3l4 43l125 37q27 7 34 31q8 40 18 89.5t22 109.5l155 811q10 51 17 92t12 74q5 26 -17 34l-121 39zM551 1057l-120 -637q47 -11 121 -11q196 0 298 97.5t102 282.5q0 134 -75 206.5t-224 72.5q-54 0 -102 -11z" />
    <glyph glyph-name="a" unicode="a" horiz-adv-x="1052" 
d="M960 930q-13 -46 -32 -121t-70 -323l-63 -312q-4 -20 -4 -39q0 -43 31.5 -58.5t113.5 -13.5l-3 -39q-130 -42 -192 -42q-57 0 -91.5 34t-34.5 99q0 10 1 32q-100 -88 -171 -128.5t-100 -40.5q-128 0 -202 98.5t-74 244.5q0 261 157 439.5t397 178.5q92 0 211 -37
q49 11 115 36zM751 819q-73 42 -143 42q-147 0 -249 -154t-102 -340q0 -107 39.5 -181t111.5 -74q23 0 79 27t143 92z" />
    <glyph glyph-name="b" unicode="b" horiz-adv-x="1053" 
d="M86 34q13 51 23.5 99.5t60.5 295.5l192 943l-149 26v35q167 32 343 73l9 -12q-18 -75 -42.5 -192.5t-54.5 -255.5l-46 -225q210 116 275 116q116 0 195 -94t79 -249q0 -260 -160.5 -438.5t-400.5 -178.5q-179 0 -324 57zM270 78q80 -21 152 -21q152 0 256.5 152.5
t104.5 338.5q0 108 -40.5 183t-113.5 75q-93 0 -224 -64z" />
    <glyph glyph-name="c" unicode="c" horiz-adv-x="936" 
d="M770 182l22 -34q-73 -78 -174.5 -123.5t-197.5 -45.5q-151 0 -248.5 102.5t-97.5 278.5q0 246 169.5 412t408.5 166q130 0 249 -53q-37 -141 -61 -269l-39 -6l-76 233q-42 12 -88 12q-164 0 -269.5 -135t-105.5 -329q0 -139 66.5 -214.5t188.5 -75.5q111 0 253 81z" />
    <glyph glyph-name="d" unicode="d" horiz-adv-x="1062" 
d="M725 1398v35q174 33 347 73l9 -12q-18 -75 -44 -192.5t-54 -256.5l-179 -871q-4 -20 -4 -39q0 -43 31.5 -58.5t113.5 -13.5l-3 -39q-129 -42 -191 -42q-58 0 -92 34t-34 99q0 10 1 32q-103 -88 -175 -128.5t-102 -40.5q-129 0 -205 98.5t-76 244.5q0 261 161.5 438.5
t405.5 177.5q67 0 147 -13l93 448zM760 822q-74 37 -146 37q-150 0 -254 -153t-104 -339q0 -107 40.5 -181t114.5 -74q24 0 81.5 27t147.5 92z" />
    <glyph glyph-name="e" unicode="e" horiz-adv-x="916" 
d="M262 436q-4 -35 -4 -67q0 -129 63 -198.5t178 -69.5q131 0 268 74l22 -35q-68 -73 -173.5 -117.5t-209.5 -44.5q-151 0 -243.5 101.5t-92.5 262.5q0 80 19.5 155t55 141.5t85 121.5t111 95t132.5 62t149 22q123 0 188.5 -52.5t65.5 -137.5q-1 -152 -186.5 -228.5
t-427.5 -84.5zM273 509q213 14 320 75t107 157q0 53 -32 83t-87 30q-102 0 -186.5 -92.5t-121.5 -252.5z" />
    <glyph glyph-name="f" unicode="f" horiz-adv-x="616" 
d="M252 817l-132 29l3 43l144 13l2 10q55 277 203 431.5t352 154.5q94 0 178 -27q-34 -115 -57 -249l-42 -7l-63 194q-18 5 -50 5q-119 0 -199 -101.5t-135 -374.5l-7 -35h252l-18 -90h-251l-154 -745q-59 -297 -163 -429.5t-285 -132.5q-67 0 -152 20q17 94 41 178l7 3
q132 -100 187 -100q118 0 171 293z" />
    <glyph glyph-name="g" unicode="g" horiz-adv-x="1041" 
d="M623 142q-101 -80 -171.5 -117t-100.5 -37q-125 0 -203 96.5t-78 240.5q0 261 158.5 437.5t402.5 176.5q92 0 212 -37q24 5 53 14.5t63 21.5l10 -8q-6 -23 -14 -53.5t-16 -68.5q-9 -36 -27.5 -117t-44.5 -205l-58 -282q-38 -184 -90 -316t-120 -218t-153 -126.5
t-190 -40.5q-123 0 -287 51q15 94 46 190l7 3q207 -137 309 -137q52 0 90.5 24.5t71 77t60 136t51.5 202.5zM762 819q-71 42 -145 42q-150 0 -254.5 -151.5t-104.5 -334.5q0 -110 40 -181t115 -71q64 0 229 108z" />
    <glyph glyph-name="h" unicode="h" horiz-adv-x="1127" 
d="M80 -5l283 1377l-150 26v35q171 32 346 73l8 -12q-18 -75 -42.5 -192.5t-52.5 -256.5l-49 -229q196 123 349 123q106 0 162.5 -56t56.5 -152q0 -45 -10 -92l-103 -475q-2 -11 -3 -20t-1 -16q0 -40 33 -52.5t112 -12.5l-3 -39q-128 -42 -202 -42q-58 0 -89 28.5t-31 88.5
q0 28 9 70l94 433q10 42 10 79q0 63 -32 98t-107 35q-121 0 -261 -82l-150 -727z" />
    <glyph glyph-name="i" unicode="i" horiz-adv-x="557" 
d="M302 164q-5 -20 -5 -36q0 -40 33 -52.5t112 -12.5l-3 -39q-130 -42 -202 -42q-56 0 -87.5 29t-31.5 88q0 28 8 70l120 583q3 17 5.5 29.5t2.5 22.5q0 27 -23 38t-118 11l3 38q136 46 213 46q51 0 79.5 -23.5t28.5 -73.5q0 -21 -4 -41zM524 1298q0 -52 -32 -84.5
t-80 -32.5q-47 0 -77.5 30.5t-30.5 78.5q0 53 32 84t81 31q47 0 77 -28.5t30 -78.5z" />
    <glyph glyph-name="j" unicode="j" horiz-adv-x="537" 
d="M117 853l3 38q137 46 214 46q51 0 79.5 -23.5t28.5 -73.5q0 -21 -4 -41l-142 -685q-39 -198 -130.5 -326.5t-332.5 -290.5l-38 41q203 197 246.5 302t73.5 251l136 661q3 17 5.5 29.5t2.5 22.5q0 27 -23 38t-119 11zM529 1298q0 -52 -32 -84.5t-80 -32.5t-78.5 30.5
t-30.5 78.5q0 53 32 84t82 31q47 0 77 -28.5t30 -78.5z" />
    <glyph glyph-name="k" unicode="k" horiz-adv-x="1048" 
d="M85 -5l283 1377l-150 26v35q86 16 172 34t174 39l8 -12q-18 -75 -42.5 -192.5t-52.5 -256.5l-215 -1040zM966 -3q-138 3 -195 3q-18 0 -41.5 -0.5t-54.5 -1.5q-44 105 -114 231t-168 277q320 279 391 408q37 -1 61 -1q65 0 232 3l-4 -41q-53 -13 -89 -23.5t-62 -21.5
q-28 -12 -55 -28t-62 -47l-230 -203l232 -386q38 -66 65 -89q27 -22 100 -39z" />
    <glyph glyph-name="l" unicode="l" horiz-adv-x="552" 
d="M209 1398v35q174 33 348 73l8 -12q-18 -75 -43.5 -192.5t-54.5 -256.5l-180 -881q-4 -18 -4 -36q0 -40 34 -52.5t113 -12.5l-4 -39q-128 -42 -203 -42q-58 0 -89 28.5t-31 88.5q0 14 1.5 31.5t6.5 38.5l248 1203z" />
    <glyph glyph-name="m" unicode="m" horiz-adv-x="1709" 
d="M95 -5l156 755q8 45 8 54q0 25 -24 37t-117 12l3 38q133 46 213 46q50 0 78.5 -24.5t28.5 -68.5q0 -6 -0.5 -13t-1.5 -15q191 123 343 123q169 0 206 -142q205 142 370 142q105 0 160.5 -55.5t55.5 -152.5q0 -49 -11 -92l-103 -475q-2 -11 -3 -20t-1 -16q0 -40 33 -52.5
t112 -12.5l-3 -39q-123 -42 -198 -42q-59 0 -91 28.5t-32 88.5q0 14 2 31.5t6 38.5l95 433q9 43 9 80q0 65 -31.5 98.5t-104.5 33.5q-121 0 -258 -86q-1 -44 -9 -89l-130 -634l-180 -10l125 607q10 43 10 80q0 65 -30 98.5t-104 33.5q-117 0 -254 -82l-148 -727z" />
    <glyph glyph-name="n" unicode="n" horiz-adv-x="1142" 
d="M95 -5l156 755q8 43 8 54q0 27 -23 38t-118 11l3 38q134 46 213 46q50 0 78.5 -24.5t28.5 -68.5q0 -12 -2 -28q195 123 348 123q106 0 163 -56t57 -152q0 -45 -11 -92l-103 -475q-2 -11 -3 -20t-1 -16q0 -40 33 -52.5t112 -12.5l-3 -39q-127 -42 -203 -42
q-58 0 -89.5 28.5t-31.5 88.5q0 28 8 70l98 433q9 43 9 80q0 63 -32 97.5t-107 34.5q-120 0 -260 -82l-148 -727z" />
    <glyph glyph-name="o" unicode="o" horiz-adv-x="1072" 
d="M579 938q184 0 294 -111t110 -299q0 -237 -139 -392.5t-359 -155.5q-187 0 -296 110.5t-109 293.5q0 240 137 397t362 157zM567 854q-133 0 -215.5 -141t-81.5 -338q1 -146 60 -228.5t167 -82.5q138 0 217 144.5t79 334.5q0 147 -60 229t-166 82z" />
    <glyph glyph-name="p" unicode="p" horiz-adv-x="1069" 
d="M-124 -445l110 34q28 9 32 31q8 37 19.5 92t26.5 129l186 909q8 45 8 54q0 25 -24 37t-117 12l3 38q133 46 213 46q50 0 78.5 -24.5t28.5 -68.5q0 -5 -0.5 -11t-1.5 -12h1q211 116 275 116q115 0 194.5 -94t79.5 -249q0 -261 -163.5 -440t-415.5 -179q-67 0 -142 14
l-45 -221q-11 -50 -17.5 -84.5t-9.5 -55.5q-4 -30 20 -36l135 -37l-7 -41q-154 3 -239 3q-99 0 -232 -3zM286 73q67 -15 131 -15q174 0 278.5 152t104.5 338q0 109 -40.5 183.5t-113.5 74.5q-94 0 -224 -64z" />
    <glyph glyph-name="q" unicode="q" horiz-adv-x="1044" 
d="M358 -445l122 34q26 8 33 31q26 121 108 522q-100 -84 -170 -124q-72 -40 -102 -40q-129 0 -205 98.5t-76 242.5q0 262 159.5 441t401.5 179q94 0 212 -37q50 11 116 36l10 -8q-12 -46 -30 -121t-72 -323l-135 -657q-34 -165 -41 -207q-4 -27 17 -34l111 -33l-6 -41
q-126 3 -223 3q-100 0 -234 -3zM760 819q-72 42 -145 42q-150 0 -254.5 -154t-104.5 -340q0 -107 40.5 -181t114.5 -74q24 0 81.5 27t147.5 92z" />
    <glyph glyph-name="r" unicode="r" horiz-adv-x="792" 
d="M95 -5l156 755q8 43 8 54q0 27 -23 38t-118 11l3 38q134 46 213 46q50 0 78.5 -24.5t28.5 -68.5q0 -7 -2 -28q204 123 359 123l5 -7q-32 -148 -64 -315l-40 -6q-23 96 -49 135t-84 39t-141 -43l-150 -737z" />
    <glyph glyph-name="s" unicode="s" horiz-adv-x="865" 
d="M651 838q-54 17 -124 17q-101 0 -164.5 -41.5t-63.5 -108.5q0 -37 17.5 -64t46 -48t66 -37.5t77.5 -33.5q43 -19 85.5 -39.5t76 -48t54 -64t20.5 -88.5q0 -141 -117.5 -222t-304.5 -81q-155 0 -305 64q33 120 60 257l39 7l64 -223q70 -22 156 -22q98 0 157.5 43t59.5 119
q0 32 -16 55.5t-42 42.5t-60 35.5t-71 32.5q-42 18 -83 39t-73.5 50t-53 69t-20.5 96q0 136 117 215t302 79q136 0 262 -47q-29 -101 -57 -246l-39 -7z" />
    <glyph glyph-name="t" unicode="t" horiz-adv-x="738" 
d="M442 813q-41 -167 -70.5 -299.5t-51.5 -234.5q-12 -59 -12 -91q0 -50 33.5 -76t101.5 -26q63 0 161 23l6 -45q-71 -38 -154.5 -60t-154.5 -22q-87 0 -132.5 40.5t-45.5 118.5q0 31 9 82q18 95 50 241t80 352l-133 30l2 43l164 14l107 250q51 12 112 30l8 -7
q-32 -134 -63 -273h283l-20 -90h-280z" />
    <glyph glyph-name="u" unicode="u" horiz-adv-x="1139" 
d="M855 906l179 11l-150 -726q-8 -35 -8 -56q0 -44 31.5 -59t113.5 -13l-3 -39q-128 -42 -191 -42q-58 0 -92 33.5t-34 99.5q0 18 1 37q-186 -174 -327 -174q-113 0 -174 68t-61 189q0 54 13 116l83 401q3 17 5.5 29.5t2.5 22.5q0 25 -24 37t-118 12l4 38q134 46 213 46
q51 0 79.5 -23.5t28.5 -73.5q0 -23 -4 -41l-99 -449q-10 -46 -10 -81q0 -76 38.5 -116t111.5 -40q97 0 252 124z" />
    <glyph glyph-name="v" unicode="v" horiz-adv-x="936" 
d="M431 197q64 80 117.5 162t92 167t60 174.5t21.5 183.5q95 24 188 54l11 -8q0 -63 -28.5 -144t-74.5 -170t-105 -181t-120 -175.5t-119 -154t-103 -118.5l-80 -8q-15 127 -31 242.5t-37 238.5q-6 37 -14.5 88.5t-19.5 101.5t-24.5 95.5t-30.5 65.5q-11 12 -22 20t-26.5 12
t-36.5 6.5t-50 3.5l3 38q134 46 214 46q40 0 63 -14t35 -41q9 -24 18.5 -62.5t19 -85t18 -98.5t16.5 -102.5t14.5 -96t11.5 -81.5q6 -33 10 -75t9 -84z" />
    <glyph glyph-name="w" unicode="w" horiz-adv-x="1424" 
d="M926 197q63 80 114.5 162t88 167t57.5 174.5t21 183.5q99 24 188 54l11 -8q0 -63 -28 -144t-73 -170t-103 -181t-117.5 -175.5t-117 -154t-100.5 -118.5l-81 -8q-23 283 -67 529q-125 -233 -346 -521l-82 -8q-15 127 -31 242.5t-37 238.5q-6 37 -14.5 88.5t-19.5 101.5
t-24.5 95.5t-30.5 65.5q-11 12 -22.5 20t-26.5 12t-36 6.5t-50 3.5l3 38q131 46 214 46q40 0 63 -14t35 -41q9 -24 18.5 -62.5t19 -85t18 -98.5t16.5 -102.5t14.5 -96.5t11.5 -81q14 -117 18 -157q156 218 266 443q-21 124 -50 246q87 17 158 36l10 -6q12 -56 25.5 -130.5
t26.5 -153t24 -152.5t18 -126q14 -117 18 -159z" />
    <glyph glyph-name="x" unicode="x" horiz-adv-x="1016" 
d="M964 745q-44 13 -82 13q-32 0 -63 -10t-65.5 -38t-74 -76t-90.5 -124q43 -101 84.5 -195.5t74.5 -163.5q14 -31 26 -48t28.5 -26t42 -11t67.5 -3l-4 -39q-126 -42 -200 -42q-35 0 -61.5 15.5t-48.5 63.5q-28 59 -60 135t-66 155q-74 -105 -125.5 -175.5t-96.5 -113
t-90.5 -60.5t-107.5 -18q-37 0 -73 7q27 105 54 180l5 3q45 -10 87 -10q36 0 67.5 9.5t66.5 37.5t77.5 80.5t100.5 140.5q-18 40 -37.5 85t-38.5 90t-37 86.5t-34 76.5q-13 28 -28 44.5t-35 24t-44.5 10.5t-57.5 4l3 38q136 46 205 46q29 0 45 -7.5t28.5 -21.5t23 -34.5
t22.5 -46.5q22 -50 48 -110.5t55 -126.5q66 94 115 159t94 105.5t90 58.5t102 18q39 0 69 -5q-20 -80 -56 -177z" />
    <glyph glyph-name="y" unicode="y" horiz-adv-x="983" 
d="M757 883q99 26 194 55l9 -8q-40 -143 -94.5 -275t-113.5 -249.5t-117.5 -218.5t-106.5 -181q-70 -111 -118.5 -218t-84.5 -193q-15 -34 -29 -52.5t-35 -28.5t-50.5 -13t-71.5 -3q-106 0 -189 10l-4 38q57 7 103 24.5t80 45.5q20 16 43.5 42t57 70t77.5 109.5t105 162.5
l-38 9q-7 55 -21 127t-33 150.5t-40 157.5t-42.5 146.5t-41 119t-34.5 74.5q-16 23 -33 37t-38 20t-46 8.5t-54 3.5l3 38q131 46 215 46q40 0 65.5 -14.5t39.5 -40.5q14 -25 32.5 -71.5t37.5 -105.5t38 -128.5t36 -142t30 -144.5t21 -136q103 175 162.5 355t85.5 374z" />
    <glyph glyph-name="z" unicode="z" horiz-adv-x="996" 
d="M1 20q206 234 340.5 395.5t345.5 420.5h-367l-113 -217l-40 -6q2 174 -2 294l6 10q203 -4 395 -4q183 0 394 4l3 -22q-178 -203 -336 -396t-341 -419h381l160 223l43 6q-30 -156 -54 -305l-9 -7q-185 3 -423 3q-207 0 -378 -3z" />
    <glyph glyph-name="agrave" unicode="&#xe0;" horiz-adv-x="1052" 
d="M960 930q-13 -46 -32 -121t-70 -323l-63 -312q-4 -20 -4 -39q0 -43 31.5 -58.5t113.5 -13.5l-3 -39q-130 -42 -192 -42q-57 0 -91.5 34t-34.5 99q0 10 1 32q-100 -88 -171 -128.5t-100 -40.5q-128 0 -202 98.5t-74 244.5q0 261 157 439.5t397 178.5q92 0 211 -37
q49 11 115 36zM751 819q-73 42 -143 42q-147 0 -249 -154t-102 -340q0 -107 39.5 -181t111.5 -74q23 0 79 27t143 92zM693 1044h-67l-183 373h192zM112 938z" />
    <glyph glyph-name="aacute" unicode="&#xe1;" horiz-adv-x="1052" 
d="M960 930q-13 -46 -32 -121t-70 -323l-63 -312q-4 -20 -4 -39q0 -43 31.5 -58.5t113.5 -13.5l-3 -39q-130 -42 -192 -42q-57 0 -91.5 34t-34.5 99q0 10 1 32q-100 -88 -171 -128.5t-100 -40.5q-128 0 -202 98.5t-74 244.5q0 261 157 439.5t397 178.5q92 0 211 -37
q49 11 115 36zM751 819q-73 42 -143 42q-147 0 -249 -154t-102 -340q0 -107 39.5 -181t111.5 -74q23 0 79 27t143 92zM751 1417h207l-312 -373h-70zM112 938z" />
    <glyph glyph-name="acircumflex" unicode="&#xe2;" horiz-adv-x="1052" 
d="M960 930q-13 -46 -32 -121t-70 -323l-63 -312q-4 -20 -4 -39q0 -43 31.5 -58.5t113.5 -13.5l-3 -39q-130 -42 -192 -42q-57 0 -91.5 34t-34.5 99q0 10 1 32q-100 -88 -171 -128.5t-100 -40.5q-128 0 -202 98.5t-74 244.5q0 261 157 439.5t397 178.5q92 0 211 -37
q49 11 115 36zM751 819q-73 42 -143 42q-147 0 -249 -154t-102 -340q0 -107 39.5 -181t111.5 -74q23 0 79 27t143 92zM932 1044h-72l-176 229l-256 -229h-76l283 373h147zM112 938z" />
    <glyph glyph-name="atilde" unicode="&#xe3;" horiz-adv-x="1052" 
d="M960 930q-13 -46 -32 -121t-70 -323l-63 -312q-4 -20 -4 -39q0 -43 31.5 -58.5t113.5 -13.5l-3 -39q-130 -42 -192 -42q-57 0 -91.5 34t-34.5 99q0 10 1 32q-100 -88 -171 -128.5t-100 -40.5q-128 0 -202 98.5t-74 244.5q0 261 157 439.5t397 178.5q92 0 211 -37
q49 11 115 36zM751 819q-73 42 -143 42q-147 0 -249 -154t-102 -340q0 -107 39.5 -181t111.5 -74q23 0 79 27t143 92zM539 1216q-40 0 -72.5 -25.5t-72.5 -72.5l-49 38q62 100 120 151.5t115 51.5q31 0 66 -17t70 -37q32 -18 60 -32.5t50 -14.5q40 0 72.5 25.5t72.5 72.5
l50 -34q-63 -104 -121 -155.5t-115 -51.5q-32 0 -67 16.5t-68 36.5q-31 18 -59.5 33t-51.5 15zM112 938z" />
    <glyph glyph-name="adieresis" unicode="&#xe4;" horiz-adv-x="1052" 
d="M960 930q-13 -46 -32 -121t-70 -323l-63 -312q-4 -20 -4 -39q0 -43 31.5 -58.5t113.5 -13.5l-3 -39q-130 -42 -192 -42q-57 0 -91.5 34t-34.5 99q0 10 1 32q-100 -88 -171 -128.5t-100 -40.5q-128 0 -202 98.5t-74 244.5q0 261 157 439.5t397 178.5q92 0 211 -37
q49 11 115 36zM751 819q-73 42 -143 42q-147 0 -249 -154t-102 -340q0 -107 39.5 -181t111.5 -74q23 0 79 27t143 92zM602 1304q0 -50 -30.5 -82t-75.5 -32t-74 29.5t-29 77.5q0 51 30.5 81.5t76.5 30.5t74 -28t28 -77zM975 1304q0 -50 -30.5 -82t-75.5 -32t-74 29.5
t-29 77.5q0 51 30.5 81.5t76.5 30.5q45 0 73.5 -28t28.5 -77zM112 938z" />
    <glyph glyph-name="amacron" unicode="&#x101;" horiz-adv-x="1052" 
d="M960 930q-13 -46 -32 -121t-70 -323l-63 -312q-4 -20 -4 -39q0 -43 31.5 -58.5t113.5 -13.5l-3 -39q-130 -42 -192 -42q-57 0 -91.5 34t-34.5 99q0 10 1 32q-100 -88 -171 -128.5t-100 -40.5q-128 0 -202 98.5t-74 244.5q0 261 157 439.5t397 178.5q92 0 211 -37
q49 11 115 36zM751 819q-73 42 -143 42q-147 0 -249 -154t-102 -340q0 -107 39.5 -181t111.5 -74q23 0 79 27t143 92zM408 1190l21 106h520l-21 -106h-520zM112 938z" />
    <glyph glyph-name="abreve" unicode="&#x103;" horiz-adv-x="1052" 
d="M960 930q-13 -46 -32 -121t-70 -323l-63 -312q-4 -20 -4 -39q0 -43 31.5 -58.5t113.5 -13.5l-3 -39q-130 -42 -192 -42q-57 0 -91.5 34t-34.5 99q0 10 1 32q-100 -88 -171 -128.5t-100 -40.5q-128 0 -202 98.5t-74 244.5q0 261 157 439.5t397 178.5q92 0 211 -37
q49 11 115 36zM751 819q-73 42 -143 42q-147 0 -249 -154t-102 -340q0 -107 39.5 -181t111.5 -74q23 0 79 27t143 92zM494 1395q0 -99 44.5 -150.5t129.5 -51.5q87 0 146 50.5t92 143.5l69 7q-21 -146 -107 -241q-85 -94 -220 -94q-111 0 -169 64.5t-58 187.5q0 35 6 76z
M112 938z" />
    <glyph glyph-name="aring" unicode="&#xe5;" horiz-adv-x="1052" 
d="M960 930q-13 -46 -32 -121t-70 -323l-63 -312q-4 -20 -4 -39q0 -43 31.5 -58.5t113.5 -13.5l-3 -39q-130 -42 -192 -42q-57 0 -91.5 34t-34.5 99q0 10 1 32q-100 -88 -171 -128.5t-100 -40.5q-128 0 -202 98.5t-74 244.5q0 261 157 439.5t397 178.5q92 0 211 -37
q49 11 115 36zM751 819q-73 42 -143 42q-147 0 -249 -154t-102 -340q0 -107 39.5 -181t111.5 -74q23 0 79 27t143 92zM647 1044q-91 0 -144.5 41.5t-53.5 115.5q0 96 77 159.5t179 63.5q83 0 139.5 -43.5t56.5 -116.5q0 -97 -73.5 -158.5t-180.5 -61.5zM658 1105q59 0 95 42
t36 108q0 48 -24 78t-71 30q-61 0 -97 -43t-36 -109q0 -46 25 -76t72 -30zM112 938z" />
    <glyph glyph-name="aringacute" unicode="&#x1fb;" horiz-adv-x="1052" 
d="M960 930q-13 -46 -32 -121t-70 -323l-63 -312q-4 -20 -4 -39q0 -43 31.5 -58.5t113.5 -13.5l-3 -39q-130 -42 -192 -42q-57 0 -91.5 34t-34.5 99q0 10 1 32q-100 -88 -171 -128.5t-100 -40.5q-128 0 -202 98.5t-74 244.5q0 261 157 439.5t397 178.5q92 0 211 -37
q49 11 115 36zM751 819q-73 42 -143 42q-147 0 -249 -154t-102 -340q0 -107 39.5 -181t111.5 -74q23 0 79 27t143 92zM644 1027q-91 0 -144.5 41.5t-53.5 115.5q0 96 77 159.5t179 63.5q83 0 139.5 -43.5t56.5 -116.5q0 -97 -73.5 -158.5t-180.5 -61.5zM655 1088q59 0 95 42
t36 108q0 48 -24 78t-71 30q-61 0 -97 -43t-36 -109q0 -46 25 -76t72 -30zM109 921zM839 1847h207l-312 -373h-70zM200 1368z" />
    <glyph glyph-name="aogonek" unicode="&#x105;" horiz-adv-x="1052" 
d="M960 930q-7 -23 -14.5 -53t-17.5 -68t-27 -118t-43 -205l-63 -312q-4 -17 -4 -39q0 -21 7.5 -35.5t24.5 -23t44.5 -11.5t68.5 -2l-3 -39q-107 -36 -176 -41q-148 -85 -148 -235q0 -76 47 -112.5t134 -37.5q22 0 45 2l5 -39q-147 -51 -221 -51q-80 0 -129 48t-49 128
q0 179 230 313q-56 33 -56 118q0 5 1 30q-100 -88 -171 -128.5t-100 -40.5q-128 0 -202 98q-74 100 -74 245q0 261 157 439q158 179 397 179q94 0 211 -37q48 10 115 36zM751 819q-74 42 -143 42q-147 0 -249 -154q-102 -155 -102 -340q0 -108 39 -181q41 -74 112 -74
q23 0 79 27t143 92z" />
    <glyph glyph-name="ae" unicode="&#xe6;" horiz-adv-x="1491" 
d="M837 436q-4 -35 -4 -67q0 -129 63 -198.5t178 -69.5q131 0 268 74l22 -35q-68 -73 -173.5 -117.5t-209.5 -44.5q-226 0 -315 221q-140 -134 -216 -177.5t-111 -43.5q-125 0 -197.5 98.5t-72.5 244.5q0 261 154.5 439.5t390.5 178.5q136 0 312 -77q126 77 271 77
q123 0 188.5 -52.5t65.5 -137.5q-1 -152 -186.5 -228.5t-427.5 -84.5zM599 861q-143 0 -242.5 -154t-99.5 -340q0 -107 38 -181t108 -74q66 0 248 148q-6 39 -6 82q0 243 172 432q-125 87 -218 87zM848 509q213 14 320 75t107 157q0 53 -32 83t-87 30q-102 0 -186.5 -92.5
t-121.5 -252.5z" />
    <glyph glyph-name="aeacute" unicode="&#x1fd;" horiz-adv-x="1491" 
d="M837 436q-4 -35 -4 -67q0 -129 63 -198.5t178 -69.5q131 0 268 74l22 -35q-68 -73 -173.5 -117.5t-209.5 -44.5q-226 0 -315 221q-140 -134 -216 -177.5t-111 -43.5q-125 0 -197.5 98.5t-72.5 244.5q0 261 154.5 439.5t390.5 178.5q136 0 312 -77q126 77 271 77
q123 0 188.5 -52.5t65.5 -137.5q-1 -152 -186.5 -228.5t-427.5 -84.5zM599 861q-143 0 -242.5 -154t-99.5 -340q0 -107 38 -181t108 -74q66 0 248 148q-6 39 -6 82q0 243 172 432q-125 87 -218 87zM848 509q213 14 320 75t107 157q0 53 -32 83t-87 30q-102 0 -186.5 -92.5
t-121.5 -252.5zM999 1417h207l-312 -373h-70zM360 938z" />
    <glyph glyph-name="cacute" unicode="&#x107;" horiz-adv-x="936" 
d="M770 182l22 -34q-73 -78 -174.5 -123.5t-197.5 -45.5q-151 0 -248.5 102.5t-97.5 278.5q0 246 169.5 412t408.5 166q130 0 249 -53q-37 -141 -61 -269l-39 -6l-76 233q-42 12 -88 12q-164 0 -269.5 -135t-105.5 -329q0 -139 66.5 -214.5t188.5 -75.5q111 0 253 81z
M760 1417h207l-312 -373h-70zM121 938z" />
    <glyph glyph-name="ccircumflex" unicode="&#x109;" horiz-adv-x="936" 
d="M770 182l22 -34q-73 -78 -174.5 -123.5t-197.5 -45.5q-151 0 -248.5 102.5t-97.5 278.5q0 246 169.5 412t408.5 166q130 0 249 -53q-37 -141 -61 -269l-39 -6l-76 233q-42 12 -88 12q-164 0 -269.5 -135t-105.5 -329q0 -139 66.5 -214.5t188.5 -75.5q111 0 253 81z
M941 1044h-72l-176 229l-256 -229h-76l283 373h147zM121 938z" />
    <glyph glyph-name="ccaron" unicode="&#x10d;" horiz-adv-x="936" 
d="M770 182l22 -34q-73 -78 -174.5 -123.5t-197.5 -45.5q-151 0 -248.5 102.5t-97.5 278.5q0 246 169.5 412t408.5 166q130 0 249 -53q-37 -141 -61 -269l-39 -6l-76 233q-42 12 -88 12q-164 0 -269.5 -135t-105.5 -329q0 -139 66.5 -214.5t188.5 -75.5q111 0 253 81z
M422 1417h72l176 -229l256 229h76l-283 -373h-147zM121 938z" />
    <glyph glyph-name="cdotaccent" unicode="&#x10b;" horiz-adv-x="936" 
d="M770 182l22 -34q-73 -78 -174.5 -123.5t-197.5 -45.5q-151 0 -248.5 102.5t-97.5 278.5q0 246 169.5 412t408.5 166q130 0 249 -53q-37 -141 -61 -269l-39 -6l-76 233q-42 12 -88 12q-164 0 -269.5 -135t-105.5 -329q0 -139 66.5 -214.5t188.5 -75.5q111 0 253 81z
M806 1298q0 -52 -32 -84.5t-80 -32.5q-47 0 -77.5 30.5t-30.5 78.5q0 53 32 84t81 31q47 0 77 -28.5t30 -78.5zM121 938z" />
    <glyph glyph-name="ccedilla" unicode="&#xe7;" horiz-adv-x="936" 
d="M237 -183l127 166q-128 18 -209 117.5t-81 259.5q0 246 169.5 412t408.5 166q130 0 249 -53q-37 -141 -61 -269l-39 -6l-76 233q-42 12 -88 12q-164 0 -269.5 -135t-105.5 -329q0 -139 66.5 -214.5t188.5 -75.5q111 0 253 81l22 -34q-73 -77 -167.5 -120t-176.5 -48
l-67 -89q103 -49 103 -131q0 -110 -202 -246l-34 38q97 76 97 147q0 73 -105 110z" />
    <glyph glyph-name="dcaron" unicode="&#x10f;" horiz-adv-x="1200" 
d="M725 1398v35q174 33 347 73l9 -12q-18 -75 -44 -192.5t-54 -256.5l-179 -871q-4 -20 -4 -39q0 -43 31.5 -58.5t113.5 -13.5l-3 -39q-129 -42 -191 -42q-58 0 -92 34t-34 99q0 10 1 32q-103 -88 -175 -128.5t-102 -40.5q-129 0 -205 98.5t-76 244.5q0 261 161.5 438.5
t405.5 177.5q67 0 147 -13l93 448zM760 822q-74 37 -146 37q-150 0 -254 -153t-104 -339q0 -107 40.5 -181t114.5 -74q24 0 81.5 27t147.5 92zM1122 1034q104 104 104 204q0 84 -87 130q3 51 35.5 79.5t81.5 28.5q52 0 84.5 -36.5t32.5 -97.5q0 -178 -217 -346zM1062 938z
" />
    <glyph glyph-name="dcroat" unicode="&#x111;" horiz-adv-x="1062" 
d="M725 1398v35q174 33 347 73l9 -12q-18 -75 -44 -193q-13 -56 -26 -117h158l-16 -80h-158l-191 -930q-4 -20 -4 -39q0 -43 31.5 -58.5t113.5 -13.5l-3 -39q-129 -42 -191 -42q-58 0 -92 34t-34 99q0 10 1 32q-103 -88 -175 -128.5t-102 -40.5q-129 0 -205 98.5t-76 244.5
q0 261 159 426.5t403 165.5q67 0 147 -13l42 204h-350l16 80h351l39 188zM755 798q-74 37 -146 37q-150 0 -251.5 -141t-101.5 -327q0 -107 40.5 -181t114.5 -74q24 0 81.5 27t147.5 92z" />
    <glyph glyph-name="egrave" unicode="&#xe8;" horiz-adv-x="916" 
d="M262 436q-4 -35 -4 -67q0 -129 63 -198.5t178 -69.5q131 0 268 74l22 -35q-68 -73 -173.5 -117.5t-209.5 -44.5q-151 0 -243.5 101.5t-92.5 262.5q0 80 19.5 155t55 141.5t85 121.5t111 95t132.5 62t149 22q123 0 188.5 -52.5t65.5 -137.5q-1 -152 -186.5 -228.5
t-427.5 -84.5zM273 509q213 14 320 75t107 157q0 53 -32 83t-87 30q-102 0 -186.5 -92.5t-121.5 -252.5zM662 1044h-67l-183 373h192zM81 938z" />
    <glyph glyph-name="eacute" unicode="&#xe9;" horiz-adv-x="916" 
d="M262 436q-4 -35 -4 -67q0 -129 63 -198.5t178 -69.5q131 0 268 74l22 -35q-68 -73 -173.5 -117.5t-209.5 -44.5q-151 0 -243.5 101.5t-92.5 262.5q0 80 19.5 155t55 141.5t85 121.5t111 95t132.5 62t149 22q123 0 188.5 -52.5t65.5 -137.5q-1 -152 -186.5 -228.5
t-427.5 -84.5zM273 509q213 14 320 75t107 157q0 53 -32 83t-87 30q-102 0 -186.5 -92.5t-121.5 -252.5zM720 1417h207l-312 -373h-70zM81 938z" />
    <glyph glyph-name="ecircumflex" unicode="&#xea;" horiz-adv-x="916" 
d="M262 436q-4 -35 -4 -67q0 -129 63 -198.5t178 -69.5q131 0 268 74l22 -35q-68 -73 -173.5 -117.5t-209.5 -44.5q-151 0 -243.5 101.5t-92.5 262.5q0 80 19.5 155t55 141.5t85 121.5t111 95t132.5 62t149 22q123 0 188.5 -52.5t65.5 -137.5q-1 -152 -186.5 -228.5
t-427.5 -84.5zM273 509q213 14 320 75t107 157q0 53 -32 83t-87 30q-102 0 -186.5 -92.5t-121.5 -252.5zM901 1044h-72l-176 229l-256 -229h-76l283 373h147zM81 938z" />
    <glyph glyph-name="ecaron" unicode="&#x11b;" horiz-adv-x="916" 
d="M262 436q-4 -35 -4 -67q0 -129 63 -198.5t178 -69.5q131 0 268 74l22 -35q-68 -73 -173.5 -117.5t-209.5 -44.5q-151 0 -243.5 101.5t-92.5 262.5q0 80 19.5 155t55 141.5t85 121.5t111 95t132.5 62t149 22q123 0 188.5 -52.5t65.5 -137.5q-1 -152 -186.5 -228.5
t-427.5 -84.5zM273 509q213 14 320 75t107 157q0 53 -32 83t-87 30q-102 0 -186.5 -92.5t-121.5 -252.5zM382 1417h72l176 -229l256 229h76l-283 -373h-147zM81 938z" />
    <glyph glyph-name="edieresis" unicode="&#xeb;" horiz-adv-x="916" 
d="M262 436q-4 -35 -4 -67q0 -129 63 -198.5t178 -69.5q131 0 268 74l22 -35q-68 -73 -173.5 -117.5t-209.5 -44.5q-151 0 -243.5 101.5t-92.5 262.5q0 80 19.5 155t55 141.5t85 121.5t111 95t132.5 62t149 22q123 0 188.5 -52.5t65.5 -137.5q-1 -152 -186.5 -228.5
t-427.5 -84.5zM273 509q213 14 320 75t107 157q0 53 -32 83t-87 30q-102 0 -186.5 -92.5t-121.5 -252.5zM571 1304q0 -50 -30.5 -82t-75.5 -32t-74 29.5t-29 77.5q0 51 30.5 81.5t76.5 30.5t74 -28t28 -77zM944 1304q0 -50 -30.5 -82t-75.5 -32t-74 29.5t-29 77.5
q0 51 30.5 81.5t76.5 30.5q45 0 73.5 -28t28.5 -77zM81 938z" />
    <glyph glyph-name="emacron" unicode="&#x113;" horiz-adv-x="916" 
d="M262 436q-4 -35 -4 -67q0 -129 63 -198.5t178 -69.5q131 0 268 74l22 -35q-68 -73 -173.5 -117.5t-209.5 -44.5q-151 0 -243.5 101.5t-92.5 262.5q0 80 19.5 155t55 141.5t85 121.5t111 95t132.5 62t149 22q123 0 188.5 -52.5t65.5 -137.5q-1 -152 -186.5 -228.5
t-427.5 -84.5zM273 509q213 14 320 75t107 157q0 53 -32 83t-87 30q-102 0 -186.5 -92.5t-121.5 -252.5zM377 1190l21 106h520l-21 -106h-520zM81 938z" />
    <glyph glyph-name="ebreve" unicode="&#x115;" horiz-adv-x="916" 
d="M262 436q-4 -35 -4 -67q0 -129 63 -198.5t178 -69.5q131 0 268 74l22 -35q-68 -73 -173.5 -117.5t-209.5 -44.5q-151 0 -243.5 101.5t-92.5 262.5q0 80 19.5 155t55 141.5t85 121.5t111 95t132.5 62t149 22q123 0 188.5 -52.5t65.5 -137.5q-1 -152 -186.5 -228.5
t-427.5 -84.5zM273 509q213 14 320 75t107 157q0 53 -32 83t-87 30q-102 0 -186.5 -92.5t-121.5 -252.5zM463 1395q0 -99 44.5 -150.5t129.5 -51.5q87 0 146 50.5t92 143.5l69 7q-21 -146 -107 -241q-85 -94 -220 -94q-111 0 -169 64.5t-58 187.5q0 35 6 76zM81 938z" />
    <glyph glyph-name="edotaccent" unicode="&#x117;" horiz-adv-x="916" 
d="M262 436q-4 -35 -4 -67q0 -129 63 -198.5t178 -69.5q131 0 268 74l22 -35q-68 -73 -173.5 -117.5t-209.5 -44.5q-151 0 -243.5 101.5t-92.5 262.5q0 80 19.5 155t55 141.5t85 121.5t111 95t132.5 62t149 22q123 0 188.5 -52.5t65.5 -137.5q-1 -152 -186.5 -228.5
t-427.5 -84.5zM273 509q213 14 320 75t107 157q0 53 -32 83t-87 30q-102 0 -186.5 -92.5t-121.5 -252.5zM766 1298q0 -52 -32 -84.5t-80 -32.5q-47 0 -77.5 30.5t-30.5 78.5q0 53 32 84t81 31q47 0 77 -28.5t30 -78.5zM81 938z" />
    <glyph glyph-name="eogonek" unicode="&#x119;" horiz-adv-x="916" 
d="M262 436q-4 -35 -4 -67q0 -129 63 -198.5t178 -69.5q131 0 268 74l22 -35q-59 -63 -145 -105q-203 -122 -203 -287q0 -76 47.5 -112.5t133.5 -37.5q24 0 45 2l5 -39q-147 -51 -221 -51q-82 0 -130 48.5t-48 127.5q0 163 195 294l-1 3q-32 -5 -61 -5q-151 0 -243.5 101.5
t-92.5 262.5q0 80 19.5 155t55 141.5t85 121.5t111 95t132.5 62t149 22q123 0 188.5 -52.5t65.5 -137.5q-1 -152 -186.5 -228.5t-427.5 -84.5zM273 509q213 14 320 75t107 157q0 53 -32 83t-87 30q-102 0 -186.5 -92.5t-121.5 -252.5z" />
    <glyph glyph-name="gcircumflex" unicode="&#x11d;" horiz-adv-x="1041" 
d="M623 142q-101 -80 -171.5 -117t-100.5 -37q-125 0 -203 96.5t-78 240.5q0 261 158.5 437.5t402.5 176.5q92 0 212 -37q24 5 53 14.5t63 21.5l10 -8q-6 -23 -14 -53.5t-16 -68.5q-9 -36 -27.5 -117t-44.5 -205l-58 -282q-38 -184 -90 -316t-120 -218t-153 -126.5
t-190 -40.5q-123 0 -287 51q15 94 46 190l7 3q207 -137 309 -137q52 0 90.5 24.5t71 77t60 136t51.5 202.5zM762 819q-71 42 -145 42q-150 0 -254.5 -151.5t-104.5 -334.5q0 -110 40 -181t115 -71q64 0 229 108zM940 1044h-72l-176 229l-256 -229h-76l283 373h147zM120 938z
" />
    <glyph glyph-name="gbreve" unicode="&#x11f;" horiz-adv-x="1041" 
d="M623 142q-101 -80 -171.5 -117t-100.5 -37q-125 0 -203 96.5t-78 240.5q0 261 158.5 437.5t402.5 176.5q92 0 212 -37q24 5 53 14.5t63 21.5l10 -8q-6 -23 -14 -53.5t-16 -68.5q-9 -36 -27.5 -117t-44.5 -205l-58 -282q-38 -184 -90 -316t-120 -218t-153 -126.5
t-190 -40.5q-123 0 -287 51q15 94 46 190l7 3q207 -137 309 -137q52 0 90.5 24.5t71 77t60 136t51.5 202.5zM762 819q-71 42 -145 42q-150 0 -254.5 -151.5t-104.5 -334.5q0 -110 40 -181t115 -71q64 0 229 108zM502 1395q0 -99 44.5 -150.5t129.5 -51.5q87 0 146 50.5
t92 143.5l69 7q-21 -146 -107 -241q-85 -94 -220 -94q-111 0 -169 64.5t-58 187.5q0 35 6 76zM120 938z" />
    <glyph glyph-name="gdotaccent" unicode="&#x121;" horiz-adv-x="1041" 
d="M623 142q-101 -80 -171.5 -117t-100.5 -37q-125 0 -203 96.5t-78 240.5q0 261 158.5 437.5t402.5 176.5q92 0 212 -37q24 5 53 14.5t63 21.5l10 -8q-6 -23 -14 -53.5t-16 -68.5q-9 -36 -27.5 -117t-44.5 -205l-58 -282q-38 -184 -90 -316t-120 -218t-153 -126.5
t-190 -40.5q-123 0 -287 51q15 94 46 190l7 3q207 -137 309 -137q52 0 90.5 24.5t71 77t60 136t51.5 202.5zM762 819q-71 42 -145 42q-150 0 -254.5 -151.5t-104.5 -334.5q0 -110 40 -181t115 -71q64 0 229 108zM805 1298q0 -52 -32 -84.5t-80 -32.5q-47 0 -77.5 30.5
t-30.5 78.5q0 53 32 84t81 31q47 0 77 -28.5t30 -78.5zM120 938z" />
    <glyph glyph-name="gcommaaccent" unicode="&#x123;" horiz-adv-x="1041" 
d="M623 142q-101 -80 -171.5 -117t-100.5 -37q-125 0 -203 96.5t-78 240.5q0 261 158.5 437.5t402.5 176.5q92 0 212 -37q24 5 53 14.5t63 21.5l10 -8q-6 -23 -14 -53.5t-16 -68.5q-9 -36 -27.5 -117t-44.5 -205l-58 -282q-38 -184 -90 -316t-120 -218t-153 -126.5
t-190 -40.5q-123 0 -287 51q15 94 46 190l7 3q207 -137 309 -137q52 0 90.5 24.5t71 77t60 136t51.5 202.5zM762 819q-71 42 -145 42q-150 0 -254.5 -151.5t-104.5 -334.5q0 -110 40 -181t115 -71q64 0 229 108zM818 1411q-101 -78 -101 -156q0 -65 70 -107
q-2 -45 -30.5 -71.5t-70.5 -26.5q-47 0 -76.5 34.5t-29.5 88.5q0 146 204 276zM1000 938z" />
    <glyph glyph-name="hcircumflex" unicode="&#x125;" horiz-adv-x="1127" 
d="M80 -5l283 1377l-150 26v35q171 32 346 73l8 -12q-18 -75 -42.5 -192.5t-52.5 -256.5l-49 -229q196 123 349 123q106 0 162.5 -56t56.5 -152q0 -45 -10 -92l-103 -475q-2 -11 -3 -20t-1 -16q0 -40 33 -52.5t112 -12.5l-3 -39q-128 -42 -202 -42q-58 0 -89 28.5t-31 88.5
q0 28 9 70l94 433q10 42 10 79q0 63 -32 98t-107 35q-121 0 -261 -82l-150 -727zM546 1823l263 -239l-27 -46l-292 135l-317 -135l-26 46l309 239h90zM-136 1453z" />
    <glyph glyph-name="hbar" unicode="&#x127;" horiz-adv-x="1127" 
d="M80 -5l228 1109h-157l16 80h158l38 188l-150 26v35q171 32 346 73l8 -12q-18 -75 -43 -193q-11 -56 -24 -117h351l-16 -80h-352l-65 -313q195 122 349 122q106 0 162.5 -55.5t56.5 -151.5q0 -46 -10 -92l-98 -450q-2 -11 -3 -20t-1 -16q0 -40 33 -52.5t112 -12.5l-3 -39
q-128 -42 -202 -42q-58 0 -89 28.5t-31 88.5q0 28 9 70l89 407q9 42 9 80q0 63 -32 98t-106 35q-121 0 -262 -82l-144 -702z" />
    <glyph glyph-name="igrave" unicode="&#xec;" horiz-adv-x="557" 
d="M302 164q-5 -20 -5 -36q0 -40 33 -52.5t112 -12.5l-3 -39q-130 -42 -202 -42q-56 0 -87.5 29t-31.5 88q0 28 8 70l120 583q3 17 5.5 29.5t2.5 22.5q0 27 -23 38t-118 11l3 38q136 46 213 46q51 0 79.5 -23.5t28.5 -73.5q0 -21 -4 -41zM394 1044h-67l-183 373h192z
M-187 938z" />
    <glyph glyph-name="iacute" unicode="&#xed;" horiz-adv-x="557" 
d="M302 164q-5 -20 -5 -36q0 -40 33 -52.5t112 -12.5l-3 -39q-130 -42 -202 -42q-56 0 -87.5 29t-31.5 88q0 28 8 70l120 583q3 17 5.5 29.5t2.5 22.5q0 27 -23 38t-118 11l3 38q136 46 213 46q51 0 79.5 -23.5t28.5 -73.5q0 -21 -4 -41zM452 1417h207l-312 -373h-70z
M-187 938z" />
    <glyph glyph-name="icircumflex" unicode="&#xee;" horiz-adv-x="557" 
d="M302 164q-5 -20 -5 -36q0 -40 33 -52.5t112 -12.5l-3 -39q-130 -42 -202 -42q-56 0 -87.5 29t-31.5 88q0 28 8 70l120 583q3 17 5.5 29.5t2.5 22.5q0 27 -23 38t-118 11l3 38q136 46 213 46q51 0 79.5 -23.5t28.5 -73.5q0 -21 -4 -41zM633 1044h-72l-176 229l-256 -229
h-76l283 373h147zM-187 938z" />
    <glyph glyph-name="itilde" unicode="&#x129;" horiz-adv-x="557" 
d="M302 164q-5 -20 -5 -36q0 -40 33 -52.5t112 -12.5l-3 -39q-130 -42 -202 -42q-56 0 -87.5 29t-31.5 88q0 28 8 70l120 583q3 17 5.5 29.5t2.5 22.5q0 27 -23 38t-118 11l3 38q136 46 213 46q51 0 79.5 -23.5t28.5 -73.5q0 -21 -4 -41zM240 1216q-40 0 -72.5 -25.5
t-72.5 -72.5l-49 38q62 100 120 151.5t115 51.5q31 0 66 -17t70 -37q32 -18 60 -32.5t50 -14.5q40 0 72.5 25.5t72.5 72.5l50 -34q-63 -104 -121 -155.5t-115 -51.5q-32 0 -67 16.5t-68 36.5q-31 18 -59.5 33t-51.5 15zM-187 938z" />
    <glyph glyph-name="idieresis" unicode="&#xef;" horiz-adv-x="557" 
d="M302 164q-5 -20 -5 -36q0 -40 33 -52.5t112 -12.5l-3 -39q-130 -42 -202 -42q-56 0 -87.5 29t-31.5 88q0 28 8 70l120 583q3 17 5.5 29.5t2.5 22.5q0 27 -23 38t-118 11l3 38q136 46 213 46q51 0 79.5 -23.5t28.5 -73.5q0 -21 -4 -41zM303 1304q0 -50 -30.5 -82
t-75.5 -32t-74 29.5t-29 77.5q0 51 30.5 81.5t76.5 30.5t74 -28t28 -77zM676 1304q0 -50 -30.5 -82t-75.5 -32t-74 29.5t-29 77.5q0 51 30.5 81.5t76.5 30.5q45 0 73.5 -28t28.5 -77zM-187 938z" />
    <glyph glyph-name="imacron" unicode="&#x12b;" horiz-adv-x="557" 
d="M302 164q-5 -20 -5 -36q0 -40 33 -52.5t112 -12.5l-3 -39q-130 -42 -202 -42q-56 0 -87.5 29t-31.5 88q0 28 8 70l120 583q3 17 5.5 29.5t2.5 22.5q0 27 -23 38t-118 11l3 38q136 46 213 46q51 0 79.5 -23.5t28.5 -73.5q0 -21 -4 -41zM109 1190l21 106h520l-21 -106h-520
zM-187 938z" />
    <glyph glyph-name="ibreve" unicode="&#x12d;" horiz-adv-x="557" 
d="M302 164q-5 -20 -5 -36q0 -40 33 -52.5t112 -12.5l-3 -39q-130 -42 -202 -42q-56 0 -87.5 29t-31.5 88q0 28 8 70l120 583q3 17 5.5 29.5t2.5 22.5q0 27 -23 38t-118 11l3 38q136 46 213 46q51 0 79.5 -23.5t28.5 -73.5q0 -21 -4 -41zM195 1395q0 -99 44.5 -150.5
t129.5 -51.5q87 0 146 50.5t92 143.5l69 7q-21 -146 -107 -241q-85 -94 -220 -94q-111 0 -169 64.5t-58 187.5q0 35 6 76zM-187 938z" />
    <glyph glyph-name="iogonek" unicode="&#x12f;" horiz-adv-x="557" 
d="M302 164q-5 -20 -5 -36q0 -40 33 -52.5t112 -12.5l-3 -39q-101 -32 -167 -40q-147 -87 -147 -236q0 -76 47 -112.5t134 -37.5q22 0 45 2l5 -39q-147 -51 -221 -51q-80 0 -129 48t-49 128q0 175 220 306v2q-59 26 -59 105q0 28 8 70l120 583q3 17 5.5 29.5t2.5 22.5
q0 27 -23 38t-118 11l3 38q136 46 213 46q51 0 79.5 -23.5t28.5 -73.5q0 -21 -4 -41zM524 1298q0 -52 -32 -84.5t-80 -32.5q-47 0 -77.5 30.5t-30.5 78.5q0 53 32 84t81 31q47 0 77 -28.5t30 -78.5z" />
    <glyph glyph-name="dotlessi" unicode="&#x131;" horiz-adv-x="557" 
d="M302 164q-5 -20 -5 -36q0 -40 33 -52.5t112 -12.5l-3 -39q-130 -42 -202 -42q-56 0 -87.5 29t-31.5 88q0 28 8 70l120 583q3 17 5.5 29.5t2.5 22.5q0 27 -23 38t-118 11l3 38q136 46 213 46q51 0 79.5 -23.5t28.5 -73.5q0 -21 -4 -41z" />
    <glyph glyph-name="ij" unicode="&#x133;" horiz-adv-x="1094" 
d="M302 164q-5 -20 -5 -36q0 -40 33 -52.5t112 -12.5l-3 -39q-130 -42 -202 -42q-56 0 -87.5 29t-31.5 88q0 28 8 70l120 583q3 17 5.5 29.5t2.5 22.5q0 27 -23 38t-118 11l3 38q136 46 213 46q51 0 79.5 -23.5t28.5 -73.5q0 -21 -4 -41zM524 1298q0 -52 -32 -84.5
t-80 -32.5q-47 0 -77.5 30.5t-30.5 78.5q0 53 32 84t81 31q47 0 77 -28.5t30 -78.5zM674 853l3 38q137 46 214 46q51 0 79.5 -23.5t28.5 -73.5q0 -21 -4 -41l-142 -685q-39 -198 -130.5 -326.5t-332.5 -290.5l-38 41q203 197 246.5 302t73.5 251l136 661q3 17 5.5 29.5
t2.5 22.5q0 27 -23 38t-119 11zM1086 1298q0 -52 -32 -84.5t-80 -32.5t-78.5 30.5t-30.5 78.5q0 53 32 84t82 31q47 0 77 -28.5t30 -78.5z" />
    <glyph glyph-name="jcircumflex" unicode="&#x135;" horiz-adv-x="537" 
d="M117 853l3 38q137 46 214 46q51 0 79.5 -23.5t28.5 -73.5q0 -21 -4 -41l-142 -685q-39 -198 -130.5 -326.5t-332.5 -290.5l-38 41q203 197 246.5 302t73.5 251l136 661q3 17 5.5 29.5t2.5 22.5q0 27 -23 38t-119 11zM625 1044h-72l-171 229l-261 -229h-76l288 373h147z
" />
    <glyph glyph-name="kcommaaccent" unicode="&#x137;" horiz-adv-x="1048" 
d="M85 -5l283 1377l-150 26v35q86 16 172 34t174 39l8 -12q-18 -75 -42.5 -192.5t-52.5 -256.5l-215 -1040zM966 -3q-138 3 -195 3q-18 0 -41.5 -0.5t-54.5 -1.5q-44 105 -114 231t-168 277q320 279 391 408q37 -1 61 -1q65 0 232 3l-4 -41q-53 -13 -89 -23.5t-62 -21.5
q-28 -12 -55 -28t-62 -47l-230 -203l232 -386q38 -66 65 -89q27 -22 100 -39zM296 -448q101 78 101 156q0 65 -70 107q2 45 30.5 71.5t70.5 26.5q47 0 76.5 -34.5t29.5 -88.5q0 -146 -204 -276z" />
    <glyph glyph-name="kgreenlandic" unicode="&#x138;" horiz-adv-x="1058" 
d="M976 -3q-137 3 -195 3q-18 0 -41.5 -0.5t-53.5 -1.5q-45 105 -114.5 231t-168.5 277q332 290 402 419q37 -1 61 -1q65 0 232 3l-4 -41q-52 -13 -88.5 -23.5t-61.5 -21.5q-28 -12 -55 -28t-63 -47l-240 -214l232 -386q38 -66 65 -89q26 -22 100 -39zM273 5l-178 -10
l156 757q3 17 5.5 29.5t2.5 22.5q0 27 -23 38t-118 11l3 38q136 46 213 46q51 0 79 -23.5t28 -73.5q0 -21 -4 -41z" />
    <glyph glyph-name="lacute" unicode="&#x13a;" horiz-adv-x="552" 
d="M209 1398v35q174 33 348 73l8 -12q-18 -75 -43.5 -192.5t-54.5 -256.5l-180 -881q-4 -18 -4 -36q0 -40 34 -52.5t113 -12.5l-4 -39q-128 -42 -203 -42q-58 0 -89 28.5t-31 88.5q0 14 1.5 31.5t6.5 38.5l248 1203zM725 1689l-416 -150l-23 41l323 243l116 -119v-15z
M-136 1453z" />
    <glyph glyph-name="lcaron" unicode="&#x13e;" horiz-adv-x="690" 
d="M209 1398v35q174 33 348 73l8 -12q-18 -75 -43.5 -192.5t-54.5 -256.5l-180 -881q-4 -18 -4 -36q0 -40 34 -52.5t113 -12.5l-4 -39q-128 -42 -203 -42q-58 0 -89 28.5t-31 88.5q0 14 1.5 31.5t6.5 38.5l248 1203zM612 1034q104 104 104 204q0 84 -87 130q3 51 35.5 79.5
t81.5 28.5q52 0 84.5 -36.5t32.5 -97.5q0 -178 -217 -346z" />
    <glyph glyph-name="lcommaaccent" unicode="&#x13c;" horiz-adv-x="552" 
d="M209 1398v35q174 33 348 73l8 -12q-18 -75 -43.5 -192.5t-54.5 -256.5l-180 -881q-4 -18 -4 -36q0 -40 34 -52.5t113 -12.5l-4 -39q-128 -42 -203 -42q-58 0 -89 28.5t-31 88.5q0 14 1.5 31.5t6.5 38.5l248 1203zM56 -448q101 78 101 156q0 65 -70 107q2 45 30.5 71.5
t70.5 26.5q47 0 76.5 -34.5t29.5 -88.5q0 -146 -204 -276z" />
    <glyph glyph-name="lslash" unicode="&#x142;" horiz-adv-x="552" 
d="M67 753l175 53l117 566l-150 26v35q174 33 348 73l8 -12q-18 -75 -43.5 -192.5t-54.5 -256.5l-38 -183l179 54l-13 -88l-184 -56l-124 -608q-4 -18 -4 -36q0 -40 34 -52.5t113 -12.5l-4 -39q-128 -42 -203 -42q-58 0 -89 28.5t-31 88.5q0 14 1.5 31.5t6.5 38.5l112 545
l-169 -51z" />
    <glyph glyph-name="ldot" unicode="&#x140;" horiz-adv-x="662" 
d="M209 1398v35q174 33 348 73l8 -12q-18 -75 -43.5 -192.5t-54.5 -256.5l-180 -881q-4 -18 -4 -36q0 -40 34 -52.5t113 -12.5l-4 -39q-128 -42 -203 -42q-58 0 -89 28.5t-31 88.5q0 14 1.5 31.5t6.5 38.5l248 1203zM753 723q0 -52 -32 -84.5t-80 -32.5q-47 0 -77.5 30.5
t-30.5 78.5q0 53 32 84t81 31q47 0 77 -28.5t30 -78.5zM68 363z" />
    <glyph glyph-name="nacute" unicode="&#x144;" horiz-adv-x="1142" 
d="M95 -5l156 755q8 43 8 54q0 27 -23 38t-118 11l3 38q134 46 213 46q50 0 78.5 -24.5t28.5 -68.5q0 -12 -2 -28q195 123 348 123q106 0 163 -56t57 -152q0 -45 -11 -92l-103 -475q-2 -11 -3 -20t-1 -16q0 -40 33 -52.5t112 -12.5l-3 -39q-127 -42 -203 -42
q-58 0 -89.5 28.5t-31.5 88.5q0 28 8 70l98 433q9 43 9 80q0 63 -32 97.5t-107 34.5q-120 0 -260 -82l-148 -727zM776 1417h207l-312 -373h-70zM137 938z" />
    <glyph glyph-name="ncaron" unicode="&#x148;" horiz-adv-x="1142" 
d="M95 -5l156 755q8 43 8 54q0 27 -23 38t-118 11l3 38q134 46 213 46q50 0 78.5 -24.5t28.5 -68.5q0 -12 -2 -28q195 123 348 123q106 0 163 -56t57 -152q0 -45 -11 -92l-103 -475q-2 -11 -3 -20t-1 -16q0 -40 33 -52.5t112 -12.5l-3 -39q-127 -42 -203 -42
q-58 0 -89.5 28.5t-31.5 88.5q0 28 8 70l98 433q9 43 9 80q0 63 -32 97.5t-107 34.5q-120 0 -260 -82l-148 -727zM446 1417h72l176 -229l256 229h76l-283 -373h-147zM145 938z" />
    <glyph glyph-name="ntilde" unicode="&#xf1;" horiz-adv-x="1142" 
d="M95 -5l156 755q8 43 8 54q0 27 -23 38t-118 11l3 38q134 46 213 46q50 0 78.5 -24.5t28.5 -68.5q0 -12 -2 -28q195 123 348 123q106 0 163 -56t57 -152q0 -45 -11 -92l-103 -475q-2 -11 -3 -20t-1 -16q0 -40 33 -52.5t112 -12.5l-3 -39q-127 -42 -203 -42
q-58 0 -89.5 28.5t-31.5 88.5q0 28 8 70l98 433q9 43 9 80q0 63 -32 97.5t-107 34.5q-120 0 -260 -82l-148 -727zM572 1216q-40 0 -72.5 -25.5t-72.5 -72.5l-49 38q62 100 120 151.5t115 51.5q31 0 66 -17t70 -37q32 -18 60 -32.5t50 -14.5q40 0 72.5 25.5t72.5 72.5l50 -34
q-63 -104 -121 -155.5t-115 -51.5q-32 0 -67 16.5t-68 36.5q-31 18 -59.5 33t-51.5 15zM145 938z" />
    <glyph glyph-name="ncommaaccent" unicode="&#x146;" horiz-adv-x="1142" 
d="M95 -5l156 755q8 43 8 54q0 27 -23 38t-118 11l3 38q134 46 213 46q50 0 78.5 -24.5t28.5 -68.5q0 -12 -2 -28q195 123 348 123q106 0 163 -56t57 -152q0 -45 -11 -92l-103 -475q-2 -11 -3 -20t-1 -16q0 -40 33 -52.5t112 -12.5l-3 -39q-127 -42 -203 -42
q-58 0 -89.5 28.5t-31.5 88.5q0 28 8 70l98 433q9 43 9 80q0 63 -32 97.5t-107 34.5q-120 0 -260 -82l-148 -727zM336 -448q101 78 101 156q0 65 -70 107q2 45 30.5 71.5t70.5 26.5q47 0 76.5 -34.5t29.5 -88.5q0 -146 -204 -276z" />
    <glyph glyph-name="napostrophe" unicode="&#x149;" horiz-adv-x="1312" 
d="M265 -5l156 755q8 43 8 54q0 27 -23 38t-118 11l3 38q134 46 213 46q50 0 78.5 -24.5t28.5 -68.5q0 -12 -2 -28q195 123 348 123q106 0 163 -56t57 -152q0 -45 -11 -92l-103 -475q-2 -11 -3 -20t-1 -16q0 -40 33 -52.5t112 -12.5l-3 -39q-127 -42 -203 -42
q-58 0 -89.5 28.5t-31.5 88.5q0 28 8 70l98 433q9 43 9 80q0 63 -32 97.5t-107 34.5q-120 0 -260 -82l-148 -727zM103 1023q159 116 159 233q0 82 -81 131q4 54 38 87t83 33q52 0 84.5 -37.5t32.5 -101.5q0 -209 -284 -389z" />
    <glyph glyph-name="ograve" unicode="&#xf2;" horiz-adv-x="1072" 
d="M579 938q184 0 294 -111t110 -299q0 -237 -139 -392.5t-359 -155.5q-187 0 -296 110.5t-109 293.5q0 240 137 397t362 157zM567 854q-133 0 -215.5 -141t-81.5 -338q1 -146 60 -228.5t167 -82.5q138 0 217 144.5t79 334.5q0 147 -60 229t-166 82zM660 1044h-67l-183 373
h192zM79 938z" />
    <glyph glyph-name="oacute" unicode="&#xf3;" horiz-adv-x="1072" 
d="M579 938q184 0 294 -111t110 -299q0 -237 -139 -392.5t-359 -155.5q-187 0 -296 110.5t-109 293.5q0 240 137 397t362 157zM567 854q-133 0 -215.5 -141t-81.5 -338q1 -146 60 -228.5t167 -82.5q138 0 217 144.5t79 334.5q0 147 -60 229t-166 82zM718 1417h207l-312 -373
h-70zM79 938z" />
    <glyph glyph-name="ocircumflex" unicode="&#xf4;" horiz-adv-x="1072" 
d="M579 938q184 0 294 -111t110 -299q0 -237 -139 -392.5t-359 -155.5q-187 0 -296 110.5t-109 293.5q0 240 137 397t362 157zM567 854q-133 0 -215.5 -141t-81.5 -338q1 -146 60 -228.5t167 -82.5q138 0 217 144.5t79 334.5q0 147 -60 229t-166 82zM899 1044h-72l-176 229
l-256 -229h-76l283 373h147zM79 938z" />
    <glyph glyph-name="otilde" unicode="&#xf5;" horiz-adv-x="1072" 
d="M579 938q184 0 294 -111t110 -299q0 -237 -139 -392.5t-359 -155.5q-187 0 -296 110.5t-109 293.5q0 240 137 397t362 157zM567 854q-133 0 -215.5 -141t-81.5 -338q1 -146 60 -228.5t167 -82.5q138 0 217 144.5t79 334.5q0 147 -60 229t-166 82zM506 1216
q-40 0 -72.5 -25.5t-72.5 -72.5l-49 38q62 100 120 151.5t115 51.5q31 0 66 -17t70 -37q32 -18 60 -32.5t50 -14.5q40 0 72.5 25.5t72.5 72.5l50 -34q-63 -104 -121 -155.5t-115 -51.5q-32 0 -67 16.5t-68 36.5q-31 18 -59.5 33t-51.5 15zM79 938z" />
    <glyph glyph-name="odieresis" unicode="&#xf6;" horiz-adv-x="1072" 
d="M579 938q184 0 294 -111t110 -299q0 -237 -139 -392.5t-359 -155.5q-187 0 -296 110.5t-109 293.5q0 240 137 397t362 157zM567 854q-133 0 -215.5 -141t-81.5 -338q1 -146 60 -228.5t167 -82.5q138 0 217 144.5t79 334.5q0 147 -60 229t-166 82zM569 1304
q0 -50 -30.5 -82t-75.5 -32t-74 29.5t-29 77.5q0 51 30.5 81.5t76.5 30.5t74 -28t28 -77zM942 1304q0 -50 -30.5 -82t-75.5 -32t-74 29.5t-29 77.5q0 51 30.5 81.5t76.5 30.5q45 0 73.5 -28t28.5 -77zM79 938z" />
    <glyph glyph-name="omacron" unicode="&#x14d;" horiz-adv-x="1072" 
d="M579 938q184 0 294 -111t110 -299q0 -237 -139 -392.5t-359 -155.5q-187 0 -296 110.5t-109 293.5q0 240 137 397t362 157zM567 854q-133 0 -215.5 -141t-81.5 -338q1 -146 60 -228.5t167 -82.5q138 0 217 144.5t79 334.5q0 147 -60 229t-166 82zM375 1190l21 106h520
l-21 -106h-520zM79 938z" />
    <glyph glyph-name="obreve" unicode="&#x14f;" horiz-adv-x="1072" 
d="M579 938q184 0 294 -111t110 -299q0 -237 -139 -392.5t-359 -155.5q-187 0 -296 110.5t-109 293.5q0 240 137 397t362 157zM567 854q-133 0 -215.5 -141t-81.5 -338q1 -146 60 -228.5t167 -82.5q138 0 217 144.5t79 334.5q0 147 -60 229t-166 82zM461 1395
q0 -99 44.5 -150.5t129.5 -51.5q87 0 146 50.5t92 143.5l69 7q-21 -146 -107 -241q-85 -94 -220 -94q-111 0 -169 64.5t-58 187.5q0 35 6 76zM79 938z" />
    <glyph glyph-name="ohungarumlaut" unicode="&#x151;" horiz-adv-x="1072" 
d="M579 938q184 0 294 -111t110 -299q0 -237 -139 -392.5t-359 -155.5q-187 0 -296 110.5t-109 293.5q0 240 137 397t362 157zM567 854q-133 0 -215.5 -141t-81.5 -338q1 -146 60 -228.5t167 -82.5q138 0 217 144.5t79 334.5q0 147 -60 229t-166 82zM564 1417h197l-288 -373
h-70zM866 1417h197l-290 -373h-70zM79 938z" />
    <glyph glyph-name="oslash" unicode="&#xf8;" horiz-adv-x="1072" 
d="M153 -71l-58 43l94 118q-109 111 -109 294q0 240 137 397t362 157q142 0 239 -66l89 110l57 -44l-90 -112q109 -111 109 -298q0 -237 -139 -392.5t-359 -155.5q-143 0 -240 64zM736 770q-61 86 -169 86q-133 0 -217 -142t-83 -339q0 -91 24 -158zM328 146q61 -84 169 -84
q138 0 218.5 145.5t80.5 335.5q0 90 -24 157z" />
    <glyph glyph-name="oslashacute" unicode="&#x1ff;" horiz-adv-x="1072" 
d="M153 -71l-58 43l94 118q-109 111 -109 294q0 240 137 397t362 157q142 0 239 -66l89 110l57 -44l-90 -112q109 -111 109 -298q0 -237 -139 -392.5t-359 -155.5q-143 0 -240 64zM736 770q-61 86 -169 86q-133 0 -217 -142t-83 -339q0 -91 24 -158zM328 146q61 -84 169 -84
q138 0 218.5 145.5t80.5 335.5q0 90 -24 157zM718 1417h207l-312 -373h-70zM79 938z" />
    <glyph glyph-name="oe" unicode="&#x153;" horiz-adv-x="1611" 
d="M957 436q-4 -35 -4 -67q0 -129 63 -198.5t178 -69.5q131 0 268 74l22 -35q-68 -73 -173.5 -117.5t-209.5 -44.5q-183 0 -281 149q-135 -147 -343 -147q-183 0 -290 110.5t-107 293.5q0 240 134.5 397t355.5 157q240 0 345 -189q170 190 402 190q123 0 188.5 -52.5
t65.5 -137.5q-1 -152 -186.5 -228.5t-427.5 -84.5zM558 854q-129 0 -209 -141t-79 -338q1 -146 58.5 -228.5t161.5 -82.5q135 0 211.5 144.5t76.5 334.5q0 147 -58.5 229t-161.5 82zM968 509q213 14 320 75t107 157q0 53 -32 83t-87 30q-102 0 -186.5 -92.5t-121.5 -252.5z
" />
    <glyph glyph-name="racute" unicode="&#x155;" horiz-adv-x="792" 
d="M95 -5l156 755q8 43 8 54q0 27 -23 38t-118 11l3 38q134 46 213 46q50 0 78.5 -24.5t28.5 -68.5q0 -7 -2 -28q204 123 359 123l5 -7q-32 -148 -64 -315l-40 -6q-23 96 -49 135t-84 39t-141 -43l-150 -737zM637 1417h207l-312 -373h-70zM-2 938z" />
    <glyph glyph-name="rcaron" unicode="&#x159;" horiz-adv-x="792" 
d="M95 -5l156 755q8 43 8 54q0 27 -23 38t-118 11l3 38q134 46 213 46q50 0 78.5 -24.5t28.5 -68.5q0 -7 -2 -28q204 123 359 123l5 -7q-32 -148 -64 -315l-40 -6q-23 96 -49 135t-84 39t-141 -43l-150 -737zM299 1417h72l176 -229l256 229h76l-283 -373h-147zM-2 938z" />
    <glyph glyph-name="rcommaaccent" unicode="&#x157;" horiz-adv-x="792" 
d="M95 -5l156 755q8 43 8 54q0 27 -23 38t-118 11l3 38q134 46 213 46q50 0 78.5 -24.5t28.5 -68.5q0 -7 -2 -28q204 123 359 123l5 -7q-32 -148 -64 -315l-40 -6q-23 96 -49 135t-84 39t-141 -43l-150 -737zM16 -448q101 78 101 156q0 65 -70 107q2 45 30.5 71.5t70.5 26.5
q47 0 76.5 -34.5t29.5 -88.5q0 -146 -204 -276z" />
    <glyph glyph-name="sacute" unicode="&#x15b;" horiz-adv-x="865" 
d="M651 838q-54 17 -124 17q-101 0 -164.5 -41.5t-63.5 -108.5q0 -37 17.5 -64t46 -48t66 -37.5t77.5 -33.5q43 -19 85.5 -39.5t76 -48t54 -64t20.5 -88.5q0 -141 -117.5 -222t-304.5 -81q-155 0 -305 64q33 120 60 257l39 7l64 -223q70 -22 156 -22q98 0 157.5 43t59.5 119
q0 32 -16 55.5t-42 42.5t-60 35.5t-71 32.5q-42 18 -83 39t-73.5 50t-53 69t-20.5 96q0 136 117 215t302 79q136 0 262 -47q-29 -101 -57 -246l-39 -7zM645 1417h207l-312 -373h-70zM6 938z" />
    <glyph glyph-name="scircumflex" unicode="&#x15d;" horiz-adv-x="865" 
d="M651 838q-54 17 -124 17q-101 0 -164.5 -41.5t-63.5 -108.5q0 -37 17.5 -64t46 -48t66 -37.5t77.5 -33.5q43 -19 85.5 -39.5t76 -48t54 -64t20.5 -88.5q0 -141 -117.5 -222t-304.5 -81q-155 0 -305 64q33 120 60 257l39 7l64 -223q70 -22 156 -22q98 0 157.5 43t59.5 119
q0 32 -16 55.5t-42 42.5t-60 35.5t-71 32.5q-42 18 -83 39t-73.5 50t-53 69t-20.5 96q0 136 117 215t302 79q136 0 262 -47q-29 -101 -57 -246l-39 -7zM826 1044h-72l-176 229l-256 -229h-76l283 373h147zM6 938z" />
    <glyph glyph-name="scaron" unicode="&#x161;" horiz-adv-x="865" 
d="M651 838q-54 17 -124 17q-101 0 -164.5 -41.5t-63.5 -108.5q0 -37 17.5 -64t46 -48t66 -37.5t77.5 -33.5q43 -19 85.5 -39.5t76 -48t54 -64t20.5 -88.5q0 -141 -117.5 -222t-304.5 -81q-155 0 -305 64q33 120 60 257l39 7l64 -223q70 -22 156 -22q98 0 157.5 43t59.5 119
q0 32 -16 55.5t-42 42.5t-60 35.5t-71 32.5q-42 18 -83 39t-73.5 50t-53 69t-20.5 96q0 136 117 215t302 79q136 0 262 -47q-29 -101 -57 -246l-39 -7zM307 1417h72l176 -229l256 229h76l-283 -373h-147zM6 938z" />
    <glyph glyph-name="scedilla" unicode="&#x15f;" horiz-adv-x="865" 
d="M166 -183l125 163q-141 7 -276 63q33 120 60 257l39 7l64 -223q70 -22 156 -22q98 0 157.5 43t59.5 119q0 32 -16 55.5t-42 42.5t-60 35.5t-71 32.5q-42 18 -83 39t-73.5 50t-53 69t-20.5 96q0 136 117 215t302 79q136 0 262 -47q-29 -101 -57 -246l-39 -7l-66 200
q-54 17 -124 17q-101 0 -164.5 -41.5t-63.5 -108.5q0 -37 17.5 -64t46 -48t66 -37.5t77.5 -33.5q43 -19 85.5 -39.5t76 -48t54 -64t20.5 -88.5q0 -133 -103 -211t-261 -90l-68 -90q103 -49 103 -131q0 -110 -202 -246l-34 38q97 76 97 147q0 73 -105 110z" />
    <glyph glyph-name="scommaaccent" unicode="&#x219;" horiz-adv-x="865" 
d="M651 838q-54 17 -124 17q-101 0 -164.5 -41.5t-63.5 -108.5q0 -37 17.5 -64t46 -48t66 -37.5t77.5 -33.5q43 -19 85.5 -39.5t76 -48t54 -64t20.5 -88.5q0 -141 -117.5 -222t-304.5 -81q-155 0 -305 64q33 120 60 257l39 7l64 -223q70 -22 156 -22q98 0 157.5 43t59.5 119
q0 32 -16 55.5t-42 42.5t-60 35.5t-71 32.5q-42 18 -83 39t-73.5 50t-53 69t-20.5 96q0 136 117 215t302 79q136 0 262 -47q-29 -101 -57 -246l-39 -7zM156 -448q101 78 101 156q0 65 -70 107q2 45 30.5 71.5t70.5 26.5q47 0 76.5 -34.5t29.5 -88.5q0 -146 -204 -276z" />
    <glyph glyph-name="germandbls" unicode="&#xdf;" horiz-adv-x="1209" 
d="M824 1498q149 0 222 -73.5t73 -209.5q0 -94 -37 -219q-365 -79 -365 -229q0 -33 15.5 -61.5t41.5 -54t59.5 -49.5t68.5 -49q39 -27 76.5 -56t67.5 -62t48.5 -72t18.5 -86q0 -140 -118.5 -218.5t-299.5 -78.5q-156 0 -295 61l53 247l39 7l62 -211q75 -23 147 -23
q98 0 160 42.5t62 125.5q0 36 -15 65t-40 54.5t-57 48.5t-66 46q-35 24 -69 48.5t-61 53.5t-43.5 63.5t-16.5 77.5q0 227 367 339q28 94 28 172q0 120 -41 170t-118 50q-119 0 -199.5 -103t-135.5 -376l-178 -870q-59 -297 -163 -429.5t-285 -132.5q-67 0 -152 20
q17 94 41 178l7 3q132 -100 187 -100q118 0 171 293l168 917l-132 29l3 43l144 13l2 10q55 277 203 431.5t352 154.5z" />
    <glyph glyph-name="longs" unicode="&#x17f;" horiz-adv-x="542" 
d="M252 817l-132 29l3 43l144 13l2 10q55 277 203 431.5t352 154.5q94 0 178 -27q-34 -115 -57 -249l-42 -7l-63 194q-18 5 -50 5q-119 0 -199 -101.5t-135 -374.5l-178 -870q-59 -297 -163 -429.5t-285 -132.5q-67 0 -152 20q17 94 41 178l7 3q132 -100 187 -100
q118 0 171 293z" />
    <glyph glyph-name="tcaron" unicode="&#x165;" horiz-adv-x="738" 
d="M442 813q-41 -167 -70.5 -299.5t-51.5 -234.5q-12 -59 -12 -91q0 -50 33.5 -76t101.5 -26q63 0 161 23l6 -45q-71 -38 -154.5 -60t-154.5 -22q-87 0 -132.5 40.5t-45.5 118.5q0 31 9 82q18 95 50 241t80 352l-133 30l2 43l164 14l107 250q51 12 112 30l8 -7
q-32 -134 -63 -273h283l-20 -90h-280zM660 1034q104 104 104 204q0 84 -87 130q3 51 35.5 79.5t81.5 28.5q52 0 84.5 -36.5t32.5 -97.5q0 -178 -217 -346zM600 938z" />
    <glyph glyph-name="uni021B" unicode="&#x21b;" horiz-adv-x="738" 
d="M442 813q-41 -167 -70.5 -299.5t-51.5 -234.5q-12 -59 -12 -91q0 -50 33.5 -76t101.5 -26q63 0 161 23l6 -45q-71 -38 -154.5 -60t-154.5 -22q-87 0 -132.5 40.5t-45.5 118.5q0 31 9 82q18 95 50 241t80 352l-133 30l2 43l164 14l107 250q51 12 112 30l8 -7
q-32 -134 -63 -273h283l-20 -90h-280zM136 -448q101 78 101 156q0 65 -70 107q2 45 30.5 71.5t70.5 26.5q47 0 76.5 -34.5t29.5 -88.5q0 -146 -204 -276z" />
    <glyph glyph-name="tbar" unicode="&#x167;" horiz-adv-x="758" 
d="M94 616h131q22 92 47 200l-133 30l2 43l164 14l107 250q51 12 112 30l8 -7q-32 -134 -63 -273h283l-20 -90h-280q-27 -105 -48 -197h285l-20 -88h-284q-33 -147 -55 -249q-12 -59 -12 -91q0 -50 33.5 -76t101.5 -26q63 0 161 23l6 -45q-71 -38 -154.5 -60t-154.5 -22
q-87 0 -132.5 40.5t-45.5 118.5q0 31 9 82q18 95 63 305h-131z" />
    <glyph glyph-name="ugrave" unicode="&#xf9;" horiz-adv-x="1139" 
d="M855 906l179 11l-150 -726q-8 -35 -8 -56q0 -44 31.5 -59t113.5 -13l-3 -39q-128 -42 -191 -42q-58 0 -92 33.5t-34 99.5q0 18 1 37q-186 -174 -327 -174q-113 0 -174 68t-61 189q0 54 13 116l83 401q3 17 5.5 29.5t2.5 22.5q0 25 -24 37t-118 12l4 38q134 46 213 46
q51 0 79.5 -23.5t28.5 -73.5q0 -23 -4 -41l-99 -449q-10 -46 -10 -81q0 -76 38.5 -116t111.5 -40q97 0 252 124zM706 1044h-67l-183 373h192zM125 938z" />
    <glyph glyph-name="uacute" unicode="&#xfa;" horiz-adv-x="1139" 
d="M855 906l179 11l-150 -726q-8 -35 -8 -56q0 -44 31.5 -59t113.5 -13l-3 -39q-128 -42 -191 -42q-58 0 -92 33.5t-34 99.5q0 18 1 37q-186 -174 -327 -174q-113 0 -174 68t-61 189q0 54 13 116l83 401q3 17 5.5 29.5t2.5 22.5q0 25 -24 37t-118 12l4 38q134 46 213 46
q51 0 79.5 -23.5t28.5 -73.5q0 -23 -4 -41l-99 -449q-10 -46 -10 -81q0 -76 38.5 -116t111.5 -40q97 0 252 124zM764 1417h207l-312 -373h-70zM125 938z" />
    <glyph glyph-name="ucircumflex" unicode="&#xfb;" horiz-adv-x="1139" 
d="M855 906l179 11l-150 -726q-8 -35 -8 -56q0 -44 31.5 -59t113.5 -13l-3 -39q-128 -42 -191 -42q-58 0 -92 33.5t-34 99.5q0 18 1 37q-186 -174 -327 -174q-113 0 -174 68t-61 189q0 54 13 116l83 401q3 17 5.5 29.5t2.5 22.5q0 25 -24 37t-118 12l4 38q134 46 213 46
q51 0 79.5 -23.5t28.5 -73.5q0 -23 -4 -41l-99 -449q-10 -46 -10 -81q0 -76 38.5 -116t111.5 -40q97 0 252 124zM945 1044h-72l-176 229l-256 -229h-76l283 373h147zM125 938z" />
    <glyph glyph-name="utilde" unicode="&#x169;" horiz-adv-x="1139" 
d="M855 906l179 11l-150 -726q-8 -35 -8 -56q0 -44 31.5 -59t113.5 -13l-3 -39q-128 -42 -191 -42q-58 0 -92 33.5t-34 99.5q0 18 1 37q-186 -174 -327 -174q-113 0 -174 68t-61 189q0 54 13 116l83 401q3 17 5.5 29.5t2.5 22.5q0 25 -24 37t-118 12l4 38q134 46 213 46
q51 0 79.5 -23.5t28.5 -73.5q0 -23 -4 -41l-99 -449q-10 -46 -10 -81q0 -76 38.5 -116t111.5 -40q97 0 252 124zM552 1216q-40 0 -72.5 -25.5t-72.5 -72.5l-49 38q62 100 120 151.5t115 51.5q31 0 66 -17t70 -37q32 -18 60 -32.5t50 -14.5q40 0 72.5 25.5t72.5 72.5l50 -34
q-63 -104 -121 -155.5t-115 -51.5q-32 0 -67 16.5t-68 36.5q-31 18 -59.5 33t-51.5 15zM125 938z" />
    <glyph glyph-name="udieresis" unicode="&#xfc;" horiz-adv-x="1139" 
d="M855 906l179 11l-150 -726q-8 -35 -8 -56q0 -44 31.5 -59t113.5 -13l-3 -39q-128 -42 -191 -42q-58 0 -92 33.5t-34 99.5q0 18 1 37q-186 -174 -327 -174q-113 0 -174 68t-61 189q0 54 13 116l83 401q3 17 5.5 29.5t2.5 22.5q0 25 -24 37t-118 12l4 38q134 46 213 46
q51 0 79.5 -23.5t28.5 -73.5q0 -23 -4 -41l-99 -449q-10 -46 -10 -81q0 -76 38.5 -116t111.5 -40q97 0 252 124zM615 1304q0 -50 -30.5 -82t-75.5 -32t-74 29.5t-29 77.5q0 51 30.5 81.5t76.5 30.5t74 -28t28 -77zM988 1304q0 -50 -30.5 -82t-75.5 -32t-74 29.5t-29 77.5
q0 51 30.5 81.5t76.5 30.5q45 0 73.5 -28t28.5 -77zM125 938z" />
    <glyph glyph-name="umacron" unicode="&#x16b;" horiz-adv-x="1139" 
d="M855 906l179 11l-150 -726q-8 -35 -8 -56q0 -44 31.5 -59t113.5 -13l-3 -39q-128 -42 -191 -42q-58 0 -92 33.5t-34 99.5q0 18 1 37q-186 -174 -327 -174q-113 0 -174 68t-61 189q0 54 13 116l83 401q3 17 5.5 29.5t2.5 22.5q0 25 -24 37t-118 12l4 38q134 46 213 46
q51 0 79.5 -23.5t28.5 -73.5q0 -23 -4 -41l-99 -449q-10 -46 -10 -81q0 -76 38.5 -116t111.5 -40q97 0 252 124zM421 1190l21 106h520l-21 -106h-520zM125 938z" />
    <glyph glyph-name="ubreve" unicode="&#x16d;" horiz-adv-x="1139" 
d="M855 906l179 11l-150 -726q-8 -35 -8 -56q0 -44 31.5 -59t113.5 -13l-3 -39q-128 -42 -191 -42q-58 0 -92 33.5t-34 99.5q0 18 1 37q-186 -174 -327 -174q-113 0 -174 68t-61 189q0 54 13 116l83 401q3 17 5.5 29.5t2.5 22.5q0 25 -24 37t-118 12l4 38q134 46 213 46
q51 0 79.5 -23.5t28.5 -73.5q0 -23 -4 -41l-99 -449q-10 -46 -10 -81q0 -76 38.5 -116t111.5 -40q97 0 252 124zM517 1395q0 -99 44.5 -150.5t129.5 -51.5q87 0 146 50.5t92 143.5l69 7q-21 -146 -107 -241q-85 -94 -220 -94q-111 0 -169 64.5t-58 187.5q0 35 6 76zM135 938
z" />
    <glyph glyph-name="uring" unicode="&#x16f;" horiz-adv-x="1139" 
d="M855 906l179 11l-150 -726q-8 -35 -8 -56q0 -44 31.5 -59t113.5 -13l-3 -39q-128 -42 -191 -42q-58 0 -92 33.5t-34 99.5q0 18 1 37q-186 -174 -327 -174q-113 0 -174 68t-61 189q0 54 13 116l83 401q3 17 5.5 29.5t2.5 22.5q0 25 -24 37t-118 12l4 38q134 46 213 46
q51 0 79.5 -23.5t28.5 -73.5q0 -23 -4 -41l-99 -449q-10 -46 -10 -81q0 -76 38.5 -116t111.5 -40q97 0 252 124zM660 1044q-91 0 -144.5 41.5t-53.5 115.5q0 96 77 159.5t179 63.5q83 0 139.5 -43.5t56.5 -116.5q0 -97 -73.5 -158.5t-180.5 -61.5zM671 1105q59 0 95 42
t36 108q0 48 -24 78t-71 30q-61 0 -97 -43t-36 -109q0 -46 25 -76t72 -30zM125 938z" />
    <glyph glyph-name="uhungarumlaut" unicode="&#x171;" horiz-adv-x="1139" 
d="M855 906l179 11l-150 -726q-8 -35 -8 -56q0 -44 31.5 -59t113.5 -13l-3 -39q-128 -42 -191 -42q-58 0 -92 33.5t-34 99.5q0 18 1 37q-186 -174 -327 -174q-113 0 -174 68t-61 189q0 54 13 116l83 401q3 17 5.5 29.5t2.5 22.5q0 25 -24 37t-118 12l4 38q134 46 213 46
q51 0 79.5 -23.5t28.5 -73.5q0 -23 -4 -41l-99 -449q-10 -46 -10 -81q0 -76 38.5 -116t111.5 -40q97 0 252 124zM600 1417h197l-288 -373h-70zM902 1417h197l-290 -373h-70zM115 938z" />
    <glyph glyph-name="uogonek" unicode="&#x173;" horiz-adv-x="1139" 
d="M855 906l179 11l-150 -726q-8 -35 -8 -56q0 -44 31.5 -59t113.5 -13l-3 -39q-115 -37 -177 -41q-147 -85 -147 -235q0 -76 47 -112.5t134 -37.5q22 0 45 2l5 -39q-147 -51 -221 -51q-80 0 -129 48t-49 128q0 179 230 313h1q-56 31 -56 116q0 18 1 37q-186 -174 -327 -174
q-113 0 -174 68t-61 189q0 54 13 116l83 401q3 17 5.5 29.5t2.5 22.5q0 25 -24 37t-118 12l4 38q134 46 213 46q51 0 79.5 -23.5t28.5 -73.5q0 -23 -4 -41l-99 -449q-10 -46 -10 -81q0 -76 38.5 -116t111.5 -40q97 0 252 124z" />
    <glyph glyph-name="wgrave" unicode="&#x1e81;" horiz-adv-x="1424" 
d="M926 197q63 80 114.5 162t88 167t57.5 174.5t21 183.5q99 24 188 54l11 -8q0 -63 -28 -144t-73 -170t-103 -181t-117.5 -175.5t-117 -154t-100.5 -118.5l-81 -8q-23 283 -67 529q-125 -233 -346 -521l-82 -8q-15 127 -31 242.5t-37 238.5q-6 37 -14.5 88.5t-19.5 101.5
t-24.5 95.5t-30.5 65.5q-11 12 -22.5 20t-26.5 12t-36 6.5t-50 3.5l3 38q131 46 214 46q40 0 63 -14t35 -41q9 -24 18.5 -62.5t19 -85t18 -98.5t16.5 -102.5t14.5 -96.5t11.5 -81q14 -117 18 -157q156 218 266 443q-21 124 -50 246q87 17 158 36l10 -6q12 -56 25.5 -130.5
t26.5 -153t24 -152.5t18 -126q14 -117 18 -159zM805 1044h-67l-183 373h192zM224 938z" />
    <glyph glyph-name="wacute" unicode="&#x1e83;" horiz-adv-x="1424" 
d="M926 197q63 80 114.5 162t88 167t57.5 174.5t21 183.5q99 24 188 54l11 -8q0 -63 -28 -144t-73 -170t-103 -181t-117.5 -175.5t-117 -154t-100.5 -118.5l-81 -8q-23 283 -67 529q-125 -233 -346 -521l-82 -8q-15 127 -31 242.5t-37 238.5q-6 37 -14.5 88.5t-19.5 101.5
t-24.5 95.5t-30.5 65.5q-11 12 -22.5 20t-26.5 12t-36 6.5t-50 3.5l3 38q131 46 214 46q40 0 63 -14t35 -41q9 -24 18.5 -62.5t19 -85t18 -98.5t16.5 -102.5t14.5 -96.5t11.5 -81q14 -117 18 -157q156 218 266 443q-21 124 -50 246q87 17 158 36l10 -6q12 -56 25.5 -130.5
t26.5 -153t24 -152.5t18 -126q14 -117 18 -159zM863 1417h207l-312 -373h-70zM224 938z" />
    <glyph glyph-name="wcircumflex" unicode="&#x175;" horiz-adv-x="1424" 
d="M926 197q63 80 114.5 162t88 167t57.5 174.5t21 183.5q99 24 188 54l11 -8q0 -63 -28 -144t-73 -170t-103 -181t-117.5 -175.5t-117 -154t-100.5 -118.5l-81 -8q-23 283 -67 529q-125 -233 -346 -521l-82 -8q-15 127 -31 242.5t-37 238.5q-6 37 -14.5 88.5t-19.5 101.5
t-24.5 95.5t-30.5 65.5q-11 12 -22.5 20t-26.5 12t-36 6.5t-50 3.5l3 38q131 46 214 46q40 0 63 -14t35 -41q9 -24 18.5 -62.5t19 -85t18 -98.5t16.5 -102.5t14.5 -96.5t11.5 -81q14 -117 18 -157q156 218 266 443q-21 124 -50 246q87 17 158 36l10 -6q12 -56 25.5 -130.5
t26.5 -153t24 -152.5t18 -126q14 -117 18 -159zM1044 1044h-72l-176 229l-256 -229h-76l283 373h147zM224 938z" />
    <glyph glyph-name="wdieresis" unicode="&#x1e85;" horiz-adv-x="1424" 
d="M926 197q63 80 114.5 162t88 167t57.5 174.5t21 183.5q99 24 188 54l11 -8q0 -63 -28 -144t-73 -170t-103 -181t-117.5 -175.5t-117 -154t-100.5 -118.5l-81 -8q-23 283 -67 529q-125 -233 -346 -521l-82 -8q-15 127 -31 242.5t-37 238.5q-6 37 -14.5 88.5t-19.5 101.5
t-24.5 95.5t-30.5 65.5q-11 12 -22.5 20t-26.5 12t-36 6.5t-50 3.5l3 38q131 46 214 46q40 0 63 -14t35 -41q9 -24 18.5 -62.5t19 -85t18 -98.5t16.5 -102.5t14.5 -96.5t11.5 -81q14 -117 18 -157q156 218 266 443q-21 124 -50 246q87 17 158 36l10 -6q12 -56 25.5 -130.5
t26.5 -153t24 -152.5t18 -126q14 -117 18 -159zM714 1304q0 -50 -30.5 -82t-75.5 -32t-74 29.5t-29 77.5q0 51 30.5 81.5t76.5 30.5t74 -28t28 -77zM1087 1304q0 -50 -30.5 -82t-75.5 -32t-74 29.5t-29 77.5q0 51 30.5 81.5t76.5 30.5q45 0 73.5 -28t28.5 -77zM224 938z" />
    <glyph glyph-name="ygrave" unicode="&#x1ef3;" horiz-adv-x="983" 
d="M757 883q99 26 194 55l9 -8q-40 -143 -94.5 -275t-113.5 -249.5t-117.5 -218.5t-106.5 -181q-70 -111 -118.5 -218t-84.5 -193q-15 -34 -29 -52.5t-35 -28.5t-50.5 -13t-71.5 -3q-106 0 -189 10l-4 38q57 7 103 24.5t80 45.5q20 16 43.5 42t57 70t77.5 109.5t105 162.5
l-38 9q-7 55 -21 127t-33 150.5t-40 157.5t-42.5 146.5t-41 119t-34.5 74.5q-16 23 -33 37t-38 20t-46 8.5t-54 3.5l3 38q131 46 215 46q40 0 65.5 -14.5t39.5 -40.5q14 -25 32.5 -71.5t37.5 -105.5t38 -128.5t36 -142t30 -144.5t21 -136q103 175 162.5 355t85.5 374z
M601 1044h-67l-183 373h192zM20 938z" />
    <glyph glyph-name="yacute" unicode="&#xfd;" horiz-adv-x="983" 
d="M757 883q99 26 194 55l9 -8q-40 -143 -94.5 -275t-113.5 -249.5t-117.5 -218.5t-106.5 -181q-70 -111 -118.5 -218t-84.5 -193q-15 -34 -29 -52.5t-35 -28.5t-50.5 -13t-71.5 -3q-106 0 -189 10l-4 38q57 7 103 24.5t80 45.5q20 16 43.5 42t57 70t77.5 109.5t105 162.5
l-38 9q-7 55 -21 127t-33 150.5t-40 157.5t-42.5 146.5t-41 119t-34.5 74.5q-16 23 -33 37t-38 20t-46 8.5t-54 3.5l3 38q131 46 215 46q40 0 65.5 -14.5t39.5 -40.5q14 -25 32.5 -71.5t37.5 -105.5t38 -128.5t36 -142t30 -144.5t21 -136q103 175 162.5 355t85.5 374z
M659 1417h207l-312 -373h-70zM20 938z" />
    <glyph glyph-name="ycircumflex" unicode="&#x177;" horiz-adv-x="983" 
d="M757 883q99 26 194 55l9 -8q-40 -143 -94.5 -275t-113.5 -249.5t-117.5 -218.5t-106.5 -181q-70 -111 -118.5 -218t-84.5 -193q-15 -34 -29 -52.5t-35 -28.5t-50.5 -13t-71.5 -3q-106 0 -189 10l-4 38q57 7 103 24.5t80 45.5q20 16 43.5 42t57 70t77.5 109.5t105 162.5
l-38 9q-7 55 -21 127t-33 150.5t-40 157.5t-42.5 146.5t-41 119t-34.5 74.5q-16 23 -33 37t-38 20t-46 8.5t-54 3.5l3 38q131 46 215 46q40 0 65.5 -14.5t39.5 -40.5q14 -25 32.5 -71.5t37.5 -105.5t38 -128.5t36 -142t30 -144.5t21 -136q103 175 162.5 355t85.5 374z
M840 1044h-72l-176 229l-256 -229h-76l283 373h147zM20 938z" />
    <glyph glyph-name="ydieresis" unicode="&#xff;" horiz-adv-x="983" 
d="M757 883q99 26 194 55l9 -8q-40 -143 -94.5 -275t-113.5 -249.5t-117.5 -218.5t-106.5 -181q-70 -111 -118.5 -218t-84.5 -193q-15 -34 -29 -52.5t-35 -28.5t-50.5 -13t-71.5 -3q-106 0 -189 10l-4 38q57 7 103 24.5t80 45.5q20 16 43.5 42t57 70t77.5 109.5t105 162.5
l-38 9q-7 55 -21 127t-33 150.5t-40 157.5t-42.5 146.5t-41 119t-34.5 74.5q-16 23 -33 37t-38 20t-46 8.5t-54 3.5l3 38q131 46 215 46q40 0 65.5 -14.5t39.5 -40.5q14 -25 32.5 -71.5t37.5 -105.5t38 -128.5t36 -142t30 -144.5t21 -136q103 175 162.5 355t85.5 374z
M510 1304q0 -50 -30.5 -82t-75.5 -32t-74 29.5t-29 77.5q0 51 30.5 81.5t76.5 30.5t74 -28t28 -77zM883 1304q0 -50 -30.5 -82t-75.5 -32t-74 29.5t-29 77.5q0 51 30.5 81.5t76.5 30.5q45 0 73.5 -28t28.5 -77zM20 938z" />
    <glyph glyph-name="zacute" unicode="&#x17a;" horiz-adv-x="996" 
d="M1 20q206 234 340.5 395.5t345.5 420.5h-367l-113 -217l-40 -6q2 174 -2 294l6 10q203 -4 395 -4q183 0 394 4l3 -22q-178 -203 -336 -396t-341 -419h381l160 223l43 6q-30 -156 -54 -305l-9 -7q-185 3 -423 3q-207 0 -378 -3zM679 1417h207l-312 -373h-70zM40 938z" />
    <glyph glyph-name="zcaron" unicode="&#x17e;" horiz-adv-x="996" 
d="M1 20q206 234 340.5 395.5t345.5 420.5h-367l-113 -217l-40 -6q2 174 -2 294l6 10q203 -4 395 -4q183 0 394 4l3 -22q-178 -203 -336 -396t-341 -419h381l160 223l43 6q-30 -156 -54 -305l-9 -7q-185 3 -423 3q-207 0 -378 -3zM341 1417h72l176 -229l256 229h76
l-283 -373h-147zM40 938z" />
    <glyph glyph-name="zdotaccent" unicode="&#x17c;" horiz-adv-x="996" 
d="M1 20q206 234 340.5 395.5t345.5 420.5h-367l-113 -217l-40 -6q2 174 -2 294l6 10q203 -4 395 -4q183 0 394 4l3 -22q-178 -203 -336 -396t-341 -419h381l160 223l43 6q-30 -156 -54 -305l-9 -7q-185 3 -423 3q-207 0 -378 -3zM715 1298q0 -52 -32 -84.5t-80 -32.5
q-47 0 -77.5 30.5t-30.5 78.5q0 53 32 84t81 31q47 0 77 -28.5t30 -78.5zM30 938z" />
    <glyph glyph-name="eng" unicode="&#x14b;" horiz-adv-x="1116" 
d="M95 -5l156 755q8 46 8 54q0 27 -23.5 38t-117.5 11l3 38q132 46 213 46q51 0 79 -24t28 -69q0 -6 -0.5 -13t-1.5 -15q195 123 348 123q106 0 163 -55.5t57 -152.5q0 -43 -11 -92l-123 -566q-71 -326 -178.5 -445.5t-278.5 -119.5q-74 0 -151 18q17 93 43 178l7 3
q130 -100 186 -100t87.5 52.5t57.5 173.5l169 769q9 43 9 80q0 63 -33 97.5t-108 34.5q-121 0 -260 -82l-148 -727z" />
    <glyph glyph-name="eth" unicode="&#xf0;" horiz-adv-x="1079" 
d="M345 1464l2 12h230q116 -77 189 -153l261 128l36 -70l-242 -120q178 -216 178 -553q0 -324 -135.5 -526t-381.5 -202q-185 0 -295 107.5t-110 288.5q0 229 133 384t343 155q160 0 264 -111l5 2q-21 214 -149 383l-311 -154l-35 73l293 144q-100 110 -275 212zM560 834
q-133 0 -213 -136t-80 -331q1 -143 60.5 -223t166.5 -80q135 0 211 139t76 328q0 144 -57.5 223.5t-163.5 79.5z" />
    <glyph glyph-name="thorn" unicode="&#xfe;" horiz-adv-x="1052" 
d="M170 429l192 943l-149 26v35q167 32 343 73l9 -12q-18 -75 -42.5 -192.5t-54.5 -255.5l-46 -225q210 116 275 116q116 0 195 -94t79 -249q0 -260 -162.5 -439.5t-414.5 -179.5q-68 0 -143 14l-45 -221q-11 -50 -17 -84.5t-10 -55.5q-4 -30 20 -36l135 -37l-7 -41
q-154 3 -239 3q-98 0 -231 -3l4 41l111 34q27 9 31 31q8 37 20 92t26 129zM270 73q70 -15 127 -15q178 0 282 151.5t104 338.5q0 108 -40.5 183t-113.5 75q-93 0 -224 -64z" />
    <glyph glyph-name="A.c2sc" horiz-adv-x="1127" 
d="M278 -3q-117 3 -217 3t-182 -3l4 39l93 30q21 7 38 18.5t30.5 25.5t24 29.5t19.5 29.5l544 879l91 14l172 -878q6 -33 11 -53.5t12.5 -33.5t18.5 -20.5t31 -13.5l85 -27l-5 -39q-117 3 -228 3q-109 0 -236 -3l3 39l89 27q23 7 34 18.5t11 40.5q0 13 -5 39.5t-13 68.5
l-25 130h-363l-74 -126q-32 -54 -51.5 -90t-19.5 -51q0 -9 7 -16.5t24 -12.5l82 -25zM363 441h299l-73 380z" />
    <glyph glyph-name="B.c2sc" horiz-adv-x="1076" 
d="M213 1042q122 -3 215 -3q43 0 110.5 4.5t94.5 4.5q195 0 274 -57.5t79 -155.5q0 -213 -271 -272q241 -51 241 -231q0 -162 -139.5 -250t-354.5 -88q-43 0 -96 3t-114 3q-112 0 -227 -3l4 40l115 34q25 8 32 29q7 37 16.5 83t20.5 101l95 497q10 47 16.5 85t10.5 69
q5 23 -15 31l-112 37zM432 514l-81 -433q42 -15 115 -15q132 0 212 64t80 188q0 96 -60.5 148t-176.5 52q-44 0 -89 -4zM447 585q35 -1 76 -1q130 0 204 56.5t74 170.5q0 78 -53.5 119.5t-159.5 41.5q-33 0 -69 -6z" />
    <glyph glyph-name="C.c2sc" horiz-adv-x="1087" 
d="M986 715l-38 -5l-21 247q-80 25 -175 25q-197 0 -333 -159t-136 -382q0 -170 100.5 -262.5t276.5 -92.5q143 0 272 53l12 -38q-167 -123 -377 -123q-220 0 -350 121t-130 321q0 281 202.5 460.5t502.5 179.5q139 0 297 -38l5 -8z" />
    <glyph glyph-name="D.c2sc" horiz-adv-x="1287" 
d="M252 0q-112 0 -227 -3l4 40l115 34q28 8 32 29q7 37 16.5 83t20.5 101l95 497q10 47 16.5 85t10.5 69q5 23 -15 31l-112 37l5 39q122 -3 235 -3q48 0 126.5 4.5t131.5 4.5q239 0 372.5 -101.5t133.5 -292.5q0 -294 -204 -477t-526 -183q-40 0 -113.5 3t-116.5 3zM353 80
q57 -13 135 -13q241 0 385 167.5t144 418.5q0 159 -83.5 239t-255.5 80q-67 0 -157 -7z" />
    <glyph glyph-name="E.c2sc" horiz-adv-x="1041" 
d="M446 1039h138q208 0 439 3l5 -7l-105 -281l-39 -7l-17 211h-347l-74 -387h16q67 0 185 1q24 2 36 25l55 111l50 2q-26 -119 -38 -181q-11 -60 -31 -173l-50 -4l-12 116q-2 24 -23 25q-81 2 -188 2h-14l-40 -209q-20 -103 -37 -205h364l146 233l46 7l-75 -317l-7 -7
q-239 3 -442 3h-135q-112 0 -227 -3l4 40l115 34q25 7 32 29q7 37 16.5 83t20.5 101l95 497q10 47 16.5 85t10.5 69q5 24 -15 31l-112 37l5 39q122 -3 233 -3z" />
    <glyph glyph-name="F.c2sc" horiz-adv-x="993" 
d="M391 284q-21 -109 -33 -179q-2 -23 19 -29l128 -39l-7 -40q-137 3 -246 3q-111 0 -227 -3l4 40l115 34q27 8 32 29q17 75 37 184l95 497q10 47 16.5 85t10.5 69q5 24 -15 31l-112 37l5 39q122 -3 233 -3h150q208 0 439 3l5 -7l-105 -281l-39 -7l-17 211h-359l-78 -405
q95 0 214 1q22 1 35 25l59 111l46 2q-25 -115 -36 -177q-12 -61 -32 -177l-45 -4l-17 116q-4 24 -23 25q-119 2 -216 2z" />
    <glyph glyph-name="G.c2sc" horiz-adv-x="1170" 
d="M985 715l-38 -5l-22 247q-75 25 -167 25q-199 0 -337 -159t-138 -384q0 -168 93.5 -277t246.5 -109q56 0 111 16l26 134q10 48 16.5 85t11.5 69q3 24 -16 31l-102 36l5 40q57 -2 111.5 -3t108.5 -1q56 0 108.5 1t103.5 3l-4 -40l-102 -30q-26 -8 -30 -28
q-8 -37 -16 -75.5t-17 -83.5l-34 -176l-7 -6q-174 -47 -312 -47q-232 0 -365 114.5t-133 321.5q0 288 199.5 466.5t512.5 178.5q142 0 289 -37l5 -8z" />
    <glyph glyph-name="H.c2sc" horiz-adv-x="1387" 
d="M433 508l-42 -224q-21 -109 -34 -183q-3 -25 19 -32l99 -32l-6 -40q-111 3 -219 3q-109 0 -225 -3l4 40l115 34q27 8 32 29q17 75 37 184l95 497q18 93 27 154q5 24 -15 31l-112 37l5 39q122 -3 229 -3q112 0 221 3l-4 -39l-111 -33q-24 -5 -29 -29q-15 -66 -33 -156
l-37 -194h531l38 194q17 90 28 156q4 24 -18 29l-99 33l5 39q114 -3 223 -3t222 3l-4 -39l-120 -37q-23 -7 -28 -31q-14 -61 -32 -154l-95 -497q-20 -109 -33 -184q-2 -21 19 -29l110 -34l-5 -40q-125 3 -233 3q-111 0 -216 -3l4 40l108 32q25 7 31 32q17 74 37 183l42 224
h-531z" />
    <glyph glyph-name="I.c2sc" horiz-adv-x="678" 
d="M391 284q-11 -55 -19 -100.5t-15 -82.5q-2 -23 26 -32l104 -32l-6 -40q-123 3 -228 3q-113 0 -228 -3l4 40l115 34q25 7 32 29q7 37 16.5 83t20.5 101l95 497q10 47 16.5 85t10.5 69q5 24 -15 31l-112 37l5 39q122 -3 232 -3q109 0 225 3l-5 -39l-118 -35q-23 -5 -28 -28
q-9 -33 -16 -71.5t-17 -83.5z" />
    <glyph glyph-name="J.c2sc" horiz-adv-x="622" 
d="M197 1042q122 -3 233 -3q107 0 223 3l-4 -39l-118 -35q-23 -5 -29 -28q-8 -33 -15.5 -71.5t-16.5 -83.5l-111 -585q-18 -91 -39.5 -165.5t-49.5 -132.5t-68.5 -104t-95.5 -81.5t-129.5 -62.5t-167.5 -48l-11 45q104 41 168 90t104.5 112t63 141.5t41.5 177.5l118 609
q8 47 15 85t11 69q4 24 -16 31l-112 37z" />
    <glyph glyph-name="K.c2sc" horiz-adv-x="1164" 
d="M486 785l-95 -501q-11 -55 -19 -100.5t-15 -82.5q-2 -24 19 -32l101 -32l-6 -40q-113 3 -219 3q-112 0 -227 -3l4 40l115 34q27 8 32 29q7 37 16.5 83t20.5 101l95 497q10 47 16.5 85t10.5 69q5 24 -15 31l-112 37l5 39q122 -3 233 -3q107 0 213 3l-3 -39l-108 -33
q-23 -5 -29 -29q-7 -33 -15 -72t-18 -84zM458 531l304 286q51 49 84 83t37 54q3 19 -19 25l-73 21l5 42q94 -3 211 -3q107 0 199 3l-4 -39l-95 -30q-45 -14 -84 -42.5t-83 -67.5l-306 -288l234 -417q24 -39 45 -59.5t62 -33.5l93 -28l-5 -40q-82 3 -201 3q-31 0 -59.5 -0.5
t-61.5 -1.5q-20 67 -123 251z" />
    <glyph glyph-name="L.c2sc" horiz-adv-x="977" 
d="M486 785l-94 -499q-20 -103 -37 -205h364l158 247l45 7l-78 -331l-7 -7q-210 3 -414 3h-171q-112 0 -227 -3l4 40l115 34q25 7 32 29q7 37 16.5 83t20.5 101l95 497q10 47 16.5 85t10.5 69q5 24 -15 31l-112 37l5 39q122 -3 233 -3q108 0 224 3l-5 -39l-118 -35
q-23 -5 -28 -28q-9 -33 -21 -95t-12 -60z" />
    <glyph glyph-name="M.c2sc" horiz-adv-x="1536" 
d="M1195 1042q83 -3 151 -3q69 0 185 3l-3 -39l-124 -37q-23 -7 -28 -31q-14 -61 -32 -154l-95 -497q-21 -109 -34 -184q-2 -21 20 -29l106 -34l-5 -40q-122 3 -231 3q-110 0 -216 -3l3 40l111 32q24 7 31 33q16 73 36 182l106 550l-527 -834l-55 -5l-200 839l-105 -550
q-21 -109 -33 -182q-4 -26 18 -33l97 -32l-5 -40q-110 3 -184 3q-66 0 -186 -3l4 40l119 34q27 8 32 29q16 75 37 184l95 497q18 93 27 154q5 24 -16 31l-108 37l6 39q118 -3 188 -3q74 0 144 3l184 -772z" />
    <glyph glyph-name="N.c2sc" horiz-adv-x="1257" 
d="M387 814l-96 -530q-11 -55 -18.5 -100t-14.5 -81q-4 -26 17 -32l108 -32l-6 -42q-119 3 -187 3q-74 0 -189 -3l3 40l116 34q27 8 32 29q8 38 17.5 83.5t19.5 100.5l91 497q8 47 14.5 85t11.5 69q4 25 -16 31l-112 37l5 39q61 -1 108.5 -2t79.5 -1q42 0 85 3l453 -755
l94 498q9 45 16 83.5t12 71.5q3 21 -19 28l-107 32l6 42q61 -1 108.5 -2t81.5 -1q37 0 83.5 1t103.5 2l-4 -39l-120 -37q-22 -6 -28 -31q-7 -31 -14.5 -69t-17.5 -85l-148 -782l-75 -7z" />
    <glyph glyph-name="O.c2sc" horiz-adv-x="1306" 
d="M568 -26q-220 0 -349 114t-129 319q0 274 191 465t468 191q220 0 349 -113t129 -320q0 -276 -191 -466t-468 -190zM1027 653q0 157 -81.5 246.5t-219.5 89.5q-204 0 -320.5 -172t-116.5 -432q0 -157 80.5 -247.5t221.5 -90.5q203 0 319.5 171.5t116.5 434.5z" />
    <glyph glyph-name="P.c2sc" horiz-adv-x="1024" 
d="M432 504q39 -11 98 -11q136 0 218 70t82 206q0 97 -58 149t-173 52q-45 0 -79 -7zM29 37l115 34q27 7 32 29q8 37 17 83t20 101l95 497q9 48 15.5 85.5t11.5 68.5q3 24 -15 31l-112 37l5 39q118 -3 206 -3q51 0 122.5 3.5t109.5 3.5q174 0 273 -66.5t99 -189.5
q0 -181 -142.5 -277.5t-339.5 -96.5q-58 0 -124 11l-28 -143q-11 -55 -19 -100.5t-14 -80.5q-4 -22 19 -29l123 -37l-5 -40q-137 3 -244 3q-109 0 -224 -3z" />
    <glyph glyph-name="Q.c2sc" horiz-adv-x="1306" 
d="M1028 -241q122 0 218 39l11 -42q-185 -152 -294 -152q-343 0 -435 371q-197 9 -317.5 120.5t-120.5 311.5q0 274 191 465t468 191q220 0 349 -113t129 -320q0 -261 -168 -442.5t-405 -208.5q71 -220 374 -220zM1027 653q0 157 -81.5 246.5t-219.5 89.5
q-204 0 -320.5 -172t-116.5 -432q0 -157 80.5 -247.5t221.5 -90.5q203 0 319.5 171.5t116.5 434.5z" />
    <glyph glyph-name="R.c2sc" horiz-adv-x="1125" 
d="M391 284q-11 -55 -19 -99.5t-14 -80.5q-4 -28 18 -36l101 -31l-6 -40q-113 3 -219 3q-112 0 -227 -3l4 40l115 34q28 8 32 29q8 36 17 82.5t20 101.5l95 497q10 48 16 85.5t11 68.5q2 11 -1 19t-14 12l-112 37l5 39q121 -3 215 -3q24 0 54 1t65 3t60.5 3t40.5 1
q174 0 263.5 -61t89.5 -175q0 -121 -74 -199t-220 -115q19 -33 36 -68.5t32 -70t28 -65.5t23 -55q18 -43 35.5 -76.5t41 -58.5t56 -41t81.5 -24l-7 -40q-59 -9 -107 -9q-57 0 -98 7t-71.5 26t-53 53t-41.5 88q-9 26 -22 60t-26.5 68t-26.5 65.5t-22 52.5q-16 37 -32 48.5
t-42 12.5l-64 2zM441 540q39 -3 75 -3q139 0 216 63t77 186q0 94 -53.5 139.5t-153.5 45.5q-32 0 -81 -6z" />
    <glyph glyph-name="S.c2sc" horiz-adv-x="887" 
d="M708 960q-57 22 -125 22q-104 0 -183 -52.5t-79 -138.5q0 -41 18 -70.5t48 -52.5t68.5 -41.5t79.5 -37.5q44 -20 87.5 -43t78.5 -55t57 -75t22 -102q0 -155 -135 -244.5t-330 -89.5q-168 0 -311 48l-4 8l102 310l42 7l17 -267q79 -29 159 -29q115 0 196.5 53t81.5 145
q0 42 -18 73t-47.5 54.5t-68 42.5t-78.5 38q-44 20 -87.5 43.5t-78 55.5t-56.5 75.5t-22 105.5q0 146 136.5 231t316.5 85q135 0 270 -35l5 -7l-104 -281l-38 -6z" />
    <glyph glyph-name="T.c2sc" horiz-adv-x="1058" 
d="M441 0q-114 0 -255 -3l9 40l141 41q25 6 30 28q16 71 37 180l128 672h-256l-129 -248l-40 -7l36 332l8 7q226 -3 434 -3h111q208 0 440 3l5 -7l-117 -325l-38 -7l-18 255h-258l-128 -672q-22 -109 -34 -180q-2 -22 20 -28l133 -41l-5 -40q-148 3 -254 3z" />
    <glyph glyph-name="U.c2sc" horiz-adv-x="1247" 
d="M163 1042q121 -3 229 -3q111 0 227 3l-4 -39l-117 -35q-25 -8 -30 -28q-8 -33 -16 -71.5t-16 -83.5l-62 -335q-14 -73 -14 -133q0 -119 56.5 -182t173.5 -63q52 0 106 12.5t103 54.5q23 19 43 45.5t37.5 66t33 95t29.5 133.5l58 306q9 45 15.5 83.5t11.5 71.5
q3 20 -19 28l-104 32l5 42q118 -3 196 -3q80 0 193 3l-4 -39l-120 -37q-24 -8 -29 -31q-7 -31 -14.5 -68.5t-16.5 -85.5l-51 -270q-27 -140 -65 -241.5t-97 -167t-142 -96.5t-200 -31q-187 0 -284.5 82.5t-97.5 242.5q0 56 12 121l69 360q9 48 16 85.5t12 68.5q5 23 -17 31
l-112 37z" />
    <glyph glyph-name="V.c2sc" horiz-adv-x="1090" 
d="M832 1042q117 -3 217 -3q99 0 182 3l-4 -39l-93 -30q-21 -7 -38 -19t-30.5 -26t-24 -29t-19.5 -29l-540 -870l-95 -7l-172 862q-6 31 -11 51.5t-12 34t-18.5 21.5t-31.5 14l-85 27l5 39q117 -3 228 -3q108 0 236 3l-3 -39l-89 -27q-23 -7 -34 -18.5t-11 -40.5
q0 -13 5 -39.5t13 -68.5l115 -579l347 575q32 54 51.5 90t19.5 51q0 9 -7 16.5t-24 12.5l-82 25z" />
    <glyph glyph-name="W.c2sc" horiz-adv-x="1630" 
d="M985 -6l-122 761l-417 -755l-88 -7l-119 883q-6 43 -20.5 67t-46.5 34l-84 26l7 39q101 -3 212 -3q112 0 251 3l-4 -39l-101 -29q-33 -8 -33 -56q0 -25 11 -109l67 -541l419 773l73 5l134 -785l293 581q21 44 32 69.5t11 40.5q0 12 -7 17t-22 9l-85 23l5 42
q111 -3 201 -3q99 0 191 3l-4 -39l-95 -30q-29 -8 -49 -26t-43 -61l-479 -886z" />
    <glyph glyph-name="X.c2sc" horiz-adv-x="1083" 
d="M132 1042q103 -3 237 -3q111 0 240 3l-3 -39l-84 -24q-45 -14 -45 -48q0 -33 34 -101l92 -187l181 206q36 41 48 62.5t12 36.5q0 21 -30 30l-81 22l5 42q103 -3 215 -3q108 0 200 3l-3 -39l-96 -30q-37 -9 -65 -33q-27 -24 -74 -77l-271 -304l192 -391q16 -32 27.5 -52
t19.5 -29q16 -16 46 -25l83 -25l-5 -40q-104 3 -216 3q-121 0 -263 -3l5 40l88 23q39 10 39 51q0 25 -35 98l-114 233l-224 -253q-36 -41 -47.5 -62t-11.5 -34q0 -24 35 -33l76 -21l-7 -42q-104 3 -215 3q-98 0 -197 -3l4 40l93 29q33 10 62 33q29 24 68 66l323 359
l-175 359q-22 46 -37 65q-14 18 -49 29l-83 26z" />
    <glyph glyph-name="Y.c2sc" horiz-adv-x="1038" 
d="M575 520l212 290q32 45 56 80.5t24 54.5q0 24 -34 33l-82 22l6 42q103 -3 209 -3q101 0 194 3l-4 -39l-95 -30q-35 -11 -57.5 -33t-47.5 -54l-351 -456l-28 -146q-11 -55 -19 -100.5t-15 -82.5q-3 -23 26 -32l104 -32l-7 -40q-122 3 -231 3t-224 -3l4 40l115 34
q28 8 32 29q8 36 17 82.5t20 101.5l27 142l-172 434q-11 28 -22 48t-19 33q-17 26 -50 36l-84 26l6 39q87 -3 228 -3q112 0 243 3l-3 -39l-89 -24q-22 -5 -33 -16t-11 -31q0 -25 31 -102z" />
    <glyph glyph-name="Z.c2sc" horiz-adv-x="1013" 
d="M-13 -3l3 40l753 921h-436l-95 -224l-39 -6l2 307l6 7q174 -3 357 -3h188q132 0 273 3l-3 -39l-751 -922h460l160 252l45 7l-80 -336l-8 -7q-178 3 -321 3h-223q-170 0 -291 -3z" />
    <glyph glyph-name="Agrave.c2sc" horiz-adv-x="1127" 
d="M278 -3q-117 3 -217 3t-182 -3l4 39l93 30q21 7 38 18.5t30.5 25.5t24 29.5t19.5 29.5l544 879l91 14l172 -878q6 -33 11 -53.5t12.5 -33.5t18.5 -20.5t31 -13.5l85 -27l-5 -39q-117 3 -228 3q-109 0 -236 -3l3 39l89 27q23 7 34 18.5t11 40.5q0 13 -5 39.5t-13 68.5
l-25 130h-363l-74 -126q-32 -54 -51.5 -90t-19.5 -51q0 -9 7 -16.5t24 -12.5l82 -25zM363 441h299l-73 380zM731 1139h-67l-183 373h192zM150 1033z" />
    <glyph glyph-name="Aacute.c2sc" horiz-adv-x="1127" 
d="M278 -3q-117 3 -217 3t-182 -3l4 39l93 30q21 7 38 18.5t30.5 25.5t24 29.5t19.5 29.5l544 879l91 14l172 -878q6 -33 11 -53.5t12.5 -33.5t18.5 -20.5t31 -13.5l85 -27l-5 -39q-117 3 -228 3q-109 0 -236 -3l3 39l89 27q23 7 34 18.5t11 40.5q0 13 -5 39.5t-13 68.5
l-25 130h-363l-74 -126q-32 -54 -51.5 -90t-19.5 -51q0 -9 7 -16.5t24 -12.5l82 -25zM363 441h299l-73 380zM789 1512h207l-312 -373h-70zM150 1033z" />
    <glyph glyph-name="Acircumflex.c2sc" horiz-adv-x="1127" 
d="M278 -3q-117 3 -217 3t-182 -3l4 39l93 30q21 7 38 18.5t30.5 25.5t24 29.5t19.5 29.5l544 879l91 14l172 -878q6 -33 11 -53.5t12.5 -33.5t18.5 -20.5t31 -13.5l85 -27l-5 -39q-117 3 -228 3q-109 0 -236 -3l3 39l89 27q23 7 34 18.5t11 40.5q0 13 -5 39.5t-13 68.5
l-25 130h-363l-74 -126q-32 -54 -51.5 -90t-19.5 -51q0 -9 7 -16.5t24 -12.5l82 -25zM363 441h299l-73 380zM970 1139h-72l-176 229l-256 -229h-76l283 373h147zM150 1033z" />
    <glyph glyph-name="Atilde.c2sc" horiz-adv-x="1127" 
d="M278 -3q-117 3 -217 3t-182 -3l4 39l93 30q21 7 38 18.5t30.5 25.5t24 29.5t19.5 29.5l544 879l91 14l172 -878q6 -33 11 -53.5t12.5 -33.5t18.5 -20.5t31 -13.5l85 -27l-5 -39q-117 3 -228 3q-109 0 -236 -3l3 39l89 27q23 7 34 18.5t11 40.5q0 13 -5 39.5t-13 68.5
l-25 130h-363l-74 -126q-32 -54 -51.5 -90t-19.5 -51q0 -9 7 -16.5t24 -12.5l82 -25zM363 441h299l-73 380zM567 1276q-40 0 -72.5 -25.5t-72.5 -72.5l-49 38q62 100 120 151.5t115 51.5q31 0 66 -17t70 -37q32 -18 60 -32.5t50 -14.5q40 0 72.5 25.5t72.5 72.5l50 -34
q-63 -104 -121 -155.5t-115 -51.5q-32 0 -67 16.5t-68 36.5q-31 18 -59.5 33t-51.5 15zM140 998z" />
    <glyph glyph-name="Adieresis.c2sc" horiz-adv-x="1127" 
d="M278 -3q-117 3 -217 3t-182 -3l4 39l93 30q21 7 38 18.5t30.5 25.5t24 29.5t19.5 29.5l544 879l91 14l172 -878q6 -33 11 -53.5t12.5 -33.5t18.5 -20.5t31 -13.5l85 -27l-5 -39q-117 3 -228 3q-109 0 -236 -3l3 39l89 27q23 7 34 18.5t11 40.5q0 13 -5 39.5t-13 68.5
l-25 130h-363l-74 -126q-32 -54 -51.5 -90t-19.5 -51q0 -9 7 -16.5t24 -12.5l82 -25zM363 441h299l-73 380zM620 1304q0 -50 -30.5 -82t-75.5 -32t-74 29.5t-29 77.5q0 51 30.5 81.5t76.5 30.5t74 -28t28 -77zM993 1304q0 -50 -30.5 -82t-75.5 -32t-74 29.5t-29 77.5
q0 51 30.5 81.5t76.5 30.5q45 0 73.5 -28t28.5 -77zM130 938z" />
    <glyph glyph-name="Amacron.c2sc" horiz-adv-x="1127" 
d="M278 -3q-117 3 -217 3t-182 -3l4 39l93 30q21 7 38 18.5t30.5 25.5t24 29.5t19.5 29.5l544 879l91 14l172 -878q6 -33 11 -53.5t12.5 -33.5t18.5 -20.5t31 -13.5l85 -27l-5 -39q-117 3 -228 3q-109 0 -236 -3l3 39l89 27q23 7 34 18.5t11 40.5q0 13 -5 39.5t-13 68.5
l-25 130h-363l-74 -126q-32 -54 -51.5 -90t-19.5 -51q0 -9 7 -16.5t24 -12.5l82 -25zM363 441h299l-73 380zM426 1240l21 106h520l-21 -106h-520zM130 988z" />
    <glyph glyph-name="Abreve.c2sc" horiz-adv-x="1127" 
d="M278 -3q-117 3 -217 3t-182 -3l4 39l93 30q21 7 38 18.5t30.5 25.5t24 29.5t19.5 29.5l544 879l91 14l172 -878q6 -33 11 -53.5t12.5 -33.5t18.5 -20.5t31 -13.5l85 -27l-5 -39q-117 3 -228 3q-109 0 -236 -3l3 39l89 27q23 7 34 18.5t11 40.5q0 13 -5 39.5t-13 68.5
l-25 130h-363l-74 -126q-32 -54 -51.5 -90t-19.5 -51q0 -9 7 -16.5t24 -12.5l82 -25zM363 441h299l-73 380zM532 1465q0 -99 44.5 -150.5t129.5 -51.5q87 0 146 50.5t92 143.5l69 7q-21 -146 -107 -241q-85 -94 -220 -94q-111 0 -169 64.5t-58 187.5q0 35 6 76zM150 1008z
" />
    <glyph glyph-name="Aring.c2sc" horiz-adv-x="1127" 
d="M278 -3q-117 3 -217 3t-182 -3l4 39l93 30q21 7 38 18.5t30.5 25.5t24 29.5t19.5 29.5l544 879l91 14l172 -878q6 -33 11 -53.5t12.5 -33.5t18.5 -20.5t31 -13.5l85 -27l-5 -39q-117 3 -228 3q-109 0 -236 -3l3 39l89 27q23 7 34 18.5t11 40.5q0 13 -5 39.5t-13 68.5
l-25 130h-363l-74 -126q-32 -54 -51.5 -90t-19.5 -51q0 -9 7 -16.5t24 -12.5l82 -25zM363 441h299l-73 380zM675 1139q-91 0 -144.5 41.5t-53.5 115.5q0 96 77 159.5t179 63.5q83 0 139.5 -43.5t56.5 -116.5q0 -97 -73.5 -158.5t-180.5 -61.5zM686 1200q59 0 95 42t36 108
q0 48 -24 78t-71 30q-61 0 -97 -43t-36 -109q0 -46 25 -76t72 -30zM140 1033z" />
    <glyph glyph-name="Aringacute.c2sc" horiz-adv-x="1127" 
d="M278 -3q-117 3 -217 3t-182 -3l4 39l93 30q21 7 38 18.5t30.5 25.5t24 29.5t19.5 29.5l544 879l91 14l172 -878q6 -33 11 -53.5t12.5 -33.5t18.5 -20.5t31 -13.5l85 -27l-5 -39q-117 3 -228 3q-109 0 -236 -3l3 39l89 27q23 7 34 18.5t11 40.5q0 13 -5 39.5t-13 68.5
l-25 130h-363l-74 -126q-32 -54 -51.5 -90t-19.5 -51q0 -9 7 -16.5t24 -12.5l82 -25zM363 441h299l-73 380zM672 1109q-91 0 -144.5 41.5t-53.5 115.5q0 96 77 159.5t179 63.5q83 0 139.5 -43.5t56.5 -116.5q0 -97 -73.5 -158.5t-180.5 -61.5zM683 1170q59 0 95 42t36 108
q0 48 -24 78t-71 30q-61 0 -97 -43t-36 -109q0 -46 25 -76t72 -30zM137 1003zM859 1912h207l-312 -373h-70zM220 1433z" />
    <glyph glyph-name="Aogonek.c2sc" horiz-adv-x="1127" 
d="M781 0q-90 0 -156.5 -69t-66.5 -164q0 -71 44 -104.5t124 -34.5q22 0 41 2l5 -37q-136 -47 -205 -47q-76 0 -120 45t-44 118q0 88 57.5 165.5t165.5 144.5q52 32 71 48t19 46q0 36 -13 117l-25 130h-363l-74 -126q-32 -54 -51.5 -90t-19.5 -51q0 -9 7 -16.5t24 -12.5
l82 -25l-5 -42q-117 3 -217 3t-182 -3l4 39l93 30q21 7 38 18.5t30.5 25.5t24 29.5t19.5 29.5l544 879l91 14l172 -878q6 -33 11 -53.5t12.5 -33.5t18.5 -20.5t31 -13.5l85 -27l-5 -39q-117 3 -228 3h-39zM363 441h299l-73 380z" />
    <glyph glyph-name="AE.c2sc" horiz-adv-x="1528" 
d="M257 231q-37 -52 -59.5 -88.5t-23.5 -51.5q-2 -10 4.5 -16.5t22.5 -12.5l79 -25l-3 -40q-124 3 -223 3t-183 -3l4 40l98 29q22 7 40 18.5t33 25.5t27.5 29.5t22.5 29.5l542 759q6 9 6 15q0 10 -14 14l-138 46l5 39q122 -3 235 -3h339q208 0 439 3l5 -7l-105 -281l-39 -7
l-17 211h-347l-77 -403h16q67 0 185 1q24 2 36 25l55 116l50 2q-26 -124 -38 -186q-11 -60 -31 -168l-50 -4l-12 111q-2 24 -23 25q-81 2 -188 2h-14l-37 -193q-20 -103 -37 -205h364l146 233l46 7l-75 -317l-7 -7q-239 3 -442 3h-135q-112 0 -227 -3l4 40l115 34
q25 7 32 29q7 37 16.5 83t20.5 101l37 195h-309zM480 555h271l77 403h-69z" />
    <glyph glyph-name="AEacute.c2sc" horiz-adv-x="1528" 
d="M257 231q-37 -52 -59.5 -88.5t-23.5 -51.5q-2 -10 4.5 -16.5t22.5 -12.5l79 -25l-3 -40q-124 3 -223 3t-183 -3l4 40l98 29q22 7 40 18.5t33 25.5t27.5 29.5t22.5 29.5l542 759q6 9 6 15q0 10 -14 14l-138 46l5 39q122 -3 235 -3h339q208 0 439 3l5 -7l-105 -281l-39 -7
l-17 211h-347l-77 -403h16q67 0 185 1q24 2 36 25l55 116l50 2q-26 -124 -38 -186q-11 -60 -31 -168l-50 -4l-12 111q-2 24 -23 25q-81 2 -188 2h-14l-37 -193q-20 -103 -37 -205h364l146 233l46 7l-75 -317l-7 -7q-239 3 -442 3h-135q-112 0 -227 -3l4 40l115 34
q25 7 32 29q7 37 16.5 83t20.5 101l37 195h-309zM480 555h271l77 403h-69zM1116 1512h207l-312 -373h-70zM477 1033z" />
    <glyph glyph-name="Cacute.c2sc" horiz-adv-x="1087" 
d="M986 715l-38 -5l-21 247q-80 25 -175 25q-197 0 -333 -159t-136 -382q0 -170 100.5 -262.5t276.5 -92.5q143 0 272 53l12 -38q-167 -123 -377 -123q-220 0 -350 121t-130 321q0 281 202.5 460.5t502.5 179.5q139 0 297 -38l5 -8zM889 1512h207l-312 -373h-70zM250 1033z
" />
    <glyph glyph-name="Ccircumflex.c2sc" horiz-adv-x="1087" 
d="M986 715l-38 -5l-21 247q-80 25 -175 25q-197 0 -333 -159t-136 -382q0 -170 100.5 -262.5t276.5 -92.5q143 0 272 53l12 -38q-167 -123 -377 -123q-220 0 -350 121t-130 321q0 281 202.5 460.5t502.5 179.5q139 0 297 -38l5 -8zM1070 1139h-72l-176 229l-256 -229h-76
l283 373h147zM250 1033z" />
    <glyph glyph-name="Ccaron.c2sc" horiz-adv-x="1087" 
d="M986 715l-38 -5l-21 247q-80 25 -175 25q-197 0 -333 -159t-136 -382q0 -170 100.5 -262.5t276.5 -92.5q143 0 272 53l12 -38q-167 -123 -377 -123q-220 0 -350 121t-130 321q0 281 202.5 460.5t502.5 179.5q139 0 297 -38l5 -8zM551 1512h72l176 -229l256 229h76
l-283 -373h-147zM250 1033z" />
    <glyph glyph-name="Cdotaccent.c2sc" horiz-adv-x="1087" 
d="M986 715l-38 -5l-21 247q-80 25 -175 25q-197 0 -333 -159t-136 -382q0 -170 100.5 -262.5t276.5 -92.5q143 0 272 53l12 -38q-167 -123 -377 -123q-220 0 -350 121t-130 321q0 281 202.5 460.5t502.5 179.5q139 0 297 -38l5 -8zM935 1298q0 -52 -32 -84.5t-80 -32.5
q-47 0 -77.5 30.5t-30.5 78.5q0 53 32 84t81 31q47 0 77 -28.5t30 -78.5zM250 938z" />
    <glyph glyph-name="Ccedilla.c2sc" horiz-adv-x="1087" 
d="M369 -183l126 164q-184 19 -296 136t-112 303q0 281 202.5 460.5t502.5 179.5q139 0 297 -38l5 -8l-108 -299l-38 -5l-21 247q-80 25 -175 25q-197 0 -333 -159t-136 -382q0 -170 100.5 -262.5t276.5 -92.5q143 0 272 53l12 -38q-162 -119 -365 -123l-66 -87
q103 -49 103 -131q0 -110 -202 -246l-34 38q97 76 97 147q0 73 -105 110z" />
    <glyph glyph-name="Dcaron.c2sc" horiz-adv-x="1287" 
d="M252 0q-112 0 -227 -3l4 40l115 34q28 8 32 29q7 37 16.5 83t20.5 101l95 497q10 47 16.5 85t10.5 69q5 23 -15 31l-112 37l5 39q122 -3 235 -3q48 0 126.5 4.5t131.5 4.5q239 0 372.5 -101.5t133.5 -292.5q0 -294 -204 -477t-526 -183q-40 0 -113.5 3t-116.5 3zM353 80
q57 -13 135 -13q241 0 385 167.5t144 418.5q0 159 -83.5 239t-255.5 80q-67 0 -157 -7zM491 1512h72l176 -229l256 229h76l-283 -373h-147zM190 1033z" />
    <glyph glyph-name="Dcroat.c2sc" horiz-adv-x="1287" 
d="M252 0q-112 0 -227 -3l4 40l115 34q28 8 32 29q7 37 16.5 83t20.5 101l42 222h-140l15 82h141l37 193q10 47 16.5 85t10.5 69q5 23 -15 31l-112 37l5 39q122 -3 235 -3q48 0 126.5 4.5t131.5 4.5q239 0 372.5 -101.5t133.5 -292.5q0 -294 -204 -477t-526 -183
q-40 0 -113.5 3t-116.5 3zM353 80q57 -13 135 -13q241 0 385 167.5t144 418.5q0 159 -83.5 239t-255.5 80q-67 0 -157 -7l-72 -377h244l-16 -82h-243z" />
    <glyph glyph-name="Egrave.c2sc" horiz-adv-x="1041" 
d="M446 1039h138q208 0 439 3l5 -7l-105 -281l-39 -7l-17 211h-347l-74 -387h16q67 0 185 1q24 2 36 25l55 111l50 2q-26 -119 -38 -181q-11 -60 -31 -173l-50 -4l-12 116q-2 24 -23 25q-81 2 -188 2h-14l-40 -209q-20 -103 -37 -205h364l146 233l46 7l-75 -317l-7 -7
q-239 3 -442 3h-135q-112 0 -227 -3l4 40l115 34q25 7 32 29q7 37 16.5 83t20.5 101l95 497q10 47 16.5 85t10.5 69q5 24 -15 31l-112 37l5 39q122 -3 233 -3zM716 1139h-67l-183 373h192zM135 1033z" />
    <glyph glyph-name="Eacute.c2sc" horiz-adv-x="1041" 
d="M446 1039h138q208 0 439 3l5 -7l-105 -281l-39 -7l-17 211h-347l-74 -387h16q67 0 185 1q24 2 36 25l55 111l50 2q-26 -119 -38 -181q-11 -60 -31 -173l-50 -4l-12 116q-2 24 -23 25q-81 2 -188 2h-14l-40 -209q-20 -103 -37 -205h364l146 233l46 7l-75 -317l-7 -7
q-239 3 -442 3h-135q-112 0 -227 -3l4 40l115 34q25 7 32 29q7 37 16.5 83t20.5 101l95 497q10 47 16.5 85t10.5 69q5 24 -15 31l-112 37l5 39q122 -3 233 -3zM774 1512h207l-312 -373h-70zM135 1033z" />
    <glyph glyph-name="Ecircumflex.c2sc" horiz-adv-x="1041" 
d="M446 1039h138q208 0 439 3l5 -7l-105 -281l-39 -7l-17 211h-347l-74 -387h16q67 0 185 1q24 2 36 25l55 111l50 2q-26 -119 -38 -181q-11 -60 -31 -173l-50 -4l-12 116q-2 24 -23 25q-81 2 -188 2h-14l-40 -209q-20 -103 -37 -205h364l146 233l46 7l-75 -317l-7 -7
q-239 3 -442 3h-135q-112 0 -227 -3l4 40l115 34q25 7 32 29q7 37 16.5 83t20.5 101l95 497q10 47 16.5 85t10.5 69q5 24 -15 31l-112 37l5 39q122 -3 233 -3zM955 1139h-72l-176 229l-256 -229h-76l283 373h147zM135 1033z" />
    <glyph glyph-name="Ecaron.c2sc" horiz-adv-x="1041" 
d="M446 1039h138q208 0 439 3l5 -7l-105 -281l-39 -7l-17 211h-347l-74 -387h16q67 0 185 1q24 2 36 25l55 111l50 2q-26 -119 -38 -181q-11 -60 -31 -173l-50 -4l-12 116q-2 24 -23 25q-81 2 -188 2h-14l-40 -209q-20 -103 -37 -205h364l146 233l46 7l-75 -317l-7 -7
q-239 3 -442 3h-135q-112 0 -227 -3l4 40l115 34q25 7 32 29q7 37 16.5 83t20.5 101l95 497q10 47 16.5 85t10.5 69q5 24 -15 31l-112 37l5 39q122 -3 233 -3zM436 1512h72l176 -229l256 229h76l-283 -373h-147zM135 1033z" />
    <glyph glyph-name="Edieresis.c2sc" horiz-adv-x="1041" 
d="M446 1039h138q208 0 439 3l5 -7l-105 -281l-39 -7l-17 211h-347l-74 -387h16q67 0 185 1q24 2 36 25l55 111l50 2q-26 -119 -38 -181q-11 -60 -31 -173l-50 -4l-12 116q-2 24 -23 25q-81 2 -188 2h-14l-40 -209q-20 -103 -37 -205h364l146 233l46 7l-75 -317l-7 -7
q-239 3 -442 3h-135q-112 0 -227 -3l4 40l115 34q25 7 32 29q7 37 16.5 83t20.5 101l95 497q10 47 16.5 85t10.5 69q5 24 -15 31l-112 37l5 39q122 -3 233 -3zM610 1304q0 -50 -30.5 -82t-75.5 -32t-74 29.5t-29 77.5q0 51 30.5 81.5t76.5 30.5t74 -28t28 -77zM983 1304
q0 -50 -30.5 -82t-75.5 -32t-74 29.5t-29 77.5q0 51 30.5 81.5t76.5 30.5q45 0 73.5 -28t28.5 -77zM120 938z" />
    <glyph glyph-name="Emacron.c2sc" horiz-adv-x="1041" 
d="M446 1039h138q208 0 439 3l5 -7l-105 -281l-39 -7l-17 211h-347l-74 -387h16q67 0 185 1q24 2 36 25l55 111l50 2q-26 -119 -38 -181q-11 -60 -31 -173l-50 -4l-12 116q-2 24 -23 25q-81 2 -188 2h-14l-40 -209q-20 -103 -37 -205h364l146 233l46 7l-75 -317l-7 -7
q-239 3 -442 3h-135q-112 0 -227 -3l4 40l115 34q25 7 32 29q7 37 16.5 83t20.5 101l95 497q10 47 16.5 85t10.5 69q5 24 -15 31l-112 37l5 39q122 -3 233 -3zM421 1240l21 106h520l-21 -106h-520zM125 988z" />
    <glyph glyph-name="Ebreve.c2sc" horiz-adv-x="1041" 
d="M446 1039h138q208 0 439 3l5 -7l-105 -281l-39 -7l-17 211h-347l-74 -387h16q67 0 185 1q24 2 36 25l55 111l50 2q-26 -119 -38 -181q-11 -60 -31 -173l-50 -4l-12 116q-2 24 -23 25q-81 2 -188 2h-14l-40 -209q-20 -103 -37 -205h364l146 233l46 7l-75 -317l-7 -7
q-239 3 -442 3h-135q-112 0 -227 -3l4 40l115 34q25 7 32 29q7 37 16.5 83t20.5 101l95 497q10 47 16.5 85t10.5 69q5 24 -15 31l-112 37l5 39q122 -3 233 -3zM522 1490q0 -99 44.5 -150.5t129.5 -51.5q87 0 146 50.5t92 143.5l69 7q-21 -146 -107 -241q-85 -94 -220 -94
q-111 0 -169 64.5t-58 187.5q0 35 6 76zM140 1033z" />
    <glyph glyph-name="Edotaccent.c2sc" horiz-adv-x="1041" 
d="M446 1039h138q208 0 439 3l5 -7l-105 -281l-39 -7l-17 211h-347l-74 -387h16q67 0 185 1q24 2 36 25l55 111l50 2q-26 -119 -38 -181q-11 -60 -31 -173l-50 -4l-12 116q-2 24 -23 25q-81 2 -188 2h-14l-40 -209q-20 -103 -37 -205h364l146 233l46 7l-75 -317l-7 -7
q-239 3 -442 3h-135q-112 0 -227 -3l4 40l115 34q25 7 32 29q7 37 16.5 83t20.5 101l95 497q10 47 16.5 85t10.5 69q5 24 -15 31l-112 37l5 39q122 -3 233 -3zM805 1298q0 -52 -32 -84.5t-80 -32.5q-47 0 -77.5 30.5t-30.5 78.5q0 53 32 84t81 31q47 0 77 -28.5t30 -78.5z
M120 938z" />
    <glyph glyph-name="Eogonek.c2sc" horiz-adv-x="1041" 
d="M446 1039h138q208 0 439 3l5 -7l-105 -286l-39 -7l-17 216h-347l-74 -387h16q67 0 185 1q26 2 36 25l58 126l50 2q-29 -134 -41 -196q-11 -60 -33 -185l-50 -4l-10 128q-2 24 -23 25q-81 2 -188 2h-14l-40 -209q-20 -103 -37 -205h364l148 238l46 7l-77 -322l-7 -7
l-106 3q-67 -15 -125.5 -76.5t-58.5 -156.5q0 -71 44 -104.5t123 -34.5q23 0 42 2l5 -37q-136 -47 -205 -47q-76 0 -120.5 45t-44.5 118q0 168 214 291h-345q-112 0 -227 -3l4 40l115 34q25 7 32 29q7 37 16.5 83t20.5 101l95 497q10 47 16.5 85t10.5 69q5 24 -15 31
l-112 37l5 39q122 -3 233 -3z" />
    <glyph glyph-name="Gcircumflex.c2sc" horiz-adv-x="1170" 
d="M985 715l-38 -5l-22 247q-75 25 -167 25q-199 0 -337 -159t-138 -384q0 -168 93.5 -277t246.5 -109q56 0 111 16l26 134q10 48 16.5 85t11.5 69q3 24 -16 31l-102 36l5 40q57 -2 111.5 -3t108.5 -1q56 0 108.5 1t103.5 3l-4 -40l-102 -30q-26 -8 -30 -28
q-8 -37 -16 -75.5t-17 -83.5l-34 -176l-7 -6q-174 -47 -312 -47q-232 0 -365 114.5t-133 321.5q0 288 199.5 466.5t512.5 178.5q142 0 289 -37l5 -8zM1060 1139h-72l-176 229l-256 -229h-76l283 373h147zM240 1033z" />
    <glyph glyph-name="Gbreve.c2sc" horiz-adv-x="1170" 
d="M985 715l-38 -5l-22 247q-75 25 -167 25q-199 0 -337 -159t-138 -384q0 -168 93.5 -277t246.5 -109q56 0 111 16l26 134q10 48 16.5 85t11.5 69q3 24 -16 31l-102 36l5 40q57 -2 111.5 -3t108.5 -1q56 0 108.5 1t103.5 3l-4 -40l-102 -30q-26 -8 -30 -28
q-8 -37 -16 -75.5t-17 -83.5l-34 -176l-7 -6q-174 -47 -312 -47q-232 0 -365 114.5t-133 321.5q0 288 199.5 466.5t512.5 178.5q142 0 289 -37l5 -8zM622 1490q0 -99 44.5 -150.5t129.5 -51.5q87 0 146 50.5t92 143.5l69 7q-21 -146 -107 -241q-85 -94 -220 -94
q-111 0 -169 64.5t-58 187.5q0 35 6 76zM240 1033z" />
    <glyph glyph-name="Gdotaccent.c2sc" horiz-adv-x="1170" 
d="M985 715l-38 -5l-22 247q-75 25 -167 25q-199 0 -337 -159t-138 -384q0 -168 93.5 -277t246.5 -109q56 0 111 16l26 134q10 48 16.5 85t11.5 69q3 24 -16 31l-102 36l5 40q57 -2 111.5 -3t108.5 -1q56 0 108.5 1t103.5 3l-4 -40l-102 -30q-26 -8 -30 -28
q-8 -37 -16 -75.5t-17 -83.5l-34 -176l-7 -6q-174 -47 -312 -47q-232 0 -365 114.5t-133 321.5q0 288 199.5 466.5t512.5 178.5q142 0 289 -37l5 -8zM925 1298q0 -52 -32 -84.5t-80 -32.5q-47 0 -77.5 30.5t-30.5 78.5q0 53 32 84t81 31q47 0 77 -28.5t30 -78.5zM240 938z
" />
    <glyph glyph-name="Gcommaaccent.c2sc" horiz-adv-x="1170" 
d="M985 715l-38 -5l-22 247q-75 25 -167 25q-199 0 -337 -159t-138 -384q0 -168 93.5 -277t246.5 -109q56 0 111 16l26 134q10 48 16.5 85t11.5 69q3 24 -16 31l-102 36l5 40q57 -2 111.5 -3t108.5 -1q56 0 108.5 1t103.5 3l-4 -40l-102 -30q-26 -8 -30 -28
q-8 -37 -16 -75.5t-17 -83.5l-34 -176l-7 -6q-174 -47 -312 -47q-232 0 -365 114.5t-133 321.5q0 288 199.5 466.5t512.5 178.5q142 0 289 -37l5 -8zM399 -448q101 78 101 156q0 65 -70 107q2 45 30.5 71.5t70.5 26.5q47 0 76.5 -34.5t29.5 -88.5q0 -146 -204 -276z" />
    <glyph glyph-name="Hcircumflex.c2sc" horiz-adv-x="1387" 
d="M433 508l-42 -224q-21 -109 -34 -183q-3 -25 19 -32l99 -32l-6 -40q-111 3 -219 3q-109 0 -225 -3l4 40l115 34q27 8 32 29q17 75 37 184l95 497q18 93 27 154q5 24 -15 31l-112 37l5 39q122 -3 229 -3q112 0 221 3l-4 -39l-111 -33q-24 -5 -29 -29q-15 -66 -33 -156
l-37 -194h531l38 194q17 90 28 156q4 24 -18 29l-99 33l5 39q114 -3 223 -3t222 3l-4 -39l-120 -37q-23 -7 -28 -31q-14 -61 -32 -154l-95 -497q-20 -109 -33 -184q-2 -21 19 -29l110 -34l-5 -40q-125 3 -233 3q-111 0 -216 -3l4 40l108 32q25 7 31 32q17 74 37 183l42 224
h-531zM1106 1139h-72l-176 229l-256 -229h-76l283 373h147zM286 1033z" />
    <glyph glyph-name="Hbar.c2sc" horiz-adv-x="1387" 
d="M430 493l-39 -209q-21 -109 -34 -183q-3 -25 19 -32l99 -32l-6 -40q-111 3 -219 3q-109 0 -225 -3l4 40l115 34q27 8 32 29q17 75 37 184l87 458h-140l16 82h140q12 64 19 111q5 24 -15 31l-112 37l5 39q122 -3 229 -3q112 0 221 3l-4 -39l-111 -33q-24 -5 -29 -29
q-12 -52 -26 -117h532q12 65 21 117q4 24 -18 29l-99 33l5 39q114 -3 223 -3t222 3l-4 -39l-120 -37q-23 -7 -28 -31q-11 -47 -24 -111h139l-15 -82h-140l-87 -458q-20 -109 -33 -184q-2 -21 19 -29l110 -34l-5 -40q-125 3 -233 3q-111 0 -216 -3l4 40l108 32q25 7 31 32
q17 74 37 183l39 209h-531zM977 576l32 166h-531l-32 -166h531z" />
    <glyph glyph-name="Igrave.c2sc" horiz-adv-x="678" 
d="M391 284q-11 -55 -19 -100.5t-15 -82.5q-2 -23 26 -32l104 -32l-6 -40q-123 3 -228 3q-113 0 -228 -3l4 40l115 34q25 7 32 29q7 37 16.5 83t20.5 101l95 497q10 47 16.5 85t10.5 69q5 24 -15 31l-112 37l5 39q122 -3 232 -3q109 0 225 3l-5 -39l-118 -35q-23 -5 -28 -28
q-9 -33 -16 -71.5t-17 -83.5zM506 1139h-67l-183 373h192zM-75 1033z" />
    <glyph glyph-name="Iacute.c2sc" horiz-adv-x="678" 
d="M391 284q-11 -55 -19 -100.5t-15 -82.5q-2 -23 26 -32l104 -32l-6 -40q-123 3 -228 3q-113 0 -228 -3l4 40l115 34q25 7 32 29q7 37 16.5 83t20.5 101l95 497q10 47 16.5 85t10.5 69q5 24 -15 31l-112 37l5 39q122 -3 232 -3q109 0 225 3l-5 -39l-118 -35q-23 -5 -28 -28
q-9 -33 -16 -71.5t-17 -83.5zM564 1512h207l-312 -373h-70zM-75 1033z" />
    <glyph glyph-name="Icircumflex.c2sc" horiz-adv-x="678" 
d="M391 284q-11 -55 -19 -100.5t-15 -82.5q-2 -23 26 -32l104 -32l-6 -40q-123 3 -228 3q-113 0 -228 -3l4 40l115 34q25 7 32 29q7 37 16.5 83t20.5 101l95 497q10 47 16.5 85t10.5 69q5 24 -15 31l-112 37l5 39q122 -3 232 -3q109 0 225 3l-5 -39l-118 -35q-23 -5 -28 -28
q-9 -33 -16 -71.5t-17 -83.5zM745 1139h-72l-176 229l-256 -229h-76l283 373h147zM-75 1033z" />
    <glyph glyph-name="Itilde.c2sc" horiz-adv-x="678" 
d="M391 284q-11 -55 -19 -100.5t-15 -82.5q-2 -23 26 -32l104 -32l-6 -40q-123 3 -228 3q-113 0 -228 -3l4 40l115 34q25 7 32 29q7 37 16.5 83t20.5 101l95 497q10 47 16.5 85t10.5 69q5 24 -15 31l-112 37l5 39q122 -3 232 -3q109 0 225 3l-5 -39l-118 -35q-23 -5 -28 -28
q-9 -33 -16 -71.5t-17 -83.5zM352 1276q-40 0 -72.5 -25.5t-72.5 -72.5l-49 38q62 100 120 151.5t115 51.5q31 0 66 -17t70 -37q32 -18 60 -32.5t50 -14.5q40 0 72.5 25.5t72.5 72.5l50 -34q-63 -104 -121 -155.5t-115 -51.5q-32 0 -67 16.5t-68 36.5q-31 18 -59.5 33
t-51.5 15zM-75 998z" />
    <glyph glyph-name="Idieresis.c2sc" horiz-adv-x="678" 
d="M391 284q-11 -55 -19 -100.5t-15 -82.5q-2 -23 26 -32l104 -32l-6 -40q-123 3 -228 3q-113 0 -228 -3l4 40l115 34q25 7 32 29q7 37 16.5 83t20.5 101l95 497q10 47 16.5 85t10.5 69q5 24 -15 31l-112 37l5 39q122 -3 232 -3q109 0 225 3l-5 -39l-118 -35q-23 -5 -28 -28
q-9 -33 -16 -71.5t-17 -83.5zM405 1304q0 -50 -30.5 -82t-75.5 -32t-74 29.5t-29 77.5q0 51 30.5 81.5t76.5 30.5t74 -28t28 -77zM778 1304q0 -50 -30.5 -82t-75.5 -32t-74 29.5t-29 77.5q0 51 30.5 81.5t76.5 30.5q45 0 73.5 -28t28.5 -77zM-85 938z" />
    <glyph glyph-name="Imacron.c2sc" horiz-adv-x="678" 
d="M391 284q-11 -55 -19 -100.5t-15 -82.5q-2 -23 26 -32l104 -32l-6 -40q-123 3 -228 3q-113 0 -228 -3l4 40l115 34q25 7 32 29q7 37 16.5 83t20.5 101l95 497q10 47 16.5 85t10.5 69q5 24 -15 31l-112 37l5 39q122 -3 232 -3q109 0 225 3l-5 -39l-118 -35q-23 -5 -28 -28
q-9 -33 -16 -71.5t-17 -83.5zM221 1240l21 106h520l-21 -106h-520zM-75 988z" />
    <glyph glyph-name="Ibreve.c2sc" horiz-adv-x="678" 
d="M391 284q-11 -55 -19 -100.5t-15 -82.5q-2 -23 26 -32l104 -32l-6 -40q-123 3 -228 3q-113 0 -228 -3l4 40l115 34q25 7 32 29q7 37 16.5 83t20.5 101l95 497q10 47 16.5 85t10.5 69q5 24 -15 31l-112 37l5 39q122 -3 232 -3q109 0 225 3l-5 -39l-118 -35q-23 -5 -28 -28
q-9 -33 -16 -71.5t-17 -83.5zM307 1490q0 -99 44.5 -150.5t129.5 -51.5q87 0 146 50.5t92 143.5l69 7q-21 -146 -107 -241q-85 -94 -220 -94q-111 0 -169 64.5t-58 187.5q0 35 6 76zM-75 1033z" />
    <glyph glyph-name="Idotaccent.c2sc" horiz-adv-x="678" 
d="M391 284q-11 -55 -19 -100.5t-15 -82.5q-2 -23 26 -32l104 -32l-6 -40q-123 3 -228 3q-113 0 -228 -3l4 40l115 34q25 7 32 29q7 37 16.5 83t20.5 101l95 497q10 47 16.5 85t10.5 69q5 24 -15 31l-112 37l5 39q122 -3 232 -3q109 0 225 3l-5 -39l-118 -35q-23 -5 -28 -28
q-9 -33 -16 -71.5t-17 -83.5zM600 1298q0 -52 -32 -84.5t-80 -32.5q-47 0 -77.5 30.5t-30.5 78.5q0 53 32 84t81 31q47 0 77 -28.5t30 -78.5zM-85 938z" />
    <glyph glyph-name="Iogonek.c2sc" horiz-adv-x="678" 
d="M391 284q-11 -55 -19 -100.5t-15 -82.5q-2 -23 26 -32l104 -32l-6 -40l-93 3q-76 -8 -138 -73t-62 -160q0 -71 44 -104.5t124 -34.5q21 0 40 2l6 -37q-136 -47 -205 -47q-76 0 -120.5 45t-44.5 118q0 168 215 289v2q-110 0 -222 -3l4 40l115 34q25 7 32 29q7 37 16.5 83
t20.5 101l95 497q10 47 16.5 85t10.5 69q5 24 -15 31l-112 37l5 39q122 -3 232 -3q109 0 225 3l-5 -39l-118 -35q-23 -5 -28 -28q-9 -33 -16 -71.5t-17 -83.5z" />
    <glyph glyph-name="IJ.c2sc" horiz-adv-x="1300" 
d="M391 284q-11 -55 -19 -100.5t-15 -82.5q-2 -23 26 -32l104 -32l-6 -40q-123 3 -228 3q-113 0 -228 -3l4 40l115 34q25 7 32 29q7 37 16.5 83t20.5 101l95 497q10 47 16.5 85t10.5 69q5 24 -15 31l-112 37l5 39q122 -3 232 -3q109 0 225 3l-5 -39l-118 -35q-23 -5 -28 -28
q-9 -33 -16 -71.5t-17 -83.5zM875 1042q122 -3 233 -3q107 0 223 3l-4 -39l-118 -35q-23 -5 -29 -28q-8 -33 -15.5 -71.5t-16.5 -83.5l-111 -585q-18 -91 -39.5 -165.5t-49.5 -132.5t-68.5 -104t-95.5 -81.5t-129.5 -62.5t-167.5 -48l-11 45q104 41 168 90t104.5 112
t63 141.5t41.5 177.5l118 609q8 47 15 85t11 69q4 24 -16 31l-112 37z" />
    <glyph glyph-name="Jcircumflex.c2sc" horiz-adv-x="622" 
d="M197 1042q122 -3 233 -3q107 0 223 3l-4 -39l-118 -35q-23 -5 -29 -28q-8 -33 -15.5 -71.5t-16.5 -83.5l-111 -585q-18 -91 -39.5 -165.5t-49.5 -132.5t-68.5 -104t-95.5 -81.5t-129.5 -62.5t-167.5 -48l-11 45q104 41 168 90t104.5 112t63 141.5t41.5 177.5l118 609
q8 47 15 85t11 69q4 24 -16 31l-112 37zM735 1139h-72l-176 229l-256 -229h-76l283 373h147zM-85 1033z" />
    <glyph glyph-name="Kcommaaccent.c2sc" horiz-adv-x="1164" 
d="M486 785l-95 -501q-11 -55 -19 -100.5t-15 -82.5q-2 -24 19 -32l101 -32l-6 -40q-113 3 -219 3q-112 0 -227 -3l4 40l115 34q27 8 32 29q7 37 16.5 83t20.5 101l95 497q10 47 16.5 85t10.5 69q5 24 -15 31l-112 37l5 39q122 -3 233 -3q107 0 213 3l-3 -39l-108 -33
q-23 -5 -29 -29q-7 -33 -15 -72t-18 -84zM458 531l304 286q51 49 84 83t37 54q3 19 -19 25l-73 21l5 42q94 -3 211 -3q107 0 199 3l-4 -39l-95 -30q-45 -14 -84 -42.5t-83 -67.5l-306 -288l234 -417q24 -39 45 -59.5t62 -33.5l93 -28l-5 -40q-82 3 -201 3q-31 0 -59.5 -0.5
t-61.5 -1.5q-20 67 -123 251zM401 -448q101 78 101 156q0 65 -70 107q2 45 30.5 71.5t70.5 26.5q47 0 76.5 -34.5t29.5 -88.5q0 -146 -204 -276z" />
    <glyph glyph-name="Lacute.c2sc" horiz-adv-x="977" 
d="M486 785l-94 -499q-20 -103 -37 -205h364l158 247l45 7l-78 -331l-7 -7q-210 3 -414 3h-171q-112 0 -227 -3l4 40l115 34q25 7 32 29q7 37 16.5 83t20.5 101l95 497q10 47 16.5 85t10.5 69q5 24 -15 31l-112 37l5 39q122 -3 233 -3q108 0 224 3l-5 -39l-118 -35
q-23 -5 -28 -28q-9 -33 -21 -95t-12 -60zM564 1512h207l-312 -373h-70zM-75 1033z" />
    <glyph glyph-name="Lcaron.c2sc" horiz-adv-x="977" 
d="M486 785l-94 -499q-20 -103 -37 -205h364l158 247l45 7l-78 -331l-7 -7q-210 3 -414 3h-171q-112 0 -227 -3l4 40l115 34q25 7 32 29q7 37 16.5 83t20.5 101l95 497q10 47 16.5 85t10.5 69q5 24 -15 31l-112 37l5 39q122 -3 233 -3q108 0 224 3l-5 -39l-118 -35
q-23 -5 -28 -28q-9 -33 -21 -95t-12 -60zM740 610q104 104 104 204q0 84 -87 130q3 51 35.5 79.5t81.5 28.5q52 0 84.5 -36.5t32.5 -97.5q0 -178 -217 -346z" />
    <glyph glyph-name="Lcommaaccent.c2sc" horiz-adv-x="977" 
d="M486 785l-94 -499q-20 -103 -37 -205h364l158 247l45 7l-78 -331l-7 -7q-210 3 -414 3h-171q-112 0 -227 -3l4 40l115 34q25 7 32 29q7 37 16.5 83t20.5 101l95 497q10 47 16.5 85t10.5 69q5 24 -15 31l-112 37l5 39q122 -3 233 -3q108 0 224 3l-5 -39l-118 -35
q-23 -5 -28 -28q-9 -33 -21 -95t-12 -60zM326 -448q101 78 101 156q0 65 -70 107q2 45 30.5 71.5t70.5 26.5q47 0 76.5 -34.5t29.5 -88.5q0 -146 -204 -276z" />
    <glyph glyph-name="Lslash.c2sc" horiz-adv-x="977" 
d="M486 785l-34 -177l335 102l-12 -85l-339 -103l-44 -236q-20 -103 -37 -205h364l158 247l45 7l-78 -331l-7 -7q-210 3 -414 3h-171q-112 0 -227 -3l4 40l115 34q25 7 32 29q7 37 16.5 83t20.5 101l34 181l-148 -45l11 84l154 47l44 230q10 47 16.5 85t10.5 69q5 24 -15 31
l-112 37l5 39q122 -3 233 -3q108 0 224 3l-5 -39l-118 -35q-23 -5 -28 -28q-9 -33 -21 -95t-12 -60z" />
    <glyph glyph-name="Ldot.c2sc" horiz-adv-x="977" 
d="M486 785l-94 -499q-20 -103 -37 -205h364l158 247l45 7l-78 -331l-7 -7q-210 3 -414 3h-171q-112 0 -227 -3l4 40l115 34q25 7 32 29q7 37 16.5 83t20.5 101l95 497q10 47 16.5 85t10.5 69q5 24 -15 31l-112 37l5 39q122 -3 233 -3q108 0 224 3l-5 -39l-118 -35
q-23 -5 -28 -28q-9 -33 -21 -95t-12 -60zM967 586q0 -52 -32 -84.5t-80 -32.5q-47 0 -77.5 30.5t-30.5 78.5q0 53 32 84t81 31q47 0 77 -28.5t30 -78.5z" />
    <glyph glyph-name="Nacute.c2sc" horiz-adv-x="1257" 
d="M387 814l-96 -530q-11 -55 -18.5 -100t-14.5 -81q-4 -26 17 -32l108 -32l-6 -42q-119 3 -187 3q-74 0 -189 -3l3 40l116 34q27 8 32 29q8 38 17.5 83.5t19.5 100.5l91 497q8 47 14.5 85t11.5 69q4 25 -16 31l-112 37l5 39q61 -1 108.5 -2t79.5 -1q42 0 85 3l453 -755
l94 498q9 45 16 83.5t12 71.5q3 21 -19 28l-107 32l6 42q61 -1 108.5 -2t81.5 -1q37 0 83.5 1t103.5 2l-4 -39l-120 -37q-22 -6 -28 -31q-7 -31 -14.5 -69t-17.5 -85l-148 -782l-75 -7zM859 1512h207l-312 -373h-70zM220 1033z" />
    <glyph glyph-name="Ncaron.c2sc" horiz-adv-x="1257" 
d="M387 814l-96 -530q-11 -55 -18.5 -100t-14.5 -81q-4 -26 17 -32l108 -32l-6 -42q-119 3 -187 3q-74 0 -189 -3l3 40l116 34q27 8 32 29q8 38 17.5 83.5t19.5 100.5l91 497q8 47 14.5 85t11.5 69q4 25 -16 31l-112 37l5 39q61 -1 108.5 -2t79.5 -1q42 0 85 3l453 -755
l94 498q9 45 16 83.5t12 71.5q3 21 -19 28l-107 32l6 42q61 -1 108.5 -2t81.5 -1q37 0 83.5 1t103.5 2l-4 -39l-120 -37q-22 -6 -28 -31q-7 -31 -14.5 -69t-17.5 -85l-148 -782l-75 -7zM521 1512h72l176 -229l256 229h76l-283 -373h-147zM220 1033z" />
    <glyph glyph-name="Ntilde.c2sc" horiz-adv-x="1257" 
d="M387 814l-96 -530q-11 -55 -18.5 -100t-14.5 -81q-4 -26 17 -32l108 -32l-6 -42q-119 3 -187 3q-74 0 -189 -3l3 40l116 34q27 8 32 29q8 38 17.5 83.5t19.5 100.5l91 497q8 47 14.5 85t11.5 69q4 25 -16 31l-112 37l5 39q61 -1 108.5 -2t79.5 -1q42 0 85 3l453 -755
l94 498q9 45 16 83.5t12 71.5q3 21 -19 28l-107 32l6 42q61 -1 108.5 -2t81.5 -1q37 0 83.5 1t103.5 2l-4 -39l-120 -37q-22 -6 -28 -31q-7 -31 -14.5 -69t-17.5 -85l-148 -782l-75 -7zM647 1276q-40 0 -72.5 -25.5t-72.5 -72.5l-49 38q62 100 120 151.5t115 51.5
q31 0 66 -17t70 -37q32 -18 60 -32.5t50 -14.5q40 0 72.5 25.5t72.5 72.5l50 -34q-63 -104 -121 -155.5t-115 -51.5q-32 0 -67 16.5t-68 36.5q-31 18 -59.5 33t-51.5 15zM220 998z" />
    <glyph glyph-name="Ncommaaccent.c2sc" horiz-adv-x="1257" 
d="M387 814l-96 -530q-11 -55 -18.5 -100t-14.5 -81q-4 -26 17 -32l108 -32l-6 -42q-119 3 -187 3q-74 0 -189 -3l3 40l116 34q27 8 32 29q8 38 17.5 83.5t19.5 100.5l91 497q8 47 14.5 85t11.5 69q4 25 -16 31l-112 37l5 39q61 -1 108.5 -2t79.5 -1q42 0 85 3l453 -755
l94 498q9 45 16 83.5t12 71.5q3 21 -19 28l-107 32l6 42q61 -1 108.5 -2t81.5 -1q37 0 83.5 1t103.5 2l-4 -39l-120 -37q-22 -6 -28 -31q-7 -31 -14.5 -69t-17.5 -85l-148 -782l-75 -7zM391 -448q101 78 101 156q0 65 -70 107q2 45 30.5 71.5t70.5 26.5q47 0 76.5 -34.5
t29.5 -88.5q0 -146 -204 -276z" />
    <glyph glyph-name="Ograve.c2sc" horiz-adv-x="1306" 
d="M568 -26q-220 0 -349 114t-129 319q0 274 191 465t468 191q220 0 349 -113t129 -320q0 -276 -191 -466t-468 -190zM1027 653q0 157 -81.5 246.5t-219.5 89.5q-204 0 -320.5 -172t-116.5 -432q0 -157 80.5 -247.5t221.5 -90.5q203 0 319.5 171.5t116.5 434.5zM819 1139
h-67l-183 373h192zM238 1033z" />
    <glyph glyph-name="Oacute.c2sc" horiz-adv-x="1306" 
d="M568 -26q-220 0 -349 114t-129 319q0 274 191 465t468 191q220 0 349 -113t129 -320q0 -276 -191 -466t-468 -190zM1027 653q0 157 -81.5 246.5t-219.5 89.5q-204 0 -320.5 -172t-116.5 -432q0 -157 80.5 -247.5t221.5 -90.5q203 0 319.5 171.5t116.5 434.5zM877 1512
h207l-312 -373h-70zM238 1033z" />
    <glyph glyph-name="Ocircumflex.c2sc" horiz-adv-x="1306" 
d="M568 -26q-220 0 -349 114t-129 319q0 274 191 465t468 191q220 0 349 -113t129 -320q0 -276 -191 -466t-468 -190zM1027 653q0 157 -81.5 246.5t-219.5 89.5q-204 0 -320.5 -172t-116.5 -432q0 -157 80.5 -247.5t221.5 -90.5q203 0 319.5 171.5t116.5 434.5zM1058 1139
h-72l-176 229l-256 -229h-76l283 373h147zM238 1033z" />
    <glyph glyph-name="Otilde.c2sc" horiz-adv-x="1306" 
d="M568 -26q-220 0 -349 114t-129 319q0 274 191 465t468 191q220 0 349 -113t129 -320q0 -276 -191 -466t-468 -190zM1027 653q0 157 -81.5 246.5t-219.5 89.5q-204 0 -320.5 -172t-116.5 -432q0 -157 80.5 -247.5t221.5 -90.5q203 0 319.5 171.5t116.5 434.5zM665 1276
q-40 0 -72.5 -25.5t-72.5 -72.5l-49 38q62 100 120 151.5t115 51.5q31 0 66 -17t70 -37q32 -18 60 -32.5t50 -14.5q40 0 72.5 25.5t72.5 72.5l50 -34q-63 -104 -121 -155.5t-115 -51.5q-32 0 -67 16.5t-68 36.5q-31 18 -59.5 33t-51.5 15zM238 998z" />
    <glyph glyph-name="Odieresis.c2sc" horiz-adv-x="1306" 
d="M568 -26q-220 0 -349 114t-129 319q0 274 191 465t468 191q220 0 349 -113t129 -320q0 -276 -191 -466t-468 -190zM1027 653q0 157 -81.5 246.5t-219.5 89.5q-204 0 -320.5 -172t-116.5 -432q0 -157 80.5 -247.5t221.5 -90.5q203 0 319.5 171.5t116.5 434.5zM718 1304
q0 -50 -30.5 -82t-75.5 -32t-74 29.5t-29 77.5q0 51 30.5 81.5t76.5 30.5t74 -28t28 -77zM1091 1304q0 -50 -30.5 -82t-75.5 -32t-74 29.5t-29 77.5q0 51 30.5 81.5t76.5 30.5q45 0 73.5 -28t28.5 -77zM228 938z" />
    <glyph glyph-name="Omacron.c2sc" horiz-adv-x="1306" 
d="M568 -26q-220 0 -349 114t-129 319q0 274 191 465t468 191q220 0 349 -113t129 -320q0 -276 -191 -466t-468 -190zM1027 653q0 157 -81.5 246.5t-219.5 89.5q-204 0 -320.5 -172t-116.5 -432q0 -157 80.5 -247.5t221.5 -90.5q203 0 319.5 171.5t116.5 434.5zM534 1240
l21 106h520l-21 -106h-520zM238 988z" />
    <glyph glyph-name="Obreve.c2sc" horiz-adv-x="1306" 
d="M568 -26q-220 0 -349 114t-129 319q0 274 191 465t468 191q220 0 349 -113t129 -320q0 -276 -191 -466t-468 -190zM1027 653q0 157 -81.5 246.5t-219.5 89.5q-204 0 -320.5 -172t-116.5 -432q0 -157 80.5 -247.5t221.5 -90.5q203 0 319.5 171.5t116.5 434.5zM620 1490
q0 -99 44.5 -150.5t129.5 -51.5q87 0 146 50.5t92 143.5l69 7q-21 -146 -107 -241q-85 -94 -220 -94q-111 0 -169 64.5t-58 187.5q0 35 6 76zM238 1033z" />
    <glyph glyph-name="Ohungarumlaut.c2sc" horiz-adv-x="1306" 
d="M568 -26q-220 0 -349 114t-129 319q0 274 191 465t468 191q220 0 349 -113t129 -320q0 -276 -191 -466t-468 -190zM1027 653q0 157 -81.5 246.5t-219.5 89.5q-204 0 -320.5 -172t-116.5 -432q0 -157 80.5 -247.5t221.5 -90.5q203 0 319.5 171.5t116.5 434.5zM723 1512
h197l-288 -373h-70zM1025 1512h197l-290 -373h-70zM238 1033z" />
    <glyph glyph-name="Oslash.c2sc" horiz-adv-x="1306" 
d="M568 -26q-190 0 -312 83l-127 -137l-56 50l125 136q-108 110 -108 298q0 274 191 466.5t468 192.5q163 0 277 -62l111 120l62 -45l-109 -118q4 -3 8 -7q129 -111 129 -318q0 -276 -191 -467.5t-468 -191.5zM1027 653q0 113 -43 191l-633 -684q9 -12 18 -23
q81 -90 222 -90q203 0 319.5 171.5t116.5 434.5zM726 989q-204 0 -320.5 -172t-116.5 -432q0 -88 24 -155l626 676q-81 83 -213 83z" />
    <glyph glyph-name="Oslashacute.c2sc" horiz-adv-x="1306" 
d="M568 -26q-190 0 -312 83l-127 -137l-56 50l125 136q-108 110 -108 298q0 274 191 466.5t468 192.5q163 0 277 -62l111 120l62 -45l-109 -118q4 -3 8 -7q129 -111 129 -318q0 -276 -191 -467.5t-468 -191.5zM1027 653q0 113 -43 191l-633 -684q9 -12 18 -23
q81 -90 222 -90q203 0 319.5 171.5t116.5 434.5zM726 989q-204 0 -320.5 -172t-116.5 -432q0 -88 24 -155l626 676q-81 83 -213 83zM877 1512h207l-312 -373h-70zM238 1033z" />
    <glyph glyph-name="OE.c2sc" horiz-adv-x="1646" 
d="M1189 1039q208 0 439 3l5 -7l-105 -281l-39 -7l-17 211h-347l-74 -387h16q67 0 185 1q24 2 36 25l55 111l50 2q-26 -119 -38 -181q-11 -60 -31 -173l-50 -4l-12 116q-2 24 -23 25q-81 2 -188 2h-14l-40 -209q-20 -103 -37 -205h364l146 233l46 7l-75 -317l-7 -7
q-239 3 -442 3h-231q-93 -26 -193 -26q-220 0 -349 112.5t-129 317.5q0 274 191 466.5t463 192.5q112 0 211 -24h234zM726 990q-204 0 -320.5 -172.5t-116.5 -432.5q0 -157 80.5 -247.5t221.5 -90.5q97 0 189 39q21 107 38 198l95 497q13 69 28 160q-88 49 -215 49z" />
    <glyph glyph-name="Racute.c2sc" horiz-adv-x="1125" 
d="M391 284q-11 -55 -19 -99.5t-14 -80.5q-4 -28 18 -36l101 -31l-6 -40q-113 3 -219 3q-112 0 -227 -3l4 40l115 34q28 8 32 29q8 36 17 82.5t20 101.5l95 497q10 48 16 85.5t11 68.5q2 11 -1 19t-14 12l-112 37l5 39q121 -3 215 -3q24 0 54 1t65 3t60.5 3t40.5 1
q174 0 263.5 -61t89.5 -175q0 -121 -74 -199t-220 -115q19 -33 36 -68.5t32 -70t28 -65.5t23 -55q18 -43 35.5 -76.5t41 -58.5t56 -41t81.5 -24l-7 -40q-59 -9 -107 -9q-57 0 -98 7t-71.5 26t-53 53t-41.5 88q-9 26 -22 60t-26.5 68t-26.5 65.5t-22 52.5q-16 37 -32 48.5
t-42 12.5l-64 2zM441 540q39 -3 75 -3q139 0 216 63t77 186q0 94 -53.5 139.5t-153.5 45.5q-32 0 -81 -6zM764 1512h207l-312 -373h-70zM125 1033z" />
    <glyph glyph-name="Rcaron.c2sc" horiz-adv-x="1125" 
d="M391 284q-11 -55 -19 -99.5t-14 -80.5q-4 -28 18 -36l101 -31l-6 -40q-113 3 -219 3q-112 0 -227 -3l4 40l115 34q28 8 32 29q8 36 17 82.5t20 101.5l95 497q10 48 16 85.5t11 68.5q2 11 -1 19t-14 12l-112 37l5 39q121 -3 215 -3q24 0 54 1t65 3t60.5 3t40.5 1
q174 0 263.5 -61t89.5 -175q0 -121 -74 -199t-220 -115q19 -33 36 -68.5t32 -70t28 -65.5t23 -55q18 -43 35.5 -76.5t41 -58.5t56 -41t81.5 -24l-7 -40q-59 -9 -107 -9q-57 0 -98 7t-71.5 26t-53 53t-41.5 88q-9 26 -22 60t-26.5 68t-26.5 65.5t-22 52.5q-16 37 -32 48.5
t-42 12.5l-64 2zM441 540q39 -3 75 -3q139 0 216 63t77 186q0 94 -53.5 139.5t-153.5 45.5q-32 0 -81 -6zM426 1512h72l176 -229l256 229h76l-283 -373h-147zM125 1033z" />
    <glyph glyph-name="Rcommaaccent.c2sc" horiz-adv-x="1125" 
d="M391 284q-11 -55 -19 -99.5t-14 -80.5q-4 -28 18 -36l101 -31l-6 -40q-113 3 -219 3q-112 0 -227 -3l4 40l115 34q28 8 32 29q8 36 17 82.5t20 101.5l95 497q10 48 16 85.5t11 68.5q2 11 -1 19t-14 12l-112 37l5 39q121 -3 215 -3q24 0 54 1t65 3t60.5 3t40.5 1
q174 0 263.5 -61t89.5 -175q0 -121 -74 -199t-220 -115q19 -33 36 -68.5t32 -70t28 -65.5t23 -55q18 -43 35.5 -76.5t41 -58.5t56 -41t81.5 -24l-7 -40q-59 -9 -107 -9q-57 0 -98 7t-71.5 26t-53 53t-41.5 88q-9 26 -22 60t-26.5 68t-26.5 65.5t-22 52.5q-16 37 -32 48.5
t-42 12.5l-64 2zM441 540q39 -3 75 -3q139 0 216 63t77 186q0 94 -53.5 139.5t-153.5 45.5q-32 0 -81 -6zM366 -448q101 78 101 156q0 65 -70 107q2 45 30.5 71.5t70.5 26.5q47 0 76.5 -34.5t29.5 -88.5q0 -146 -204 -276z" />
    <glyph glyph-name="Sacute.c2sc" horiz-adv-x="887" 
d="M708 960q-57 22 -125 22q-104 0 -183 -52.5t-79 -138.5q0 -41 18 -70.5t48 -52.5t68.5 -41.5t79.5 -37.5q44 -20 87.5 -43t78.5 -55t57 -75t22 -102q0 -155 -135 -244.5t-330 -89.5q-168 0 -311 48l-4 8l102 310l42 7l17 -267q79 -29 159 -29q115 0 196.5 53t81.5 145
q0 42 -18 73t-47.5 54.5t-68 42.5t-78.5 38q-44 20 -87.5 43.5t-78 55.5t-56.5 75.5t-22 105.5q0 146 136.5 231t316.5 85q135 0 270 -35l5 -7l-104 -281l-38 -6zM694 1512h207l-312 -373h-70zM55 1033z" />
    <glyph glyph-name="Scircumflex.c2sc" horiz-adv-x="887" 
d="M708 960q-57 22 -125 22q-104 0 -183 -52.5t-79 -138.5q0 -41 18 -70.5t48 -52.5t68.5 -41.5t79.5 -37.5q44 -20 87.5 -43t78.5 -55t57 -75t22 -102q0 -155 -135 -244.5t-330 -89.5q-168 0 -311 48l-4 8l102 310l42 7l17 -267q79 -29 159 -29q115 0 196.5 53t81.5 145
q0 42 -18 73t-47.5 54.5t-68 42.5t-78.5 38q-44 20 -87.5 43.5t-78 55.5t-56.5 75.5t-22 105.5q0 146 136.5 231t316.5 85q135 0 270 -35l5 -7l-104 -281l-38 -6zM875 1139h-72l-176 229l-256 -229h-76l283 373h147zM55 1033z" />
    <glyph glyph-name="Scaron.c2sc" horiz-adv-x="887" 
d="M708 960q-57 22 -125 22q-104 0 -183 -52.5t-79 -138.5q0 -41 18 -70.5t48 -52.5t68.5 -41.5t79.5 -37.5q44 -20 87.5 -43t78.5 -55t57 -75t22 -102q0 -155 -135 -244.5t-330 -89.5q-168 0 -311 48l-4 8l102 310l42 7l17 -267q79 -29 159 -29q115 0 196.5 53t81.5 145
q0 42 -18 73t-47.5 54.5t-68 42.5t-78.5 38q-44 20 -87.5 43.5t-78 55.5t-56.5 75.5t-22 105.5q0 146 136.5 231t316.5 85q135 0 270 -35l5 -7l-104 -281l-38 -6zM356 1512h72l176 -229l256 229h76l-283 -373h-147zM55 1033z" />
    <glyph glyph-name="Scedilla.c2sc" horiz-adv-x="887" 
d="M170 -183l126 163q-157 3 -292 48l-4 8l102 310l42 7l17 -267q79 -29 159 -29q115 0 196.5 53t81.5 145q0 42 -18 73t-47.5 54.5t-68 42.5t-78.5 38q-44 20 -87.5 43.5t-78 55.5t-56.5 75.5t-22 105.5q0 146 136.5 231t316.5 85q135 0 270 -35l5 -7l-104 -281l-38 -6
l-20 230q-57 22 -125 22q-104 0 -183 -52.5t-79 -138.5q0 -41 18 -70.5t48 -52.5t68.5 -41.5t79.5 -37.5q44 -20 87.5 -43t78.5 -55t57 -75t22 -102q0 -141 -112.5 -228t-284.5 -103l-69 -92q103 -49 103 -131q0 -110 -202 -246l-34 38q97 76 97 147q0 73 -105 110z" />
    <glyph glyph-name="Scommaaccent.c2sc" horiz-adv-x="887" 
d="M708 960q-57 22 -125 22q-104 0 -183 -52.5t-79 -138.5q0 -41 18 -70.5t48 -52.5t68.5 -41.5t79.5 -37.5q44 -20 87.5 -43t78.5 -55t57 -75t22 -102q0 -155 -135 -244.5t-330 -89.5q-168 0 -311 48l-4 8l102 310l42 7l17 -267q79 -29 159 -29q115 0 196.5 53t81.5 145
q0 42 -18 73t-47.5 54.5t-68 42.5t-78.5 38q-44 20 -87.5 43.5t-78 55.5t-56.5 75.5t-22 105.5q0 146 136.5 231t316.5 85q135 0 270 -35l5 -7l-104 -281l-38 -6zM191 -448q101 78 101 156q0 65 -70 107q2 45 30.5 71.5t70.5 26.5q47 0 76.5 -34.5t29.5 -88.5
q0 -146 -204 -276z" />
    <glyph glyph-name="Tcaron.c2sc" horiz-adv-x="1058" 
d="M441 0q-114 0 -255 -3l9 40l141 41q25 6 30 28q16 71 37 180l128 672h-256l-129 -248l-40 -7l36 332l8 7q226 -3 434 -3h111q208 0 440 3l5 -7l-117 -325l-38 -7l-18 255h-258l-128 -672q-22 -109 -34 -180q-2 -22 20 -28l133 -41l-5 -40q-148 3 -254 3zM423 1512h72
l176 -229l256 229h76l-283 -373h-147zM122 1033z" />
    <glyph glyph-name="uni021A.c2sc" horiz-adv-x="1058" 
d="M441 0q-114 0 -255 -3l9 40l141 41q25 6 30 28q16 71 37 180l128 672h-256l-129 -248l-40 -7l36 332l8 7q226 -3 434 -3h111q208 0 440 3l5 -7l-117 -325l-38 -7l-18 255h-258l-128 -672q-22 -109 -34 -180q-2 -22 20 -28l133 -41l-5 -40q-148 3 -254 3zM266 -448
q101 78 101 156q0 65 -70 107q2 45 30.5 71.5t70.5 26.5q47 0 76.5 -34.5t29.5 -88.5q0 -146 -204 -276z" />
    <glyph glyph-name="Tbar.c2sc" horiz-adv-x="1058" 
d="M441 0q-114 0 -255 -3l9 40l141 41q25 6 30 28q16 71 37 180l35 187h-240l17 84h239l77 401h-256l-129 -248l-40 -7l36 332l8 7q226 -3 434 -3h111q208 0 440 3l5 -7l-117 -325l-38 -7l-18 255h-258l-77 -401h240l-16 -84h-240l-35 -187q-22 -109 -34 -180q-2 -22 20 -28
l133 -41l-5 -40q-148 3 -254 3z" />
    <glyph glyph-name="Ugrave.c2sc" horiz-adv-x="1247" 
d="M163 1042q121 -3 229 -3q111 0 227 3l-4 -39l-117 -35q-25 -8 -30 -28q-8 -33 -16 -71.5t-16 -83.5l-62 -335q-14 -73 -14 -133q0 -119 56.5 -182t173.5 -63q52 0 106 12.5t103 54.5q23 19 43 45.5t37.5 66t33 95t29.5 133.5l58 306q9 45 15.5 83.5t11.5 71.5
q3 20 -19 28l-104 32l5 42q118 -3 196 -3q80 0 193 3l-4 -39l-120 -37q-24 -8 -29 -31q-7 -31 -14.5 -68.5t-16.5 -85.5l-51 -270q-27 -140 -65 -241.5t-97 -167t-142 -96.5t-200 -31q-187 0 -284.5 82.5t-97.5 242.5q0 56 12 121l69 360q9 48 16 85.5t12 68.5q5 23 -17 31
l-112 37zM821 1139h-67l-183 373h192zM240 1033z" />
    <glyph glyph-name="Uacute.c2sc" horiz-adv-x="1247" 
d="M163 1042q121 -3 229 -3q111 0 227 3l-4 -39l-117 -35q-25 -8 -30 -28q-8 -33 -16 -71.5t-16 -83.5l-62 -335q-14 -73 -14 -133q0 -119 56.5 -182t173.5 -63q52 0 106 12.5t103 54.5q23 19 43 45.5t37.5 66t33 95t29.5 133.5l58 306q9 45 15.5 83.5t11.5 71.5
q3 20 -19 28l-104 32l5 42q118 -3 196 -3q80 0 193 3l-4 -39l-120 -37q-24 -8 -29 -31q-7 -31 -14.5 -68.5t-16.5 -85.5l-51 -270q-27 -140 -65 -241.5t-97 -167t-142 -96.5t-200 -31q-187 0 -284.5 82.5t-97.5 242.5q0 56 12 121l69 360q9 48 16 85.5t12 68.5q5 23 -17 31
l-112 37zM879 1512h207l-312 -373h-70zM240 1033z" />
    <glyph glyph-name="Ucircumflex.c2sc" horiz-adv-x="1247" 
d="M163 1042q121 -3 229 -3q111 0 227 3l-4 -39l-117 -35q-25 -8 -30 -28q-8 -33 -16 -71.5t-16 -83.5l-62 -335q-14 -73 -14 -133q0 -119 56.5 -182t173.5 -63q52 0 106 12.5t103 54.5q23 19 43 45.5t37.5 66t33 95t29.5 133.5l58 306q9 45 15.5 83.5t11.5 71.5
q3 20 -19 28l-104 32l5 42q118 -3 196 -3q80 0 193 3l-4 -39l-120 -37q-24 -8 -29 -31q-7 -31 -14.5 -68.5t-16.5 -85.5l-51 -270q-27 -140 -65 -241.5t-97 -167t-142 -96.5t-200 -31q-187 0 -284.5 82.5t-97.5 242.5q0 56 12 121l69 360q9 48 16 85.5t12 68.5q5 23 -17 31
l-112 37zM1060 1139h-72l-176 229l-256 -229h-76l283 373h147zM240 1033z" />
    <glyph glyph-name="Utilde.c2sc" horiz-adv-x="1247" 
d="M163 1042q121 -3 229 -3q111 0 227 3l-4 -39l-117 -35q-25 -8 -30 -28q-8 -33 -16 -71.5t-16 -83.5l-62 -335q-14 -73 -14 -133q0 -119 56.5 -182t173.5 -63q52 0 106 12.5t103 54.5q23 19 43 45.5t37.5 66t33 95t29.5 133.5l58 306q9 45 15.5 83.5t11.5 71.5
q3 20 -19 28l-104 32l5 42q118 -3 196 -3q80 0 193 3l-4 -39l-120 -37q-24 -8 -29 -31q-7 -31 -14.5 -68.5t-16.5 -85.5l-51 -270q-27 -140 -65 -241.5t-97 -167t-142 -96.5t-200 -31q-187 0 -284.5 82.5t-97.5 242.5q0 56 12 121l69 360q9 48 16 85.5t12 68.5q5 23 -17 31
l-112 37zM667 1276q-40 0 -72.5 -25.5t-72.5 -72.5l-49 38q62 100 120 151.5t115 51.5q31 0 66 -17t70 -37q32 -18 60 -32.5t50 -14.5q40 0 72.5 25.5t72.5 72.5l50 -34q-63 -104 -121 -155.5t-115 -51.5q-32 0 -67 16.5t-68 36.5q-31 18 -59.5 33t-51.5 15zM240 998z" />
    <glyph glyph-name="Udieresis.c2sc" horiz-adv-x="1247" 
d="M163 1042q121 -3 229 -3q111 0 227 3l-4 -39l-117 -35q-25 -8 -30 -28q-8 -33 -16 -71.5t-16 -83.5l-62 -335q-14 -73 -14 -133q0 -119 56.5 -182t173.5 -63q52 0 106 12.5t103 54.5q23 19 43 45.5t37.5 66t33 95t29.5 133.5l58 306q9 45 15.5 83.5t11.5 71.5
q3 20 -19 28l-104 32l5 42q118 -3 196 -3q80 0 193 3l-4 -39l-120 -37q-24 -8 -29 -31q-7 -31 -14.5 -68.5t-16.5 -85.5l-51 -270q-27 -140 -65 -241.5t-97 -167t-142 -96.5t-200 -31q-187 0 -284.5 82.5t-97.5 242.5q0 56 12 121l69 360q9 48 16 85.5t12 68.5q5 23 -17 31
l-112 37zM710 1304q0 -50 -30.5 -82t-75.5 -32t-74 29.5t-29 77.5q0 51 30.5 81.5t76.5 30.5t74 -28t28 -77zM1083 1304q0 -50 -30.5 -82t-75.5 -32t-74 29.5t-29 77.5q0 51 30.5 81.5t76.5 30.5q45 0 73.5 -28t28.5 -77zM220 938z" />
    <glyph glyph-name="Umacron.c2sc" horiz-adv-x="1247" 
d="M163 1042q121 -3 229 -3q111 0 227 3l-4 -39l-117 -35q-25 -8 -30 -28q-8 -33 -16 -71.5t-16 -83.5l-62 -335q-14 -73 -14 -133q0 -119 56.5 -182t173.5 -63q52 0 106 12.5t103 54.5q23 19 43 45.5t37.5 66t33 95t29.5 133.5l58 306q9 45 15.5 83.5t11.5 71.5
q3 20 -19 28l-104 32l5 42q118 -3 196 -3q80 0 193 3l-4 -39l-120 -37q-24 -8 -29 -31q-7 -31 -14.5 -68.5t-16.5 -85.5l-51 -270q-27 -140 -65 -241.5t-97 -167t-142 -96.5t-200 -31q-187 0 -284.5 82.5t-97.5 242.5q0 56 12 121l69 360q9 48 16 85.5t12 68.5q5 23 -17 31
l-112 37zM516 1240l21 106h520l-21 -106h-520zM220 988z" />
    <glyph glyph-name="Ubreve.c2sc" horiz-adv-x="1247" 
d="M163 1042q121 -3 229 -3q111 0 227 3l-4 -39l-117 -35q-25 -8 -30 -28q-8 -33 -16 -71.5t-16 -83.5l-62 -335q-14 -73 -14 -133q0 -119 56.5 -182t173.5 -63q52 0 106 12.5t103 54.5q23 19 43 45.5t37.5 66t33 95t29.5 133.5l58 306q9 45 15.5 83.5t11.5 71.5
q3 20 -19 28l-104 32l5 42q118 -3 196 -3q80 0 193 3l-4 -39l-120 -37q-24 -8 -29 -31q-7 -31 -14.5 -68.5t-16.5 -85.5l-51 -270q-27 -140 -65 -241.5t-97 -167t-142 -96.5t-200 -31q-187 0 -284.5 82.5t-97.5 242.5q0 56 12 121l69 360q9 48 16 85.5t12 68.5q5 23 -17 31
l-112 37zM622 1490q0 -99 44.5 -150.5t129.5 -51.5q87 0 146 50.5t92 143.5l69 7q-21 -146 -107 -241q-85 -94 -220 -94q-111 0 -169 64.5t-58 187.5q0 35 6 76zM240 1033z" />
    <glyph glyph-name="Uring.c2sc" horiz-adv-x="1247" 
d="M163 1042q121 -3 229 -3q111 0 227 3l-4 -39l-117 -35q-25 -8 -30 -28q-8 -33 -16 -71.5t-16 -83.5l-62 -335q-14 -73 -14 -133q0 -119 56.5 -182t173.5 -63q52 0 106 12.5t103 54.5q23 19 43 45.5t37.5 66t33 95t29.5 133.5l58 306q9 45 15.5 83.5t11.5 71.5
q3 20 -19 28l-104 32l5 42q118 -3 196 -3q80 0 193 3l-4 -39l-120 -37q-24 -8 -29 -31q-7 -31 -14.5 -68.5t-16.5 -85.5l-51 -270q-27 -140 -65 -241.5t-97 -167t-142 -96.5t-200 -31q-187 0 -284.5 82.5t-97.5 242.5q0 56 12 121l69 360q9 48 16 85.5t12 68.5q5 23 -17 31
l-112 37zM775 1139q-91 0 -144.5 41.5t-53.5 115.5q0 96 77 159.5t179 63.5q83 0 139.5 -43.5t56.5 -116.5q0 -97 -73.5 -158.5t-180.5 -61.5zM786 1200q59 0 95 42t36 108q0 48 -24 78t-71 30q-61 0 -97 -43t-36 -109q0 -46 25 -76t72 -30zM240 1033z" />
    <glyph glyph-name="Uhungarumlaut.c2sc" horiz-adv-x="1247" 
d="M163 1042q121 -3 229 -3q111 0 227 3l-4 -39l-117 -35q-25 -8 -30 -28q-8 -33 -16 -71.5t-16 -83.5l-62 -335q-14 -73 -14 -133q0 -119 56.5 -182t173.5 -63q52 0 106 12.5t103 54.5q23 19 43 45.5t37.5 66t33 95t29.5 133.5l58 306q9 45 15.5 83.5t11.5 71.5
q3 20 -19 28l-104 32l5 42q118 -3 196 -3q80 0 193 3l-4 -39l-120 -37q-24 -8 -29 -31q-7 -31 -14.5 -68.5t-16.5 -85.5l-51 -270q-27 -140 -65 -241.5t-97 -167t-142 -96.5t-200 -31q-187 0 -284.5 82.5t-97.5 242.5q0 56 12 121l69 360q9 48 16 85.5t12 68.5q5 23 -17 31
l-112 37zM725 1512h197l-288 -373h-70zM1027 1512h197l-290 -373h-70zM240 1033z" />
    <glyph glyph-name="Uogonek.c2sc" horiz-adv-x="1247" 
d="M163 1042q121 -3 229 -3q111 0 227 3l-4 -39l-117 -35q-25 -8 -30 -28q-8 -33 -16 -71.5t-16 -83.5l-62 -335q-14 -73 -14 -133q0 -119 56.5 -182t173.5 -63q52 0 106 12.5t103 54.5q23 19 43 45.5t37.5 66t33 95t29.5 133.5l58 306q9 45 15.5 83.5t11.5 71.5
q3 20 -19 28l-104 32l5 42q118 -3 196 -3q80 0 193 3l-4 -39l-120 -37q-24 -8 -29 -31q-7 -31 -14.5 -68.5t-16.5 -85.5l-51 -270q-48 -251 -129.5 -369t-230.5 -152h2q-146 -78 -146 -223q0 -71 44 -104.5t124 -34.5q22 0 42 2l4 -37q-136 -47 -204 -47q-76 0 -120.5 45
t-44.5 118q0 151 173 266q-205 0 -302.5 82.5t-97.5 242.5q0 56 12 121l69 360q9 48 16 85.5t12 68.5q5 23 -17 31l-112 37z" />
    <glyph glyph-name="Wgrave.c2sc" horiz-adv-x="1630" 
d="M985 -6l-122 761l-417 -755l-88 -7l-119 883q-6 43 -20.5 67t-46.5 34l-84 26l7 39q101 -3 212 -3q112 0 251 3l-4 -39l-101 -29q-33 -8 -33 -56q0 -25 11 -109l67 -541l419 773l73 5l134 -785l293 581q21 44 32 69.5t11 40.5q0 12 -7 17t-22 9l-85 23l5 42
q111 -3 201 -3q99 0 191 3l-4 -39l-95 -30q-29 -8 -49 -26t-43 -61l-479 -886zM1006 1139h-67l-183 373h192zM425 1033z" />
    <glyph glyph-name="Wacute.c2sc" horiz-adv-x="1630" 
d="M985 -6l-122 761l-417 -755l-88 -7l-119 883q-6 43 -20.5 67t-46.5 34l-84 26l7 39q101 -3 212 -3q112 0 251 3l-4 -39l-101 -29q-33 -8 -33 -56q0 -25 11 -109l67 -541l419 773l73 5l134 -785l293 581q21 44 32 69.5t11 40.5q0 12 -7 17t-22 9l-85 23l5 42
q111 -3 201 -3q99 0 191 3l-4 -39l-95 -30q-29 -8 -49 -26t-43 -61l-479 -886zM1064 1512h207l-312 -373h-70zM425 1033z" />
    <glyph glyph-name="Wcircumflex.c2sc" horiz-adv-x="1630" 
d="M985 -6l-122 761l-417 -755l-88 -7l-119 883q-6 43 -20.5 67t-46.5 34l-84 26l7 39q101 -3 212 -3q112 0 251 3l-4 -39l-101 -29q-33 -8 -33 -56q0 -25 11 -109l67 -541l419 773l73 5l134 -785l293 581q21 44 32 69.5t11 40.5q0 12 -7 17t-22 9l-85 23l5 42
q111 -3 201 -3q99 0 191 3l-4 -39l-95 -30q-29 -8 -49 -26t-43 -61l-479 -886zM1245 1139h-72l-176 229l-256 -229h-76l283 373h147zM425 1033z" />
    <glyph glyph-name="Wdieresis.c2sc" horiz-adv-x="1630" 
d="M985 -6l-122 761l-417 -755l-88 -7l-119 883q-6 43 -20.5 67t-46.5 34l-84 26l7 39q101 -3 212 -3q112 0 251 3l-4 -39l-101 -29q-33 -8 -33 -56q0 -25 11 -109l67 -541l419 773l73 5l134 -785l293 581q21 44 32 69.5t11 40.5q0 12 -7 17t-22 9l-85 23l5 42
q111 -3 201 -3q99 0 191 3l-4 -39l-95 -30q-29 -8 -49 -26t-43 -61l-479 -886zM895 1304q0 -50 -30.5 -82t-75.5 -32t-74 29.5t-29 77.5q0 51 30.5 81.5t76.5 30.5t74 -28t28 -77zM1268 1304q0 -50 -30.5 -82t-75.5 -32t-74 29.5t-29 77.5q0 51 30.5 81.5t76.5 30.5
q45 0 73.5 -28t28.5 -77zM405 938z" />
    <glyph glyph-name="Ygrave.c2sc" horiz-adv-x="1038" 
d="M575 520l212 290q32 45 56 80.5t24 54.5q0 24 -34 33l-82 22l6 42q103 -3 209 -3q101 0 194 3l-4 -39l-95 -30q-35 -11 -57.5 -33t-47.5 -54l-351 -456l-28 -146q-11 -55 -19 -100.5t-15 -82.5q-3 -23 26 -32l104 -32l-7 -40q-122 3 -231 3t-224 -3l4 40l115 34
q28 8 32 29q8 36 17 82.5t20 101.5l27 142l-172 434q-11 28 -22 48t-19 33q-17 26 -50 36l-84 26l6 39q87 -3 228 -3q112 0 243 3l-3 -39l-89 -24q-22 -5 -33 -16t-11 -31q0 -25 31 -102zM716 1139h-67l-183 373h192zM135 1033z" />
    <glyph glyph-name="Yacute.c2sc" horiz-adv-x="1038" 
d="M575 520l212 290q32 45 56 80.5t24 54.5q0 24 -34 33l-82 22l6 42q103 -3 209 -3q101 0 194 3l-4 -39l-95 -30q-35 -11 -57.5 -33t-47.5 -54l-351 -456l-28 -146q-11 -55 -19 -100.5t-15 -82.5q-3 -23 26 -32l104 -32l-7 -40q-122 3 -231 3t-224 -3l4 40l115 34
q28 8 32 29q8 36 17 82.5t20 101.5l27 142l-172 434q-11 28 -22 48t-19 33q-17 26 -50 36l-84 26l6 39q87 -3 228 -3q112 0 243 3l-3 -39l-89 -24q-22 -5 -33 -16t-11 -31q0 -25 31 -102zM774 1512h207l-312 -373h-70zM135 1033z" />
    </font>
</defs>
</svg>
