<svg id="Слой_1" data-name="Слой 1" xmlns="http://www.w3.org/2000/svg" width="36" height="36" viewBox="0 0 36 36"><defs><style>.cls-1{fill:#e16d4d;}.cls-2{fill:#fff;}</style></defs><title>g+</title><circle class="cls-1" cx="18" cy="18" r="18"/><path class="cls-2" d="M13.39063,17.07813v2.2125h3.65984a3.48563,3.48563,0,0,1-3.65984,2.78406,4.07537,4.07537,0,0,1,0-8.14938,3.63156,3.63156,0,0,1,2.572.99562l1.75156-1.687a6.18575,6.18575,0,0,0-4.32359-1.687,6.45312,6.45312,0,0,0,0,12.90625,5.95312,5.95312,0,0,0,6.19592-6.30563,5.92937,5.92937,0,0,0-.10233-1.06937H13.39063Zm0,0L29.0625,18.92187H26.29688V21.6875H24.45313V18.92187H21.6875V17.07813h2.76562V14.3125h1.84375v2.76562H29.0625v1.84375Z"/></svg>