<svg id="Слой_1" data-name="Слой 1" xmlns="http://www.w3.org/2000/svg" width="36" height="36" viewBox="0 0 36 36"><defs><style>.cls-1{fill:#e89b4b;}.cls-2{fill:#fff;}</style></defs><title>odn</title><circle class="cls-1" cx="18" cy="18" r="18"/><path class="cls-2" d="M18.00012,11.14281a2.10061,2.10061,0,1,1-2.10113,2.101A2.10322,2.10322,0,0,1,18.00012,11.14281Zm0,7.17423a5.07415,5.07415,0,1,0-5.07453-5.0732A5.07882,5.07882,0,0,0,18.00012,18.317Z"/><path class="cls-2" d="M20.05316,22.45657A9.50386,9.50386,0,0,0,23,21.23617a1.4873,1.4873,0,0,0-1.584-2.51776,6.44333,6.44333,0,0,1-6.83227,0,1.4873,1.4873,0,0,0-1.584,2.51776,9.51668,9.51668,0,0,0,2.94673,1.2204l-2.837,2.83706A1.487,1.487,0,0,0,15.21288,27.396l2.78658-2.7879,2.789,2.7879a1.48637,1.48637,0,0,0,2.10171-2.10237l-2.83706-2.83706"/><path class="cls-2" d="M18.00012,11.14261A2.10066,2.10066,0,1,1,15.899,13.24374,2.1033,2.1033,0,0,1,18.00012,11.14261Zm0,7.17415a5.07407,5.07407,0,1,0-5.07453-5.073A5.07867,5.07867,0,0,0,18.00012,18.31677Z"/><path class="cls-2" d="M20.05316,22.45648A9.50409,9.50409,0,0,0,23,21.236a1.4873,1.4873,0,0,0-1.584-2.51776,6.44211,6.44211,0,0,1-6.83227,0,1.4873,1.4873,0,0,0-1.584,2.51776,9.51691,9.51691,0,0,0,2.94673,1.2205l-2.837,2.83706a1.487,1.487,0,0,0,2.10349,2.10227l2.78658-2.7878,2.789,2.7878a1.48633,1.48633,0,0,0,2.10171-2.10227l-2.83706-2.83706"/></svg>